<svg width="88" height="226" viewBox="0 0 88 226" fill="none" xmlns="http://www.w3.org/2000/svg">
<path fill-rule="evenodd" clip-rule="evenodd" d="M0 3.91076V2.88177C15.3606 -0.840207 31.4242 -0.752939 45.4255 7.14861C56.2249 13.2432 60.1347 23.1995 60.6145 34.7788C61.093 46.329 58.1649 59.576 55.2302 72.3772C55.1746 72.6197 55.119 72.862 55.0635 73.1041C55.0074 73.3485 54.9513 73.5927 54.8953 73.8368C52.0671 86.1562 49.3541 97.974 49.6976 107.533C49.8758 112.49 50.8762 116.791 53.0737 120.221C55.2638 123.639 58.6718 126.236 63.7567 127.744C74.3587 130.887 82.2443 141.496 85.6442 154.515C89.0488 167.552 87.9945 183.125 80.5965 196.368C73.1891 209.627 59.4456 220.507 37.5658 224.173C27.0049 225.942 14.5518 226.031 0 223.901V222.891C14.5261 225.029 26.9217 224.942 37.4006 223.187C59.004 219.567 72.4751 208.855 79.7234 195.88C86.9812 182.889 88.0239 167.585 84.6766 154.768C81.3248 141.932 73.6098 131.708 63.4725 128.702C58.1879 127.136 54.5676 124.406 52.2317 120.76C49.9033 117.126 48.8802 112.628 48.6983 107.569C48.3498 97.8742 51.09 85.9404 53.9036 73.6871L53.9036 73.687C54.0209 73.1764 54.1382 72.6653 54.2555 72.1538C57.1969 59.3234 60.0873 46.2118 59.6153 34.8202C59.1445 23.4578 55.3347 13.8891 44.934 8.0195C31.1559 0.243871 15.277 0.167733 0 3.91076Z" fill="#F6A733"/>
</svg>
