<svg width="75" height="61" viewBox="0 0 75 61" fill="none" xmlns="http://www.w3.org/2000/svg">
<g clip-path="url(#clip0)">
<path d="M24.6398 55.0916C20.2798 55.0517 15.9198 54.9319 11.5598 54.7722C11.8398 56.4888 12.4798 58.1655 13.8398 59.3233C15.1198 60.4011 16.9598 60.8004 18.6398 60.6007C20.3198 60.4011 21.9198 59.6027 23.2398 58.5648C24.3598 57.7264 24.3598 56.4489 24.6398 55.0916Z" fill="#98BCC2"/>
<path d="M65.2394 55.4511C60.8794 55.4112 56.5194 55.2914 52.1594 55.1317C52.4394 56.8883 53.0794 58.525 54.4394 59.6828C55.7194 60.7606 57.5594 61.1599 59.2394 60.9602C60.9194 60.7606 62.5194 59.9622 63.8394 58.9243C64.9594 58.046 64.9994 56.8084 65.2394 55.4511Z" fill="#98BCC2"/>
<path d="M4.31987 19.0425C3.87987 19.6014 3.59987 20.2402 3.31987 20.8789C2.39987 23.1544 1.47987 25.43 0.519872 27.7055C0.199872 28.464 -0.120128 29.3024 0.0398723 30.1407C0.199872 31.0988 0.999872 31.8573 1.75987 32.536C1.87987 32.6158 1.99987 32.7356 2.11987 32.7755C2.51987 32.8554 2.83987 32.4561 3.03987 32.0969C4.43987 29.1826 4.87987 25.9489 6.23987 23.0347C6.51987 22.4758 6.83987 21.877 7.35987 21.5177C7.59987 21.358 7.83987 21.2382 7.99987 21.0785C8.23987 20.8789 8.35987 20.5595 8.43987 20.2801C9.47987 17.0465 5.91987 17.0864 4.31987 19.0425Z" fill="#98BCC2"/>
<path d="M70.6 18.8029C71.04 19.3618 71.32 20.0005 71.6 20.6392C72.56 22.9148 73.52 25.1504 74.44 27.4259C74.76 28.1844 75.12 29.0227 74.96 29.8611C74.8 30.8591 74 31.5777 73.24 32.2564C73.12 32.3362 73 32.456 72.88 32.4959C72.48 32.6157 72.16 32.1765 71.96 31.8173C70.52 28.9429 70.08 25.6693 68.68 22.7551C68.4 22.1962 68.08 21.5974 67.52 21.2381C67.32 21.1183 67.08 20.9985 66.88 20.8388C66.64 20.6392 66.52 20.3199 66.4 20.0404C65.44 16.8467 69 16.8467 70.6 18.8029Z" fill="#98BCC2"/>
<path d="M62.4796 30.0209C62.3196 31.2984 62.0796 32.6558 61.1196 33.574C59.9996 34.6119 58.2396 34.7716 56.6396 34.8514C43.0396 35.4902 29.4396 35.4503 15.8396 34.7317C14.9596 34.6918 13.9596 34.572 13.4796 33.9332C13.1596 33.534 13.0796 32.9751 13.0796 32.4562C12.8396 28.1846 13.0796 23.873 13.8396 19.6813C14.3196 16.9666 14.5996 13.0543 17.4396 11.4575C20.1596 9.94044 24.6796 9.74084 27.7196 9.50131C32.5196 9.06217 37.3596 9.26178 42.1596 9.42146C47.5596 9.62107 53.0796 9.82068 58.1996 11.4974C58.9196 11.7369 59.6796 12.0164 60.2396 12.5353C60.8396 13.1342 61.0796 13.8927 61.2796 14.6911C62.6396 19.6813 63.0396 24.911 62.4796 30.0209ZM61.2796 44.5923C61.2396 45.0314 61.1596 45.4705 60.9996 45.8698C60.5996 46.8678 59.6796 47.5864 58.6396 47.9058C57.5996 48.2251 56.4796 48.1852 55.4396 47.9856C53.9596 47.7062 52.4396 47.0674 51.7596 45.75C51.1596 44.6322 51.3596 43.2349 51.7996 42.0373C52.0796 41.3187 52.4396 40.6401 52.9996 40.1211C55.7596 37.5661 58.5596 39.8815 60.4396 41.9575C60.7196 42.2768 60.9996 42.5962 61.1596 42.9555C61.3996 43.4745 61.3196 44.0334 61.2796 44.5923ZM26.3596 44.752C26.3196 45.1911 26.2396 45.6302 26.0796 46.0294C25.6796 47.0275 24.7596 47.7461 23.7196 48.0654C22.6796 48.3848 21.5596 48.3449 20.5196 48.1453C19.0396 47.8658 17.5196 47.2271 16.8396 45.9097C16.2396 44.7919 16.4396 43.3946 16.8796 42.197C17.1596 41.4784 17.5196 40.7997 18.0796 40.2808C20.8396 37.7258 23.6396 40.0412 25.5196 42.1171C25.7996 42.4365 26.0796 42.7559 26.2396 43.1152C26.4796 43.5942 26.3996 44.1931 26.3596 44.752ZM29.5596 4.07199C31.5996 4.03207 33.6396 3.99215 35.7196 3.95222C38.0396 3.9123 40.3596 3.87238 42.6796 4.15183C44.5596 4.35144 46.3996 4.79058 48.1996 5.34948C48.3196 5.3894 48.3996 5.42932 48.4796 5.46924C48.7196 5.66885 48.5996 6.10798 48.3196 6.26767C48.0396 6.46728 47.6796 6.46728 47.3596 6.42736C43.3596 6.38743 39.3196 6.26767 35.2396 6.14791C33.6396 6.10798 30.4796 6.58704 29.0396 5.90838C27.5196 5.22971 27.6396 4.07199 29.5596 4.07199ZM65.5996 9.42146C64.8796 6.58704 63.9596 3.51309 61.5596 1.75654C59.2796 0.119764 56.1996 0 53.3596 0C44.1196 0 34.8396 0.359293 25.5996 1.1178C22.1996 1.39725 15.9196 0.878272 13.0396 2.67474C10.0396 4.51113 9.39957 9.3017 8.95957 12.3757C7.31957 24.7114 6.79957 37.1669 7.47957 49.5825C7.55957 50.8999 7.71957 52.377 8.79957 53.1754C9.59957 53.7742 10.6796 53.7742 11.6796 53.8141C29.8396 53.9738 47.9996 54.1335 66.1996 54.2932C66.8396 54.2932 67.5196 54.2932 68.0796 53.9339C68.9196 53.4149 69.0796 52.2971 69.1596 51.339C70.1196 37.3266 68.9196 23.1145 65.5996 9.42146Z" fill="#98BCC2"/>
</g>
<defs>
<clipPath id="clip0">
<rect width="75" height="61" fill="white"/>
</clipPath>
</defs>
</svg>
