<svg width="101" height="59" viewBox="0 0 101 59" fill="none" xmlns="http://www.w3.org/2000/svg">
<g clip-path="url(#clip0)">
<path d="M7.93781 49.2919H31.5688C32.2996 52.4805 30.0461 55.8722 27.1836 57.4767C24.3211 59.0609 20.8699 59.2031 17.6216 58.8375C16.3223 58.6953 15.0433 58.4719 13.8252 58.0251C10.1304 56.6034 7.8363 53.2523 7.93781 49.2919Z" fill="#F3AC3D"/>
<path d="M66.6497 49.2919H90.2807C91.0115 52.4805 88.7581 55.8722 85.8955 57.4767C83.033 59.0609 79.5818 59.2031 76.3335 58.8375C75.0342 58.6953 73.7552 58.4719 72.5372 58.0251C68.8423 56.6034 66.5482 53.2523 66.6497 49.2919Z" fill="#F3AC3D"/>
<path d="M98.4824 31.3177C98.4215 32.0285 98.3809 32.78 98.056 33.4096C97.447 34.6282 95.8229 35.2375 94.5439 34.7094C93.7115 34.3642 93.1025 33.633 92.5949 32.8815C91.9656 31.9473 91.4377 30.9115 91.4174 29.7741C91.4174 29.3679 91.4783 28.9617 91.6611 28.6165C92.1686 27.6822 93.3664 27.4182 94.4221 27.4588C96.9394 27.6213 98.6854 28.6774 98.4824 31.3177ZM69.2279 27.8447C59.9095 27.6822 50.5911 27.5197 41.2727 27.3573C40.887 21.8939 41.0494 16.3697 41.6991 10.9469C41.8006 10.1549 41.9427 9.30185 42.5314 8.81441C42.9984 8.44883 43.6074 8.40822 44.1758 8.38791C47.7895 8.28636 56.0116 6.33661 59.0568 8.50976C61.6757 10.3986 69.7354 24.7576 69.2279 27.8447ZM51.8295 34.1001C51.7686 34.4251 51.3829 34.5469 51.058 34.6079C49.5151 34.9328 47.9722 35.2172 46.3887 35.2781C45.5969 35.2984 42.3284 35.3796 42.0036 34.4251C41.3945 32.6175 48.3985 33.2065 49.0279 33.1862C49.7181 33.1659 50.3881 33.1659 51.058 33.308C51.4438 33.4096 51.9107 33.6939 51.8295 34.1001ZM36.0755 14.9886C35.6695 18.421 35.2432 21.8736 34.8371 25.3263C34.7762 25.7528 34.7153 26.2199 34.4108 26.5449C34.0251 26.9511 33.3957 26.9511 32.8476 26.9308C26.5947 26.748 20.3216 26.5449 14.0484 26.3621C13.7439 23.7827 13.48 20.9394 14.9417 18.7662C15.6319 17.7101 16.6876 16.9383 17.723 16.2478C22.575 12.9576 28.361 10.3173 34.1672 9.34247C38.0042 8.67224 36.4004 12.1452 36.0755 14.9886ZM100.736 27.9666C100.472 27.4385 99.9441 27.0932 99.4568 26.7886C94.5439 23.864 88.4737 23.9249 82.769 23.7421C80.9419 23.6812 78.9726 23.539 77.5718 22.3611C76.7598 21.6705 76.2116 20.716 75.7041 19.7817C74.283 17.2024 72.8822 14.623 71.4611 12.0437C70.04 9.46432 68.6188 6.88498 66.5075 4.87431C60.7825 -0.568721 51.8904 -0.304694 44.0134 0.32491C36.8064 0.893585 8.99332 7.69737 6.82106 14.2168C3.08559 25.4278 1.42086 30.3428 0.121566 42.0616C-0.0205442 43.2802 -0.122052 44.58 0.405787 45.697C1.62388 48.2561 5.17664 47.9311 8.01885 47.9311C36.7658 47.9514 61.5133 48.2561 90.4227 48.053C93.8942 48.0327 97.4673 48.1545 99.4365 45.3111C100.472 43.8082 100.573 41.8991 100.634 40.0712C100.756 36.6389 100.878 33.1862 100.979 29.7538C101 29.1445 101.02 28.5149 100.736 27.9666Z" fill="#F3AC3D"/>
</g>
<defs>
<clipPath id="clip0">
<rect width="101" height="59" fill="white"/>
</clipPath>
</defs>
</svg>
