<svg width="47" height="47" viewBox="0 0 47 47" fill="none" xmlns="http://www.w3.org/2000/svg">
<circle cx="23.5" cy="23.5" r="23" stroke="#F69C00"/>
<path d="M19.3566 16V30H17.3766V17.74H14.2166V16H19.3566ZM32.259 28.26V30H22.199V28.64L27.899 23.14C28.5923 22.4733 29.059 21.9 29.299 21.42C29.539 20.9267 29.659 20.4333 29.659 19.94C29.659 19.2067 29.399 18.64 28.879 18.24C28.3723 17.8267 27.639 17.62 26.679 17.62C25.1323 17.62 23.939 18.1267 23.099 19.14L21.739 17.96C22.2857 17.2933 22.999 16.7733 23.879 16.4C24.7723 16.0267 25.7657 15.84 26.859 15.84C28.3257 15.84 29.4923 16.1933 30.359 16.9C31.2257 17.5933 31.659 18.54 31.659 19.74C31.659 20.4867 31.499 21.1933 31.179 21.86C30.859 22.5267 30.2523 23.2867 29.359 24.14L25.079 28.26H32.259Z" fill="white"/>
</svg>
