<svg width="47" height="47" viewBox="0 0 47 47" fill="none" xmlns="http://www.w3.org/2000/svg">
<circle cx="23.5" cy="23.5" r="23" stroke="#C1CEC5"/>
<path d="M19.3566 16V30H17.3766V17.74H14.2166V16H19.3566ZM26.419 21.58C28.419 21.58 29.8857 21.96 30.819 22.72C31.7657 23.4667 32.239 24.4933 32.239 25.8C32.239 26.6267 32.039 27.3733 31.639 28.04C31.2523 28.6933 30.659 29.2133 29.859 29.6C29.0723 29.9733 28.099 30.16 26.939 30.16C25.9523 30.16 24.999 30.0133 24.079 29.72C23.159 29.4133 22.399 28.9933 21.799 28.46L22.719 26.88C23.199 27.3333 23.8123 27.7 24.559 27.98C25.3057 28.2467 26.0923 28.38 26.919 28.38C27.9723 28.38 28.7857 28.16 29.359 27.72C29.9457 27.2667 30.239 26.6533 30.239 25.88C30.239 25.04 29.919 24.4067 29.279 23.98C28.639 23.54 27.5457 23.32 25.999 23.32H22.819L23.559 16H31.459V17.74H25.239L24.859 21.58H26.419Z" fill="white"/>
</svg>
