<svg width="47" height="47" viewBox="0 0 47 47" fill="none" xmlns="http://www.w3.org/2000/svg">
<circle cx="23.5" cy="23.5" r="23" stroke="#C1CEC5"/>
<path d="M18.6633 16V30H16.6833V17.74H13.5233V16H18.6633ZM30.2856 22.66C31.0856 22.9667 31.699 23.4067 32.1256 23.98C32.5523 24.5533 32.7656 25.24 32.7656 26.04C32.7656 26.88 32.539 27.6133 32.0856 28.24C31.6323 28.8533 30.9856 29.3267 30.1456 29.66C29.3056 29.9933 28.319 30.16 27.1856 30.16C26.0656 30.16 25.0856 29.9933 24.2456 29.66C23.419 29.3267 22.779 28.8533 22.3256 28.24C21.8723 27.6133 21.6456 26.88 21.6456 26.04C21.6456 25.24 21.8523 24.5533 22.2656 23.98C22.6923 23.4067 23.3056 22.9667 24.1056 22.66C23.4656 22.3533 22.979 21.9467 22.6456 21.44C22.3123 20.9333 22.1456 20.3333 22.1456 19.64C22.1456 18.8667 22.3523 18.1933 22.7656 17.62C23.1923 17.0467 23.7856 16.6067 24.5456 16.3C25.3056 15.9933 26.1856 15.84 27.1856 15.84C28.199 15.84 29.0856 15.9933 29.8456 16.3C30.619 16.6067 31.2123 17.0467 31.6256 17.62C32.0523 18.1933 32.2656 18.8667 32.2656 19.64C32.2656 20.32 32.0923 20.92 31.7456 21.44C31.4123 21.9467 30.9256 22.3533 30.2856 22.66ZM27.1856 17.46C26.239 17.46 25.4923 17.6667 24.9456 18.08C24.399 18.48 24.1256 19.0267 24.1256 19.72C24.1256 20.4133 24.3923 20.96 24.9256 21.36C25.4723 21.76 26.2256 21.96 27.1856 21.96C28.159 21.96 28.919 21.76 29.4656 21.36C30.0256 20.96 30.3056 20.4133 30.3056 19.72C30.3056 19.0267 30.019 18.48 29.4456 18.08C28.8856 17.6667 28.1323 17.46 27.1856 17.46ZM27.1856 28.54C28.2923 28.54 29.1656 28.3133 29.8056 27.86C30.4456 27.3933 30.7656 26.7667 30.7656 25.98C30.7656 25.2067 30.4456 24.6 29.8056 24.16C29.1656 23.7067 28.2923 23.48 27.1856 23.48C26.079 23.48 25.2123 23.7067 24.5856 24.16C23.959 24.6 23.6456 25.2067 23.6456 25.98C23.6456 26.7667 23.959 27.3933 24.5856 27.86C25.2123 28.3133 26.079 28.54 27.1856 28.54Z" fill="white"/>
</svg>
