<?xml version="1.0" encoding="utf-8"?>
<!-- Generator: Adobe Illustrator 24.0.2, SVG Export Plug-In . SVG Version: 6.00 Build 0)  -->
<svg version="1.1" id="Capa_1" xmlns="http://www.w3.org/2000/svg" xmlns:xlink="http://www.w3.org/1999/xlink" x="0px" y="0px"
	 viewBox="0 0 40 44.4" style="enable-background:new 0 0 40 44.4;" xml:space="preserve">
<style type="text/css">
	.st0{fill:#F6B8A9;}
	.st1{fill:#4F3D80;}
	.st2{fill:none;}
</style>
<path class="st0" d="M25.2,43.2c-3.4,0.8-6.1,1.2-8.5,1.2c-3.5,0-6.3-0.8-8.7-2.6c-3.7-2.7-6.5-7-7.5-11.6C-2.3,16.8,3,5.8,14.8,1
	c1.6-0.7,3.4-1,5.2-1c4.2,0,8.9,1.7,12.8,4.7c3.2,2.5,5.4,5.7,6.5,9.6c0.6,2.2,0.9,4.6,0.9,7.2C40.2,28.2,38.2,40,25.2,43.2"/>
<path class="st1" d="M36.2,15.9c-0.9-3.3-2.8-6-5.4-8c-3.3-2.5-7.2-4-10.7-4c-1.5,0-3,0.3-4.3,0.8c-10,4.1-14.4,13.4-12,24.8
	C4.6,33.4,7,37,10,39.2c1.9,1.4,4.3,2.1,7.1,2.1c2,0,4.3-0.3,7.3-1.1C35.2,37.5,36.9,27.6,37,22C37,19.8,36.7,17.7,36.2,15.9"/>
<rect x="-0.2" class="st2" width="40.4" height="44.4"/>
<polygon class="st0" points="17.7,26.9 19.6,25.8 19.6,23.2 17.7,24.2 "/>
<polygon class="st0" points="15,30.1 16.8,29.1 16.8,27.9 15,26.9 "/>
<polygon class="st0" points="17.3,21.4 15.4,22.4 17.3,23.4 19.1,22.4 "/>
<polygon class="st0" points="16.3,16.9 7.6,12.1 7.6,14 14.5,17.9 "/>
<path class="st0" d="M14.2,22.8l-0.1-0.1l0,0l0,0c0,0,0,0,0-0.1v-0.1l0,0v-3.7l-6.4-3.6v11.4l6.4,3.6v-4l0,0v-0.1V26l0,0l0,0
	c0.1-0.1,0.1-0.1,0.2-0.2h0.1c0,0,0,0,0.1,0l0,0c0.1,0,0.1,0,0.2,0l0,0l2.1,1.2v-2.6L14.2,22.8C14.3,22.8,14.2,22.8,14.2,22.8"/>
<polygon class="st0" points="15,21.6 16.8,20.6 16.8,19.8 16.8,17.7 15,18.7 "/>
<polygon class="st0" points="24.6,24.3 22.8,23.3 22.8,26 24.6,26.9 "/>
<polygon class="st0" points="25.1,30 23.4,30.9 25.1,31.7 26.8,30.9 "/>
<polygon class="st0" points="27.4,27 25.6,27.9 25.6,29.2 27.4,30.1 "/>
<path class="st0" d="M25.6,26.9l2.1-1.1l0,0c0.1,0,0.1,0,0.2,0l0,0c0,0,0,0,0.1,0h0.1c0.1,0,0.1,0.1,0.1,0.1s0,0,0.1,0.1l0,0l0,0
	c0,0.1,0,0.1,0,0.2l0,0v4.6c0,0,0,0,0,0.1s0,0.2-0.1,0.2c0,0,0,0-0.1,0.1l0,0H28l-2.5,1.3v3.1l7.8-4V20.1l-7.8,4.1L25.6,26.9
	L25.6,26.9z"/>
<polygon class="st0" points="23.3,22.6 25.1,23.5 33.4,19.1 33.4,16.9 "/>
<polygon class="st0" points="22.8,34.7 24.6,35.7 24.6,32.5 22.8,31.6 "/>
</svg>
