<?xml version="1.0" encoding="utf-8"?>
<!-- Generator: Adobe Illustrator 24.0.2, SVG Export Plug-In . SVG Version: 6.00 Build 0)  -->
<svg version="1.1" id="Capa_1" xmlns="http://www.w3.org/2000/svg" xmlns:xlink="http://www.w3.org/1999/xlink" x="0px" y="0px"
	 viewBox="0 0 40 44.4" style="enable-background:new 0 0 40 44.4;" xml:space="preserve">
<style type="text/css">
	.st0{fill:#F6B8A9;}
	.st1{fill:#4F3D80;}
	.st2{fill:none;}
</style>
<path class="st0" d="M25.2,43.2c-3.4,0.8-6.1,1.2-8.5,1.2c-3.5,0-6.3-0.8-8.7-2.6c-3.7-2.7-6.5-7-7.5-11.6C-2.3,16.8,3,5.8,14.8,1
	c1.6-0.7,3.4-1,5.2-1c4.2,0,8.9,1.7,12.8,4.7c3.2,2.5,5.4,5.7,6.5,9.6c0.6,2.2,0.9,4.6,0.9,7.2C40.2,28.2,38.2,40,25.2,43.2"/>
<path class="st1" d="M36.2,15.9c-0.9-3.3-2.8-6-5.4-8c-3.3-2.5-7.2-4-10.7-4c-1.5,0-3,0.3-4.3,0.8c-10,4.1-14.4,13.4-12,24.8
	C4.6,33.4,7,37,10,39.2c1.9,1.4,4.3,2.1,7.1,2.1c2,0,4.3-0.3,7.3-1.1C35.2,37.5,36.9,27.6,37,22C37,19.8,36.7,17.7,36.2,15.9"/>
<rect x="-0.2" class="st2" width="40.4" height="44.4"/>
<path class="st0" d="M33.3,18.6h-6.2l-4.7-7.9c-0.2-0.4-0.7-0.5-1.1-0.3s-0.5,0.7-0.3,1.1l4.2,7H14.9l4.2-7c0.2-0.4,0.1-0.9-0.3-1.1
	s-0.9-0.1-1.1,0.3L13,18.6H6.8C6.3,18.6,6,19,6,19.4v1.7c0,0.5,0.4,0.8,0.8,0.8h26.6c0.5,0,0.8-0.4,0.8-0.8v-1.7
	C34.1,19,33.8,18.6,33.3,18.6z"/>
<path class="st0" d="M32.4,23.6H7.7l1.1,6.5c0.3,2,2.1,3.5,4.1,3.5h14.2c2,0,3.7-1.5,4.1-3.5L32.4,23.6z M14.9,31
	c-0.4,0-0.9-0.3-0.9-0.8l-0.3-3.3c0-0.5,0.3-0.9,0.8-0.9c0.5-0.1,0.9,0.3,0.9,0.8l0.3,3.3C15.7,30.5,15.3,30.9,14.9,31 M20.9,30.2
	c0,0.5-0.4,0.8-0.8,0.8s-0.8-0.4-0.8-0.8v-3.3c0-0.5,0.4-0.8,0.8-0.8s0.8,0.4,0.8,0.8V30.2z M26.1,30.2c0,0.5-0.5,0.8-0.9,0.8
	c-0.5,0-0.8-0.4-0.8-0.9l0.3-3.3c0-0.5,0.4-0.8,0.9-0.8s0.8,0.4,0.8,0.9L26.1,30.2z"/>
</svg>
