<?xml version="1.0" encoding="utf-8"?>
<!-- Generator: Adobe Illustrator 24.0.2, SVG Export Plug-In . SVG Version: 6.00 Build 0)  -->
<svg version="1.1" id="Capa_1" xmlns="http://www.w3.org/2000/svg" xmlns:xlink="http://www.w3.org/1999/xlink" x="0px" y="0px"
	 viewBox="0 0 40 44.4" style="enable-background:new 0 0 40 44.4;" xml:space="preserve">
<style type="text/css">
	.st0{fill:#F6B8A9;}
	.st1{fill:#4F3D80;}
	.st2{fill:none;}
</style>
<path class="st0" d="M25.2,43.2c-3.4,0.8-6.1,1.2-8.5,1.2c-3.5,0-6.3-0.8-8.7-2.6c-3.7-2.7-6.5-7-7.5-11.6C-2.3,16.8,3,5.8,14.8,1
	c1.6-0.7,3.4-1,5.2-1c4.2,0,8.9,1.7,12.8,4.7c3.2,2.5,5.4,5.7,6.5,9.6c0.6,2.2,0.9,4.6,0.9,7.2C40.2,28.2,38.2,40,25.2,43.2"/>
<path class="st1" d="M36.2,15.9c-0.9-3.3-2.8-6-5.4-8c-3.3-2.5-7.2-4-10.7-4c-1.5,0-3,0.3-4.3,0.8c-10,4.1-14.4,13.4-12,24.8
	C4.6,33.4,7,37,10,39.2c1.9,1.4,4.3,2.1,7.1,2.1c2,0,4.3-0.3,7.3-1.1C35.2,37.5,36.9,27.6,37,22C37,19.8,36.7,17.7,36.2,15.9"/>
<rect x="-0.2" class="st2" width="40.4" height="44.4"/>
<path class="st0" d="M7.2,30c0.2-0.2,0.5-0.2,0.8-0.2c0.2,0,0.5,0,0.7-0.1c0-0.4,0-0.8-0.1-1.1v-0.1c0-0.1-0.1,0-0.2,0
	c-0.3,0-0.7,0.1-1,0c-0.1,0-0.1,0-0.2-0.1v-0.1c-0.1-0.4-0.1-0.7-0.1-1.1c0-0.1,0-0.2,0-0.2c0.1-0.2,0.3-0.1,0.5-0.1s0.3,0,0.4,0
	h0.1v-0.1c0-1.2,0-2.4-0.1-3.6V23c0-0.1,0-0.3,0.1-0.4c0-0.1,0.1-0.3,0.2-0.4c0.1-0.1,0.3-0.1,0.4-0.1c0.3,0,0.6,0,0.9,0
	c3.2,0,6.4-0.1,9.6,0c0.2,0,0.4,0,0.6,0.1c0.4,0.2,0.5,0.7,0.6,1.1c0.1,0.7,0.1,1.4,0,2.1c0,0.4-0.1,0.8,0,1.2c0,0.1,0,0.2,0,0.2
	c0.1,0.1,0.2,0.2,0.4,0.2c0.1,0,0.3,0,0.4,0s0.1,0,0.1,0.1v0.1c0,0.3,0.1,0.7,0,1c0,0.1,0,0.2-0.1,0.2c0,0-0.1,0-0.2,0
	c-0.4,0-0.9,0-1.3,0c-0.1,0-0.1,0-0.1,0.1s0,0.1,0,0.2c0,0.3,0,0.6,0,0.8c2.2,0,4.4,0.1,6.6,0.2c-0.1-1.1-0.1-2.1,0-3.2
	c0-0.3,0-0.5,0-0.8c-0.1-0.3-0.2-0.5-0.5-0.6c-0.2-0.1-0.5,0-0.8,0c-0.1,0-0.1,0-0.2,0c-0.4,0.2-0.8,0.3-1.2,0.3c-0.2,0-0.5,0-0.7,0
	c-0.2-0.1-0.4-0.3-0.4-0.5c0-0.3,0.4-0.5,0.3-0.8c-0.1-0.1-0.2-0.1-0.3-0.2c-0.5-0.3-1-0.6-1.5-0.9c-0.2-0.1-0.2-0.3-0.2-0.5
	c0.1-0.3,0.4-0.4,0.7-0.4c0.3,0,0.6-0.2,0.6-0.5c0-0.1-0.1-0.2-0.2-0.3c-0.4-0.4-0.8-0.9-1.1-1.4c-0.1-0.2-0.2-0.5-0.2-0.7l0,0
	c0.1-0.3,0.3-0.5,0.6-0.6c0.4-0.1,0.8-0.1,1.2,0c0.2,0,0.4,0,0.5,0c0.2-0.1,0.2-0.3,0.2-0.5c-0.1-0.3-0.3-0.6-0.4-0.9
	s-0.2-0.7,0-0.9c0.4-0.5,1.3-0.3,1.9-0.7c0.7-0.5,0.7-1.7,1-2.4c0.3-0.9,0.6-1.7,0.9-2.6c0-0.2,0.1-0.3,0.2-0.4l0.1-0.1l0,0h0.1h0.1
	l0,0c0.1,0,0.1,0.1,0.1,0.1c0.1,0.1,0.2,0.3,0.2,0.4c0.3,0.9,0.6,1.7,0.9,2.6c0.2,0.7,0.3,1.9,1,2.4c0.6,0.4,1.5,0.1,1.9,0.7
	c0.2,0.3,0.1,0.6,0,0.9s-0.3,0.6-0.4,0.9c0,0.2-0.1,0.4,0.2,0.5c0.2,0.1,0.3,0.1,0.5,0c0.4-0.1,0.8-0.2,1.2,0
	c0.3,0.1,0.5,0.3,0.6,0.6l0,0c0,0.2-0.1,0.5-0.2,0.7c-0.3,0.5-0.7,1-1.1,1.4c-0.1,0.1-0.2,0.2-0.2,0.3c-0.1,0.3,0.3,0.4,0.6,0.5
	c0.3,0,0.7,0.1,0.7,0.4c0,0.2-0.1,0.4-0.2,0.5c-0.5,0.4-1,0.7-1.5,0.9c-0.1,0-0.2,0.1-0.3,0.2c-0.1,0.3,0.2,0.5,0.3,0.8
	c0,0.2-0.2,0.4-0.4,0.5c-0.2,0.1-0.5,0.1-0.7,0c-0.5-0.1-1-0.2-1.5-0.4c-0.1,0-0.3,0-0.4,0.1S28,25.4,28,25.5
	c-0.1,0.4-0.1,0.7,0,1.1c0.1,1.1,0,2.1-0.1,3.2c1.1,0,2.2,0.1,3.3,0.2c0.3,0,0.6,0,0.9,0.2s0.5,0.5,0.4,0.9
	c-0.1,0.5-0.7,0.6-1.1,0.5c-2.7-0.2-5-0.1-7.7-0.3c-5.3,0-10.5,0.1-15.8,0.1c-0.4,0-1-0.1-1.1-0.6C6.8,30.5,6.9,30.2,7.2,30
	 M10,26.2c0.7,0.1,1.4,0.2,2,0.3c1.2,0.1,2.4,0.1,3.6,0.1c0.3,0,2.9,0.2,2.9-0.6c0-0.3-0.2-0.4-0.4-0.4c-2.6,0.2-5.3,0.3-7.9,0
	c-0.3,0-0.6-0.1-0.8,0.1C9.6,26.1,9.8,26.2,10,26.2 M18.2,23.4c-0.7-0.1-1.4-0.2-2-0.3C15,23,13.8,23,12.6,23
	c-0.3,0-2.9-0.2-2.9,0.5c0,0.3,0.2,0.3,0.4,0.3c2.6-0.2,5.3-0.3,7.9,0c0.3,0,0.6,0.1,0.8-0.1C18.6,23.5,18.4,23.4,18.2,23.4
	 M18.2,29.5c0-0.3,0-0.5,0-0.8c0-0.1,0-0.1,0-0.2c-0.1-0.1-0.3-0.1-0.4-0.1c-1.3,0-2.8,0-4.1,0c-1,0-2.1,0-3.1,0
	c-0.1,0-0.2,0-0.3,0.1s-0.1,0.2-0.1,0.4s0,0.5,0,0.7C12.9,29.5,15.6,29.5,18.2,29.5"/>
</svg>
