<svg width="47" height="47" viewBox="0 0 47 47" fill="none" xmlns="http://www.w3.org/2000/svg">
<circle cx="23.5" cy="23.5" r="23" stroke="#F69C00"/>
<path d="M22.2178 21.58C24.2178 21.58 25.6845 21.96 26.6178 22.72C27.5645 23.4667 28.0378 24.4933 28.0378 25.8C28.0378 26.6267 27.8378 27.3733 27.4378 28.04C27.0511 28.6933 26.4578 29.2133 25.6578 29.6C24.8711 29.9733 23.8978 30.16 22.7378 30.16C21.7511 30.16 20.7978 30.0133 19.8778 29.72C18.9578 29.4133 18.1978 28.9933 17.5978 28.46L18.5178 26.88C18.9978 27.3333 19.6111 27.7 20.3578 27.98C21.1045 28.2467 21.8911 28.38 22.7178 28.38C23.7711 28.38 24.5845 28.16 25.1578 27.72C25.7445 27.2667 26.0378 26.6533 26.0378 25.88C26.0378 25.04 25.7178 24.4067 25.0778 23.98C24.4378 23.54 23.3445 23.32 21.7978 23.32H18.6178L19.3578 16H27.2578V17.74H21.0378L20.6578 21.58H22.2178Z" fill="white"/>
</svg>
