<svg width="47" height="47" viewBox="0 0 47 47" fill="none" xmlns="http://www.w3.org/2000/svg">
<circle cx="23.5" cy="23.5" r="23" stroke="#F69C00"/>
<path d="M26.5845 22.66C27.3845 22.9667 27.9978 23.4067 28.4245 23.98C28.8511 24.5533 29.0645 25.24 29.0645 26.04C29.0645 26.88 28.8378 27.6133 28.3845 28.24C27.9311 28.8533 27.2845 29.3267 26.4445 29.66C25.6045 29.9933 24.6178 30.16 23.4845 30.16C22.3645 30.16 21.3845 29.9933 20.5445 29.66C19.7178 29.3267 19.0778 28.8533 18.6245 28.24C18.1711 27.6133 17.9445 26.88 17.9445 26.04C17.9445 25.24 18.1511 24.5533 18.5645 23.98C18.9911 23.4067 19.6045 22.9667 20.4045 22.66C19.7645 22.3533 19.2778 21.9467 18.9445 21.44C18.6111 20.9333 18.4445 20.3333 18.4445 19.64C18.4445 18.8667 18.6511 18.1933 19.0645 17.62C19.4911 17.0467 20.0845 16.6067 20.8445 16.3C21.6045 15.9933 22.4845 15.84 23.4845 15.84C24.4978 15.84 25.3845 15.9933 26.1445 16.3C26.9178 16.6067 27.5111 17.0467 27.9245 17.62C28.3511 18.1933 28.5645 18.8667 28.5645 19.64C28.5645 20.32 28.3911 20.92 28.0445 21.44C27.7111 21.9467 27.2245 22.3533 26.5845 22.66ZM23.4845 17.46C22.5378 17.46 21.7911 17.6667 21.2445 18.08C20.6978 18.48 20.4245 19.0267 20.4245 19.72C20.4245 20.4133 20.6911 20.96 21.2245 21.36C21.7711 21.76 22.5245 21.96 23.4845 21.96C24.4578 21.96 25.2178 21.76 25.7645 21.36C26.3245 20.96 26.6045 20.4133 26.6045 19.72C26.6045 19.0267 26.3178 18.48 25.7445 18.08C25.1845 17.6667 24.4311 17.46 23.4845 17.46ZM23.4845 28.54C24.5911 28.54 25.4645 28.3133 26.1045 27.86C26.7445 27.3933 27.0645 26.7667 27.0645 25.98C27.0645 25.2067 26.7445 24.6 26.1045 24.16C25.4645 23.7067 24.5911 23.48 23.4845 23.48C22.3778 23.48 21.5111 23.7067 20.8845 24.16C20.2578 24.6 19.9445 25.2067 19.9445 25.98C19.9445 26.7667 20.2578 27.3933 20.8845 27.86C21.5111 28.3133 22.3778 28.54 23.4845 28.54Z" fill="white"/>
</svg>
