<?xml version="1.0" encoding="utf-8"?>
<!-- Generator: Adobe Illustrator 24.0.2, SVG Export Plug-In . SVG Version: 6.00 Build 0)  -->
<svg version="1.1" id="Capa_1" xmlns="http://www.w3.org/2000/svg" xmlns:xlink="http://www.w3.org/1999/xlink" x="0px" y="0px"
	 viewBox="0 0 285 357" style="enable-background:new 0 0 285 357;" xml:space="preserve">
<style type="text/css">
	.st0{clip-path:url(#SVGID_2_);}
	.st1{fill:none;}
	.st2{opacity:0.72;fill:#0B2650;enable-background:new    ;}
	.st3{fill:#FFFFFF;}
</style>
<g>
	
		<image style="overflow:visible;" width="396" height="418" xlink:href="../../../../../../../Users/alvarbuenfil/Downloads/wetransfer_l8-png_2021-09-28_2222/L1.png"  transform="matrix(0.8577 0 0 0.8577 -37.3158 -1.5)">
	</image>
	<g>
		<defs>
			<rect id="SVGID_1_" width="285" height="357"/>
		</defs>
		<clipPath id="SVGID_2_">
			<use xlink:href="#SVGID_1_"  style="overflow:visible;"/>
		</clipPath>
		<g class="st0">
			<rect x="-37" y="2" class="st1" width="338" height="356"/>
			<path class="st2" d="M204.6,9.1c0,0-51.5-11.6-97.1-6.7C34.1,3.8,20.7,53.9,20.7,53.9s-14.3,51-16.1,68.5s-11.2,95.3,4.9,132.9
				c19.2,46.1,53.7,65.3,67.1,75.2c9.4-0.5,28.2,8.5,28.2,8.5s51.5,17.5,73.8,16.6c66.2-9,85.5-59.1,85.5-59.1s51.5-113.4-8-241.6
				c-5.4-26-44.8-43-44.8-43L204.6,9.1z"/>
			<path class="st3" d="M62.8,182.7h2.4l4.7,10.8h0l4.7-10.8H77v13.8h-1.6v-11.6h0l-4.9,11.6h-1l-4.9-11.6h0v11.6h-1.6V182.7z
				 M80,188.5c0.5-0.5,1-0.8,1.7-1.1c0.6-0.2,1.3-0.4,2-0.4c1.3,0,2.3,0.3,2.9,1c0.6,0.6,0.9,1.6,0.9,2.9v3.9c0,0.3,0,0.5,0,0.8
				c0,0.3,0.1,0.5,0.1,0.8h-1.5c-0.1-0.2-0.1-0.4-0.1-0.7c0-0.3,0-0.5,0-0.7h0c-0.3,0.5-0.7,0.8-1.2,1.1c-0.5,0.3-1.1,0.4-1.8,0.4
				c-0.5,0-0.9-0.1-1.3-0.2c-0.4-0.1-0.8-0.3-1.1-0.5c-0.3-0.2-0.5-0.5-0.7-0.9c-0.2-0.3-0.3-0.7-0.3-1.2c0-0.8,0.2-1.3,0.6-1.8
				s0.9-0.7,1.4-1c0.6-0.2,1.2-0.3,1.9-0.4c0.7-0.1,1.3-0.1,1.8-0.1h0.6v-0.3c0-0.7-0.2-1.2-0.6-1.5c-0.4-0.3-0.9-0.5-1.7-0.5
				c-0.5,0-1,0.1-1.5,0.3c-0.5,0.2-0.9,0.4-1.2,0.7L80,188.5z M84.4,192.1c-1,0-1.7,0.1-2.3,0.4c-0.6,0.3-0.9,0.7-0.9,1.3
				c0,0.6,0.2,1,0.6,1.2c0.4,0.2,0.9,0.3,1.4,0.3c0.4,0,0.8-0.1,1.1-0.2c0.3-0.2,0.6-0.4,0.8-0.6c0.2-0.2,0.4-0.5,0.5-0.9
				c0.1-0.3,0.2-0.7,0.2-1.1v-0.6H84.4z M93.6,198.5c-0.2,0.4-0.3,0.7-0.5,1.1c-0.2,0.3-0.4,0.6-0.6,0.8c-0.2,0.2-0.5,0.4-0.8,0.5
				c-0.3,0.1-0.7,0.2-1.1,0.2c-0.2,0-0.5,0-0.7,0c-0.2,0-0.5-0.1-0.7-0.2l0.2-1.3c0.2,0.1,0.3,0.1,0.5,0.1c0.2,0,0.4,0,0.6,0
				c0.5,0,0.9-0.1,1.1-0.4c0.2-0.3,0.4-0.6,0.6-1.1l0.6-1.7l-3.8-9.2h1.8l2.8,7.1h0l2.7-7.1H98L93.6,198.5z M99.1,191.9
				c0-0.7,0.1-1.4,0.4-1.9c0.2-0.6,0.6-1.1,1-1.5c0.4-0.4,0.9-0.8,1.5-1c0.6-0.2,1.2-0.4,1.9-0.4c0.7,0,1.3,0.1,1.9,0.4
				c0.6,0.2,1.1,0.6,1.5,1c0.4,0.4,0.8,0.9,1,1.5c0.2,0.6,0.4,1.2,0.4,1.9s-0.1,1.4-0.4,1.9c-0.2,0.6-0.6,1.1-1,1.5
				c-0.4,0.4-0.9,0.7-1.5,1c-0.6,0.2-1.2,0.4-1.9,0.4c-0.7,0-1.3-0.1-1.9-0.4c-0.6-0.2-1.1-0.6-1.5-1c-0.4-0.4-0.8-0.9-1-1.5
				C99.2,193.3,99.1,192.6,99.1,191.9z M100.7,191.9c0,0.5,0.1,0.9,0.2,1.3c0.2,0.4,0.4,0.8,0.7,1.1c0.3,0.3,0.6,0.5,1,0.7
				c0.4,0.2,0.8,0.3,1.3,0.3c0.5,0,0.9-0.1,1.3-0.3c0.4-0.2,0.7-0.4,1-0.7c0.3-0.3,0.5-0.7,0.6-1.1c0.2-0.4,0.2-0.9,0.2-1.3
				c0-0.5-0.1-0.9-0.2-1.3c-0.1-0.4-0.4-0.8-0.6-1.1c-0.3-0.3-0.6-0.6-1-0.7c-0.4-0.2-0.8-0.3-1.3-0.3c-0.5,0-0.9,0.1-1.3,0.3
				c-0.4,0.2-0.7,0.4-1,0.7c-0.3,0.3-0.5,0.7-0.7,1.1C100.8,191,100.7,191.4,100.7,191.9z M111.2,189.5c0-0.4,0-0.8,0-1.2
				c0-0.4,0-0.7,0-1h1.4c0,0.2,0,0.5,0,0.7c0,0.2,0,0.5,0,0.8h0c0.1-0.2,0.2-0.4,0.4-0.6c0.2-0.2,0.4-0.4,0.7-0.5
				c0.3-0.2,0.6-0.3,0.9-0.4c0.3-0.1,0.7-0.2,1.1-0.2c0.1,0,0.2,0,0.3,0c0.1,0,0.2,0,0.3,0.1l-0.1,1.5c-0.3-0.1-0.5-0.1-0.8-0.1
				c-0.9,0-1.6,0.3-2,0.9c-0.4,0.6-0.6,1.4-0.6,2.5v4.4h-1.5V189.5z M123.6,194.1c0.3,0.4,0.6,0.7,1,0.9c0.4,0.2,0.8,0.3,1.4,0.3
				c0.2,0,0.5,0,0.7-0.1c0.2-0.1,0.5-0.1,0.7-0.3c0.2-0.1,0.3-0.3,0.5-0.4c0.1-0.2,0.2-0.4,0.2-0.6c0-0.2-0.1-0.4-0.2-0.6
				c-0.1-0.2-0.2-0.3-0.4-0.4c-0.2-0.1-0.4-0.2-0.6-0.3c-0.2-0.1-0.5-0.1-0.7-0.2c-0.4-0.1-0.8-0.2-1.2-0.3c-0.4-0.1-0.7-0.3-1-0.4
				c-0.3-0.2-0.5-0.4-0.7-0.7c-0.2-0.3-0.3-0.7-0.3-1.1c0-0.4,0.1-0.8,0.3-1.2c0.2-0.3,0.5-0.6,0.8-0.8c0.3-0.2,0.7-0.4,1.1-0.5
				c0.4-0.1,0.8-0.2,1.2-0.2c0.6,0,1.2,0.1,1.8,0.4c0.6,0.3,1,0.7,1.3,1.3l-1.3,0.8c-0.2-0.3-0.5-0.6-0.8-0.8
				c-0.3-0.2-0.7-0.3-1.1-0.3c-0.2,0-0.4,0-0.6,0.1c-0.2,0.1-0.4,0.1-0.6,0.2c-0.2,0.1-0.3,0.2-0.4,0.4c-0.1,0.2-0.2,0.3-0.2,0.5
				c0,0.2,0.1,0.4,0.2,0.5c0.1,0.1,0.3,0.2,0.5,0.4c0.2,0.1,0.5,0.2,0.7,0.3c0.3,0.1,0.6,0.1,0.9,0.2c0.4,0.1,0.8,0.2,1.1,0.3
				c0.4,0.1,0.7,0.3,1,0.5c0.3,0.2,0.5,0.5,0.6,0.8c0.2,0.3,0.2,0.7,0.2,1.1c0,0.5-0.1,1-0.3,1.3c-0.2,0.4-0.5,0.7-0.8,0.9
				c-0.3,0.2-0.7,0.4-1.2,0.5c-0.4,0.1-0.9,0.2-1.3,0.2c-0.8,0-1.5-0.1-2-0.4c-0.6-0.2-1.1-0.7-1.5-1.3L123.6,194.1z M139.8,194.8
				c-0.5,0.7-1.1,1.2-1.8,1.5c-0.6,0.3-1.4,0.4-2.3,0.4c-0.7,0-1.4-0.1-1.9-0.4c-0.6-0.3-1.1-0.6-1.5-1c-0.4-0.4-0.7-0.9-0.9-1.5
				c-0.2-0.6-0.3-1.2-0.3-1.9c0-0.7,0.1-1.3,0.4-1.9c0.2-0.6,0.6-1.1,1-1.5c0.4-0.4,0.9-0.8,1.5-1c0.6-0.2,1.2-0.4,1.9-0.4
				c0.6,0,1.2,0.1,1.8,0.3c0.5,0.2,1,0.5,1.4,0.9c0.4,0.4,0.7,0.9,0.9,1.5c0.2,0.6,0.3,1.3,0.3,2v0.5h-7.4c0,0.4,0.1,0.8,0.3,1.1
				c0.2,0.4,0.4,0.7,0.6,0.9c0.3,0.3,0.6,0.5,0.9,0.6c0.4,0.2,0.7,0.2,1.1,0.2c0.7,0,1.2-0.1,1.7-0.4c0.5-0.2,0.9-0.6,1.2-1
				L139.8,194.8z M138.5,191.1c0-0.8-0.3-1.4-0.8-1.9s-1.1-0.7-2-0.7c-0.8,0-1.5,0.2-2,0.7c-0.5,0.5-0.8,1.1-0.9,1.9H138.5z
				 M151.6,196c0,1.7-0.4,2.9-1.3,3.8c-0.8,0.9-2.1,1.3-3.7,1.3c-0.9,0-1.7-0.1-2.4-0.4c-0.7-0.3-1.4-0.7-2-1.3l1.1-1.2
				c0.5,0.5,1,0.9,1.5,1.2c0.5,0.3,1.2,0.4,1.9,0.4c0.7,0,1.2-0.1,1.7-0.3c0.5-0.2,0.8-0.5,1.1-0.8c0.3-0.3,0.4-0.7,0.5-1.2
				c0.1-0.4,0.2-0.9,0.2-1.4v-1.2h0c-0.4,0.6-0.8,1-1.4,1.3c-0.6,0.3-1.2,0.4-1.8,0.4c-0.7,0-1.4-0.1-2-0.4c-0.6-0.2-1.1-0.6-1.5-1
				c-0.4-0.4-0.8-0.9-1-1.5c-0.2-0.6-0.4-1.2-0.4-1.9c0-0.7,0.1-1.4,0.4-2c0.2-0.6,0.6-1.1,1-1.5c0.4-0.4,0.9-0.7,1.5-1
				c0.6-0.2,1.3-0.3,2-0.3c0.3,0,0.6,0,0.9,0.1c0.3,0.1,0.6,0.2,0.9,0.3c0.3,0.1,0.6,0.3,0.8,0.6c0.2,0.2,0.4,0.5,0.6,0.8h0v-1.6
				h1.5V196z M143.6,191.9c0,0.5,0.1,0.9,0.3,1.3c0.2,0.4,0.4,0.7,0.7,1c0.3,0.3,0.6,0.5,1,0.7c0.4,0.2,0.8,0.3,1.2,0.3
				c0.5,0,1-0.1,1.4-0.3c0.4-0.2,0.7-0.4,1-0.7c0.3-0.3,0.5-0.7,0.6-1.1c0.1-0.4,0.2-0.8,0.2-1.3c0-0.5-0.1-0.9-0.2-1.3
				c-0.2-0.4-0.4-0.8-0.7-1.1c-0.3-0.3-0.6-0.5-1-0.7c-0.4-0.2-0.8-0.3-1.3-0.3c-0.5,0-0.9,0.1-1.3,0.3c-0.4,0.2-0.7,0.4-1,0.7
				c-0.3,0.3-0.5,0.7-0.6,1.1C143.7,191,143.6,191.4,143.6,191.9z M162.3,194.3c0,0.4,0,0.8,0,1.2c0,0.4,0,0.7,0,1H161
				c0-0.2,0-0.5,0-0.7c0-0.2,0-0.5,0-0.8h0c-0.1,0.2-0.3,0.4-0.4,0.6c-0.2,0.2-0.4,0.4-0.7,0.6c-0.3,0.2-0.6,0.3-0.9,0.4
				c-0.3,0.1-0.7,0.2-1.1,0.2c-0.6,0-1.1-0.1-1.6-0.3c-0.4-0.2-0.8-0.4-1.1-0.8s-0.5-0.7-0.6-1.2c-0.1-0.5-0.2-1-0.2-1.5v-5.6h1.5
				v5.5c0,0.8,0.2,1.4,0.5,1.8c0.3,0.4,0.9,0.7,1.6,0.7c0.5,0,0.9-0.1,1.3-0.3c0.4-0.2,0.7-0.4,0.9-0.7c0.2-0.3,0.4-0.7,0.5-1.1
				c0.1-0.4,0.2-0.9,0.2-1.4v-4.4h1.5V194.3z M165.2,189.5c0-0.4,0-0.8,0-1.2c0-0.4,0-0.7,0-1h1.4c0,0.2,0,0.5,0,0.7
				c0,0.2,0,0.5,0,0.8h0c0.1-0.2,0.2-0.4,0.4-0.6c0.2-0.2,0.4-0.4,0.7-0.5c0.3-0.2,0.6-0.3,0.9-0.4c0.3-0.1,0.7-0.2,1.1-0.2
				c0.1,0,0.2,0,0.3,0c0.1,0,0.2,0,0.3,0.1l-0.1,1.5c-0.3-0.1-0.5-0.1-0.8-0.1c-0.9,0-1.6,0.3-2,0.9c-0.4,0.6-0.6,1.4-0.6,2.5v4.4
				h-1.5V189.5z M172.2,187.3h1.5v9.1h-1.5V187.3z M171.8,183.8c0-0.3,0.1-0.6,0.3-0.8c0.2-0.2,0.5-0.3,0.8-0.3
				c0.3,0,0.6,0.1,0.8,0.3c0.2,0.2,0.3,0.5,0.3,0.8c0,0.3-0.1,0.6-0.3,0.8c-0.2,0.2-0.5,0.3-0.8,0.3c-0.3,0-0.6-0.1-0.8-0.3
				C171.9,184.4,171.8,184.1,171.8,183.8z M184.3,194.8L184.3,194.8c-0.3,0.5-0.8,1-1.4,1.3c-0.6,0.4-1.3,0.5-2.1,0.5
				c-0.6,0-1.2-0.1-1.8-0.4c-0.6-0.2-1-0.6-1.5-1c-0.4-0.4-0.7-0.9-1-1.5c-0.2-0.6-0.4-1.2-0.4-1.9c0-0.7,0.1-1.3,0.4-1.9
				c0.2-0.6,0.6-1.1,1-1.5c0.4-0.4,0.9-0.8,1.5-1c0.6-0.2,1.3-0.4,2-0.4c0.7,0,1.3,0.1,1.8,0.4c0.6,0.3,1,0.7,1.5,1.1h0v-6.9h1.5
				v14.7h-1.5V194.8z M184.3,191.9c0-0.5-0.1-0.9-0.2-1.3c-0.1-0.4-0.4-0.8-0.6-1.1c-0.3-0.3-0.6-0.6-1-0.7
				c-0.4-0.2-0.8-0.3-1.3-0.3s-0.9,0.1-1.3,0.3c-0.4,0.2-0.7,0.4-1,0.7c-0.3,0.3-0.5,0.7-0.7,1.1c-0.1,0.4-0.2,0.8-0.2,1.3
				c0,0.5,0.1,0.9,0.2,1.3c0.2,0.4,0.4,0.8,0.7,1.1c0.3,0.3,0.6,0.5,1,0.7c0.4,0.2,0.8,0.3,1.3,0.3s0.9-0.1,1.3-0.3
				c0.4-0.2,0.7-0.4,1-0.7c0.3-0.3,0.5-0.7,0.6-1.1C184.2,192.8,184.3,192.4,184.3,191.9z M188.5,188.5c0.5-0.5,1-0.8,1.7-1.1
				c0.6-0.2,1.3-0.4,2-0.4c1.3,0,2.3,0.3,2.9,1c0.6,0.6,0.9,1.6,0.9,2.9v3.9c0,0.3,0,0.5,0,0.8c0,0.3,0.1,0.5,0.1,0.8h-1.5
				c-0.1-0.2-0.1-0.4-0.1-0.7c0-0.3,0-0.5,0-0.7h0c-0.3,0.5-0.7,0.8-1.2,1.1c-0.5,0.3-1.1,0.4-1.8,0.4c-0.5,0-0.9-0.1-1.3-0.2
				c-0.4-0.1-0.8-0.3-1.1-0.5c-0.3-0.2-0.5-0.5-0.7-0.9c-0.2-0.3-0.3-0.7-0.3-1.2c0-0.8,0.2-1.3,0.6-1.8c0.4-0.4,0.9-0.7,1.4-1
				c0.6-0.2,1.2-0.3,1.9-0.4c0.7-0.1,1.3-0.1,1.8-0.1h0.6v-0.3c0-0.7-0.2-1.2-0.6-1.5c-0.4-0.3-0.9-0.5-1.7-0.5
				c-0.5,0-1,0.1-1.5,0.3c-0.5,0.2-0.9,0.4-1.2,0.7L188.5,188.5z M192.9,192.1c-1,0-1.7,0.1-2.3,0.4c-0.6,0.3-0.9,0.7-0.9,1.3
				c0,0.6,0.2,1,0.6,1.2c0.4,0.2,0.9,0.3,1.4,0.3c0.4,0,0.8-0.1,1.1-0.2c0.3-0.2,0.6-0.4,0.8-0.6c0.2-0.2,0.4-0.5,0.5-0.9
				c0.1-0.3,0.2-0.7,0.2-1.1v-0.6H192.9z M206.3,194.8L206.3,194.8c-0.3,0.5-0.8,1-1.4,1.3c-0.6,0.4-1.3,0.5-2.1,0.5
				c-0.6,0-1.2-0.1-1.8-0.4c-0.6-0.2-1-0.6-1.5-1c-0.4-0.4-0.7-0.9-1-1.5c-0.2-0.6-0.4-1.2-0.4-1.9c0-0.7,0.1-1.3,0.4-1.9
				c0.2-0.6,0.6-1.1,1-1.5s0.9-0.8,1.5-1c0.6-0.2,1.3-0.4,2-0.4c0.7,0,1.3,0.1,1.8,0.4c0.6,0.3,1,0.7,1.5,1.1h0v-6.9h1.5v14.7h-1.5
				V194.8z M206.3,191.9c0-0.5-0.1-0.9-0.2-1.3c-0.1-0.4-0.4-0.8-0.6-1.1c-0.3-0.3-0.6-0.6-1-0.7c-0.4-0.2-0.8-0.3-1.3-0.3
				s-0.9,0.1-1.3,0.3c-0.4,0.2-0.7,0.4-1,0.7c-0.3,0.3-0.5,0.7-0.7,1.1c-0.1,0.4-0.2,0.8-0.2,1.3c0,0.5,0.1,0.9,0.2,1.3
				c0.2,0.4,0.4,0.8,0.7,1.1c0.3,0.3,0.6,0.5,1,0.7c0.4,0.2,0.8,0.3,1.3,0.3s0.9-0.1,1.3-0.3c0.4-0.2,0.7-0.4,1-0.7
				c0.3-0.3,0.5-0.7,0.6-1.1C206.2,192.8,206.3,192.4,206.3,191.9z M219.4,198.5c-0.2,0.4-0.3,0.7-0.5,1.1c-0.2,0.3-0.3,0.6-0.6,0.8
				c-0.2,0.2-0.5,0.4-0.8,0.5c-0.3,0.1-0.7,0.2-1.1,0.2c-0.2,0-0.5,0-0.7,0c-0.2,0-0.5-0.1-0.7-0.2l0.2-1.3c0.2,0.1,0.3,0.1,0.5,0.1
				c0.2,0,0.4,0,0.6,0c0.5,0,0.9-0.1,1.1-0.4c0.2-0.3,0.4-0.6,0.6-1.1l0.6-1.7l-3.8-9.2h1.8l2.8,7.1h0l2.7-7.1h1.7L219.4,198.5z"/>
			<path class="st3" d="M55.3,222.7h-1.7l-3.7-9.1h1.8l2.8,7.1h0l2.7-7.1h1.6L55.3,222.7z M60.7,213.6h1.5v9.1h-1.5V213.6z
				 M60.4,210.1c0-0.3,0.1-0.6,0.3-0.8c0.2-0.2,0.5-0.3,0.8-0.3c0.3,0,0.6,0.1,0.8,0.3c0.2,0.2,0.3,0.5,0.3,0.8
				c0,0.3-0.1,0.6-0.3,0.8c-0.2,0.2-0.5,0.3-0.8,0.3c-0.3,0-0.6-0.1-0.8-0.3C60.5,210.7,60.4,210.4,60.4,210.1z M65.5,220.3
				c0.3,0.4,0.6,0.7,1,0.9c0.4,0.2,0.8,0.3,1.4,0.3c0.2,0,0.5,0,0.7-0.1c0.2-0.1,0.5-0.1,0.7-0.3c0.2-0.1,0.4-0.3,0.5-0.4
				c0.1-0.2,0.2-0.4,0.2-0.6c0-0.2-0.1-0.4-0.2-0.6c-0.1-0.2-0.2-0.3-0.4-0.4c-0.2-0.1-0.4-0.2-0.6-0.3c-0.2-0.1-0.5-0.1-0.7-0.2
				c-0.4-0.1-0.8-0.2-1.2-0.3c-0.4-0.1-0.7-0.3-1-0.4c-0.3-0.2-0.5-0.4-0.7-0.7c-0.2-0.3-0.3-0.7-0.3-1.1c0-0.4,0.1-0.8,0.3-1.2
				c0.2-0.3,0.5-0.6,0.8-0.8c0.3-0.2,0.7-0.4,1.1-0.5c0.4-0.1,0.8-0.2,1.2-0.2c0.6,0,1.2,0.1,1.8,0.4c0.6,0.3,1,0.7,1.3,1.3
				l-1.3,0.8c-0.2-0.3-0.5-0.6-0.8-0.8c-0.3-0.2-0.7-0.3-1.1-0.3c-0.2,0-0.4,0-0.6,0.1c-0.2,0.1-0.4,0.1-0.6,0.2
				c-0.2,0.1-0.3,0.2-0.4,0.4c-0.1,0.2-0.2,0.3-0.2,0.5c0,0.2,0.1,0.4,0.2,0.5c0.1,0.1,0.3,0.2,0.5,0.4c0.2,0.1,0.5,0.2,0.7,0.3
				c0.3,0.1,0.6,0.1,0.9,0.2c0.4,0.1,0.8,0.2,1.1,0.3c0.4,0.1,0.7,0.3,1,0.5c0.3,0.2,0.5,0.5,0.6,0.8c0.2,0.3,0.2,0.7,0.2,1.1
				c0,0.5-0.1,1-0.3,1.3c-0.2,0.4-0.5,0.7-0.8,0.9c-0.3,0.2-0.7,0.4-1.2,0.5c-0.4,0.1-0.9,0.2-1.3,0.2c-0.8,0-1.5-0.1-2-0.4
				c-0.6-0.2-1.1-0.7-1.5-1.3L65.5,220.3z M73.7,213.6h1.5v9.1h-1.5V213.6z M73.3,210.1c0-0.3,0.1-0.6,0.3-0.8
				c0.2-0.2,0.5-0.3,0.8-0.3s0.6,0.1,0.8,0.3c0.2,0.2,0.3,0.5,0.3,0.8c0,0.3-0.1,0.6-0.3,0.8c-0.2,0.2-0.5,0.3-0.8,0.3
				c-0.3,0-0.6-0.1-0.8-0.3C73.4,210.7,73.3,210.4,73.3,210.1z M78.1,208h1.5v6.9h0c0.4-0.5,0.9-0.9,1.4-1.1
				c0.6-0.3,1.2-0.4,1.8-0.4c0.7,0,1.4,0.1,1.9,0.4c0.6,0.2,1.1,0.6,1.5,1c0.4,0.4,0.7,0.9,1,1.5c0.2,0.6,0.4,1.2,0.4,1.9
				s-0.1,1.3-0.4,1.9c-0.2,0.6-0.6,1.1-1,1.5c-0.4,0.4-0.9,0.8-1.4,1c-0.6,0.2-1.2,0.4-1.8,0.4c-0.8,0-1.5-0.2-2.2-0.5
				c-0.6-0.4-1.1-0.8-1.3-1.3h0v1.6h-1.5V208z M79.7,218.2c0,0.5,0.1,0.9,0.2,1.3c0.2,0.4,0.4,0.8,0.7,1.1c0.3,0.3,0.6,0.5,1,0.7
				c0.4,0.2,0.8,0.3,1.3,0.3c0.5,0,0.9-0.1,1.3-0.3c0.4-0.2,0.7-0.4,1-0.7c0.3-0.3,0.5-0.7,0.6-1.1c0.2-0.4,0.2-0.9,0.2-1.3
				c0-0.5-0.1-0.9-0.2-1.3c-0.1-0.4-0.4-0.8-0.6-1.1c-0.3-0.3-0.6-0.6-1-0.7c-0.4-0.2-0.8-0.3-1.3-0.3c-0.5,0-0.9,0.1-1.3,0.3
				c-0.4,0.2-0.7,0.4-1,0.7c-0.3,0.3-0.5,0.7-0.7,1.1C79.7,217.3,79.7,217.7,79.7,218.2z M90.2,213.6h1.5v9.1h-1.5V213.6z
				 M89.9,210.1c0-0.3,0.1-0.6,0.3-0.8c0.2-0.2,0.5-0.3,0.8-0.3c0.3,0,0.6,0.1,0.8,0.3c0.2,0.2,0.3,0.5,0.3,0.8
				c0,0.3-0.1,0.6-0.3,0.8c-0.2,0.2-0.5,0.3-0.8,0.3c-0.3,0-0.6-0.1-0.8-0.3C90,210.7,89.9,210.4,89.9,210.1z M94.9,208h1.5v14.7
				h-1.5V208z M99.6,213.6h1.5v9.1h-1.5V213.6z M99.3,210.1c0-0.3,0.1-0.6,0.3-0.8c0.2-0.2,0.5-0.3,0.8-0.3s0.6,0.1,0.8,0.3
				c0.2,0.2,0.3,0.5,0.3,0.8c0,0.3-0.1,0.6-0.3,0.8c-0.2,0.2-0.5,0.3-0.8,0.3s-0.6-0.1-0.8-0.3C99.4,210.7,99.3,210.4,99.3,210.1z
				 M111.7,221.1L111.7,221.1c-0.3,0.5-0.8,1-1.4,1.3c-0.6,0.3-1.3,0.5-2.1,0.5c-0.6,0-1.2-0.1-1.8-0.4c-0.6-0.2-1-0.6-1.5-1
				c-0.4-0.4-0.7-0.9-1-1.5c-0.2-0.6-0.4-1.2-0.4-1.9s0.1-1.3,0.4-1.9c0.2-0.6,0.6-1.1,1-1.5c0.4-0.4,0.9-0.8,1.5-1
				c0.6-0.2,1.3-0.4,2-0.4c0.7,0,1.3,0.1,1.8,0.4c0.6,0.3,1,0.7,1.5,1.1h0V208h1.5v14.7h-1.5V221.1z M111.7,218.2
				c0-0.5-0.1-0.9-0.2-1.3c-0.1-0.4-0.4-0.8-0.6-1.1c-0.3-0.3-0.6-0.6-1-0.7c-0.4-0.2-0.8-0.3-1.3-0.3c-0.5,0-0.9,0.1-1.3,0.3
				c-0.4,0.2-0.7,0.4-1,0.7c-0.3,0.3-0.5,0.7-0.7,1.1c-0.1,0.4-0.2,0.8-0.2,1.3c0,0.5,0.1,0.9,0.2,1.3c0.2,0.4,0.4,0.8,0.7,1.1
				c0.3,0.3,0.6,0.5,1,0.7c0.4,0.2,0.8,0.3,1.3,0.3c0.5,0,0.9-0.1,1.3-0.3c0.4-0.2,0.7-0.4,1-0.7c0.3-0.3,0.5-0.7,0.6-1.1
				C111.6,219.1,111.7,218.7,111.7,218.2z M115.9,214.8c0.5-0.5,1-0.8,1.7-1.1c0.6-0.2,1.3-0.4,2-0.4c1.3,0,2.3,0.3,2.9,1
				c0.6,0.6,0.9,1.6,0.9,2.9v3.9c0,0.3,0,0.5,0,0.8c0,0.3,0.1,0.5,0.1,0.8H122c-0.1-0.2-0.1-0.4-0.1-0.7c0-0.3,0-0.5,0-0.7h0
				c-0.3,0.5-0.7,0.8-1.2,1.1c-0.5,0.3-1.1,0.4-1.8,0.4c-0.5,0-0.9-0.1-1.3-0.2c-0.4-0.1-0.8-0.3-1.1-0.5c-0.3-0.2-0.5-0.5-0.7-0.9
				c-0.2-0.3-0.3-0.7-0.3-1.2c0-0.8,0.2-1.3,0.6-1.8c0.4-0.4,0.9-0.7,1.4-1c0.6-0.2,1.2-0.3,1.9-0.4c0.7-0.1,1.3-0.1,1.8-0.1h0.6
				v-0.3c0-0.7-0.2-1.2-0.6-1.5c-0.4-0.3-0.9-0.5-1.7-0.5c-0.5,0-1,0.1-1.5,0.3c-0.5,0.2-0.9,0.4-1.2,0.7L115.9,214.8z M120.3,218.4
				c-1,0-1.7,0.1-2.3,0.4c-0.6,0.3-0.9,0.7-0.9,1.3c0,0.6,0.2,1,0.6,1.2c0.4,0.2,0.9,0.4,1.4,0.4c0.4,0,0.8-0.1,1.1-0.2
				c0.3-0.2,0.6-0.4,0.8-0.6c0.2-0.2,0.4-0.5,0.5-0.9c0.1-0.3,0.2-0.7,0.2-1.1v-0.6H120.3z M133.7,221.1L133.7,221.1
				c-0.3,0.5-0.8,1-1.4,1.3c-0.6,0.3-1.3,0.5-2.1,0.5c-0.6,0-1.2-0.1-1.8-0.4c-0.6-0.2-1-0.6-1.5-1c-0.4-0.4-0.7-0.9-1-1.5
				c-0.2-0.6-0.3-1.2-0.3-1.9s0.1-1.3,0.3-1.9c0.2-0.6,0.6-1.1,1-1.5c0.4-0.4,0.9-0.8,1.5-1c0.6-0.2,1.3-0.4,2-0.4
				c0.7,0,1.3,0.1,1.8,0.4c0.6,0.3,1,0.7,1.5,1.1h0V208h1.5v14.7h-1.5V221.1z M133.7,218.2c0-0.5-0.1-0.9-0.2-1.3
				c-0.1-0.4-0.4-0.8-0.6-1.1c-0.3-0.3-0.6-0.6-1-0.7c-0.4-0.2-0.8-0.3-1.3-0.3s-0.9,0.1-1.3,0.3c-0.4,0.2-0.7,0.4-1,0.7
				c-0.3,0.3-0.5,0.7-0.7,1.1c-0.1,0.4-0.2,0.8-0.2,1.3c0,0.5,0.1,0.9,0.2,1.3c0.2,0.4,0.4,0.8,0.7,1.1c0.3,0.3,0.6,0.5,1,0.7
				c0.4,0.2,0.8,0.3,1.3,0.3s0.9-0.1,1.3-0.3c0.4-0.2,0.7-0.4,1-0.7c0.3-0.3,0.5-0.7,0.6-1.1C133.6,219.1,133.7,218.7,133.7,218.2z
				 M151,221.1L151,221.1c-0.3,0.5-0.8,1-1.4,1.3c-0.6,0.3-1.3,0.5-2.1,0.5c-0.6,0-1.2-0.1-1.8-0.4c-0.6-0.2-1-0.6-1.5-1
				c-0.4-0.4-0.7-0.9-1-1.5c-0.2-0.6-0.4-1.2-0.4-1.9s0.1-1.3,0.4-1.9c0.2-0.6,0.6-1.1,1-1.5c0.4-0.4,0.9-0.8,1.5-1
				c0.6-0.2,1.3-0.4,2-0.4c0.7,0,1.3,0.1,1.8,0.4c0.6,0.3,1,0.7,1.5,1.1h0V208h1.5v14.7H151V221.1z M151,218.2
				c0-0.5-0.1-0.9-0.2-1.3c-0.1-0.4-0.4-0.8-0.6-1.1c-0.3-0.3-0.6-0.6-1-0.7c-0.4-0.2-0.8-0.3-1.3-0.3s-0.9,0.1-1.3,0.3
				c-0.4,0.2-0.7,0.4-1,0.7c-0.3,0.3-0.5,0.7-0.7,1.1c-0.1,0.4-0.2,0.8-0.2,1.3c0,0.5,0.1,0.9,0.2,1.3c0.2,0.4,0.4,0.8,0.7,1.1
				c0.3,0.3,0.6,0.5,1,0.7c0.4,0.2,0.9,0.3,1.3,0.3s0.9-0.1,1.3-0.3c0.4-0.2,0.7-0.4,1-0.7c0.3-0.3,0.5-0.7,0.6-1.1
				C150.9,219.1,151,218.7,151,218.2z M163.5,221.1c-0.5,0.7-1.1,1.2-1.8,1.5c-0.6,0.3-1.4,0.4-2.3,0.4c-0.7,0-1.4-0.1-1.9-0.4
				c-0.6-0.3-1.1-0.6-1.5-1c-0.4-0.4-0.7-0.9-0.9-1.5c-0.2-0.6-0.3-1.2-0.3-1.9c0-0.7,0.1-1.3,0.3-1.9c0.2-0.6,0.6-1.1,1-1.5
				c0.4-0.4,0.9-0.8,1.5-1c0.6-0.2,1.2-0.4,1.9-0.4c0.6,0,1.2,0.1,1.8,0.3c0.5,0.2,1,0.5,1.4,0.9c0.4,0.4,0.7,0.9,0.9,1.5
				c0.2,0.6,0.3,1.3,0.3,2v0.5h-7.4c0,0.4,0.1,0.8,0.3,1.1c0.2,0.4,0.4,0.7,0.6,0.9c0.3,0.3,0.6,0.5,0.9,0.6
				c0.3,0.2,0.7,0.2,1.1,0.2c0.7,0,1.2-0.1,1.7-0.3c0.5-0.2,0.9-0.6,1.2-1L163.5,221.1z M162.2,217.4c0-0.8-0.3-1.4-0.8-1.9
				c-0.5-0.5-1.1-0.7-2-0.7s-1.5,0.2-2,0.7c-0.5,0.5-0.8,1.1-0.9,1.9H162.2z M166.3,208h1.5v14.7h-1.5V208z M176.2,213.6h1.5v1.3h0
				c0.4-0.5,0.9-0.9,1.4-1.1c0.6-0.3,1.2-0.4,1.8-0.4c0.7,0,1.4,0.1,1.9,0.4c0.6,0.2,1.1,0.6,1.5,1c0.4,0.4,0.7,0.9,1,1.5
				c0.2,0.6,0.4,1.2,0.4,1.9s-0.1,1.3-0.4,1.9c-0.2,0.6-0.6,1.1-1,1.5c-0.4,0.4-0.9,0.8-1.4,1c-0.6,0.2-1.2,0.4-1.8,0.4
				c-0.8,0-1.5-0.2-2.2-0.5c-0.6-0.4-1.1-0.8-1.3-1.3h0v6h-1.5V213.6z M177.7,218.2c0,0.5,0.1,0.9,0.2,1.3c0.2,0.4,0.4,0.8,0.7,1.1
				c0.3,0.3,0.6,0.5,1,0.7c0.4,0.2,0.8,0.3,1.3,0.3c0.5,0,0.9-0.1,1.3-0.3c0.4-0.2,0.7-0.4,1-0.7c0.3-0.3,0.5-0.7,0.6-1.1
				c0.2-0.4,0.2-0.9,0.2-1.3c0-0.5-0.1-0.9-0.2-1.3c-0.1-0.4-0.4-0.8-0.6-1.1c-0.3-0.3-0.6-0.6-1-0.7c-0.4-0.2-0.8-0.3-1.3-0.3
				c-0.5,0-0.9,0.1-1.3,0.3c-0.4,0.2-0.7,0.4-1,0.7c-0.3,0.3-0.5,0.7-0.7,1.1C177.7,217.3,177.7,217.7,177.7,218.2z M188,214.8
				c0.5-0.5,1-0.8,1.7-1.1c0.6-0.2,1.3-0.4,2-0.4c1.3,0,2.3,0.3,2.9,1c0.6,0.6,0.9,1.6,0.9,2.9v3.9c0,0.3,0,0.5,0,0.8
				c0,0.3,0.1,0.5,0.1,0.8h-1.5c-0.1-0.2-0.1-0.4-0.1-0.7c0-0.3,0-0.5,0-0.7h0c-0.3,0.5-0.7,0.8-1.2,1.1c-0.5,0.3-1.1,0.4-1.8,0.4
				c-0.5,0-0.9-0.1-1.3-0.2c-0.4-0.1-0.8-0.3-1.1-0.5c-0.3-0.2-0.5-0.5-0.7-0.9c-0.2-0.3-0.3-0.7-0.3-1.2c0-0.8,0.2-1.3,0.6-1.8
				c0.4-0.4,0.9-0.7,1.4-1c0.6-0.2,1.2-0.3,1.9-0.4c0.7-0.1,1.3-0.1,1.8-0.1h0.6v-0.3c0-0.7-0.2-1.2-0.6-1.5
				c-0.4-0.3-0.9-0.5-1.7-0.5c-0.5,0-1,0.1-1.5,0.3c-0.5,0.2-0.9,0.4-1.2,0.7L188,214.8z M192.4,218.4c-1,0-1.7,0.1-2.3,0.4
				c-0.6,0.3-0.9,0.7-0.9,1.3c0,0.6,0.2,1,0.6,1.2c0.4,0.2,0.9,0.4,1.4,0.4c0.4,0,0.8-0.1,1.1-0.2c0.3-0.2,0.6-0.4,0.8-0.6
				c0.2-0.2,0.4-0.5,0.5-0.9c0.1-0.3,0.2-0.7,0.2-1.1v-0.6H192.4z M198.4,213.6h1.5v9.1h-1.5V213.6z M198,210.1
				c0-0.3,0.1-0.6,0.3-0.8c0.2-0.2,0.5-0.3,0.8-0.3c0.3,0,0.6,0.1,0.8,0.3c0.2,0.2,0.3,0.5,0.3,0.8c0,0.3-0.1,0.6-0.3,0.8
				c-0.2,0.2-0.5,0.3-0.8,0.3c-0.3,0-0.6-0.1-0.8-0.3C198.1,210.7,198,210.4,198,210.1z M203.1,220.3c0.3,0.4,0.6,0.7,1,0.9
				c0.4,0.2,0.8,0.3,1.4,0.3c0.2,0,0.5,0,0.7-0.1c0.2-0.1,0.5-0.1,0.7-0.3c0.2-0.1,0.4-0.3,0.5-0.4c0.1-0.2,0.2-0.4,0.2-0.6
				c0-0.2-0.1-0.4-0.2-0.6c-0.1-0.2-0.2-0.3-0.4-0.4c-0.2-0.1-0.4-0.2-0.6-0.3c-0.2-0.1-0.5-0.1-0.7-0.2c-0.4-0.1-0.8-0.2-1.2-0.3
				c-0.4-0.1-0.7-0.3-1-0.4c-0.3-0.2-0.5-0.4-0.7-0.7c-0.2-0.3-0.3-0.7-0.3-1.1c0-0.4,0.1-0.8,0.3-1.2c0.2-0.3,0.5-0.6,0.8-0.8
				c0.3-0.2,0.7-0.4,1.1-0.5c0.4-0.1,0.8-0.2,1.2-0.2c0.6,0,1.2,0.1,1.8,0.4c0.6,0.3,1,0.7,1.3,1.3l-1.3,0.8
				c-0.2-0.3-0.5-0.6-0.8-0.8c-0.3-0.2-0.7-0.3-1.1-0.3c-0.2,0-0.4,0-0.6,0.1c-0.2,0.1-0.4,0.1-0.6,0.2c-0.2,0.1-0.3,0.2-0.4,0.4
				c-0.1,0.2-0.2,0.3-0.2,0.5c0,0.2,0.1,0.4,0.2,0.5c0.1,0.1,0.3,0.2,0.5,0.4c0.2,0.1,0.5,0.2,0.7,0.3c0.3,0.1,0.6,0.1,0.9,0.2
				c0.4,0.1,0.8,0.2,1.1,0.3c0.4,0.1,0.7,0.3,1,0.5c0.3,0.2,0.5,0.5,0.6,0.8c0.2,0.3,0.2,0.7,0.2,1.1c0,0.5-0.1,1-0.3,1.3
				c-0.2,0.4-0.5,0.7-0.8,0.9c-0.3,0.2-0.7,0.4-1.2,0.5c-0.4,0.1-0.9,0.2-1.3,0.2c-0.8,0-1.5-0.1-2-0.4c-0.6-0.2-1.1-0.7-1.5-1.3
				L203.1,220.3z M211.1,214.8c0.5-0.5,1-0.8,1.7-1.1c0.6-0.2,1.3-0.4,2-0.4c1.3,0,2.3,0.3,2.9,1c0.6,0.6,0.9,1.6,0.9,2.9v3.9
				c0,0.3,0,0.5,0,0.8c0,0.3,0.1,0.5,0.1,0.8h-1.5c-0.1-0.2-0.1-0.4-0.1-0.7c0-0.3,0-0.5,0-0.7h0c-0.3,0.5-0.7,0.8-1.2,1.1
				c-0.5,0.3-1.1,0.4-1.8,0.4c-0.5,0-0.9-0.1-1.3-0.2c-0.4-0.1-0.8-0.3-1.1-0.5c-0.3-0.2-0.5-0.5-0.7-0.9c-0.2-0.3-0.3-0.7-0.3-1.2
				c0-0.8,0.2-1.3,0.6-1.8c0.4-0.4,0.9-0.7,1.4-1c0.6-0.2,1.2-0.3,1.9-0.4c0.7-0.1,1.3-0.1,1.8-0.1h0.6v-0.3c0-0.7-0.2-1.2-0.6-1.5
				c-0.4-0.3-0.9-0.5-1.7-0.5c-0.5,0-1,0.1-1.5,0.3c-0.5,0.2-0.9,0.4-1.2,0.7L211.1,214.8z M215.5,218.4c-1,0-1.7,0.1-2.3,0.4
				c-0.6,0.3-0.9,0.7-0.9,1.3c0,0.6,0.2,1,0.6,1.2c0.4,0.2,0.9,0.4,1.4,0.4c0.4,0,0.8-0.1,1.1-0.2c0.3-0.2,0.6-0.4,0.8-0.6
				c0.2-0.2,0.4-0.5,0.5-0.9c0.1-0.3,0.2-0.7,0.2-1.1v-0.6H215.5z M222.9,224.8c0,0.2,0,0.5-0.1,0.8c-0.1,0.3-0.2,0.6-0.4,0.9
				c-0.2,0.3-0.5,0.5-0.8,0.7c-0.4,0.2-0.8,0.3-1.4,0.3c-0.2,0-0.4,0-0.5,0c-0.2,0-0.4-0.1-0.5-0.2l0.2-1.3c0.2,0.1,0.5,0.1,0.7,0.1
				c0.3,0,0.5-0.1,0.7-0.2c0.2-0.1,0.3-0.2,0.4-0.4c0.1-0.2,0.1-0.4,0.2-0.6c0-0.2,0.1-0.5,0.1-0.7v-10.4h1.5V224.8z M221,210.1
				c0-0.3,0.1-0.6,0.3-0.8c0.2-0.2,0.5-0.3,0.8-0.3c0.3,0,0.6,0.1,0.8,0.3c0.2,0.2,0.3,0.5,0.3,0.8c0,0.3-0.1,0.6-0.3,0.8
				c-0.2,0.2-0.5,0.3-0.8,0.3c-0.3,0-0.6-0.1-0.8-0.3C221.1,210.7,221,210.4,221,210.1z M234.1,221.1c-0.5,0.7-1.1,1.2-1.8,1.5
				c-0.6,0.3-1.4,0.4-2.3,0.4c-0.7,0-1.4-0.1-1.9-0.4c-0.6-0.3-1.1-0.6-1.5-1c-0.4-0.4-0.7-0.9-0.9-1.5c-0.2-0.6-0.3-1.2-0.3-1.9
				c0-0.7,0.1-1.3,0.4-1.9c0.2-0.6,0.6-1.1,1-1.5c0.4-0.4,0.9-0.8,1.5-1c0.6-0.2,1.2-0.4,1.9-0.4c0.6,0,1.2,0.1,1.8,0.3
				c0.5,0.2,1,0.5,1.4,0.9c0.4,0.4,0.7,0.9,0.9,1.5c0.2,0.6,0.3,1.3,0.3,2v0.5H227c0,0.4,0.1,0.8,0.3,1.1c0.2,0.4,0.4,0.7,0.6,0.9
				c0.3,0.3,0.6,0.5,0.9,0.6c0.4,0.2,0.7,0.2,1.1,0.2c0.7,0,1.2-0.1,1.7-0.3c0.5-0.2,0.9-0.6,1.2-1L234.1,221.1z M232.8,217.4
				c0-0.8-0.3-1.4-0.8-1.9c-0.5-0.5-1.1-0.7-2-0.7c-0.8,0-1.5,0.2-2,0.7c-0.5,0.5-0.8,1.1-0.9,1.9H232.8z"/>
			<path class="st3" d="M149.6,125c-4.5,4.8-9,9.7-13.6,14.5c-1.1,1.1-2.6,2.4-4,1.7c1.4-4.8,2.7-9.5,4-14.3c0.3-1.2,0.6-2.5,0-3.5
				c-0.9-1.6-3.4-1.4-5.2-0.9s-4.1,1.1-5.4-0.2c-1.6-3.5,12.2-18.3,15.6-20.8c8.4-6.4-0.5,11.5,1.1,14c1.8,2.9,7.3,0.2,9.4,3
				C153.1,120.5,151.3,123.2,149.6,125z M175.2,136c-5.2-9.6-10.5-19.2-15.7-28.8c-4.8-8.8-15.8-31.7-27.9-21.1
				c-6.9,6-11.1,14.4-15.2,22.6c-4.4,8.8-8.8,17.6-13.3,26.4c-1.8,3.7-3.6,6.5-3.6,10.6c0,3.5,4.8,3.3,5.5,3.4
				c21.6,1.5,40.2,2.4,61.8,2.8c3.5,0.1,7.6-0.1,9.8-2.8C179.6,145.6,177.4,140.2,175.2,136z"/>
		</g>
	</g>
</g>
</svg>
