<?xml version="1.0" encoding="utf-8"?>
<!-- Generator: Adobe Illustrator 24.0.2, SVG Export Plug-In . SVG Version: 6.00 Build 0)  -->
<svg version="1.1" id="Capa_1" xmlns="http://www.w3.org/2000/svg" xmlns:xlink="http://www.w3.org/1999/xlink" x="0px" y="0px"
	 viewBox="0 0 285 357" style="enable-background:new 0 0 285 357;" xml:space="preserve">
<style type="text/css">
	.st0{clip-path:url(#SVGID_2_);}
	.st1{opacity:0.72;fill:#0B2650;enable-background:new    ;}
	.st2{fill:#FFFFFF;}
	.st3{font-family:'Avenir-Roman';}
	.st4{font-size:19.4544px;}
</style>
<g>
	<g>
		<defs>
			<path id="SVGID_1_" d="M204.6,9.1c0,0-51.5-11.6-97.1-6.7C34.1,3.8,20.7,53.9,20.7,53.9s-14.3,51-16.1,68.5s-11.2,95.3,4.9,132.9
				c19.2,46.1,53.7,65.3,67.1,75.2c9.4-0.5,28.2,8.5,28.2,8.5s51.5,17.5,73.8,16.6c66.2-9,85.5-59.1,85.5-59.1s51.5-113.4-8-241.6
				c-5.4-26-44.8-43-44.8-43L204.6,9.1z"/>
		</defs>
		<clipPath id="SVGID_2_">
			<use xlink:href="#SVGID_1_"  style="overflow:visible;"/>
		</clipPath>
		<g class="st0">
			
				<image style="overflow:visible;enable-background:new    ;" width="3500" height="1750" xlink:href="48568300518CE073.jpeg"  transform="matrix(0.2127 0 0 0.2127 -141.0422 -16.6764)">
			</image>
		</g>
	</g>
</g>
<path class="st1" d="M204.6,9.1c0,0-51.5-11.6-97.1-6.7C34.1,3.8,20.7,53.9,20.7,53.9s-14.3,51-16.1,68.5s-11.2,95.3,4.9,132.9
	c19.2,46.1,53.7,65.3,67.1,75.2c9.4-0.5,28.2,8.5,28.2,8.5s51.5,17.5,73.8,16.6c66.2-9,85.5-59.1,85.5-59.1s51.5-113.4-8-241.6
	c-5.4-26-44.8-43-44.8-43L204.6,9.1z"/>
<text transform="matrix(1 0 0 1 61.0444 195.9048)" class="st2 st3 st4">Mayor seguridad y</text>
<text transform="matrix(1 0 0 1 49.7644 222.1948)" class="st2 st3 st4">visibilidad del paisaje</text>
<path class="st2" d="M149.6,125c-4.5,4.8-9,9.7-13.6,14.5c-1.1,1.1-2.6,2.4-4,1.7c1.4-4.8,2.7-9.5,4-14.3c0.3-1.2,0.6-2.5,0-3.5
	c-0.9-1.6-3.4-1.4-5.2-0.9s-4.1,1.1-5.4-0.2c-1.6-3.5,12.2-18.3,15.6-20.8c8.4-6.4-0.5,11.5,1.1,14c1.8,2.9,7.3,0.2,9.4,3
	C153.1,120.5,151.3,123.2,149.6,125 M175.2,136c-5.2-9.6-10.5-19.2-15.7-28.8c-4.8-8.8-15.8-31.7-27.9-21.1
	c-6.9,6-11.1,14.4-15.2,22.6c-4.4,8.8-8.8,17.6-13.3,26.4c-1.8,3.7-3.6,6.5-3.6,10.6c0,3.5,4.8,3.3,5.5,3.4
	c21.6,1.5,40.2,2.4,61.8,2.8c3.5,0.1,7.6-0.1,9.8-2.8C179.6,145.6,177.4,140.2,175.2,136"/>
</svg>
