<svg width="40" height="63" viewBox="0 0 40 63" fill="none" xmlns="http://www.w3.org/2000/svg">
<g clip-path="url(#clip0)">
<path d="M2.46011 55.11C5.53011 60.5 11.0501 62.14 16.1301 62.54C22.1301 63.01 28.7101 61.99 33.0101 56.41C34.9901 53.84 36.3101 50.51 37.3001 47.08C39.3601 39.96 39.9701 17.28 36.8901 10.85C35.4001 7.74001 33.1501 5.38001 30.7201 3.62001C22.9301 -1.97999 14.0201 -0.899991 6.81011 5.67001C1.92011 10.13 0.980114 15.57 0.340114 23.06C-0.189886 29.13 -0.479886 49.94 2.46011 55.11Z" fill="#F8BBAB"/>
<path d="M25.7 53.8H20.45V39.9H25.7V53.8ZM17.31 48.03H8.12004V40.68H17.3V48.03H17.31ZM11.88 9.72998H5.06004V19.17H11.88V9.72998V9.72998ZM30.69 32.03H22.56V23.64H30.69V32.03V32.03ZM34.27 53.8H5.06004V36.49H34.27V53.8ZM34.16 36.49H5.04004V19.17H34.16V36.49V36.49Z" stroke="#265B33" stroke-width="1.719" stroke-miterlimit="10"/>
</g>
<defs>
<clipPath id="clip0">
<rect width="39.03" height="62.64" fill="white"/>
</clipPath>
</defs>
</svg>
