<svg width="324" height="433" viewBox="0 0 324 433" fill="none" xmlns="http://www.w3.org/2000/svg">
<path d="M205.329 0L280.395 43.6314L324 118.744V205.454L280.395 280.566L205.329 324.198H118.671L43.6048 280.566L0 205.454V118.744L43.6048 43.6314L118.671 0H205.329ZM197.049 31.4809H126.951L66.2351 66.2755L31.4617 127.028V197.17L66.2351 257.922L126.951 292.717H197.049L257.765 257.922L292.538 197.17V127.028L257.765 66.2755L197.049 31.4809Z" fill="white"/>
<path d="M75.6185 335.243H94.3851C97.1449 335.243 99.3528 337.453 99.3528 340.214V388.264C99.3528 392.13 103.768 394.339 106.528 392.13L159.516 354.021C161.172 352.917 163.38 352.917 165.036 354.021L218.576 392.13C221.888 394.339 225.751 392.13 225.751 388.264V340.214C225.751 337.453 227.959 335.243 230.719 335.243H248.382C251.141 335.243 252.797 337.453 252.797 339.662L257.213 428.029C257.213 430.791 255.005 433 252.797 433H232.927C231.823 433 231.271 432.447 230.167 432.447L164.484 387.711C162.828 386.607 160.62 386.607 158.964 387.711L98.2488 431.895C97.6969 432.447 96.593 433 95.489 433H71.2028C68.443 433 66.2352 430.791 66.7872 428.029L71.2028 339.662C71.2028 336.9 72.8587 335.243 75.6185 335.243Z" fill="white"/>
</svg>
