<?xml version="1.0" encoding="utf-8"?>
<!-- Generator: Adobe Illustrator 24.0.2, SVG Export Plug-In . SVG Version: 6.00 Build 0)  -->
<svg version="1.1" id="Capa_1" xmlns="http://www.w3.org/2000/svg" xmlns:xlink="http://www.w3.org/1999/xlink" x="0px" y="0px"
	 viewBox="0 0 12.4 14.4" style="enable-background:new 0 0 12.4 14.4;" xml:space="preserve">
<style type="text/css">
	.st0{fill:#CF9A43;}
	.st1{fill:#E8E8E8;}
	.st2{fill:#D74A7B;}
</style>
<g>
	<path class="st0" d="M2.7,7.3c-0.2,0-0.3,0-0.4-0.1C2.1,7.1,2.1,7,2,6.9c0-0.1,0-0.3,0-0.4C2,6.3,2.1,6.1,2.2,6
		c0.1-0.1,0.2-0.2,0.4-0.3c0.3-0.1,0.6-0.1,0.9-0.1c0.2,0,0.4,0.2,0.4,0.4c0,0,0,0.1,0,0.1c0,0,0,0.1,0,0.1c0,0.1,0,0.2,0,0.2
		c0,0.1,0,0.1,0,0.2c0,0,0,0.1,0,0.1c0,0,0,0.1,0,0.1C3.9,6.9,3.9,7,3.8,7C3.7,7.1,3.6,7.1,3.5,7.2c-0.1,0-0.2,0.1-0.4,0.1
		c-0.1,0-0.2,0-0.3,0C2.8,7.3,2.7,7.3,2.7,7.3z"/>
	<path class="st0" d="M5.2,8.2c-0.1,0-0.2,0-0.3-0.1C4.7,8,4.7,7.9,4.7,7.8c0-0.1,0-0.2,0-0.3c0-0.1,0.1-0.3,0.1-0.4
		C4.9,7,5,7,5.1,6.9c0.2-0.1,0.5-0.1,0.7-0.1C6,6.9,6.1,7,6.2,7.2c0,0,0,0.1,0,0.1c0,0,0,0,0,0.1c0,0.1,0,0.1,0,0.2c0,0,0,0.1,0,0.1
		c0,0,0,0.1,0,0.1c0,0,0,0.1,0,0.1c0,0.1-0.1,0.1-0.1,0.1C6.1,8,6,8.1,5.9,8.1c-0.1,0-0.2,0.1-0.3,0.1c-0.1,0-0.1,0-0.2,0
		C5.3,8.2,5.3,8.2,5.2,8.2z"/>
	<g>
		<path class="st1" d="M5.5,5.1L5.5,5.1c0.2,0.2,0.5,0.2,0.7,0.2c0.3,0,0.6-0.1,0.8-0.4C7,4.8,7.1,4.7,7.1,4.5C7.2,4.3,7.1,4,7,3.7
			C6.9,3.6,6.7,3.6,6.6,3.5c-0.4-0.1-0.8,0-1.1,0.3C5.3,4,5.3,4.2,5.3,4.5C5.3,4.7,5.3,4.9,5.5,5.1z"/>
	</g>
	<g>
		<path class="st1" d="M3.1,8.3L3.1,8.3c-0.2-0.1-0.4,0-0.6,0.1C2.3,8.4,2.1,8.6,2,8.8C2,8.9,2,9,2,9.1c0,0.2,0.1,0.4,0.3,0.6
			c0.1,0.1,0.2,0.1,0.3,0.1c0.3,0,0.6-0.2,0.8-0.5c0.1-0.2,0.1-0.4,0-0.6C3.3,8.5,3.3,8.3,3.1,8.3z"/>
	</g>
	<g>
		<path class="st2" d="M9,5.7L9,5.7c0.1,0.1,0.3,0.1,0.5,0.1c0.2,0,0.4-0.1,0.5-0.2c0.1-0.1,0.1-0.2,0.1-0.3c0-0.2,0-0.4-0.1-0.6
			C10,4.7,9.9,4.6,9.8,4.6C9.5,4.5,9.2,4.6,9,4.8C8.9,4.9,8.9,5.1,8.9,5.3C8.9,5.4,8.9,5.6,9,5.7z"/>
	</g>
	<g>
		<path class="st1" d="M7.6,7.5L7.6,7.5c0.1,0.1,0.3,0.1,0.5,0.1c0.2,0,0.4-0.1,0.5-0.2c0.1-0.1,0.1-0.2,0.1-0.3
			c0-0.2,0-0.4-0.1-0.6C8.6,6.4,8.5,6.4,8.4,6.3c-0.3-0.1-0.6,0-0.8,0.2C7.5,6.7,7.4,6.8,7.5,7C7.5,7.2,7.5,7.3,7.6,7.5z"/>
	</g>
</g>
</svg>
