<?xml version="1.0" encoding="utf-8"?>
<!-- Generator: Adobe Illustrator 24.0.2, SVG Export Plug-In . SVG Version: 6.00 Build 0)  -->
<svg version="1.1" id="Capa_1" xmlns="http://www.w3.org/2000/svg" xmlns:xlink="http://www.w3.org/1999/xlink" x="0px" y="0px"
	 viewBox="0 0 44.4 63" style="enable-background:new 0 0 44.4 63;" xml:space="preserve">
<style type="text/css">
	.st0{fill:#FDCF96;}
	.st1{fill:#F6A291;}
	.st2{fill:#C9CACF;}
	.st3{fill:#215A36;}
	.st4{fill:#4E5BA6;}
</style>
<path class="st0" d="M4.4,16.9h9.4c-1.3,1.4-3.1,4-4.7,7C7.6,20.9,5.8,18.3,4.4,16.9z"/>
<path class="st1" d="M9.2,38.7c-5.8,0-3.4-8.2,0-14.8C12.6,30.5,14.9,38.7,9.2,38.7z"/>
<path class="st2" d="M13.8,16.9h16.4c-2.3,2.4-5.4,7-8.1,12.2C19.4,23.9,16.2,19.3,13.8,16.9z"/>
<path class="st0" d="M22.1,29.1C28,40.4,31.9,54.4,22,54.5l0,0C12.1,54.4,16.2,40.4,22.1,29.1z"/>
<path class="st3" d="M30.2,16.9h9.5c-1.4,1.4-3.2,4.1-4.8,7.1C33.4,20.9,31.6,18.3,30.2,16.9z"/>
<path class="st4" d="M35,38.7c-5.7,0-3.5-8.2,0-14.7C38.4,30.5,40.7,38.7,35,38.7z"/>
</svg>
