<?xml version="1.0" encoding="utf-8"?>
<!-- Generator: Adobe Illustrator 24.0.2, SVG Export Plug-In . SVG Version: 6.00 Build 0)  -->
<svg version="1.1" id="Capa_1" xmlns="http://www.w3.org/2000/svg" xmlns:xlink="http://www.w3.org/1999/xlink" x="0px" y="0px"
	 viewBox="0 0 1440 482" style="enable-background:new 0 0 1440 482;" xml:space="preserve">
<style type="text/css">
	.st0{fill:#215A36;}
	.st1{fill-rule:evenodd;clip-rule:evenodd;fill:#F9B2A2;}
	.st2{clip-path:url(#SVGID_2_);}
	.st3{fill:#3D753F;}
	.st4{fill:#EB983F;}
</style>
<rect class="st0" width="1440" height="482"/>
<path class="st1" d="M0,472.1V49.4c126.3,4.8,587.3,19,957.2,9.5c278.7-7.2,417.7-7.9,482.8-6.5V468c-32.2,10-80.1,15.8-149.8,13.5
	c-84.7-2.8-149.6-6.8-211.1-10.6c-131.2-8.1-246.7-15.2-505.4-7.5c-151.1,4.5-278,5.2-379.3,5.8C112.9,469.6,47.9,470,0,472.1z"/>
<g>
	<g>
		<defs>
			<rect id="SVGID_1_" x="1338.6" y="-1" width="101.4" height="161"/>
		</defs>
		<clipPath id="SVGID_2_">
			<use xlink:href="#SVGID_1_"  style="overflow:visible;"/>
		</clipPath>
		<g class="st2">
			<path class="st3" d="M1455.9,134.7c0.2-0.2,0.4-0.3,0.6-0.5c-4.4-2.9-4.5-9.3-7-14.1c-1.8-3.3-4.8-5.8-6.9-8.9
				c-3.4-5.1-4.1-12-1.7-17.7c9.4,8.3,12.2,21.6,16.8,33.4c0.7,1.9,1.9,4,3.9,4.1c1.2,0,2.2-0.7,3.1-1.4c1.5-1.1,3.1-2.2,4.6-3.3
				c0.5-0.4,1-0.8,1.1-1.4c0-0.4-0.1-0.8-0.3-1.2c-1.4-3-2.8-6.1-4.2-9.1c-3.9-8.3-8.1-17-15.7-22.2c0.5-1.4,2.3-2.1,3.8-1.8
				s2.8,1.2,3.9,2.2c7.1,6,12.4,14,15.3,22.8c0.4,1.2,1,2.6,2.3,2.6c0.7,0,1.4-0.5,1.9-1c2.6-2.3,5.2-4.8,6.9-7.8
				c1.7-3.1,2.4-6.9,0.9-10c-1.2-2.5-3.5-4.1-5.7-5.7c-6-4.1-12.3-7.8-18.8-11c8.6-5.9,16.4-13.2,22.8-21.4c2.4-3.1,6.6-10.3,3-10.7
				c-4,1.4-6.1,5.6-8.3,9.2c-5.4,8.8-13.3,15.9-22.6,20.3c3.8-4.3,7.2-8.9,9.4-14.2c2.2-5.3,2.9-11.2,1.3-16.7
				c-0.4-1.3-1-2.6-1.9-3.5c-0.9-0.9-2.2-1.4-3.4-1.8c-3.5-1.1-7.2-1.4-10.8-1c-1.1,0.1-2.3,0.4-2.9,1.3c-0.7,1-0.5,2.4-0.3,3.7
				c2.1,10.6,1.4,21.7-2.1,31.9c-0.6,1.7-2,3.8-3.7,3.2c-0.7-3.8,1.1-7.5,2.3-11.2c2.8-9,1.6-19.1-3.1-27.2
				c-3.4-5.8-9.7-10.9-16.2-9.5c-2.4,0.5-4.5,1.9-6.6,3.2c-0.3,0.2-0.5,0.3-0.8,0.5c0,0-2.4,1.5-2.8,2.8c-0.4,1.3,1.9,4.3,4.4,7.4
				c1.1,1.4,2.6,2.5,3.8,3.8c1,1.1,2,2.3,2.8,3.6c0.8,1.1,1.4,2.3,1.9,3.5c0.3,1,0.6,2,0.8,3c0.3,1.1,0.6,2.1,0.9,3.2
				c0.2,0.6,0.5,1.2,0.6,1.9c0.4,1.6,0.8,3.2,1.2,4.8c0,0.2,0.1,0.3,0.1,0.5c0,1.3,0,2.6,0.1,3.9c0,0.8,0.3,1.7,0.3,2.5
				c0,0.8,0.2,1.5,0.4,2.2c0.1,0.2,0.3,0.4,0.3,0.6c0.5,1,1,2.1,1.4,3.1c0.1,0.2,0,0.4,0.1,0.6l-0.2,0.1c-0.2-0.3-0.5-0.6-0.7-1
				c-0.9-1.6-1.6-3.3-1.8-5.2c-0.1-0.7-0.2-1.4-0.2-2.1c0-0.6-0.1-1.1-0.2-1.6c-0.2-0.9-0.3-1.8-0.4-2.6c-0.1-0.8-0.4-1.5-0.7-2.3
				c-0.4-0.9-0.6-1.9-1.1-2.8c-0.7-1.5-1-3.1-1.5-4.7c-0.5-1.8-1-3.5-1.9-5.2c-0.9-1.6-1.9-3.1-2.9-4.6c-0.7-1-1.4-1.9-2-3
				c-0.4-0.6-0.8-1.1-1.3-1.6c0,0,0,0,0,0c0,0,0-0.1-0.1-0.1c-0.1-0.1-0.2-0.2-0.3-0.3c0,0,0,0,0,0c-1.2-1.3-4.4-4.6-5-5.2
				c-0.6-0.6-2.4-1-3.9,0l0,0c-2.1,1.4-4.2,2.8-6.4,4.1c-1.4,0.9-2.9,1.9-3.7,3.3c-1.4,2.6-0.4,5.9,1.5,8.1c1.9,2.2,4.6,3.6,7.2,5
				c7,4.1,13.6,10.4,14.1,18.4c0.1,1.7-0.2,3.6-1.7,4.4c-2,1.2-4.6-0.6-6-2.5c-3.3-4.3-5.1-9.5-7.8-14.2
				c-4.1-7.2-10.2-13.2-17.4-17.3c-4,1.5-6.1,6.1-5.7,10.3c0.4,4.2,2.9,7.9,5.7,11s6.2,5.7,9,8.9c0.9,1,1.7,2.6,0.8,3.6
				c-5.5-3.3-10.5-7.7-16.4-10.2c-6-2.5-13.6-2.5-18.1,2.2c6.6,6.4,18.5,3.8,25.2,10.1c-8.2,1.9-15.8-4.9-24.2-5.8
				c-6.2-0.6-12.1,2-17.6,4.9c-0.7,0.4-1.4,0.8-1.9,1.4c-0.8,1-0.8,2.4-0.5,3.6c1.1,4.1,5.6,6.3,9.8,7.2c7.1,1.6,14.6,0.9,21.2-1.9
				c-5.3,5.1-9.1,11.7-10.9,18.9c-0.1,0.5-0.3,1.1,0,1.5c0.3,0.6,0.9,0.9,1.6,1c6.6,1.7,13.1-3.1,17.3-8.4
				c4.2-5.3,7.7-11.6,13.6-14.9c1-0.6,2.7-0.8,2.9,0.4c0.1,0.7-0.5,1.3-1.1,1.7c-9.2,6.9-16.6,16.1-21.3,26.5c2.4,3.4,5.6,7.2,9.8,7
				c2.7-1.7,5.1-4,6.9-6.6c2-3,3.3-6.5,4.9-9.8c3.9-8.4,10.6-16.3,19.6-18.3c-1.1,4.4-3.3,8.6-6.3,12.1c-3.6,4.2-8.3,7.3-12.2,11.2
				c-3.8,3.9-6.9,8.5-8.8,13.6c-0.1,0.3,1.9,2.1,2.2,2.4c0.9,0.8,1.8,1.5,2.8,2.2c2,1.3,4.1,2.3,6.4,2.9c2.1,0.6,4.3-1.7,5.5-3.2
				c1.5-1.9,2.4-4.2,3-6.5c1-4.2,1-8.7,2.3-12.8c0.9-2.9,2.5-5.6,3.7-8.4c1.6-3.7,2.7-7.6,3.7-11.5c0.3-1.3,0.8-2.7,1.8-3.6
				c1.1-0.8,3-0.6,3.4,0.7c-4.5,5.6-7.4,12.5-8.4,19.7c-1.2,8.8,0.5,18.3-3.3,26.3c5.8,1.3,12.1-0.5,16.3-4.7
				C1439.1,142,1449.3,140.5,1455.9,134.7z M1431.9,131.4c-0.1-0.1-0.2-0.3-0.2-0.4c0.2-1.2-0.2-2.3-0.2-3.4c0-1-0.3-2-0.4-3
				c-0.1-0.9-0.2-1.8-0.3-2.7c-0.3-2-0.2-4.1-0.1-6.1c0.1-1.7,0.2-3.3,0.3-5c0.1-0.7,0.3-1.4,0.4-2.1c0-0.2,0.1-0.4,0.1-0.5
				c0.2-1.7,0.9-3.2,2-4.5c1,0.3,1.8,0.8,2.2,1.8c0.7,1.6,1.4,3.3,2,5c0.5,1.6,0.5,3.3,0.1,5c-0.1,0.3-0.1,0.7-0.2,1
				c-0.2,0.8-0.4,1.6-0.6,2.5c-0.2,0.7-0.3,1.5-0.5,2.2c-0.1,0.5-0.3,1.1-0.6,1.4c-1.1,1.3-1.7,2.9-2.3,4.5
				c-0.6,1.4-1.1,2.9-1.6,4.4C1432.1,131.4,1432,131.4,1431.9,131.4z"/>
			<g>
				<g>
					<path class="st4" d="M1407.2,72.5c-3.2,0.4-6.5,0.6-9.7,0.8c-0.3,0-0.5,0-0.7-0.1c-0.4-0.3-0.4-1,0-1.3s0.9-0.5,1.4-0.6
						c6.9-1.6,13.8-3.4,20.6-5.3c3.5-1,7-2,10.2-3.7c-12.5,0.7-25,0.7-37.4,0.1c-0.8,0-1.8-0.4-1.7-1.2c0.1-0.5,0.7-0.7,1.2-0.8
						c5.5-1.1,11.1-2.1,16.6-3.2c4.8,0,9.7-0.4,14.4-1.1c-9.6-3.8-19.6-6.8-29.7-9c-0.6-0.1-1.3-0.4-1.5-1c-0.2-1,1.2-1.4,2.2-1.3
						c9.4,0.8,18.7,1.8,28.1,3c-7.6-6.1-15.8-11.4-24.6-15.7c-0.5-0.3-1.1-0.5-1.4-1.1c-0.3-0.5-0.2-1.3,0.4-1.5
						c0.3-0.1,0.5,0,0.8,0c10.4,2.2,19.2,8.8,29.1,12.6c-4.6-5.3-22.2-24.1-26.8-29.4c-0.4-0.5-0.8-1-0.9-1.6
						c-0.1-0.6,0.3-1.4,0.9-1.4c0.4,0,0.7,0.2,1,0.5c4.8,3.8,22.5,21.3,26.9,25.5c-3.1-9.3-6.1-18.6-9.2-27.9
						c-0.3-0.8-0.3-2.1,0.6-2.1c0.5,0,0.8,0.4,1.1,0.7c4.7,6,8.6,12.5,11.7,19.4c0.7,1.5,1.3,3.1,2.3,4.5c1.2,1.6,2.8,3,3.7,4.7
						c0.1-8.6,0.2-17.3,0.3-25.9c0-0.5,0-1.1,0.3-1.6c0.3-0.5,0.9-0.7,1.4-0.4c0.2,0.1,0.3,0.4,0.4,0.6c1.7,3.6,2,7.6,2.2,11.6
						c0.4,5.6,0.8,11.2,1.1,16.8c3.3-7,9.1-20.5,9.9-21s1.2,1.6,1.2,2.7c-0.1,4.2-0.8,8.4-2,12.5c-0.1,2.1-1,4.1-1.7,6.1
						c-0.9,2.5-1.4,5.2-1.5,7.8c5.4-5.1,10.9-10.2,15.1-16.2c0.4-0.6,0.8-1.2,1.5-1.3c2.4-0.6,0.3,6.7-0.1,7.8
						c-1.1,3.1-2.7,5.9-4.3,8.8c-4.4,8.3-7.9,17.1-11.7,25.7c-0.2,0.5-0.5,1.1-1,1.4c-0.6,0.4-1.4,0.3-2.2,0.1
						C1433.1,68.2,1420.2,71,1407.2,72.5z"/>
				</g>
			</g>
		</g>
	</g>
</g>
</svg>
