<svg width="385" height="115" viewBox="0 0 385 115" fill="none" xmlns="http://www.w3.org/2000/svg">
<g clip-path="url(#clip0)">
<path d="M135.739 48.6509V76.0035H130.112V58.5814L118.916 76.0035H112.637L101.441 58.6395V76.0035H95.8145V48.6509H101.441L115.755 71.1253L130.112 48.6509H135.739Z" fill="#C1CEC5"/>
<path d="M148.645 48.6509V76.0035H143.019V48.6509H148.645Z" fill="#C1CEC5"/>
<path d="M184.35 69.4847V76.0035H178.752L178.737 69.8767C178.723 66.7553 176.316 65.9132 171.878 65.9132H161.553V75.989H155.926V48.6509H174.459C180.768 48.6509 184.944 51.1771 184.944 56.9409C184.944 61.5722 181.971 63.4451 178.056 64.0984C182.305 64.4323 184.35 65.6083 184.35 69.4847ZM174.459 61.4706C177.316 61.4706 179.289 59.8881 179.318 57.2603C179.332 54.7631 177.331 53.529 174.459 53.529H161.553V61.4706H174.459Z" fill="#C1CEC5"/>
<path d="M211.207 69.7751H197.169L194.341 76.0035H188.279L201.114 48.6509H207.219L220.169 76.0035H214.049L211.207 69.7751ZM209.307 65.5793L204.188 54.313L199.083 65.5793H209.307Z" fill="#C1CEC5"/>
<path d="M249.695 48.6509L237.746 76.0035H230.712L218.646 48.6509H224.868L234.222 71.0963L243.576 48.6509H249.695Z" fill="#C1CEC5"/>
<path d="M280.498 71.2995V75.989H253.785V48.6509H280.44V53.3403H259.397V60.614H276.611V64.1129H259.397V71.2995H280.498Z" fill="#C1CEC5"/>
<path d="M314.693 69.4847V76.0035H309.096L309.081 69.8767C309.067 66.7553 306.659 65.9132 302.222 65.9132H291.896V75.989H286.27V48.6509H304.803C311.111 48.6509 315.288 51.1771 315.288 56.9409C315.288 61.5722 312.315 63.4451 308.4 64.0984C312.649 64.4323 314.693 65.6083 314.693 69.4847ZM304.803 61.4706C307.66 61.4706 309.632 59.8881 309.661 57.2603C309.676 54.7631 307.674 53.529 304.803 53.529H291.896V61.4706H304.803Z" fill="#C1CEC5"/>
<path d="M352.79 62.2401C352.79 69.4847 348.526 76.0035 336.78 76.0035H321.146V48.6509H336.78C349.092 48.6509 352.79 54.9809 352.79 62.2401ZM347.076 62.2401C347.076 57.6087 344.741 53.529 336.664 53.529H326.788V71.1108H336.664C344.727 71.1108 347.076 66.8714 347.076 62.2401Z" fill="#C1CEC5"/>
<path d="M385 71.2995V75.989H358.287V48.6509H384.942V53.3403H363.899V60.614H381.113V64.1129H363.899V71.2995H385Z" fill="#C1CEC5"/>
<path d="M171.762 32.5791H174.677C175.083 32.5791 175.474 32.6227 175.822 32.6952C176.185 32.7678 176.504 32.8985 176.765 33.0727C177.04 33.2615 177.244 33.4938 177.403 33.7986C177.563 34.1035 177.635 34.4955 177.635 34.9601C177.635 35.4247 177.563 35.8022 177.418 36.1071C177.273 36.412 177.069 36.6588 176.808 36.8475C176.547 37.0362 176.243 37.1669 175.895 37.2395C175.547 37.3121 175.155 37.3556 174.749 37.3556H173.487V40.419H171.762V32.5791ZM173.487 35.9038H174.633C174.793 35.9038 174.938 35.8893 175.083 35.8603C175.228 35.8312 175.358 35.7877 175.474 35.7151C175.59 35.6425 175.677 35.5554 175.75 35.4247C175.822 35.3086 175.851 35.1489 175.851 34.9601C175.851 34.7569 175.808 34.5972 175.706 34.481C175.619 34.3649 175.489 34.2632 175.358 34.2052C175.213 34.1326 175.054 34.1035 174.88 34.0745C174.706 34.06 174.532 34.0455 174.372 34.0455H173.487V35.9038Z" fill="#C1CEC5"/>
<path d="M178.737 32.5791H181.768C182.174 32.5791 182.551 32.6227 182.899 32.6952C183.262 32.7678 183.566 32.8985 183.842 33.0872C184.103 33.276 184.32 33.5083 184.48 33.8132C184.639 34.118 184.712 34.4955 184.712 34.9601C184.712 35.5118 184.567 35.9909 184.277 36.3684C183.987 36.7604 183.566 37.0072 183.015 37.1088L185.002 40.419H182.928L181.289 37.2831H180.434V40.419H178.708V32.5791H178.737ZM180.477 35.8312H181.492C181.652 35.8312 181.811 35.8312 181.985 35.8167C182.159 35.8022 182.319 35.7731 182.45 35.7151C182.595 35.657 182.711 35.5699 182.798 35.4537C182.885 35.3376 182.943 35.1634 182.943 34.9601C182.943 34.7569 182.899 34.5972 182.827 34.481C182.74 34.3649 182.638 34.2632 182.522 34.2052C182.392 34.1471 182.247 34.1035 182.087 34.0745C181.927 34.0455 181.768 34.0455 181.608 34.0455H180.477V35.8312Z" fill="#C1CEC5"/>
<path d="M185.901 32.5791H187.627V40.4335H185.901V32.5791Z" fill="#C1CEC5"/>
<path d="M188.425 32.5791H190.397L192.34 37.7186H192.369L194.342 32.5791H196.198L192.964 40.4335H191.586L188.425 32.5791Z" fill="#C1CEC5"/>
<path d="M198.968 32.5791H200.404L203.812 40.4335H201.868L201.201 38.7639H198.156L197.503 40.4335H195.604L198.968 32.5791ZM199.635 34.8585L198.678 37.2976H200.592L199.635 34.8585Z" fill="#C1CEC5"/>
<path d="M204.594 32.5791H207.19C207.813 32.5791 208.408 32.6517 208.973 32.7969C209.539 32.9421 210.032 33.1598 210.453 33.4792C210.873 33.7986 211.207 34.2052 211.453 34.6988C211.7 35.2069 211.83 35.8167 211.83 36.5281C211.83 37.1669 211.714 37.7186 211.468 38.2122C211.221 38.6913 210.902 39.0978 210.496 39.4318C210.09 39.7657 209.626 40.0125 209.089 40.1722C208.553 40.3464 208.002 40.4335 207.422 40.4335H204.594V32.5791ZM206.319 38.8365H207.219C207.61 38.8365 207.987 38.793 208.335 38.7058C208.683 38.6187 208.973 38.4881 209.22 38.2993C209.466 38.1106 209.669 37.8638 209.814 37.5589C209.959 37.254 210.032 36.8765 210.032 36.4265C210.032 36.049 209.959 35.7151 209.814 35.4247C209.669 35.1343 209.481 34.902 209.234 34.7278C208.988 34.5391 208.698 34.4084 208.379 34.3068C208.045 34.2197 207.712 34.1616 207.349 34.1616H206.334V38.8365H206.319Z" fill="#C1CEC5"/>
<path d="M215.572 32.5791H217.008L220.416 40.4335H218.473L217.806 38.7639H214.76L214.108 40.4335H212.208L215.572 32.5791ZM216.24 34.8585L215.282 37.2976H217.197L216.24 34.8585Z" fill="#C1CEC5"/>
<path d="M224.477 32.5791H226.202V35.5118H229.552V32.5791H231.278V40.4335H229.552V37.0362H226.202V40.4335H224.477V32.5791Z" fill="#C1CEC5"/>
<path d="M235.469 32.5791H236.905L240.313 40.4335H238.369L237.702 38.7639H234.657L234.004 40.4335H232.104L235.469 32.5791ZM236.136 34.8585L235.179 37.2976H237.093L236.136 34.8585Z" fill="#C1CEC5"/>
<path d="M241.096 32.5791H244.025C244.359 32.5791 244.707 32.6081 245.055 32.6517C245.403 32.6952 245.707 32.7969 245.983 32.9421C246.258 33.0872 246.476 33.2905 246.65 33.5518C246.824 33.8132 246.911 34.1616 246.911 34.5826C246.911 35.0327 246.781 35.3957 246.534 35.686C246.287 35.9764 245.954 36.1942 245.548 36.3103V36.3394C245.809 36.3829 246.041 36.441 246.244 36.5571C246.461 36.6588 246.635 36.8039 246.781 36.9636C246.926 37.1379 247.042 37.3266 247.129 37.5444C247.216 37.7622 247.245 38.009 247.245 38.2558C247.245 38.6623 247.158 39.0107 246.984 39.2866C246.81 39.5624 246.577 39.7947 246.302 39.9544C246.026 40.1286 245.707 40.2448 245.359 40.3174C245.011 40.39 244.663 40.4335 244.315 40.4335H241.11V32.5791H241.096ZM242.821 35.7151H244.069C244.199 35.7151 244.33 35.7005 244.46 35.6715C244.591 35.6425 244.707 35.5989 244.808 35.5263C244.91 35.4537 244.997 35.3666 245.055 35.265C245.113 35.1489 245.156 35.0182 245.156 34.873C245.156 34.7133 245.127 34.5681 245.055 34.4665C244.982 34.3649 244.895 34.2777 244.779 34.2197C244.663 34.1616 244.547 34.118 244.402 34.089C244.257 34.06 244.127 34.0455 243.996 34.0455H242.821V35.7151ZM242.821 38.9672H244.373C244.504 38.9672 244.634 38.9527 244.779 38.9236C244.91 38.8946 245.04 38.8365 245.156 38.7639C245.272 38.6913 245.359 38.5897 245.432 38.4736C245.504 38.3574 245.533 38.2122 245.533 38.038C245.533 37.8493 245.49 37.7041 245.388 37.5879C245.301 37.4718 245.185 37.3847 245.04 37.3266C244.895 37.2685 244.75 37.225 244.591 37.2105C244.431 37.1959 244.272 37.1814 244.141 37.1814H242.836V38.9672H242.821Z" fill="#C1CEC5"/>
<path d="M248.246 32.5791H249.972V40.4335H248.246V32.5791Z" fill="#C1CEC5"/>
<path d="M253.06 34.1035H250.826V32.5791H257.033V34.1035H254.8V40.419H253.074V34.1035H253.06Z" fill="#C1CEC5"/>
<path d="M259.455 32.5791H260.891L264.299 40.4335H262.356L261.689 38.7639H258.643L257.991 40.4335H256.091L259.455 32.5791ZM260.122 34.8585L259.165 37.2976H261.08L260.122 34.8585Z" fill="#C1CEC5"/>
<path d="M270.216 34.6115C270.042 34.4083 269.839 34.2486 269.593 34.1324C269.346 34.0163 269.056 33.9727 268.737 33.9727C268.418 33.9727 268.113 34.0308 267.838 34.1615C267.562 34.2921 267.316 34.4664 267.113 34.6841C266.91 34.9164 266.75 35.1778 266.634 35.4826C266.518 35.7875 266.46 36.1215 266.46 36.4989C266.46 36.8619 266.518 37.2103 266.634 37.5152C266.75 37.8201 266.91 38.096 267.098 38.3137C267.301 38.5315 267.533 38.7202 267.794 38.8364C268.07 38.9671 268.36 39.0251 268.665 39.0251C269.013 39.0251 269.332 38.9525 269.607 38.8074C269.883 38.6622 270.1 38.4589 270.274 38.1831L271.71 39.2574C271.376 39.722 270.956 40.0705 270.448 40.2882C269.941 40.506 269.419 40.6222 268.882 40.6222C268.273 40.6222 267.707 40.5205 267.185 40.3318C266.663 40.143 266.214 39.8672 265.851 39.5042C265.474 39.1413 265.184 38.7057 264.967 38.1976C264.749 37.6894 264.647 37.1232 264.647 36.4844C264.647 35.8601 264.749 35.2794 264.967 34.7712C265.184 34.2631 265.474 33.8276 265.851 33.4646C266.228 33.1016 266.678 32.8258 267.185 32.637C267.707 32.4483 268.258 32.3467 268.882 32.3467C269.1 32.3467 269.332 32.3612 269.578 32.4048C269.825 32.4483 270.057 32.5064 270.289 32.5935C270.521 32.6806 270.738 32.7967 270.956 32.9419C271.173 33.0871 271.362 33.2759 271.536 33.4791L270.216 34.6115Z" fill="#C1CEC5"/>
<path d="M272.652 32.5791H274.378V40.4335H272.652V32.5791Z" fill="#C1CEC5"/>
<path d="M275.538 36.4991C275.538 35.8748 275.64 35.294 275.857 34.7859C276.075 34.2777 276.365 33.8422 276.742 33.4792C277.119 33.1163 277.568 32.8404 278.076 32.6517C278.598 32.463 279.149 32.3613 279.773 32.3613C280.382 32.3613 280.947 32.463 281.469 32.6517C281.991 32.8404 282.441 33.1163 282.804 33.4792C283.181 33.8422 283.471 34.2777 283.688 34.7859C283.906 35.294 284.007 35.8603 284.007 36.4991C284.007 37.1233 283.906 37.6896 283.688 38.2122C283.471 38.7204 283.181 39.1559 282.804 39.5189C282.427 39.8818 281.977 40.1577 281.469 40.3464C280.947 40.5352 280.396 40.6368 279.773 40.6368C279.164 40.6368 278.598 40.5352 278.076 40.3464C277.554 40.1577 277.104 39.8818 276.742 39.5189C276.365 39.1559 276.075 38.7204 275.857 38.2122C275.64 37.7041 275.538 37.1379 275.538 36.4991ZM277.322 36.4991C277.322 36.862 277.38 37.2105 277.496 37.5153C277.612 37.8202 277.771 38.0961 277.989 38.3139C278.206 38.5316 278.453 38.7204 278.758 38.8365C279.062 38.9527 279.396 39.0253 279.758 39.0253C280.121 39.0253 280.469 38.9672 280.759 38.8365C281.049 38.7058 281.31 38.5316 281.527 38.3139C281.745 38.0961 281.904 37.8202 282.02 37.5153C282.137 37.2105 282.195 36.8765 282.195 36.4991C282.195 36.1361 282.137 35.8022 282.02 35.4828C281.904 35.1779 281.745 34.902 281.527 34.6843C281.31 34.4665 281.063 34.2778 280.759 34.1616C280.454 34.0309 280.121 33.9729 279.758 33.9729C279.396 33.9729 279.062 34.0309 278.758 34.1616C278.453 34.2923 278.206 34.4665 277.989 34.6843C277.771 34.9166 277.612 35.1779 277.496 35.4828C277.38 35.8022 277.322 36.1361 277.322 36.4991Z" fill="#C1CEC5"/>
<path d="M285.168 32.5791H287.517L290.853 38.038H290.882V32.5791H292.608V40.4335H290.345L286.908 34.844H286.894V40.4335H285.168V32.5791Z" fill="#C1CEC5"/>
<path d="M296.77 32.5791H298.205L301.613 40.4335H299.67L299.003 38.7639H295.958L295.305 40.4335H293.405L296.77 32.5791ZM297.437 34.8585L296.48 37.2976H298.394L297.437 34.8585Z" fill="#C1CEC5"/>
<path d="M302.469 32.5791H304.194V38.8365H307.399V40.4335H302.469V32.5791Z" fill="#C1CEC5"/>
<path d="M50.0606 62.4724C50.3797 63.2273 51.0033 64.0984 53.019 64.0984C55.0203 64.0984 55.6439 63.2418 55.9484 62.5014C57.1666 59.6268 55.5279 53.9356 53.019 48.4331C50.5102 53.9356 48.8715 59.6268 50.0606 62.4724Z" fill="#F8B3A2"/>
<path d="M13.8349 62.5306C14.1394 63.2566 14.763 64.0986 16.7498 64.0986C18.7801 64.0986 19.4037 63.2275 19.7227 62.4726C20.8974 59.6415 19.2877 54.0229 16.7933 48.564C14.27 54.0374 12.6312 59.6996 13.8349 62.5306Z" fill="#F8B3A2"/>
<path d="M28.8445 82.7547C29.8306 85.1212 31.8319 86.2682 35.0079 86.2682C38.1113 86.2682 40.0981 85.1648 41.0697 82.8709C43.448 77.2523 39.9676 66.015 34.9354 55.6489C29.9467 65.9134 26.4952 77.0926 28.8445 82.7547Z" fill="#F8B3A2"/>
<path d="M65.9411 19.9045C63.2728 14.1988 59.2702 9.85782 54.9051 6.63474C40.9831 -3.64426 25.0599 -1.66976 12.1821 10.395C3.43738 18.5688 1.75515 28.5575 0.609485 42.3209C-0.318645 53.4855 -0.855221 91.6979 4.40902 101.178C9.89079 111.08 19.7812 114.071 28.8449 114.811C39.5619 115.682 51.3231 113.795 59.0092 103.545C62.5477 98.8409 64.9115 92.7142 66.6953 86.4132C70.3643 73.3467 71.4664 31.708 65.9411 19.9045ZM60.8074 36.0635C59.0382 37.8492 56.8049 41.1449 54.8036 44.8761C58.1826 51.6272 60.6914 59.4526 58.8787 63.75C58.1971 65.3615 56.6308 67.2635 53.0343 67.2635C49.3943 67.2635 47.8281 65.318 47.1465 63.6774C45.3192 59.2784 47.8426 51.511 51.2506 44.8181C49.6699 41.8563 47.9441 39.1704 46.4359 37.2975C43.4485 40.6948 39.8955 46.1102 36.705 52.1353C42.5784 63.5903 47.0305 76.9037 43.9851 84.0902C42.9554 86.5148 40.5626 89.4185 35.0083 89.4185C29.3815 89.4185 26.9597 86.4422 25.93 83.9596C22.9426 76.7294 27.3512 63.5032 33.1665 52.1498C30.0196 46.1973 26.4956 40.7965 23.4937 37.3121C21.9565 39.214 20.2162 41.9434 18.6065 44.9342C21.9855 51.5981 24.4653 59.3074 22.6526 63.6774C21.971 65.318 20.4048 67.2635 16.7648 67.2635C13.1827 67.2635 11.6165 65.3615 10.9494 63.7645C9.13668 59.5106 11.66 51.7288 15.0535 44.9778C13.0377 41.203 10.7754 37.8492 8.99166 36.049C8.36807 35.4247 8.36807 34.4229 8.99166 33.8131C9.61525 33.1888 10.6159 33.2034 11.225 33.8131C12.8202 35.4102 14.8795 38.2703 16.8373 41.6531C18.766 38.2993 20.7673 35.4537 22.3335 33.8277C22.9281 33.2034 24.0158 33.2034 24.6103 33.8277C27.5398 36.862 31.3828 42.3935 34.9358 48.8106C38.5468 42.2919 42.4479 36.7168 45.3628 33.8131C45.6528 33.5228 46.0589 33.3485 46.4794 33.3485C46.9 33.4357 47.3205 33.5228 47.6106 33.8277C49.1623 35.4247 51.1346 38.2267 53.0198 41.5369C54.9631 38.1977 56.9934 35.3956 58.5741 33.8131C59.1977 33.1888 60.1838 33.1888 60.8074 33.8131C61.4165 34.4374 61.4165 35.4392 60.8074 36.0635Z" fill="#F8B3A2"/>
<path d="M198.939 89.8394L198.808 90.1733C198.547 90.8993 198.127 91.48 197.547 91.8865C196.966 92.293 196.299 92.5108 195.545 92.5108C194.385 92.5108 193.457 92.0607 192.761 91.1461C192.123 90.3185 191.804 89.2877 191.804 88.0537C191.804 86.7325 192.137 85.6001 192.804 84.6418C193.529 83.611 194.458 83.0884 195.603 83.0884C195.821 83.0884 196.241 83.1465 196.865 83.2626C197.126 83.3207 197.3 83.3352 197.372 83.3207C197.648 83.2771 197.822 83.2481 197.895 83.2336C197.953 83.219 198.083 83.161 198.286 83.0884L198.91 85.8323L198.46 85.934L198.301 85.6436C197.909 84.9467 197.561 84.4531 197.242 84.1482C196.807 83.7272 196.299 83.5094 195.734 83.5094C194.98 83.5094 194.4 83.8869 193.979 84.6564C193.616 85.3242 193.428 86.1082 193.428 87.0374C193.428 88.1698 193.66 89.1571 194.11 89.9846C194.646 90.9428 195.357 91.4219 196.27 91.4219C196.749 91.4219 197.169 91.2913 197.532 91.0299C197.895 90.7686 198.199 90.4202 198.417 89.9556L198.547 89.6507L198.939 89.8394Z" fill="#F8B3A2"/>
<path d="M204.624 92.3658H201.216V91.9303L202.028 91.8432V83.8L201.216 83.7129V83.2773H204.624V83.7129L203.725 83.8V91.8432L204.624 91.9303V92.3658Z" fill="#F8B3A2"/>
<path d="M214.934 83.7129C214.818 83.7129 214.702 83.7274 214.572 83.771C214.441 83.8145 214.34 83.8726 214.253 83.9307C214.093 84.0613 213.992 84.2065 213.948 84.3662C213.905 84.5259 213.876 84.7292 213.876 84.9905V89.6654C213.876 90.5365 213.644 91.2189 213.194 91.7125C212.672 92.2787 211.903 92.5546 210.859 92.5546C209.83 92.5546 209.032 92.3223 208.481 91.8432C207.93 91.3641 207.64 90.7107 207.64 89.8832V83.8L206.886 83.7129V83.2773H210.12V83.7129L209.322 83.8V89.5348C209.322 90.2316 209.453 90.7833 209.728 91.1753C210.062 91.669 210.598 91.9303 211.323 91.9303C211.99 91.9303 212.484 91.7125 212.817 91.2915C213.107 90.914 213.252 90.4204 213.252 89.8106V84.976C213.252 84.7292 213.238 84.5404 213.194 84.4098C213.151 84.2791 213.064 84.1339 212.933 84.0033C212.861 83.9307 212.745 83.8581 212.571 83.8C212.411 83.7419 212.266 83.7129 212.15 83.7129V83.2773H214.92V83.7129H214.934Z" fill="#F8B3A2"/>
<path d="M225.057 87.7924C225.057 89.1717 224.636 90.2896 223.81 91.1317C223.012 91.9447 221.997 92.3512 220.75 92.3512H217.139V91.9157L217.907 91.8285V83.7854L217.139 83.6983V83.2627H219.865H220.953C221.91 83.2627 222.78 83.5966 223.578 84.2645C224.564 85.1211 225.057 86.297 225.057 87.7924ZM223.331 87.7344C223.331 86.297 223.056 85.2517 222.519 84.5839C222.04 84.0031 221.388 83.7128 220.518 83.7128C220.344 83.7128 220.083 83.7273 219.735 83.7708C219.691 83.7708 219.619 83.7854 219.517 83.7999V91.8431H220.793C221.678 91.8431 222.33 91.4366 222.765 90.638C223.157 89.9412 223.331 88.9684 223.331 87.7344Z" fill="#F8B3A2"/>
<path d="M235.847 92.3657H232.7V91.9301L233.541 91.843L232.772 89.5636H229.727L229.335 90.7977C229.277 90.9429 229.248 91.0881 229.248 91.2478C229.248 91.3639 229.263 91.4655 229.306 91.5527C229.35 91.6398 229.408 91.7124 229.495 91.7704C229.582 91.8285 229.756 91.8721 229.988 91.9011C230.017 91.9011 230.075 91.9156 230.148 91.9301V92.3657H227.45V91.9301C227.668 91.9011 227.885 91.8285 228.074 91.7124C228.262 91.5962 228.407 91.4655 228.48 91.3494C228.552 91.2332 228.639 91.059 228.697 90.8413L230.887 84.0467L230.583 83.3498L232.308 83.2046L235.238 91.8575L235.818 91.9447V92.3657H235.847ZM232.569 88.9539L231.221 84.8161L229.916 88.9539H232.569Z" fill="#F8B3A2"/>
<path d="M245.969 87.7924C245.969 89.1717 245.548 90.2896 244.722 91.1317C243.924 91.9447 242.909 92.3512 241.662 92.3512H238.051V91.9157L238.819 91.8285V83.7854L238.051 83.6983V83.2627H240.777H241.865C242.822 83.2627 243.692 83.5966 244.49 84.2645C245.461 85.1211 245.969 86.297 245.969 87.7924ZM244.243 87.7344C244.243 86.297 243.968 85.2517 243.431 84.5839C242.952 84.0031 242.3 83.7128 241.43 83.7128C241.256 83.7128 240.995 83.7273 240.647 83.7708C240.603 83.7708 240.531 83.7854 240.429 83.7999V91.8431H241.705C242.59 91.8431 243.243 91.4366 243.678 90.638C244.055 89.9412 244.243 88.9684 244.243 87.7344Z" fill="#F8B3A2"/>
<path d="M260.819 83.7128C260.66 83.7128 260.544 83.7273 260.471 83.7418C260.399 83.7563 260.283 83.8144 260.138 83.9015C259.993 83.9886 259.877 84.0902 259.804 84.2209C259.732 84.3516 259.645 84.5258 259.572 84.7581L257.426 91.5237L257.745 92.2931L255.976 92.4093L253.104 83.7854L252.51 83.6983V83.2627H255.642V83.6983L254.888 83.7854L257.121 90.6235L258.963 84.8162C259.007 84.7145 259.021 84.5984 259.021 84.4822C259.021 84.1774 258.92 83.9596 258.717 83.8434C258.63 83.7999 258.514 83.7563 258.398 83.7563C258.282 83.7563 258.151 83.7273 258.035 83.7128V83.2772H260.834V83.7128H260.819Z" fill="#F8B3A2"/>
<path d="M266.431 92.3658H263.023V91.9303L263.836 91.8432V83.8L263.023 83.7129V83.2773H266.431V83.7129L265.532 83.8V91.8432L266.431 91.9303V92.3658Z" fill="#F8B3A2"/>
<path d="M276.872 83.7128C276.713 83.7128 276.597 83.7273 276.524 83.7418C276.452 83.7563 276.336 83.8144 276.191 83.9015C276.046 83.9886 275.93 84.0902 275.857 84.2209C275.785 84.3516 275.698 84.5258 275.625 84.7581L273.479 91.5237L273.798 92.2931L272.028 92.4093L269.157 83.7854L268.562 83.6983V83.2627H271.695V83.6983L270.941 83.7854L273.174 90.6235L275.016 84.8162C275.059 84.7145 275.074 84.5984 275.074 84.4822C275.074 84.1774 274.972 83.9596 274.755 83.8434C274.668 83.7999 274.552 83.7563 274.436 83.7563C274.32 83.7563 274.189 83.7273 274.073 83.7128V83.2772H276.872V83.7128Z" fill="#F8B3A2"/>
<path d="M287.488 92.3657H284.327V91.9301L285.168 91.843L284.399 89.5636H281.339L280.948 90.7977C280.89 90.9429 280.861 91.0881 280.861 91.2478C280.861 91.3639 280.875 91.4655 280.919 91.5527C280.962 91.6398 281.02 91.7124 281.107 91.7704C281.194 91.8285 281.368 91.8721 281.6 91.9011C281.629 91.9011 281.687 91.9156 281.76 91.9301V92.3657H279.062V91.9301C279.295 91.9011 279.498 91.8285 279.686 91.7124C279.875 91.5962 280.005 91.4655 280.092 91.3494C280.165 91.2332 280.237 91.059 280.31 90.8413L282.499 84.0467L282.195 83.3498L283.921 83.2046L286.85 91.8575L287.43 91.9447V92.3657H287.488ZM284.196 88.9539L282.848 84.8161L281.542 88.9539H284.196Z" fill="#F8B3A2"/>
</g>
<defs>
<clipPath id="clip0">
<rect width="385" height="115" fill="white"/>
</clipPath>
</defs>
</svg>
