<svg width="267" height="173" viewBox="0 0 267 173" fill="none" xmlns="http://www.w3.org/2000/svg">
<path d="M36.8497 132.121V157.364H31.6543V141.286L21.3171 157.364H15.5192L5.18199 141.339V157.364H0V132.121H5.19538L18.4115 152.862L31.6677 132.121H36.8497Z" fill="#C1CEC5"/>
<path d="M48.7676 132.121V157.364H43.5723V132.121H48.7676Z" fill="#C1CEC5"/>
<path d="M81.734 151.334V157.35H76.5654L76.552 151.696C76.5386 148.816 74.3158 148.038 70.2184 148.038H60.6846V157.337H55.4893V132.121H72.6019C78.4266 132.121 82.283 134.452 82.283 139.771C82.283 144.046 79.538 145.774 75.9226 146.377C79.8593 146.685 81.734 147.77 81.734 151.334ZM72.6153 143.952C75.2531 143.952 77.0742 142.491 77.101 140.066C77.1144 137.762 75.2665 136.623 72.6153 136.623H60.698V143.952H72.6153Z" fill="#C1CEC5"/>
<path d="M106.532 151.602H93.5705L90.9594 157.35H85.3623L97.2126 132.121H102.85L114.807 157.364H109.157L106.532 151.602ZM104.778 147.744L100.051 137.346L95.338 147.744H104.778Z" fill="#C1CEC5"/>
<path d="M142.069 132.121L131.036 157.364H124.541L113.414 132.121H119.158L127.795 152.835L136.432 132.121H142.069Z" fill="#C1CEC5"/>
<path d="M170.523 153.023V157.35H145.858V132.121H170.469V136.449H151.04V143.161H166.934V146.39H151.04V153.023H170.523Z" fill="#C1CEC5"/>
<path d="M202.085 151.334V157.35H196.916L196.903 151.696C196.889 148.816 194.666 148.038 190.569 148.038H181.035V157.337H175.84V132.121H192.952C198.777 132.121 202.634 134.452 202.634 139.771C202.634 144.046 199.889 145.774 196.273 146.377C200.21 146.685 202.085 147.77 202.085 151.334ZM192.966 143.952C195.604 143.952 197.425 142.491 197.452 140.066C197.465 137.762 195.617 136.623 192.966 136.623H181.049V143.952H192.966Z" fill="#C1CEC5"/>
<path d="M237.274 144.649C237.274 151.334 233.337 157.35 222.491 157.35H208.057V132.121H222.491C233.846 132.121 237.274 137.963 237.274 144.649ZM231.985 144.649C231.985 140.374 229.829 136.609 222.371 136.609H213.252V152.835H222.371C229.829 152.849 231.985 148.936 231.985 144.649Z" fill="#C1CEC5"/>
<path d="M267.001 153.023V157.35H242.336V132.121H266.947V136.449H247.518V143.161H263.412V146.39H247.518V153.023H267.001Z" fill="#C1CEC5"/>
<path d="M70.124 117.288H72.8154C73.1904 117.288 73.5519 117.329 73.8733 117.396C74.208 117.463 74.5026 117.583 74.7436 117.744C74.998 117.918 75.1855 118.132 75.3328 118.414C75.4801 118.695 75.547 119.057 75.547 119.486C75.547 119.914 75.4801 120.263 75.3462 120.544C75.2123 120.826 75.0248 121.053 74.7838 121.228C74.5428 121.402 74.2616 121.522 73.9402 121.589C73.6189 121.656 73.2573 121.696 72.8824 121.696H71.7175V124.524H70.124V117.288ZM71.7175 120.357H72.7753C72.9226 120.357 73.0565 120.343 73.1904 120.316C73.3243 120.29 73.4448 120.249 73.5519 120.182C73.659 120.115 73.7394 120.035 73.8063 119.914C73.8733 119.807 73.9 119.66 73.9 119.486C73.9 119.298 73.8599 119.151 73.7661 119.044C73.6858 118.936 73.5653 118.843 73.4448 118.789C73.3109 118.722 73.1636 118.695 73.0029 118.668C72.8422 118.655 72.6815 118.642 72.5343 118.642H71.7175V120.357Z" fill="#C1CEC5"/>
<path d="M76.5649 117.288H79.3634C79.7383 117.288 80.0865 117.329 80.4078 117.396C80.7426 117.463 81.0238 117.583 81.2782 117.757C81.5192 117.931 81.7201 118.146 81.8674 118.427C82.0147 118.709 82.0816 119.057 82.0816 119.486C82.0816 119.995 81.9477 120.437 81.6799 120.785C81.4121 121.147 81.0238 121.375 80.515 121.469L82.3494 124.524H80.4346L78.9215 121.629H78.1315V124.524H76.5381V117.288H76.5649ZM78.1583 120.29H79.0956C79.2429 120.29 79.3902 120.29 79.5509 120.276C79.7116 120.263 79.8588 120.236 79.9794 120.182C80.1133 120.129 80.2204 120.048 80.3007 119.941C80.3811 119.834 80.4346 119.673 80.4346 119.486C80.4346 119.298 80.3945 119.151 80.3275 119.044C80.2472 118.936 80.1534 118.843 80.0463 118.789C79.9258 118.735 79.7919 118.695 79.6446 118.668C79.4973 118.642 79.35 118.642 79.2027 118.642H78.1583V120.29Z" fill="#C1CEC5"/>
<path d="M83.166 117.288H84.7594V124.537H83.166V117.288Z" fill="#C1CEC5"/>
<path d="M85.4961 117.288H87.3172L89.1114 122.031H89.1382L90.9593 117.288H92.6732L89.6872 124.537H88.4152L85.4961 117.288Z" fill="#C1CEC5"/>
<path d="M95.2305 117.288H96.5562L99.7028 124.537H97.9086L97.2926 122.996H94.4807L93.8781 124.537H92.124L95.2305 117.288ZM95.8465 119.392L94.9627 121.643H96.7302L95.8465 119.392Z" fill="#C1CEC5"/>
<path d="M100.426 117.288H102.823C103.398 117.288 103.947 117.355 104.47 117.489C104.992 117.623 105.447 117.824 105.835 118.119C106.224 118.414 106.532 118.789 106.759 119.245C106.987 119.713 107.107 120.276 107.107 120.933C107.107 121.522 107 122.031 106.773 122.487C106.545 122.929 106.251 123.304 105.876 123.612C105.501 123.921 105.072 124.148 104.577 124.296C104.081 124.457 103.572 124.537 103.037 124.537H100.426V117.288ZM102.019 123.063H102.849C103.211 123.063 103.559 123.023 103.88 122.943C104.202 122.862 104.47 122.742 104.697 122.567C104.925 122.393 105.112 122.165 105.246 121.884C105.38 121.603 105.447 121.254 105.447 120.839C105.447 120.491 105.38 120.182 105.246 119.914C105.112 119.646 104.938 119.432 104.711 119.271C104.483 119.097 104.215 118.977 103.921 118.883C103.613 118.802 103.305 118.749 102.97 118.749H102.033V123.063H102.019Z" fill="#C1CEC5"/>
<path d="M110.562 117.288H111.888L115.035 124.537H113.24L112.624 122.996H109.799L109.196 124.537H107.442L110.562 117.288ZM111.178 119.392L110.294 121.643H112.062L111.178 119.392Z" fill="#C1CEC5"/>
<path d="M118.784 117.288H120.378V119.995H123.471V117.288H125.064V124.537H123.471V121.402H120.378V124.537H118.784V117.288Z" fill="#C1CEC5"/>
<path d="M128.933 117.288H130.258L133.405 124.537H131.611L130.995 122.996H128.183L127.58 124.537H125.826L128.933 117.288ZM129.549 119.392L128.665 121.643H130.432L129.549 119.392Z" fill="#C1CEC5"/>
<path d="M134.129 117.288H136.834C137.142 117.288 137.463 117.315 137.784 117.355C138.106 117.396 138.387 117.489 138.641 117.623C138.896 117.757 139.097 117.945 139.257 118.186C139.418 118.427 139.498 118.749 139.498 119.137C139.498 119.553 139.378 119.888 139.15 120.156C138.923 120.424 138.615 120.625 138.24 120.732V120.759C138.481 120.799 138.695 120.852 138.882 120.96C139.07 121.067 139.244 121.187 139.378 121.335C139.512 121.496 139.619 121.67 139.699 121.871C139.78 122.072 139.806 122.299 139.806 122.527C139.806 122.902 139.726 123.224 139.565 123.478C139.405 123.733 139.19 123.947 138.936 124.095C138.682 124.242 138.387 124.363 138.066 124.43C137.744 124.497 137.423 124.537 137.102 124.537H134.142V117.288H134.129ZM135.722 120.182H136.874C136.994 120.182 137.115 120.169 137.235 120.142C137.356 120.115 137.463 120.075 137.557 120.008C137.651 119.941 137.731 119.861 137.784 119.767C137.838 119.66 137.878 119.539 137.878 119.405C137.878 119.258 137.851 119.124 137.784 119.03C137.717 118.936 137.637 118.856 137.53 118.802C137.423 118.749 137.316 118.709 137.182 118.682C137.048 118.655 136.927 118.642 136.807 118.642H135.722V120.182ZM135.722 123.184H137.155C137.276 123.184 137.396 123.17 137.53 123.144C137.651 123.117 137.771 123.063 137.878 122.996C137.985 122.929 138.066 122.835 138.133 122.728C138.2 122.621 138.226 122.487 138.226 122.326C138.226 122.152 138.186 122.018 138.092 121.911C138.012 121.804 137.905 121.723 137.771 121.67C137.637 121.616 137.503 121.576 137.356 121.562C137.209 121.549 137.061 121.536 136.941 121.536H135.736V123.184H135.722Z" fill="#C1CEC5"/>
<path d="M140.73 117.288H142.324V124.537H140.73V117.288Z" fill="#C1CEC5"/>
<path d="M145.189 118.695H143.127V117.288H148.858V118.695H146.796V124.524H145.202V118.695H145.189Z" fill="#C1CEC5"/>
<path d="M151.095 117.288H152.42L155.567 124.537H153.773L153.157 122.996H150.345L149.742 124.537H147.988L151.095 117.288ZM151.711 119.392L150.827 121.643H152.594L151.711 119.392Z" fill="#C1CEC5"/>
<path d="M161.017 119.164C160.856 118.977 160.669 118.829 160.441 118.722C160.213 118.615 159.946 118.575 159.651 118.575C159.356 118.575 159.075 118.628 158.821 118.749C158.566 118.869 158.339 119.03 158.151 119.231C157.964 119.446 157.817 119.687 157.709 119.968C157.602 120.249 157.549 120.558 157.549 120.906C157.549 121.241 157.602 121.563 157.709 121.844C157.817 122.125 157.964 122.38 158.138 122.581C158.325 122.782 158.54 122.956 158.781 123.063C159.035 123.184 159.303 123.237 159.584 123.237C159.905 123.237 160.2 123.17 160.454 123.036C160.709 122.902 160.91 122.715 161.07 122.46L162.396 123.452C162.088 123.88 161.7 124.202 161.231 124.403C160.762 124.604 160.28 124.711 159.785 124.711C159.223 124.711 158.7 124.617 158.218 124.443C157.736 124.269 157.321 124.014 156.986 123.68C156.638 123.345 156.37 122.943 156.17 122.474C155.969 122.005 155.875 121.482 155.875 120.893C155.875 120.316 155.969 119.78 156.17 119.312C156.37 118.843 156.638 118.441 156.986 118.106C157.335 117.771 157.75 117.516 158.218 117.342C158.7 117.168 159.209 117.074 159.785 117.074C159.986 117.074 160.2 117.087 160.428 117.128C160.655 117.168 160.87 117.221 161.084 117.302C161.298 117.382 161.499 117.489 161.7 117.623C161.901 117.757 162.075 117.931 162.235 118.119L161.017 119.164Z" fill="#C1CEC5"/>
<path d="M163.266 117.288H164.859V124.537H163.266V117.288Z" fill="#C1CEC5"/>
<path d="M165.931 120.906C165.931 120.33 166.024 119.794 166.225 119.325C166.426 118.856 166.694 118.454 167.042 118.119C167.39 117.784 167.805 117.53 168.274 117.355C168.756 117.181 169.265 117.087 169.841 117.087C170.403 117.087 170.925 117.181 171.407 117.355C171.889 117.53 172.304 117.784 172.639 118.119C172.987 118.454 173.255 118.856 173.456 119.325C173.657 119.794 173.751 120.316 173.751 120.906C173.751 121.482 173.657 122.005 173.456 122.487C173.255 122.956 172.987 123.358 172.639 123.693C172.291 124.028 171.876 124.282 171.407 124.457C170.925 124.631 170.416 124.725 169.841 124.725C169.278 124.725 168.756 124.631 168.274 124.457C167.792 124.282 167.377 124.028 167.042 123.693C166.694 123.358 166.426 122.956 166.225 122.487C166.024 122.018 165.931 121.482 165.931 120.906ZM167.591 120.906C167.591 121.241 167.645 121.563 167.752 121.844C167.859 122.125 168.006 122.38 168.207 122.581C168.408 122.782 168.635 122.956 168.917 123.063C169.198 123.17 169.506 123.237 169.841 123.237C170.175 123.237 170.497 123.184 170.765 123.063C171.032 122.943 171.273 122.782 171.474 122.581C171.675 122.38 171.822 122.125 171.929 121.844C172.037 121.563 172.09 121.254 172.09 120.906C172.09 120.571 172.037 120.263 171.929 119.968C171.822 119.687 171.675 119.432 171.474 119.231C171.273 119.03 171.046 118.856 170.765 118.749C170.483 118.642 170.175 118.575 169.841 118.575C169.506 118.575 169.198 118.628 168.917 118.749C168.635 118.869 168.408 119.03 168.207 119.231C168.006 119.446 167.859 119.687 167.752 119.968C167.631 120.263 167.591 120.571 167.591 120.906Z" fill="#C1CEC5"/>
<path d="M174.822 117.288H176.991L180.071 122.326H180.098V117.288H181.691V124.537H179.603L176.442 119.379H176.429V124.537H174.836V117.288H174.822Z" fill="#C1CEC5"/>
<path d="M185.534 117.288H186.86L190.007 124.537H188.212L187.596 122.996H184.784L184.182 124.537H182.428L185.534 117.288ZM186.15 119.392L185.266 121.643H187.034L186.15 119.392Z" fill="#C1CEC5"/>
<path d="M190.796 117.288H192.389V123.063H195.349V124.537H190.796V117.288Z" fill="#C1CEC5"/>
<path d="M105.019 93.3853C110.081 102.523 119.213 105.283 127.581 105.967C137.477 106.77 148.336 105.029 155.433 95.5692C158.7 91.2281 160.883 85.5739 162.53 79.7589C165.931 67.6867 166.949 29.2595 161.847 18.3664C159.383 13.1007 155.687 9.09456 151.657 6.12007C138.802 -3.36615 124.087 -1.53054 112.196 9.59031C104.122 17.1337 102.569 26.352 101.511 39.0539C100.654 49.3574 100.158 84.6226 105.019 93.3853Z" fill="#F8B3A2"/>
<path d="M133.272 82.5457C128.077 82.5457 125.841 79.799 124.89 77.5078C122.132 70.8353 126.202 58.6292 131.572 48.1514C128.666 42.658 125.412 37.6737 122.64 34.458C121.221 36.2133 119.614 38.7322 118.128 41.4923C121.248 47.6423 123.538 54.7569 121.864 58.7899C121.234 60.304 119.788 62.0994 116.427 62.0994C113.12 62.0994 111.674 60.3442 111.058 58.8703C109.384 54.9445 111.714 47.7629 114.847 41.5325C112.986 38.0489 110.897 34.9538 109.25 33.2924C108.674 32.7162 108.674 31.7917 109.25 31.229C109.826 30.6528 110.75 30.6662 111.312 31.229C112.785 32.7028 114.687 35.3424 116.494 38.4642C118.275 35.3692 120.123 32.743 121.569 31.2424C122.118 30.6662 123.122 30.6662 123.671 31.2424C126.376 34.0427 129.925 39.1476 133.205 45.0698C136.539 39.0538 140.141 33.9087 142.833 31.229C143.101 30.961 143.475 30.8002 143.864 30.8002C144.252 30.8806 144.64 30.961 144.908 31.2424C146.341 32.7162 148.162 35.3022 149.903 38.357C151.697 35.2754 153.572 32.6894 155.031 31.229C155.607 30.6528 156.517 30.6528 157.093 31.229C157.669 31.8051 157.669 32.7296 157.093 33.2924C155.46 34.9404 153.398 37.9819 151.55 41.4253C154.67 47.6557 156.986 54.8775 155.312 58.8435C154.683 60.3308 153.237 62.086 149.916 62.086C146.555 62.086 145.109 60.2906 144.48 58.7765C142.793 54.7168 145.122 47.5485 148.269 41.3717C146.81 38.6384 145.216 36.1597 143.824 34.4313C141.065 37.5665 137.785 42.5642 134.839 48.1246C140.262 58.6961 144.373 70.9827 141.561 77.615C140.61 79.8659 138.401 82.5457 133.272 82.5457ZM133.205 51.3671C128.612 60.8399 125.426 71.1569 127.581 76.3823C128.492 78.5663 130.34 79.6248 133.272 79.6248C136.138 79.6248 137.972 78.6065 138.869 76.4895C141.065 71.3042 137.852 60.9337 133.205 51.3671ZM149.916 44.7214C147.586 49.7861 146.087 55.0383 147.171 57.6644C147.466 58.3612 148.041 59.1651 149.903 59.1651C151.751 59.1651 152.326 58.3746 152.608 57.6912C153.746 55.0517 152.246 49.7995 149.916 44.7214ZM116.454 44.8286C114.124 49.8933 112.611 55.1053 113.723 57.7314C114.004 58.4014 114.579 59.1785 116.414 59.1785C118.289 59.1785 118.864 58.3746 119.159 57.6778C120.244 55.0517 118.757 49.8665 116.454 44.8286Z" fill="white"/>
<path d="M95.2042 170.132L95.0837 170.441C94.8426 171.111 94.4543 171.647 93.9187 172.022C93.3831 172.397 92.7672 172.598 92.0709 172.598C90.9997 172.598 90.1427 172.182 89.5 171.338C88.9108 170.575 88.6162 169.623 88.6162 168.484C88.6162 167.265 88.9242 166.22 89.5401 165.336C90.2096 164.384 91.0666 163.902 92.1244 163.902C92.3253 163.902 92.7136 163.956 93.2894 164.063C93.5304 164.116 93.6911 164.13 93.758 164.116C94.0124 164.076 94.1731 164.049 94.2401 164.036C94.2936 164.023 94.4142 163.969 94.6016 163.902L95.1774 166.434L94.7623 166.528L94.615 166.26C94.2535 165.617 93.9321 165.162 93.6375 164.88C93.2358 164.492 92.7672 164.291 92.2449 164.291C91.5487 164.291 91.0131 164.639 90.6247 165.349C90.29 165.965 90.1159 166.689 90.1159 167.547C90.1159 168.592 90.3301 169.503 90.7452 170.266C91.2407 171.151 91.8968 171.593 92.7404 171.593C93.1823 171.593 93.5706 171.472 93.9053 171.231C94.2401 170.99 94.5213 170.668 94.7221 170.24L94.8426 169.958L95.2042 170.132Z" fill="#F8B3A2"/>
<path d="M100.453 172.464H97.3066V172.062L98.0565 171.981V164.559L97.3066 164.478V164.076H100.453V164.478L99.6231 164.559V171.981L100.453 172.062V172.464Z" fill="#F8B3A2"/>
<path d="M109.974 164.478C109.866 164.478 109.759 164.492 109.639 164.532C109.518 164.572 109.425 164.626 109.344 164.679C109.197 164.8 109.103 164.934 109.063 165.081C109.023 165.228 108.996 165.416 108.996 165.657V169.972C108.996 170.775 108.782 171.405 108.367 171.861C107.885 172.383 107.175 172.638 106.211 172.638C105.26 172.638 104.524 172.424 104.015 171.981C103.506 171.539 103.238 170.936 103.238 170.173V164.559L102.542 164.478V164.076H105.528V164.478L104.792 164.559V169.851C104.792 170.494 104.912 171.003 105.166 171.365C105.474 171.821 105.97 172.062 106.639 172.062C107.255 172.062 107.711 171.861 108.019 171.472C108.286 171.124 108.42 170.668 108.42 170.106V165.644C108.42 165.416 108.407 165.242 108.367 165.121C108.327 165.001 108.246 164.867 108.126 164.746C108.059 164.679 107.952 164.612 107.791 164.559C107.644 164.505 107.51 164.478 107.403 164.478V164.076H109.96V164.478H109.974Z" fill="#F8B3A2"/>
<path d="M119.32 168.243C119.32 169.516 118.931 170.548 118.168 171.325C117.432 172.075 116.494 172.451 115.343 172.451H112.009V172.049L112.718 171.968V164.545L112.009 164.465V164.063H114.526H115.53C116.414 164.063 117.218 164.371 117.954 164.987C118.865 165.778 119.32 166.863 119.32 168.243ZM117.74 168.19C117.74 166.863 117.485 165.899 116.99 165.282C116.548 164.746 115.945 164.478 115.142 164.478C114.981 164.478 114.74 164.492 114.419 164.532C114.379 164.532 114.312 164.545 114.218 164.559V171.982H115.396C116.213 171.982 116.816 171.606 117.218 170.869C117.566 170.226 117.74 169.329 117.74 168.19Z" fill="#F8B3A2"/>
<path d="M129.282 172.464H126.377V172.062L127.153 171.981L126.443 169.878H123.632L123.27 171.017C123.216 171.151 123.19 171.285 123.19 171.432C123.19 171.539 123.203 171.633 123.243 171.713C123.283 171.794 123.337 171.861 123.417 171.914C123.498 171.968 123.658 172.008 123.873 172.035C123.899 172.035 123.953 172.048 124.02 172.062V172.464H121.529V172.062C121.73 172.035 121.931 171.968 122.105 171.861C122.279 171.754 122.413 171.633 122.48 171.526C122.547 171.419 122.627 171.258 122.681 171.057L124.703 164.786L124.422 164.143L126.015 164.009L128.72 171.995L129.255 172.075V172.464H129.282ZM126.256 169.315L125.011 165.497L123.806 169.315H126.256Z" fill="#F8B3A2"/>
<path d="M138.628 168.243C138.628 169.516 138.24 170.548 137.477 171.325C136.74 172.075 135.803 172.451 134.652 172.451H131.317V172.049L132.027 171.968V164.545L131.317 164.465V164.063H133.835H134.839C135.723 164.063 136.526 164.371 137.263 164.987C138.16 165.778 138.628 166.863 138.628 168.243ZM137.035 168.19C137.035 166.863 136.781 165.899 136.285 165.282C135.843 164.746 135.241 164.478 134.437 164.478C134.277 164.478 134.036 164.492 133.714 164.532C133.674 164.532 133.607 164.545 133.513 164.559V171.982H134.692C135.508 171.982 136.111 171.606 136.513 170.869C136.861 170.226 137.035 169.329 137.035 168.19Z" fill="#F8B3A2"/>
<path d="M152.353 164.478C152.206 164.478 152.099 164.492 152.032 164.505C151.965 164.519 151.858 164.572 151.724 164.653C151.59 164.733 151.483 164.827 151.416 164.947C151.349 165.068 151.269 165.229 151.202 165.443L149.22 171.687L149.515 172.397L147.881 172.504L145.23 164.545L144.681 164.465V164.063H147.573V164.465L146.877 164.545L148.939 170.856L150.639 165.497C150.679 165.403 150.693 165.296 150.693 165.188C150.693 164.907 150.599 164.706 150.412 164.599C150.331 164.559 150.224 164.519 150.117 164.519C150.01 164.519 149.889 164.492 149.782 164.478V164.076H152.367V164.478H152.353Z" fill="#F8B3A2"/>
<path d="M157.523 172.464H154.376V172.062L155.126 171.981V164.559L154.376 164.478V164.076H157.523V164.478L156.692 164.559V171.981L157.523 172.062V172.464Z" fill="#F8B3A2"/>
<path d="M167.176 164.478C167.029 164.478 166.922 164.492 166.855 164.505C166.788 164.519 166.681 164.572 166.547 164.653C166.413 164.733 166.306 164.827 166.239 164.947C166.172 165.068 166.092 165.229 166.025 165.443L164.043 171.687L164.338 172.397L162.704 172.504L160.053 164.545L159.504 164.465V164.063H162.396V164.465L161.7 164.545L163.762 170.856L165.463 165.497C165.503 165.403 165.516 165.296 165.516 165.188C165.516 164.907 165.422 164.706 165.221 164.599C165.141 164.559 165.034 164.519 164.927 164.519C164.82 164.519 164.699 164.492 164.592 164.478V164.076H167.176V164.478Z" fill="#F8B3A2"/>
<path d="M176.964 172.464H174.044V172.062L174.821 171.981L174.111 169.878H171.3L170.938 171.017C170.884 171.151 170.858 171.285 170.858 171.432C170.858 171.539 170.871 171.633 170.911 171.713C170.951 171.794 171.005 171.861 171.085 171.914C171.166 171.968 171.326 172.008 171.541 172.035C171.567 172.035 171.621 172.048 171.688 172.062V172.464H169.197V172.062C169.412 172.035 169.599 171.968 169.773 171.861C169.947 171.754 170.068 171.633 170.148 171.526C170.215 171.419 170.282 171.258 170.349 171.057L172.371 164.786L172.09 164.143L173.683 164.009L176.388 171.995L176.923 172.075V172.464H176.964ZM173.937 169.315L172.692 165.497L171.487 169.315H173.937Z" fill="#F8B3A2"/>
</svg>
