<?xml version="1.0" encoding="utf-8"?>
<!-- Generator: Adobe Illustrator 24.0.2, SVG Export Plug-In . SVG Version: 6.00 Build 0)  -->
<svg version="1.1" id="Capa_1" xmlns="http://www.w3.org/2000/svg" xmlns:xlink="http://www.w3.org/1999/xlink" x="0px" y="0px"
	 viewBox="0 0 143.5 355" style="enable-background:new 0 0 143.5 355;" xml:space="preserve">
<style type="text/css">
	.st0{clip-path:url(#SVGID_2_);}
	.st1{fill:#3D753F;}
	.st2{fill:#EB983F;}
</style>
<g>
	<g>
		<g>
			<defs>
				<rect id="SVGID_1_" x="123.4" width="20.1" height="32"/>
			</defs>
			<clipPath id="SVGID_2_">
				<use xlink:href="#SVGID_1_"  style="overflow:visible;"/>
			</clipPath>
			<g class="st0">
				<path class="st1" d="M146.7,27c0,0,0.1-0.1,0.1-0.1c-0.9-0.6-0.9-1.9-1.4-2.8c-0.4-0.7-0.9-1.2-1.4-1.8c-0.7-1-0.8-2.4-0.3-3.5
					c1.9,1.7,2.4,4.3,3.3,6.6c0.1,0.4,0.4,0.8,0.8,0.8c0.2,0,0.4-0.1,0.6-0.3c0.3-0.2,0.6-0.4,0.9-0.7c0.1-0.1,0.2-0.2,0.2-0.3
					c0-0.1,0-0.2-0.1-0.2c-0.3-0.6-0.6-1.2-0.8-1.8c-0.8-1.7-1.6-3.4-3.1-4.4c0.1-0.3,0.5-0.4,0.8-0.4c0.3,0,0.5,0.2,0.8,0.4
					c1.4,1.2,2.5,2.8,3,4.5c0.1,0.2,0.2,0.5,0.5,0.5c0.1,0,0.3-0.1,0.4-0.2c0.5-0.5,1-0.9,1.4-1.5c0.3-0.6,0.5-1.4,0.2-2
					c-0.2-0.5-0.7-0.8-1.1-1.1c-1.2-0.8-2.4-1.5-3.7-2.2c1.7-1.2,3.2-2.6,4.5-4.2c0.5-0.6,1.3-2,0.6-2.1c-0.8,0.3-1.2,1.1-1.7,1.8
					c-1.1,1.8-2.7,3.2-4.5,4c0.7-0.9,1.4-1.8,1.9-2.8s0.6-2.2,0.3-3.3c-0.1-0.3-0.2-0.5-0.4-0.7c-0.2-0.2-0.4-0.3-0.7-0.4
					c-0.7-0.2-1.4-0.3-2.2-0.2c-0.2,0-0.5,0.1-0.6,0.3c-0.1,0.2-0.1,0.5,0,0.7c0.4,2.1,0.3,4.3-0.4,6.4c-0.1,0.4-0.4,0.8-0.7,0.6
					c-0.1-0.8,0.2-1.5,0.5-2.2c0.5-1.8,0.3-3.8-0.6-5.4c-0.7-1.2-1.9-2.2-3.2-1.9c-0.5,0.1-0.9,0.4-1.3,0.6c0,0-0.1,0.1-0.1,0.1
					c0,0-0.5,0.3-0.5,0.6s0.4,0.9,0.9,1.5c0.2,0.3,0.5,0.5,0.8,0.8c0.2,0.2,0.4,0.5,0.6,0.7c0.1,0.2,0.3,0.5,0.4,0.7
					c0.1,0.2,0.1,0.4,0.2,0.6c0.1,0.2,0.1,0.4,0.2,0.6c0,0.1,0.1,0.2,0.1,0.4c0.1,0.3,0.2,0.6,0.2,0.9c0,0,0,0.1,0,0.1
					c0,0.3,0,0.5,0,0.8c0,0.2,0,0.3,0.1,0.5c0,0.2,0,0.3,0.1,0.5c0,0,0,0.1,0.1,0.1c0.1,0.2,0.2,0.4,0.3,0.6c0,0,0,0.1,0,0.1l0,0
					c0-0.1-0.1-0.1-0.1-0.2c-0.2-0.3-0.3-0.7-0.4-1c0-0.1,0-0.3,0-0.4c0-0.1,0-0.2,0-0.3c0-0.2-0.1-0.4-0.1-0.5
					c0-0.2-0.1-0.3-0.1-0.5c-0.1-0.2-0.1-0.4-0.2-0.5c-0.1-0.3-0.2-0.6-0.3-0.9c-0.1-0.4-0.2-0.7-0.4-1c-0.2-0.3-0.4-0.6-0.6-0.9
					c-0.1-0.2-0.3-0.4-0.4-0.6c-0.1-0.1-0.2-0.2-0.3-0.3l0,0l0,0c0,0,0,0,0-0.1l0,0c-0.2-0.3-0.9-0.9-1-1c-0.1-0.1-0.5-0.2-0.8,0
					l0,0c-0.4,0.3-0.8,0.5-1.3,0.8c-0.3,0.2-0.6,0.4-0.7,0.7c-0.3,0.5-0.1,1.2,0.3,1.6c0.4,0.4,0.9,0.7,1.4,1
					c1.4,0.8,2.7,2.1,2.8,3.7c0,0.3,0,0.7-0.3,0.9c-0.4,0.2-0.9-0.1-1.2-0.5c-0.7-0.9-1-1.9-1.5-2.8c-0.8-1.4-2-2.6-3.5-3.4
					c-0.8,0.3-1.2,1.2-1.1,2c0.1,0.8,0.6,1.6,1.1,2.2s1.2,1.1,1.8,1.8c0.2,0.2,0.3,0.5,0.2,0.7c-1.1-0.7-2.1-1.5-3.3-2
					c-1.2-0.5-2.7-0.5-3.6,0.4c1.3,1.3,3.7,0.8,5,2c-1.6,0.4-3.2-1-4.8-1.2c-1.2-0.1-2.4,0.4-3.5,1c-0.1,0.1-0.3,0.1-0.4,0.3
					c-0.1,0.2-0.2,0.5-0.1,0.7c0.2,0.8,1.1,1.3,1.9,1.4c1.4,0.3,2.9,0.2,4.2-0.4c-1,1-1.8,2.3-2.2,3.7c0,0.1,0,0.2,0,0.3
					c0,0.1,0.2,0.2,0.3,0.2c1.3,0.3,2.6-0.6,3.4-1.7c0.9-1.1,1.5-2.3,2.7-3c0.2-0.1,0.5-0.1,0.6,0.1c0,0.1-0.1,0.3-0.2,0.4
					c-1.8,1.4-3.3,3.2-4.2,5.3c0.5,0.7,1.1,1.4,1.9,1.4c0.5-0.3,1-0.8,1.4-1.3c0.4-0.6,0.7-1.3,1-1.9c0.8-1.7,2.1-3.2,3.9-3.6
					c-0.2,0.9-0.7,1.7-1.3,2.4c-0.7,0.8-1.7,1.4-2.4,2.2c-0.8,0.8-1.4,1.7-1.8,2.7c0,0.1,0.4,0.4,0.4,0.5c0.2,0.2,0.4,0.3,0.5,0.4
					c0.4,0.3,0.8,0.5,1.3,0.6c0.4,0.1,0.9-0.3,1.1-0.6c0.3-0.4,0.5-0.8,0.6-1.3c0.2-0.8,0.2-1.7,0.5-2.5c0.2-0.6,0.5-1.1,0.7-1.7
					c0.3-0.7,0.5-1.5,0.7-2.3c0.1-0.3,0.1-0.5,0.4-0.7c0.2-0.2,0.6-0.1,0.7,0.1c-0.9,1.1-1.5,2.5-1.7,3.9c-0.2,1.8,0.1,3.6-0.7,5.2
					c1.1,0.3,2.4-0.1,3.2-0.9C143.3,28.4,145.3,28.1,146.7,27z M141.9,26.3C141.9,26.3,141.9,26.2,141.9,26.3c0-0.3-0.1-0.5-0.1-0.8
					c0-0.2,0-0.4-0.1-0.6c0-0.2,0-0.4-0.1-0.5c0-0.4,0-0.8,0-1.2c0-0.3,0-0.7,0.1-1c0-0.1,0.1-0.3,0.1-0.4c0,0,0-0.1,0-0.1
					c0-0.3,0.2-0.6,0.4-0.9c0.2,0,0.4,0.2,0.4,0.4c0.1,0.3,0.3,0.7,0.4,1c0.1,0.3,0.1,0.7,0,1c0,0.1,0,0.1,0,0.2
					c0,0.2-0.1,0.3-0.1,0.5c0,0.1,0,0.3-0.1,0.5c0,0.1,0,0.2-0.1,0.3c-0.2,0.3-0.3,0.6-0.5,0.9C142.1,25.7,142.1,26,141.9,26.3
					C141.9,26.3,141.9,26.3,141.9,26.3z"/>
				<g>
					<g>
						<path class="st2" d="M137,14.6c-0.6,0.1-1.3,0.1-1.9,0.1c0,0-0.1,0-0.1,0c-0.1,0-0.1-0.2,0-0.3c0.1-0.1,0.2-0.1,0.3-0.1
							c1.4-0.3,2.7-0.7,4.1-1.1c0.7-0.2,1.4-0.4,2-0.7c-2.5,0.1-5,0.1-7.4,0c-0.2,0-0.4-0.1-0.3-0.2c0-0.1,0.1-0.1,0.2-0.2
							c1.1-0.2,2.2-0.4,3.3-0.6c1,0,1.9-0.1,2.9-0.2c-1.9-0.8-3.9-1.4-5.9-1.8c-0.1,0-0.3-0.1-0.3-0.2c0-0.2,0.2-0.3,0.5-0.3
							c1.9,0.2,3.7,0.4,5.6,0.6c-1.5-1.2-3.2-2.3-4.9-3.1c-0.1,0-0.2-0.1-0.3-0.2s0-0.3,0.1-0.3c0,0,0.1,0,0.2,0
							c2.1,0.4,3.8,1.8,5.8,2.5c-0.9-1.1-4.4-4.8-5.3-5.9c-0.1-0.1-0.2-0.2-0.2-0.3c0-0.1,0.1-0.3,0.2-0.3c0.1,0,0.1,0,0.2,0.1
							c0.9,0.7,4.5,4.2,5.4,5.1c-0.6-1.8-1.2-3.7-1.8-5.5c0-0.2,0-0.4,0.1-0.4c0.1,0,0.2,0.1,0.2,0.1c0.9,1.2,1.7,2.5,2.3,3.9
							c0.1,0.3,0.3,0.6,0.5,0.9c0.2,0.3,0.6,0.6,0.7,0.9c0-1.7,0-3.4,0-5.1c0-0.1,0-0.2,0.1-0.3c0.1-0.1,0.2-0.1,0.3-0.1
							c0,0,0.1,0.1,0.1,0.1c0.3,0.7,0.4,1.5,0.5,2.3c0.1,1.1,0.1,2.2,0.2,3.3c0.7-1.4,1.8-4.1,2-4.2c0.2-0.1,0.2,0.3,0.2,0.5
							c0,0.8-0.2,1.7-0.4,2.5c0,0.4-0.2,0.8-0.3,1.2c-0.2,0.5-0.3,1-0.3,1.6c1.1-1,2.2-2,3-3.2c0.1-0.1,0.2-0.2,0.3-0.3
							c0.5-0.1,0.1,1.3,0,1.6c-0.2,0.6-0.5,1.2-0.9,1.7c-0.9,1.6-1.6,3.4-2.3,5.1c0,0.1-0.1,0.2-0.2,0.3c-0.1,0.1-0.3,0-0.4,0
							C142.1,13.8,139.6,14.3,137,14.6z"/>
					</g>
				</g>
			</g>
		</g>
	</g>
</g>
</svg>
