<?xml version="1.0" encoding="utf-8"?>
<!-- Generator: Adobe Illustrator 25.2.3, SVG Export Plug-In . SVG Version: 6.00 Build 0)  -->
<svg version="1.1" id="Capa_1" xmlns="http://www.w3.org/2000/svg" xmlns:xlink="http://www.w3.org/1999/xlink" x="0px" y="0px"
	 viewBox="0 0 137.95 137.95" style="enable-background:new 0 0 137.95 137.95;" xml:space="preserve">
<style type="text/css">
	.st0{fill:#EAEAEA;}
	.st1{fill:#215A36;}
	.st2{fill:#E44A7B;}
	.st3{fill:#FFFFFF;}
	.st4{fill:#0B2650;}
	.st5{fill:#514882;}
	.st6{fill:#EFA898;}
	.st7{fill:#D94A7B;}
	.st8{fill:#67666A;}
	.st9{fill:#BCBBCB;}
	.st10{fill:#B6D6DA;}
	.st11{fill:#808083;}
	.st12{fill:#95B437;}
	.st13{fill:#EBA43D;}
	.st14{fill:none;stroke:#808083;stroke-width:0.5;stroke-miterlimit:10;}
	.st15{fill:#00244E;}
	.st16{fill:#B3D1D5;}
	.st17{fill:#209992;}
	.st18{fill:#ADA7C4;}
	.st19{fill:#997BB6;}
	.st20{fill:#406F36;}
	.st21{fill:#99BCC2;}
	.st22{opacity:0.38;}
	.st23{fill:#D9537C;}
	.st24{fill:none;stroke:#9CBC35;stroke-width:2;stroke-miterlimit:10;}
	.st25{fill:#92B4BB;}
	.st26{fill:#417439;}
	.st27{fill:#E9A48E;}
	.st28{fill:#434041;}
	.st29{fill:#9080AE;}
	.st30{fill:#2F73AC;}
	.st31{fill:#C3C2D1;}
	.st32{fill:#767676;}
	.st33{fill:#4C4480;}
	.st34{fill:#407137;}
	.st35{fill:none;}
	.st36{fill:#18274D;}
	.st37{fill:none;stroke:#FFFFFF;stroke-width:4;stroke-miterlimit:10;}
	.st38{fill:none;stroke:#FFFFFF;stroke-width:3.2;stroke-miterlimit:10;}
	.st39{fill:none;stroke:#FFFFFF;stroke-miterlimit:10;}
	.st40{clip-path:url(#SVGID_2_);}
	.st41{clip-path:url(#SVGID_4_);}
	.st42{clip-path:url(#SVGID_6_);fill:none;stroke:#ECA53D;stroke-width:2.484;stroke-miterlimit:10;}
	.st43{clip-path:url(#SVGID_8_);fill:#ECA53D;}
	.st44{clip-path:url(#SVGID_8_);fill:#00244E;}
	.st45{fill:#C3BBD0;}
	.st46{fill:#514883;}
	.st47{opacity:0.3;}
	.st48{clip-path:url(#SVGID_12_);}
	.st49{fill:#3D753F;}
	.st50{fill:#EE9B3F;}
	.st51{fill:#9F97B9;}
	.st52{fill:#EDA899;}
	.st53{fill:#F0A999;}
	.st54{fill:#382635;}
	.st55{clip-path:url(#SVGID_14_);}
	.st56{clip-path:url(#SVGID_16_);}
	.st57{clip-path:url(#SVGID_18_);fill:none;stroke:#ECA53D;stroke-width:2.484;stroke-miterlimit:10;}
	.st58{clip-path:url(#SVGID_20_);fill:#ECA53D;}
	.st59{clip-path:url(#SVGID_20_);fill:#00244E;}
	.st60{fill:#EFAA99;}
	.st61{fill:#B9C6BD;}
	.st62{fill:#F0AB9A;}
	.st63{fill:none;stroke:#EE9B3F;stroke-width:2;stroke-miterlimit:10;}
	.st64{opacity:0.41;fill:#514883;}
	.st65{opacity:0.32;}
	.st66{fill:#989897;}
	.st67{fill:#1E5A2E;}
	.st68{fill:#573E88;}
	.st69{fill:none;stroke:#F3CE12;stroke-width:2;stroke-miterlimit:10;}
	.st70{opacity:0.54;fill:#FFFFFF;}
	.st71{fill:#EAE8EA;}
	.st72{clip-path:url(#SVGID_24_);}
	.st73{fill:#D29D43;}
	.st74{fill:#EBEBEB;}
	.st75{fill:#DA4A7B;}
</style>
<circle class="st37" cx="70.49" cy="68.98" r="55.25"/>
<path class="st3" d="M95.85,66.3c-0.14-5.63-1.34-10.8-6.17-14.5c-0.92-0.7-1.73-1.95-1.96-3.08C85.58,38.3,74.58,31.1,64.82,33.99
	c-7.76,2.3-11.44,8.13-13.06,15.63c-0.17,0.79-0.41,1.74-0.95,2.26c-4.93,4.71-6.67,10.45-6.24,17.16
	c0.39,5.94,3.94,11.18,9.38,13.42c1.2,0.49,2.34,1.43,3.19,2.43c2.51,2.97,5.24,5.54,9.17,6.52c0.61,0.15,1.58,0.82,1.56,1.2l0.12,0
	v15.91h4.49V92.18c0.18-0.85,0.87-1.07,1.77-1.32c3.74-1.02,6.76-3.08,8.92-6.38c0.42-0.65,1.2-1.19,1.93-1.5
	C92.35,79.92,96.05,74.28,95.85,66.3z M81.38,79.34c-0.62,0.13-1.21,1.07-1.56,1.76c-1.49,2.88-3.79,4.63-7.33,5.49
	c0-4.56-0.05-8.75,0.05-12.94c0.02-0.66,0.62-1.4,1.13-1.93c1.94-2.03,3.95-3.99,5.94-5.97c0.97-0.96,1.66-2.06,0.54-3.24
	c-1.18-1.25-2.41-0.76-3.41,0.37c-1.18,1.32-2.31,2.69-3.46,4.03c-0.27-0.16-0.54-0.32-0.81-0.48c0-2.23,0-4.46,0-6.69
	c0-0.86,0.25-1.85-0.11-2.54c-0.46-0.89-1.31-2.01-2.16-2.18c-1.46-0.29-2.2,0.86-2.2,2.33c-0.01,5.22-0.01,10.44-0.01,15.66
	c0,0.84,0,1.68,0,3.29c-1.75-1.74-3.04-3-4.31-4.28c-1.05-1.05-2.2-1.67-3.42-0.38c-1.12,1.2-0.47,2.29,0.5,3.25
	c1.65,1.65,3.17,3.49,5,4.91c1.54,1.19,2.14,2.57,2.25,4.14l0,0v1.15c-0.03,0.58-0.12,1.18-0.23,1.8c-2.91-0.36-4.94-2.06-6.43-4.23
	c-1.62-2.37-3.47-3.93-6.31-4.91c-4.38-1.5-6.74-6.91-6.12-12.52c0.48-4.3,2.39-7.82,5.69-10.65c0.62-0.53,1.04-1.43,1.29-2.24
	c0.49-1.63,0.68-3.36,1.21-4.98c1.84-5.57,6.16-9.39,11.27-9.42c5.85-0.04,10.76,2.25,13.36,7.74c1.23,2.59,1.6,5.6,2.43,8.71
	c4.61,0.8,6.19,4.53,6.94,9.07C92.3,70.68,89.46,77.67,81.38,79.34z"/>
</svg>
