<?xml version="1.0" encoding="utf-8"?>
<!-- Generator: Adobe Illustrator 25.2.3, SVG Export Plug-In . SVG Version: 6.00 Build 0)  -->
<svg version="1.1" id="Capa_1" xmlns="http://www.w3.org/2000/svg" xmlns:xlink="http://www.w3.org/1999/xlink" x="0px" y="0px"
	 viewBox="0 0 116.45 128.96" style="enable-background:new 0 0 116.45 128.96;" xml:space="preserve">
<style type="text/css">
	.st0{fill:#EAEAEA;}
	.st1{fill:#215A36;}
	.st2{fill:#E44A7B;}
	.st3{fill:#FFFFFF;}
	.st4{fill:#0B2650;}
	.st5{fill:#514882;}
	.st6{fill:#EFA898;}
	.st7{fill:#D94A7B;}
	.st8{fill:#67666A;}
	.st9{fill:#BCBBCB;}
	.st10{fill:#B6D6DA;}
	.st11{fill:#808083;}
	.st12{fill:#95B437;}
	.st13{fill:#EBA43D;}
	.st14{fill:none;stroke:#808083;stroke-width:0.5;stroke-miterlimit:10;}
	.st15{fill:#00244E;}
	.st16{fill:#B3D1D5;}
	.st17{fill:#209992;}
	.st18{fill:#ADA7C4;}
	.st19{fill:#997BB6;}
	.st20{fill:#406F36;}
	.st21{fill:#99BCC2;}
	.st22{opacity:0.38;}
	.st23{fill:#D9537C;}
	.st24{fill:none;stroke:#9CBC35;stroke-width:2;stroke-miterlimit:10;}
	.st25{fill:#92B4BB;}
	.st26{fill:#417439;}
	.st27{fill:#E9A48E;}
	.st28{fill:#434041;}
	.st29{fill:#9080AE;}
	.st30{fill:#2F73AC;}
	.st31{fill:#C3C2D1;}
	.st32{fill:#767676;}
	.st33{fill:#4C4480;}
	.st34{fill:#407137;}
	.st35{fill:none;}
	.st36{fill:#18274D;}
	.st37{fill:none;stroke:#FFFFFF;stroke-width:4;stroke-miterlimit:10;}
	.st38{fill:none;stroke:#FFFFFF;stroke-width:3.2;stroke-miterlimit:10;}
	.st39{fill:none;stroke:#FFFFFF;stroke-miterlimit:10;}
	.st40{clip-path:url(#SVGID_2_);}
	.st41{clip-path:url(#SVGID_4_);}
	.st42{clip-path:url(#SVGID_6_);fill:none;stroke:#ECA53D;stroke-width:2.484;stroke-miterlimit:10;}
	.st43{clip-path:url(#SVGID_8_);fill:#ECA53D;}
	.st44{clip-path:url(#SVGID_8_);fill:#00244E;}
	.st45{fill:#C3BBD0;}
	.st46{fill:#514883;}
	.st47{opacity:0.3;}
	.st48{clip-path:url(#SVGID_12_);}
	.st49{fill:#3D753F;}
	.st50{fill:#EE9B3F;}
	.st51{fill:#9F97B9;}
	.st52{fill:#EDA899;}
	.st53{fill:#F0A999;}
	.st54{fill:#382635;}
	.st55{clip-path:url(#SVGID_14_);}
	.st56{clip-path:url(#SVGID_16_);}
	.st57{clip-path:url(#SVGID_18_);fill:none;stroke:#ECA53D;stroke-width:2.484;stroke-miterlimit:10;}
	.st58{clip-path:url(#SVGID_20_);fill:#ECA53D;}
	.st59{clip-path:url(#SVGID_20_);fill:#00244E;}
	.st60{fill:#EFAA99;}
	.st61{fill:#B9C6BD;}
	.st62{fill:#F0AB9A;}
	.st63{fill:none;stroke:#EE9B3F;stroke-width:2;stroke-miterlimit:10;}
	.st64{opacity:0.41;fill:#514883;}
	.st65{opacity:0.32;}
	.st66{fill:#989897;}
	.st67{fill:#1E5A2E;}
	.st68{fill:#573E88;}
	.st69{fill:none;stroke:#F3CE12;stroke-width:2;stroke-miterlimit:10;}
	.st70{opacity:0.54;fill:#FFFFFF;}
	.st71{fill:#EAE8EA;}
	.st72{clip-path:url(#SVGID_24_);}
	.st73{fill:#D29D43;}
	.st74{fill:#EBEBEB;}
	.st75{fill:#DA4A7B;}
</style>
<g>
	<path class="st45" d="M70.57,114.51c-8.12,2.01-14.55,2.96-20.27,2.96c-8.25,0-15-1.99-20.65-6.09
		c-8.78-6.36-15.43-16.71-17.79-27.7c-6.9-32.16,5.77-58.25,33.9-69.81c3.84-1.57,8.04-2.37,12.49-2.37
		c10.11,0,21.22,4.1,30.46,11.26c7.62,5.9,12.84,13.62,15.5,22.95c1.48,5.18,2.2,10.95,2.15,17.15
		C106.24,78.85,101.41,106.84,70.57,114.51 M108.14,44.58c-2.74-9.58-8.07-18.2-16.93-25.06C78.62,9.77,60.05,3.59,44.21,10.1
		C12,23.34,1.22,53.5,7.88,84.53c2.47,11.51,9.34,22.87,19.38,30.15c13.03,9.44,29.22,7.54,44.3,3.79
		c28.16-7,38.68-30.48,38.89-55.59C110.5,56.55,109.79,50.39,108.14,44.58"/>
	<path class="st45" d="M96.74,49.41c-2.22-7.8-6.58-14.25-12.95-19.18c-7.79-6.02-17.11-9.48-25.58-9.48
		c-3.67,0-7.12,0.66-10.26,1.95c-23.76,9.76-34.45,31.85-28.6,59.08c1.98,9.2,7.54,17.86,14.88,23.18
		c4.64,3.36,10.21,4.99,17.04,4.99c4.85,0,10.34-0.81,17.3-2.53C94.4,101,98.45,77.41,98.56,63.92
		C98.6,58.66,97.99,53.78,96.74,49.41"/>
	<path class="st46" d="M86.8,85.05c-0.52-0.34-1.14-0.4-1.74-0.45c-0.54-0.04-1.08-0.08-1.62-0.12c0.05-0.84,0.09-1.69,0.13-2.53
		c0.01-0.11,0.02-0.22,0.08-0.29c0.1-0.11,0.27-0.1,0.41-0.08c0.73,0.09,1.46,0.13,2.2,0.11c0.14,0,0.29-0.02,0.39-0.12
		c0.07-0.08,0.09-0.2,0.11-0.31c0.11-0.8,0.18-1.6,0.21-2.4c0-0.17,0-0.34-0.07-0.48c-0.19-0.36-0.69-0.32-1.09-0.28
		c-0.35,0.03-0.61,0.01-0.96-0.02c-0.07-0.01-0.14-0.02-0.19-0.06c-0.05-0.05-0.05-0.14-0.05-0.21c0.05-2.67,0.09-5.34,0.13-8v-0.54
		c0-0.33-0.04-0.62-0.13-0.93c-0.09-0.31-0.26-0.61-0.52-0.8c-0.27-0.18-0.59-0.24-0.91-0.27c-0.67-0.07-1.35-0.09-2.02-0.05
		c-7.16-0.08-14.33-0.12-21.5-0.02c-0.42,0.01-0.86,0.02-1.24,0.2c-0.87,0.42-1.12,1.55-1.23,2.52c-0.16,1.53-0.19,3.23-0.05,4.77
		c0.08,0.85,0.11,1.71,0.1,2.57c0,0.17-0.01,0.34-0.08,0.48c-0.15,0.28-0.5,0.37-0.81,0.36c-0.31,0-0.63-0.07-0.93,0.02
		c-0.11,0.04-0.22,0.1-0.29,0.21c-0.06,0.09-0.07,0.2-0.09,0.3c-0.1,0.75-0.12,1.5-0.06,2.25c0.02,0.19,0.05,0.41,0.21,0.53
		c0.11,0.08,0.25,0.09,0.39,0.09c0.95,0.04,1.91,0.02,2.87-0.05c0.13-0.01,0.13,0.05,0.19,0.17c0.06,0.12,0.06,0.26,0.06,0.39
		c0,0.63-0.01,1.26-0.02,1.89c-4.92,0.08-9.85,0.25-14.77,0.45c0.13-2.36,0.13-4.72,0-7.07c-0.04-0.59-0.07-1.2,0.08-1.77
		c0.14-0.58,0.52-1.13,1.1-1.35c0.56-0.22,1.18-0.08,1.78-0.06c0.11,0.01,0.24,0.01,0.36,0c0.83,0.36,1.69,0.6,2.65,0.7
		c0.52,0.05,1.06,0.1,1.55-0.06c0.49-0.17,0.92-0.62,0.86-1.11c-0.07-0.65-0.92-1.22-0.59-1.8c0.12-0.2,0.35-0.31,0.57-0.42
		c1.2-0.56,2.33-1.24,3.38-2.02c0.34-0.25,0.55-0.66,0.47-1.06c-0.13-0.71-0.98-0.82-1.66-0.92c-0.62-0.09-1.38-0.47-1.26-1.07
		c0.05-0.25,0.26-0.45,0.45-0.63c0.98-0.93,1.82-1.97,2.51-3.11c0.29-0.48,0.56-1.01,0.5-1.56c0-0.03-0.01-0.07-0.01-0.1
		c-0.12-0.63-0.68-1.15-1.31-1.36c-0.82-0.28-1.75-0.14-2.57,0.07c-0.39,0.11-0.82,0.09-1.17-0.1c-0.54-0.28-0.51-0.72-0.4-1.1
		c0.2-0.71,0.64-1.33,0.92-2.01c0.29-0.68,0.41-1.5-0.01-2.11c-0.85-1.22-2.95-0.64-4.2-1.5c-1.47-1.01-1.63-3.74-2.12-5.29
		c-0.62-1.95-1.3-3.89-1.92-5.84c-0.11-0.35-0.23-0.71-0.5-0.96c-0.07-0.07-0.18-0.14-0.3-0.19c-0.01-0.01,0-0.03-0.02-0.04
		c-0.08-0.05-0.18-0.05-0.28-0.04c-0.1-0.01-0.2,0-0.28,0.04c-0.01,0.01-0.01,0.03-0.02,0.04c-0.12,0.05-0.23,0.12-0.3,0.19
		c-0.27,0.25-0.39,0.61-0.5,0.96c-0.62,1.95-1.29,3.89-1.92,5.84c-0.5,1.55-0.66,4.28-2.13,5.29c-1.24,0.86-3.35,0.28-4.2,1.5
		c-0.42,0.61-0.3,1.43-0.01,2.11c0.29,0.68,0.73,1.3,0.92,2.01c0.11,0.39,0.14,0.82-0.4,1.1c-0.35,0.18-0.77,0.2-1.16,0.1
		c-0.82-0.22-1.75-0.36-2.58-0.07c-0.64,0.22-1.2,0.73-1.31,1.36c0,0.03-0.01,0.07-0.01,0.1c-0.06,0.55,0.21,1.08,0.5,1.56
		c0.68,1.14,1.53,2.18,2.5,3.11c0.19,0.18,0.4,0.38,0.46,0.63c0.11,0.59-0.64,0.98-1.27,1.07c-0.68,0.1-1.53,0.21-1.66,0.92
		c-0.07,0.41,0.13,0.81,0.47,1.06c1.05,0.79,2.19,1.46,3.39,2.02c0.22,0.1,0.45,0.22,0.57,0.42c0.33,0.58-0.52,1.15-0.59,1.8
		c-0.06,0.5,0.37,0.94,0.86,1.11c0.49,0.17,1.03,0.11,1.55,0.06c1.21-0.13,2.27-0.47,3.29-1c0.28-0.01,0.57,0.05,0.85,0.27
		c0.29,0.23,0.43,0.59,0.51,0.94c0.19,0.8,0.12,1.62,0.07,2.43c-0.14,2.36-0.05,4.72,0.24,7.07c-2.48,0.11-4.96,0.23-7.45,0.34
		c-0.68,0.03-1.38,0.07-1.97,0.45c-0.59,0.38-1.03,1.22-0.82,1.98c0.3,1.1,1.55,1.24,2.52,1.18c5.98-0.4,11.25-0.12,17.22-0.6
		c11.73,0.08,23.47,0.16,35.2,0.23c0.94,0.01,2.14-0.22,2.34-1.3C87.73,86.09,87.32,85.39,86.8,85.05 M80.4,76.63
		c-1.51,0.32-3.03,0.53-4.54,0.67c-2.7,0.24-5.4,0.24-8.09,0.14c-0.77-0.03-6.51,0.51-6.53-1.26c-0.01-0.63,0.48-0.81,0.84-0.78
		c5.86,0.53,11.74,0.77,17.59-0.1c0.61-0.09,1.25-0.19,1.83,0.21C81.39,76.28,80.85,76.53,80.4,76.63 M62.31,70.26
		c1.51-0.29,3.03-0.47,4.54-0.6c2.7-0.22,5.4-0.22,8.09-0.13c0.77,0.02,6.51-0.46,6.54,1.13c0.01,0.57-0.48,0.73-0.84,0.7
		c-5.86-0.47-11.74-0.69-17.59,0.09c-0.62,0.08-1.26,0.17-1.83-0.18C61.32,70.58,61.86,70.35,62.31,70.26 M62.13,83.87
		c0.01-0.59,0.02-1.18,0.04-1.78c0-0.15,0.02-0.24,0.05-0.38c0.28-0.22,0.61-0.21,0.97-0.22c3.01-0.11,6.13,0.07,9.14,0.1
		c2.31,0.02,4.61,0.04,6.92,0.06c0.21,0,0.43,0.01,0.59,0.14c0.24,0.19,0.25,0.54,0.24,0.85c-0.01,0.55-0.03,1.09-0.05,1.64
		C74.07,83.92,68.1,83.82,62.13,83.87"/>
</g>
</svg>
