<?xml version="1.0" encoding="utf-8"?>
<!-- Generator: Adobe Illustrator 25.2.3, SVG Export Plug-In . SVG Version: 6.00 Build 0)  -->
<svg version="1.1" id="Capa_1" xmlns="http://www.w3.org/2000/svg" xmlns:xlink="http://www.w3.org/1999/xlink" x="0px" y="0px"
	 viewBox="0 0 137.95 137.95" style="enable-background:new 0 0 137.95 137.95;" xml:space="preserve">
<style type="text/css">
	.st0{fill:#EAEAEA;}
	.st1{fill:#215A36;}
	.st2{fill:#E44A7B;}
	.st3{fill:#FFFFFF;}
	.st4{fill:#0B2650;}
	.st5{fill:#514882;}
	.st6{fill:#EFA898;}
	.st7{fill:#D94A7B;}
	.st8{fill:#67666A;}
	.st9{fill:#BCBBCB;}
	.st10{fill:#B6D6DA;}
	.st11{fill:#808083;}
	.st12{fill:#95B437;}
	.st13{fill:#EBA43D;}
	.st14{fill:none;stroke:#808083;stroke-width:0.5;stroke-miterlimit:10;}
	.st15{fill:#00244E;}
	.st16{fill:#B3D1D5;}
	.st17{fill:#209992;}
	.st18{fill:#ADA7C4;}
	.st19{fill:#997BB6;}
	.st20{fill:#406F36;}
	.st21{fill:#99BCC2;}
	.st22{opacity:0.38;}
	.st23{fill:#D9537C;}
	.st24{fill:none;stroke:#9CBC35;stroke-width:2;stroke-miterlimit:10;}
	.st25{fill:#92B4BB;}
	.st26{fill:#417439;}
	.st27{fill:#E9A48E;}
	.st28{fill:#434041;}
	.st29{fill:#9080AE;}
	.st30{fill:#2F73AC;}
	.st31{fill:#C3C2D1;}
	.st32{fill:#767676;}
	.st33{fill:#4C4480;}
	.st34{fill:#407137;}
	.st35{fill:none;}
	.st36{fill:#18274D;}
	.st37{fill:none;stroke:#FFFFFF;stroke-width:4;stroke-miterlimit:10;}
	.st38{fill:none;stroke:#FFFFFF;stroke-width:3.2;stroke-miterlimit:10;}
	.st39{fill:none;stroke:#FFFFFF;stroke-miterlimit:10;}
	.st40{clip-path:url(#SVGID_2_);}
	.st41{clip-path:url(#SVGID_4_);}
	.st42{clip-path:url(#SVGID_6_);fill:none;stroke:#ECA53D;stroke-width:2.484;stroke-miterlimit:10;}
	.st43{clip-path:url(#SVGID_8_);fill:#ECA53D;}
	.st44{clip-path:url(#SVGID_8_);fill:#00244E;}
	.st45{fill:#C3BBD0;}
	.st46{fill:#514883;}
	.st47{opacity:0.3;}
	.st48{clip-path:url(#SVGID_12_);}
	.st49{fill:#3D753F;}
	.st50{fill:#EE9B3F;}
	.st51{fill:#9F97B9;}
	.st52{fill:#EDA899;}
	.st53{fill:#F0A999;}
	.st54{fill:#382635;}
	.st55{clip-path:url(#SVGID_14_);}
	.st56{clip-path:url(#SVGID_16_);}
	.st57{clip-path:url(#SVGID_18_);fill:none;stroke:#ECA53D;stroke-width:2.484;stroke-miterlimit:10;}
	.st58{clip-path:url(#SVGID_20_);fill:#ECA53D;}
	.st59{clip-path:url(#SVGID_20_);fill:#00244E;}
	.st60{fill:#EFAA99;}
	.st61{fill:#B9C6BD;}
	.st62{fill:#F0AB9A;}
	.st63{fill:none;stroke:#EE9B3F;stroke-width:2;stroke-miterlimit:10;}
	.st64{opacity:0.41;fill:#514883;}
	.st65{opacity:0.32;}
	.st66{fill:#989897;}
	.st67{fill:#1E5A2E;}
	.st68{fill:#573E88;}
	.st69{fill:none;stroke:#F3CE12;stroke-width:2;stroke-miterlimit:10;}
	.st70{opacity:0.54;fill:#FFFFFF;}
	.st71{fill:#EAE8EA;}
	.st72{clip-path:url(#SVGID_24_);}
	.st73{fill:#D29D43;}
	.st74{fill:#EBEBEB;}
	.st75{fill:#DA4A7B;}
</style>
<circle class="st37" cx="69.12" cy="65.89" r="55.25"/>
<g>
	<g>
		<path class="st3" d="M42.33,67c-0.57-0.03-0.92-0.07-1.27-0.06c-2.3,0.08-3.95-0.92-4.83-3.04c-0.84-2.03-0.29-3.86,1.57-5.63
			c4.56-4.32,9.13-8.63,13.69-12.94c3.56-3.37,7.11-6.75,10.68-10.11c3.89-3.65,8.18-3.66,12.08,0.02
			c8.06,7.6,16.1,15.23,24.15,22.85c2.07,1.96,2.65,3.73,1.77,5.85c-0.95,2.27-2.76,3.16-5.15,3.01c-0.2-0.01-0.41,0.03-0.61,0.05
			c-0.04,0.01-0.08,0.06-0.33,0.23c0,0.39,0,0.93,0,1.48c0,7.05,0,14.1,0,21.14c0,2.34-0.69,3.04-2.98,3.04
			c-15.27,0-30.54,0-45.81,0c-2.22,0-2.95-0.72-2.95-2.92c-0.01-7.05,0-14.1,0-21.14C42.33,68.27,42.33,67.71,42.33,67z
			 M57.46,88.51c0-0.95-0.01-1.77,0-2.58c0.02-3.11-0.12-6.24,0.12-9.34c0.42-5.43,5.04-9.5,10.54-9.52
			c5.6-0.02,10.28,4.01,10.71,9.5c0.25,3.2,0.09,6.43,0.12,9.65c0.01,0.75,0,1.49,0,2.25c3.74,0,7.27,0,10.86,0
			c0-7.13,0-14.12,0-21.12c0-4.58,0-4.57,4.56-4.6c0.63,0,1.26-0.15,2.22-0.28c-0.59-0.65-0.84-0.97-1.13-1.25
			c-8.08-7.66-16.17-15.31-24.26-22.96c-2.13-2.01-3.87-2.01-6,0c-8.09,7.65-16.18,15.3-24.26,22.96c-0.31,0.3-0.57,0.65-0.86,0.98
			c0.04,0.19,0.08,0.38,0.11,0.56c1.17,0,2.33,0,3.5,0c2.33,0.01,2.89,0.57,2.89,2.88c0,7.05,0,14.1,0,21.15c0,0.55,0,1.1,0,1.72
			C50.25,88.51,53.75,88.51,57.46,88.51z M74.71,88.53c0-3.82,0.16-7.49-0.05-11.15c-0.19-3.51-2.94-5.98-6.3-6.1
			c-3.22-0.12-6.25,2.23-6.52,5.64c-0.3,3.83-0.07,7.7-0.07,11.61C66.09,88.53,70.3,88.53,74.71,88.53z"/>
	</g>
</g>
</svg>
