<?xml version="1.0" encoding="utf-8"?>
<!-- Generator: Adobe Illustrator 25.2.3, SVG Export Plug-In . SVG Version: 6.00 Build 0)  -->
<svg version="1.1" id="Capa_1" xmlns="http://www.w3.org/2000/svg" xmlns:xlink="http://www.w3.org/1999/xlink" x="0px" y="0px"
	 viewBox="0 0 137.95 137.95" style="enable-background:new 0 0 137.95 137.95;" xml:space="preserve">
<style type="text/css">
	.st0{fill:#EAEAEA;}
	.st1{fill:#215A36;}
	.st2{fill:#E44A7B;}
	.st3{fill:#FFFFFF;}
	.st4{fill:#0B2650;}
	.st5{fill:#514882;}
	.st6{fill:#EFA898;}
	.st7{fill:#D94A7B;}
	.st8{fill:#67666A;}
	.st9{fill:#BCBBCB;}
	.st10{fill:#B6D6DA;}
	.st11{fill:#808083;}
	.st12{fill:#95B437;}
	.st13{fill:#EBA43D;}
	.st14{fill:none;stroke:#808083;stroke-width:0.5;stroke-miterlimit:10;}
	.st15{fill:#00244E;}
	.st16{fill:#B3D1D5;}
	.st17{fill:#209992;}
	.st18{fill:#ADA7C4;}
	.st19{fill:#997BB6;}
	.st20{fill:#406F36;}
	.st21{fill:#99BCC2;}
	.st22{opacity:0.38;}
	.st23{fill:#D9537C;}
	.st24{fill:none;stroke:#9CBC35;stroke-width:2;stroke-miterlimit:10;}
	.st25{fill:#92B4BB;}
	.st26{fill:#417439;}
	.st27{fill:#E9A48E;}
	.st28{fill:#434041;}
	.st29{fill:#9080AE;}
	.st30{fill:#2F73AC;}
	.st31{fill:#C3C2D1;}
	.st32{fill:#767676;}
	.st33{fill:#4C4480;}
	.st34{fill:#407137;}
	.st35{fill:none;}
	.st36{fill:#18274D;}
	.st37{fill:none;stroke:#FFFFFF;stroke-width:4;stroke-miterlimit:10;}
	.st38{fill:none;stroke:#FFFFFF;stroke-width:3.2;stroke-miterlimit:10;}
	.st39{fill:none;stroke:#FFFFFF;stroke-miterlimit:10;}
	.st40{clip-path:url(#SVGID_2_);}
	.st41{clip-path:url(#SVGID_4_);}
	.st42{clip-path:url(#SVGID_6_);fill:none;stroke:#ECA53D;stroke-width:2.484;stroke-miterlimit:10;}
	.st43{clip-path:url(#SVGID_8_);fill:#ECA53D;}
	.st44{clip-path:url(#SVGID_8_);fill:#00244E;}
	.st45{fill:#C3BBD0;}
	.st46{fill:#514883;}
	.st47{opacity:0.3;}
	.st48{clip-path:url(#SVGID_12_);}
	.st49{fill:#3D753F;}
	.st50{fill:#EE9B3F;}
	.st51{fill:#9F97B9;}
	.st52{fill:#EDA899;}
	.st53{fill:#F0A999;}
	.st54{fill:#382635;}
	.st55{clip-path:url(#SVGID_14_);}
	.st56{clip-path:url(#SVGID_16_);}
	.st57{clip-path:url(#SVGID_18_);fill:none;stroke:#ECA53D;stroke-width:2.484;stroke-miterlimit:10;}
	.st58{clip-path:url(#SVGID_20_);fill:#ECA53D;}
	.st59{clip-path:url(#SVGID_20_);fill:#00244E;}
	.st60{fill:#EFAA99;}
	.st61{fill:#B9C6BD;}
	.st62{fill:#F0AB9A;}
	.st63{fill:none;stroke:#EE9B3F;stroke-width:2;stroke-miterlimit:10;}
	.st64{opacity:0.41;fill:#514883;}
	.st65{opacity:0.32;}
	.st66{fill:#989897;}
	.st67{fill:#1E5A2E;}
	.st68{fill:#573E88;}
	.st69{fill:none;stroke:#F3CE12;stroke-width:2;stroke-miterlimit:10;}
	.st70{opacity:0.54;fill:#FFFFFF;}
	.st71{fill:#EAE8EA;}
	.st72{clip-path:url(#SVGID_24_);}
	.st73{fill:#D29D43;}
	.st74{fill:#EBEBEB;}
	.st75{fill:#DA4A7B;}
</style>
<circle class="st37" cx="68.98" cy="68.81" r="55.25"/>
<g>
	<g>
		<path class="st3" d="M35.46,58.6c-0.14-1.54-0.53-2.7-0.28-3.69c0.36-1.4,1.78-1.47,2.98-1.33c1.6,0.2,2.45-0.39,3.09-1.89
			c2.31-5.44,6.56-8.39,12.31-9.44c9.17-1.67,18.31-1.71,27.5-0.04c5.88,1.07,10.26,3.98,12.61,9.56c0.61,1.45,1.45,1.88,2.96,1.84
			c0.96-0.02,2.22,0.3,2.86,0.94c1.2,1.21,0.46,2.51-0.55,3.58c0.09,0.12,0.15,0.26,0.24,0.3c4.24,1.62,5.07,5.22,5.5,9.17
			c0.65,6.02,0.7,12.01-0.96,17.88c-0.3,1.08-1.27,1.97-1.94,2.94c-0.1,0.14-0.37,0.2-0.4,0.33c-0.58,2.59-2.62,2.34-4.53,2.33
			c-2.08-0.01-4.18,0.14-6.25-0.07c-0.93-0.09-2.14-0.64-2.6-1.38c-0.56-0.9-1.15-1.12-2.05-1.31c-10.31-2.17-20.7-1.94-31.1-1.02
			c-2.3,0.2-4.57,0.77-6.83,1.23c-0.31,0.06-0.7,0.42-0.81,0.73c-0.54,1.39-1.6,1.82-2.96,1.81c-2.56-0.01-5.12,0-7.68,0
			c-1.36,0-2.46-0.43-2.88-1.88c-0.03-0.11-0.02-0.28-0.1-0.33c-4.14-2.97-3.26-7.67-3.64-11.71c-0.38-3.97,0.35-8.05,0.66-12.08
			C30.84,61.7,32.84,59.58,35.46,58.6z M92.8,84.08c0.02-0.12,0.04-0.25,0.05-0.37c1.67,0,3.34-0.05,5,0.02
			c1.02,0.04,1.43-0.29,1.64-1.35c1.02-5.21,0.85-10.42,0.07-15.63c-0.14-0.97-0.25-2.34-0.89-2.77c-1.85-1.24-3.87-2.37-5.98-3.02
			c-2.01-0.62-4.22-0.66-6.36-0.82c-12.61-0.9-25.23-0.92-37.84,0.01c-4.02,0.3-8.12,0.48-11.47,3.2c-0.64,0.52-1.37,1.27-1.5,2.01
			c-0.96,5.54-1.24,11.1-0.21,16.69c0.26,1.4,0.81,1.6,2.08,1.7c7.14,0.56,14.08-1.33,21.13-1.55c7.6-0.23,15.23,0.07,22.83,0.42
			C85.18,82.79,88.99,83.57,92.8,84.08z M44.91,55.54c15.14-1.2,30.02-1.18,45.04-0.03c-1.62-4.36-4.13-7.31-8.64-8.25
			c-9.22-1.91-18.42-1.91-27.65-0.03C49.05,48.17,46.53,51.14,44.91,55.54z"/>
		<path class="st3" d="M67.44,78.37c-4.41,0-8.82,0.09-13.22-0.05c-1.16-0.04-2.43-0.57-3.42-1.22c-1.23-0.81-1.19-2.18,0.09-2.91
			c1.37-0.78,2.9-1.43,4.44-1.75c8.44-1.77,16.9-1.8,25.31,0.26c1.08,0.27,2.18,0.67,3.14,1.23c1.51,0.89,1.56,2.53,0.06,3.45
			c-0.87,0.54-1.98,0.93-2.99,0.95C76.38,78.42,71.91,78.37,67.44,78.37z"/>
		<circle class="st3" cx="44.77" cy="68.53" r="4.33"/>
		<circle class="st3" cx="89.95" cy="68.03" r="4.33"/>
	</g>
</g>
</svg>
