<?xml version="1.0" encoding="utf-8"?>
<!-- Generator: Adobe Illustrator 25.2.3, SVG Export Plug-In . SVG Version: 6.00 Build 0)  -->
<svg version="1.1" id="Capa_1" xmlns="http://www.w3.org/2000/svg" xmlns:xlink="http://www.w3.org/1999/xlink" x="0px" y="0px"
	 viewBox="0 0 130.39 126.97" style="enable-background:new 0 0 130.39 126.97;" xml:space="preserve">
<style type="text/css">
	.st0{fill:#E7E7E7;}
	.st1{fill:#215A36;}
	.st2{fill:#E14A7B;}
	.st3{fill:#FFFFFF;}
	.st4{fill:#0B2650;}
	.st5{fill:#514880;}
	.st6{fill:#ECA595;}
	.st7{fill:#D64A7B;}
	.st8{fill:#67666A;}
	.st9{fill:#B9B8C8;}
	.st10{fill:#B3D3D7;}
	.st11{fill:#808080;}
	.st12{fill:#92B137;}
	.st13{fill:#E8A13D;}
	.st14{fill:none;stroke:#808080;stroke-width:0.5;stroke-miterlimit:10;}
	.st15{fill:#00244E;}
	.st16{fill:#B0CED2;}
	.st17{fill:#20968F;}
	.st18{fill:#AAA4C1;}
	.st19{fill:#997BB6;}
	.st20{fill:#406F36;}
	.st21{fill:#99BCC2;}
	.st22{opacity:0.38;}
	.st23{fill:#D6537C;}
	.st24{fill:none;stroke:#9CBC35;stroke-width:2;stroke-miterlimit:10;}
	.st25{fill:#8FB1B8;}
	.st26{fill:#417439;}
	.st27{fill:#E6A18B;}
	.st28{fill:#434041;}
	.st29{fill:#8D80AB;}
	.st30{fill:#2F73A9;}
	.st31{fill:#C3C2D1;}
	.st32{fill:#767676;}
	.st33{fill:#4C4480;}
	.st34{fill:#407137;}
	.st35{fill:none;}
	.st36{fill:#18274D;}
	.st37{fill:none;stroke:#FFFFFF;stroke-width:4;stroke-miterlimit:10;}
	.st38{fill:none;stroke:#FFFFFF;stroke-width:3.2;stroke-miterlimit:10;}
	.st39{fill:none;stroke:#FFFFFF;stroke-miterlimit:10;}
	.st40{clip-path:url(#SVGID_2_);}
	.st41{clip-path:url(#SVGID_4_);}
	.st42{clip-path:url(#SVGID_6_);fill:none;stroke:#E9A23D;stroke-width:2.484;stroke-miterlimit:10;}
	.st43{clip-path:url(#SVGID_8_);fill:#E9A23D;}
	.st44{clip-path:url(#SVGID_8_);fill:#00244E;}
	.st45{fill:#C0B8CD;}
	.st46{opacity:0.3;}
	.st47{clip-path:url(#SVGID_12_);}
	.st48{fill:#3D753F;}
	.st49{fill:#EB983F;}
	.st50{fill:#9C94B6;}
	.st51{fill:#EAA596;}
	.st52{fill:#EDA696;}
	.st53{fill:#382635;}
	.st54{clip-path:url(#SVGID_14_);}
	.st55{clip-path:url(#SVGID_16_);}
	.st56{clip-path:url(#SVGID_18_);fill:none;stroke:#E9A23D;stroke-width:2.484;stroke-miterlimit:10;}
	.st57{clip-path:url(#SVGID_20_);fill:#E9A23D;}
	.st58{clip-path:url(#SVGID_20_);fill:#00244E;}
	.st59{fill:#ECA796;}
	.st60{fill:#B6C3BA;}
	.st61{fill:#EDA897;}
	.st62{opacity:0.41;fill:#514880;}
	.st63{opacity:0.32;}
	.st64{fill:#959594;}
	.st65{fill:#1E5A2E;}
	.st66{fill:#573E85;}
	.st67{fill:none;stroke:#F0CB12;stroke-width:2;stroke-miterlimit:10;}
	.st68{opacity:0.54;fill:#FFFFFF;}
	.st69{fill:#E7E5E7;}
	.st70{clip-path:url(#SVGID_24_);}
	.st71{fill:#CF9A43;}
	.st72{fill:#E8E8E8;}
	.st73{fill:#D74A7B;}
	.st74{fill:none;stroke:#EB983F;stroke-width:2;stroke-miterlimit:10;}
</style>
<circle class="st37" cx="65.99" cy="63.58" r="55.25"/>
<g>
	<g>
		<path class="st3" d="M31.84,71.95c0-5.03,0-10.06,0-15.09c0-1.93,1.53-3.43,3.44-3.32c0.69,0.04,1.39,0.24,2.06,0.47
			c0.74,0.25,1.41,0.22,2.14-0.06c0.98-0.39,2-0.69,3.01-1.01c0.18-0.06,0.26-0.15,0.3-0.34c0.34-1.87,2.17-3.06,4.01-2.6
			c1.57,0.4,3.13,0.84,4.7,1.24c0.22,0.06,0.48,0.05,0.7-0.03c6.74-2.24,13.48-4.5,20.21-6.75c7.63-2.55,15.25-5.09,22.88-7.66
			c1.56-0.52,2.8-0.01,3.87,1.07c0.82,0.83,1.2,1.86,1.2,3.03c0,0.65,0,1.3,0,1.96c0,1.21-0.66,2.13-1.82,2.52
			c-2.25,0.76-4.5,1.51-6.74,2.26c-10.13,3.41-20.26,6.81-30.39,10.22c-0.71,0.24-0.59,0.06-0.59,0.8c0,9.23,0,18.47,0,27.7
			c0,1.64-1.01,2.98-2.57,3.3c-0.48,0.1-1.01,0.05-1.5-0.01c-0.41-0.05-0.82-0.17-1.21-0.31c-0.5-0.18-0.97-0.15-1.47,0.04
			c-1.3,0.48-2.63,0.91-3.94,1.37c-0.14,0.05-0.29,0.2-0.33,0.34c-0.57,1.7-2.3,2.65-4.04,2.18c-3.78-1-7.56-2.03-11.35-3.01
			c-1.53-0.4-2.58-1.79-2.57-3.36C31.86,81.93,31.84,76.94,31.84,71.95z M46.34,89.74c0.01-0.17,0.02-0.28,0.02-0.39
			c0-9.63,0-19.26,0.01-28.9c0-0.27-0.08-0.39-0.34-0.46c-2.99-0.79-5.97-1.58-8.95-2.38c-0.54-0.14-1.08-0.28-1.67-0.43
			c0,0.2,0,0.35,0,0.51c0,9.55,0,19.11,0,28.66c0,0.1-0.02,0.2,0.01,0.3c0.02,0.08,0.08,0.19,0.15,0.21
			c0.43,0.13,0.86,0.23,1.35,0.36c0-0.18,0-0.31,0-0.44c0-2.16,0-4.31,0-6.47c0-1.12,0.88-1.79,1.96-1.51
			c1.46,0.38,2.93,0.76,4.39,1.14c0.84,0.22,1.24,0.74,1.24,1.61c0,1.96,0,3.91,0,5.87c0,0.52-0.01,1.04,0.01,1.56
			c0,0.1,0.06,0.27,0.13,0.29C45.17,89.44,45.73,89.58,46.34,89.74z M57.23,56.54c-0.14,0.04-0.25,0.07-0.37,0.11
			c-2.16,0.74-4.32,1.47-6.48,2.21c-0.52,0.18-0.52,0.18-0.47,0.74c0.01,0.13,0.01,0.27,0.01,0.4c0,7.93,0,15.86-0.01,23.79
			c0,0.28,0.07,0.4,0.35,0.47c1.66,0.42,3.31,0.87,4.96,1.31c0.66,0.18,1.32,0.35,2,0.53C57.23,76.24,57.23,66.41,57.23,56.54z
			 M91.1,40.62c-0.15,0.04-0.25,0.06-0.34,0.09c-1,0.34-2,0.68-3.01,1c-0.25,0.08-0.32,0.2-0.32,0.45c0.01,1.4,0,2.81,0.01,4.21
			c0,0.12,0.01,0.23,0.02,0.37c0.08-0.02,0.13-0.02,0.16-0.03c1.09-0.36,2.17-0.73,3.27-1.08c0.2-0.06,0.21-0.19,0.21-0.35
			c0-1.07,0-2.14,0-3.22C91.1,41.59,91.1,41.13,91.1,40.62z M83.85,43.06c-0.12,0.01-0.17,0.01-0.22,0.03
			c-1.08,0.36-2.15,0.73-3.23,1.08c-0.21,0.07-0.22,0.2-0.22,0.37c0,1.45,0,2.89,0,4.34c0,0.08,0.01,0.17,0.02,0.25
			c0.05,0,0.09,0.01,0.12,0c1.11-0.37,2.21-0.74,3.32-1.11c0.22-0.07,0.2-0.23,0.2-0.39c0-1.32,0-2.65,0-3.97
			C83.85,43.48,83.85,43.3,83.85,43.06z M65.68,53.99c0.08-0.01,0.15-0.01,0.21-0.03c1.07-0.35,2.13-0.71,3.2-1.06
			c0.2-0.07,0.23-0.19,0.23-0.38c0-1.44,0-2.87,0-4.31c0-0.09-0.02-0.18-0.04-0.31c-1.18,0.39-2.32,0.77-3.45,1.16
			c-0.08,0.03-0.17,0.2-0.17,0.3c-0.01,1.47-0.01,2.94-0.01,4.41C65.66,53.85,65.67,53.91,65.68,53.99z M72.96,51.6
			c1.13-0.38,2.22-0.75,3.31-1.09c0.23-0.07,0.31-0.18,0.31-0.42c-0.01-1.42-0.01-2.85-0.01-4.27c0-0.1-0.01-0.19-0.02-0.32
			c-0.15,0.04-0.26,0.06-0.37,0.1c-0.97,0.32-1.94,0.66-2.92,0.97c-0.24,0.08-0.32,0.18-0.32,0.44c0.01,1.41,0.01,2.83,0.01,4.24
			C72.94,51.35,72.95,51.44,72.96,51.6z M62.05,50.33c-2.06,0.69-4.04,1.36-6.03,2.02c0.79,0.29,1.57,0.48,2.34,0.7
			c1.17,0.33,1.95,1.09,2.32,2.25c0.04,0.11,0.07,0.22,0.11,0.35c0.35-0.12,0.66-0.24,0.98-0.32c0.24-0.06,0.3-0.19,0.3-0.43
			c-0.01-1.34,0-2.67,0-4.01C62.05,50.74,62.05,50.58,62.05,50.33z M96.36,38.8c-0.49,0.17-0.92,0.34-1.36,0.47
			c-0.23,0.07-0.31,0.18-0.3,0.42c0.01,1.42,0.01,2.85,0.01,4.27c0,0.11,0.01,0.21,0.02,0.37c0.48-0.17,0.91-0.33,1.35-0.46
			c0.23-0.07,0.3-0.2,0.3-0.43c-0.01-1.42,0-2.85,0-4.27C96.36,39.07,96.36,38.96,96.36,38.8z"/>
		<path class="st3" d="M44.49,77.13c0,1.05-0.83,1.76-1.84,1.51c-1.57-0.38-3.14-0.79-4.7-1.23c-0.81-0.22-1.22-1.09-0.98-1.95
			c0.21-0.76,1.01-1.23,1.83-1.03c1.54,0.39,3.07,0.8,4.6,1.21C44.09,75.84,44.49,76.4,44.49,77.13z"/>
	</g>
</g>
</svg>
