<?xml version="1.0" encoding="utf-8"?>
<!-- Generator: Adobe Illustrator 25.2.3, SVG Export Plug-In . SVG Version: 6.00 Build 0)  -->
<svg version="1.1" id="Capa_1" xmlns="http://www.w3.org/2000/svg" xmlns:xlink="http://www.w3.org/1999/xlink" x="0px" y="0px"
	 viewBox="0 0 116.45 128.96" style="enable-background:new 0 0 116.45 128.96;" xml:space="preserve">
<style type="text/css">
	.st0{fill:#EAEAEA;}
	.st1{fill:#215A36;}
	.st2{fill:#E44A7B;}
	.st3{fill:#FFFFFF;}
	.st4{fill:#0B2650;}
	.st5{fill:#514882;}
	.st6{fill:#EFA898;}
	.st7{fill:#D94A7B;}
	.st8{fill:#67666A;}
	.st9{fill:#BCBBCB;}
	.st10{fill:#B6D6DA;}
	.st11{fill:#808083;}
	.st12{fill:#95B437;}
	.st13{fill:#EBA43D;}
	.st14{fill:none;stroke:#808083;stroke-width:0.5;stroke-miterlimit:10;}
	.st15{fill:#00244E;}
	.st16{fill:#B3D1D5;}
	.st17{fill:#209992;}
	.st18{fill:#ADA7C4;}
	.st19{fill:#997BB6;}
	.st20{fill:#406F36;}
	.st21{fill:#99BCC2;}
	.st22{opacity:0.38;}
	.st23{fill:#D9537C;}
	.st24{fill:none;stroke:#9CBC35;stroke-width:2;stroke-miterlimit:10;}
	.st25{fill:#92B4BB;}
	.st26{fill:#417439;}
	.st27{fill:#E9A48E;}
	.st28{fill:#434041;}
	.st29{fill:#9080AE;}
	.st30{fill:#2F73AC;}
	.st31{fill:#C3C2D1;}
	.st32{fill:#767676;}
	.st33{fill:#4C4480;}
	.st34{fill:#407137;}
	.st35{fill:none;}
	.st36{fill:#18274D;}
	.st37{fill:none;stroke:#FFFFFF;stroke-width:4;stroke-miterlimit:10;}
	.st38{fill:none;stroke:#FFFFFF;stroke-width:3.2;stroke-miterlimit:10;}
	.st39{fill:none;stroke:#FFFFFF;stroke-miterlimit:10;}
	.st40{clip-path:url(#SVGID_2_);}
	.st41{clip-path:url(#SVGID_4_);}
	.st42{clip-path:url(#SVGID_6_);fill:none;stroke:#ECA53D;stroke-width:2.484;stroke-miterlimit:10;}
	.st43{clip-path:url(#SVGID_8_);fill:#ECA53D;}
	.st44{clip-path:url(#SVGID_8_);fill:#00244E;}
	.st45{fill:#C3BBD0;}
	.st46{fill:#514883;}
	.st47{opacity:0.3;}
	.st48{clip-path:url(#SVGID_12_);}
	.st49{fill:#3D753F;}
	.st50{fill:#EE9B3F;}
	.st51{fill:#9F97B9;}
	.st52{fill:#EDA899;}
	.st53{fill:#F0A999;}
	.st54{fill:#382635;}
	.st55{clip-path:url(#SVGID_14_);}
	.st56{clip-path:url(#SVGID_16_);}
	.st57{clip-path:url(#SVGID_18_);fill:none;stroke:#ECA53D;stroke-width:2.484;stroke-miterlimit:10;}
	.st58{clip-path:url(#SVGID_20_);fill:#ECA53D;}
	.st59{clip-path:url(#SVGID_20_);fill:#00244E;}
	.st60{fill:#EFAA99;}
	.st61{fill:#B9C6BD;}
	.st62{fill:#F0AB9A;}
	.st63{fill:none;stroke:#EE9B3F;stroke-width:2;stroke-miterlimit:10;}
	.st64{opacity:0.41;fill:#514883;}
	.st65{opacity:0.32;}
	.st66{fill:#989897;}
	.st67{fill:#1E5A2E;}
	.st68{fill:#573E88;}
	.st69{fill:none;stroke:#F3CE12;stroke-width:2;stroke-miterlimit:10;}
	.st70{opacity:0.54;fill:#FFFFFF;}
	.st71{fill:#EAE8EA;}
	.st72{clip-path:url(#SVGID_24_);}
	.st73{fill:#D29D43;}
	.st74{fill:#EBEBEB;}
	.st75{fill:#DA4A7B;}
</style>
<path class="st45" d="M70.57,114.51c-8.12,2.01-14.55,2.96-20.27,2.96c-8.25,0-15-1.99-20.65-6.09
	c-8.78-6.36-15.43-16.71-17.79-27.7c-6.9-32.16,5.77-58.25,33.9-69.81c3.84-1.57,8.04-2.37,12.49-2.37
	c10.11,0,21.22,4.1,30.46,11.26c7.62,5.9,12.84,13.62,15.5,22.95c1.48,5.18,2.2,10.95,2.15,17.15
	C106.24,78.85,101.41,106.84,70.57,114.51 M108.14,44.58c-2.74-9.58-8.07-18.2-16.93-25.06C78.62,9.77,60.05,3.59,44.21,10.1
	C12,23.34,1.22,53.5,7.88,84.53c2.47,11.51,9.34,22.87,19.38,30.15c13.03,9.44,29.22,7.54,44.3,3.79
	c28.16-7,38.68-30.48,38.89-55.59C110.5,56.55,109.79,50.39,108.14,44.58"/>
<path class="st45" d="M96.74,49.41c-2.22-7.8-6.58-14.25-12.95-19.18c-7.79-6.02-17.11-9.48-25.58-9.48
	c-3.67,0-7.12,0.66-10.26,1.95C24.2,32.47,13.51,54.55,19.35,81.78c1.98,9.2,7.54,17.86,14.88,23.18
	c4.64,3.36,10.21,4.99,17.04,4.99c4.85,0,10.34-0.81,17.3-2.54C94.4,101,98.45,77.41,98.56,63.92
	C98.6,58.66,97.99,53.78,96.74,49.41"/>
<path class="st46" d="M29.62,62.29c7.92,4.49,16.23,8.33,24.82,11.46c1.67,0.61,3.45,1.2,5.22,0.84c2.36-0.47,4.31-2.09,6.38-3.24
	c2.29-1.29,4.66-2.46,6.95-3.76c0.03-0.02,0.06-0.04,0.1-0.06c-4.23-1.66-8.42-3.41-12.54-5.33c-2.5-1.16-4.52-2.81-2.17-5.32
	c0.42-0.46,1.11,0.23,0.68,0.68c-2.28,2.44,1.39,3.54,2.82,4.19c1.27,0.58,2.54,1.14,3.82,1.69c2.8,1.21,5.62,2.36,8.45,3.47
	c0.02-0.01,0.04-0.02,0.06-0.03c0.07,0.05,0.15,0.1,0.22,0.14c0.06,0.02,0.11,0.04,0.17,0.07c0.1,0.04,0.16,0.1,0.21,0.16
	c1.47,0.85,3.25,1.59,4.4,2.67c1.22,1.12,0.75,4.36,0.76,5.95c0.01,2.31-0.1,4.6-0.29,6.9c-0.17,2.09,3.09,2.08,3.26,0
	c0.21-2.6,0.32-5.21,0.28-7.83c-0.03-1.9,0.3-4.72-0.76-6.42c-0.85-1.35-2.65-1.98-3.96-2.76v-1.45c2.89-1.79,5.74-3.65,8.52-5.6
	c0.91-0.64,1.9-1.44,2.23-2.43c0.09-0.25,0.13-0.52,0.13-0.79c-0.05-1.59-1.76-2.48-3.25-3.05c-7.51-2.89-15.02-5.78-22.52-8.67
	c-0.51-0.24-1.06-0.47-1.64-0.69c-1.16-0.43-2.37-0.87-3.62-0.81c-1.36,0.06-2.63,0.69-3.85,1.31c-8.12,4.13-16.24,8.25-24.36,12.37
	c-1.44,0.73-3.1,1.81-3.06,3.4c0.01,0.23,0.05,0.45,0.12,0.65C27.56,61.01,28.63,61.73,29.62,62.29"/>
</svg>
