<?xml version="1.0" encoding="utf-8"?>
<!-- Generator: Adobe Illustrator 25.2.3, SVG Export Plug-In . SVG Version: 6.00 Build 0)  -->
<svg version="1.1" id="Capa_1" xmlns="http://www.w3.org/2000/svg" xmlns:xlink="http://www.w3.org/1999/xlink" x="0px" y="0px"
	 viewBox="0 0 116.45 128.96" style="enable-background:new 0 0 116.45 128.96;" xml:space="preserve">
<style type="text/css">
	.st0{fill:#EAEAEA;}
	.st1{fill:#215A36;}
	.st2{fill:#E44A7B;}
	.st3{fill:#FFFFFF;}
	.st4{fill:#0B2650;}
	.st5{fill:#514882;}
	.st6{fill:#EFA898;}
	.st7{fill:#D94A7B;}
	.st8{fill:#67666A;}
	.st9{fill:#BCBBCB;}
	.st10{fill:#B6D6DA;}
	.st11{fill:#808083;}
	.st12{fill:#95B437;}
	.st13{fill:#EBA43D;}
	.st14{fill:none;stroke:#808083;stroke-width:0.5;stroke-miterlimit:10;}
	.st15{fill:#00244E;}
	.st16{fill:#B3D1D5;}
	.st17{fill:#209992;}
	.st18{fill:#ADA7C4;}
	.st19{fill:#997BB6;}
	.st20{fill:#406F36;}
	.st21{fill:#99BCC2;}
	.st22{opacity:0.38;}
	.st23{fill:#D9537C;}
	.st24{fill:none;stroke:#9CBC35;stroke-width:2;stroke-miterlimit:10;}
	.st25{fill:#92B4BB;}
	.st26{fill:#417439;}
	.st27{fill:#E9A48E;}
	.st28{fill:#434041;}
	.st29{fill:#9080AE;}
	.st30{fill:#2F73AC;}
	.st31{fill:#C3C2D1;}
	.st32{fill:#767676;}
	.st33{fill:#4C4480;}
	.st34{fill:#407137;}
	.st35{fill:none;}
	.st36{fill:#18274D;}
	.st37{fill:none;stroke:#FFFFFF;stroke-width:4;stroke-miterlimit:10;}
	.st38{fill:none;stroke:#FFFFFF;stroke-width:3.2;stroke-miterlimit:10;}
	.st39{fill:none;stroke:#FFFFFF;stroke-miterlimit:10;}
	.st40{clip-path:url(#SVGID_2_);}
	.st41{clip-path:url(#SVGID_4_);}
	.st42{clip-path:url(#SVGID_6_);fill:none;stroke:#ECA53D;stroke-width:2.484;stroke-miterlimit:10;}
	.st43{clip-path:url(#SVGID_8_);fill:#ECA53D;}
	.st44{clip-path:url(#SVGID_8_);fill:#00244E;}
	.st45{fill:#C3BBD0;}
	.st46{fill:#514883;}
	.st47{opacity:0.3;}
	.st48{clip-path:url(#SVGID_12_);}
	.st49{fill:#3D753F;}
	.st50{fill:#EE9B3F;}
	.st51{fill:#9F97B9;}
	.st52{fill:#EDA899;}
	.st53{fill:#F0A999;}
	.st54{fill:#382635;}
	.st55{clip-path:url(#SVGID_14_);}
	.st56{clip-path:url(#SVGID_16_);}
	.st57{clip-path:url(#SVGID_18_);fill:none;stroke:#ECA53D;stroke-width:2.484;stroke-miterlimit:10;}
	.st58{clip-path:url(#SVGID_20_);fill:#ECA53D;}
	.st59{clip-path:url(#SVGID_20_);fill:#00244E;}
	.st60{fill:#EFAA99;}
	.st61{fill:#B9C6BD;}
	.st62{fill:#F0AB9A;}
	.st63{fill:none;stroke:#EE9B3F;stroke-width:2;stroke-miterlimit:10;}
	.st64{opacity:0.41;fill:#514883;}
	.st65{opacity:0.32;}
	.st66{fill:#989897;}
	.st67{fill:#1E5A2E;}
	.st68{fill:#573E88;}
	.st69{fill:none;stroke:#F3CE12;stroke-width:2;stroke-miterlimit:10;}
	.st70{opacity:0.54;fill:#FFFFFF;}
	.st71{fill:#EAE8EA;}
	.st72{clip-path:url(#SVGID_24_);}
	.st73{fill:#D29D43;}
	.st74{fill:#EBEBEB;}
	.st75{fill:#DA4A7B;}
</style>
<path class="st45" d="M65,72.14c-0.85-0.82-2.06-1.33-3.43-1.66c0.12,3.34,0.24,6.66,0.4,10C65.54,79.41,69.14,76.17,65,72.14"/>
<path class="st45" d="M49.34,59.72c0.7,1.25,2.25,1.98,4.14,2.44c-0.08-2.85-0.17-5.7-0.22-8.56
	C50.12,54.55,47.53,56.51,49.34,59.72"/>
<path class="st45" d="M105.73,47.37c-2.61-9.12-7.69-17.33-16.11-23.85C77.63,14.25,59.97,8.36,44.9,14.55
	C14.24,27.15,3.97,55.86,10.31,85.4c2.35,10.94,8.89,21.76,18.45,28.68c12.39,8.99,27.81,7.18,42.15,3.61
	c26.8-6.67,36.81-29.01,37.01-52.9C107.97,58.76,107.31,52.9,105.73,47.37 M69.98,113.92c-7.73,1.92-13.85,2.82-19.29,2.82
	c-7.84,0-14.27-1.9-19.66-5.8c-8.35-6.05-14.68-15.91-16.93-26.36c-6.56-30.6,5.5-55.43,32.27-66.44c3.64-1.5,7.64-2.26,11.88-2.26
	c9.63,0,20.19,3.91,28.99,10.71C94.5,32.21,99.46,39.55,102,48.43c1.41,4.93,2.09,10.42,2.05,16.33
	C103.92,79.99,99.33,106.63,69.98,113.92"/>
<path class="st45" d="M83.72,31.33c-7.76-5.99-17.04-9.44-25.47-9.44c-3.65,0-7.09,0.66-10.22,1.94
	c-23.66,9.72-34.31,31.72-28.49,58.83c1.97,9.16,7.51,17.79,14.82,23.09c4.62,3.35,10.17,4.97,16.97,4.97
	c4.83,0,10.3-0.8,17.24-2.52c25.71-6.4,29.74-29.89,29.85-43.32c0.04-5.24-0.57-10.1-1.8-14.45C94.4,42.67,90.06,36.25,83.72,31.33"
	/>
<g>
	<path class="st46" d="M37.25,70.65c0-3.8,0.01-7.59-0.01-11.39c0-0.43,0.12-0.65,0.52-0.85c6.43-3.11,12.86-6.23,19.27-9.37
		c0.37-0.18,0.67-0.17,1.04,0c6.36,2.95,12.72,5.9,19.09,8.83c0.47,0.21,0.63,0.45,0.63,0.98c-0.02,7.51-0.01,15.01-0.01,22.52
		c0,2.9-2.2,5.15-5.11,5.15c-6.28,0.01-12.55,0-18.83,0.02c-0.54,0-0.65-0.19-0.65-0.68c0.02-4.81,0.01-9.61,0.01-14.42
		c0-1.09-0.26-1.34-1.36-1.34c-2.7,0-5.4,0-8.1,0c-1.06,0-1.35,0.3-1.35,1.38c0,4.76-0.01,9.53,0.02,14.29
		c0,0.66-0.19,0.84-0.81,0.78c-0.46-0.05-0.92-0.04-1.38,0c-0.95,0.07-1.59-0.4-2.04-1.17c-0.65-1.11-0.92-2.32-0.92-3.59
		C37.24,78.07,37.25,74.36,37.25,70.65z M63.72,75.63c0-1.84-0.01-3.68,0.01-5.52c0-0.41-0.09-0.58-0.54-0.57
		c-1.47,0.03-2.94,0.02-4.4,0c-0.4,0-0.53,0.13-0.53,0.53c0.01,3.7,0.01,7.41,0,11.11c0,0.39,0.12,0.54,0.52,0.53
		c1.47-0.02,2.94-0.02,4.4,0c0.44,0.01,0.55-0.14,0.55-0.56C63.7,79.31,63.72,77.47,63.72,75.63z M71.75,75.65
		c0-1.86-0.01-3.73,0.01-5.59c0-0.4-0.11-0.53-0.52-0.53c-1.47,0.02-2.94,0.02-4.4,0c-0.44-0.01-0.55,0.16-0.55,0.57
		c0.01,3.68,0.01,7.36,0,11.04c0,0.44,0.15,0.56,0.57,0.56c1.45-0.02,2.89-0.03,4.34,0c0.48,0.01,0.58-0.17,0.57-0.61
		C71.74,79.29,71.75,77.47,71.75,75.65z"/>
	<path class="st46" d="M77.77,47.46c-0.37,1.3,0.31,1.85,1.44,2.32c2,0.83,3.94,1.82,5.89,2.76c1.16,0.56,1.85,1.74,1.76,2.92
		c-0.11,1.31-0.96,2.37-2.22,2.72c-0.75,0.21-1.47,0.12-2.17-0.22c-6.79-3.22-13.58-6.43-20.37-9.65c-1.31-0.62-2.62-1.23-3.92-1.86
		c-0.28-0.14-0.51-0.13-0.8,0.01c-5.64,2.78-11.28,5.56-16.92,8.33c-2.16,1.06-4.32,2.14-6.5,3.17c-1.15,0.55-2.27,0.45-3.27-0.37
		c-1.69-1.4-1.41-4.01,0.56-5c4.08-2.03,8.17-4.04,12.26-6.05c4.15-2.04,8.31-4.05,12.44-6.12c1.2-0.6,2.3-0.62,3.5-0.04
		c3.91,1.89,7.83,3.72,11.75,5.59c0.44,0.21,0.57,0.14,0.67-0.34c0.41-1.87,1.96-2.93,3.6-2.5c1.26,0.33,2.25,1.71,2.29,3.21
		C77.78,46.71,77.77,47.09,77.77,47.46z"/>
</g>
</svg>
