<?xml version="1.0" encoding="utf-8"?>
<!-- Generator: Adobe Illustrator 25.2.3, SVG Export Plug-In . SVG Version: 6.00 Build 0)  -->
<svg version="1.1" id="Capa_1" xmlns="http://www.w3.org/2000/svg" xmlns:xlink="http://www.w3.org/1999/xlink" x="0px" y="0px"
	 viewBox="0 0 116.45 128.96" style="enable-background:new 0 0 116.45 128.96;" xml:space="preserve">
<style type="text/css">
	.st0{fill:#EAEAEA;}
	.st1{fill:#215A36;}
	.st2{fill:#E44A7B;}
	.st3{fill:#FFFFFF;}
	.st4{fill:#0B2650;}
	.st5{fill:#514882;}
	.st6{fill:#EFA898;}
	.st7{fill:#D94A7B;}
	.st8{fill:#67666A;}
	.st9{fill:#BCBBCB;}
	.st10{fill:#B6D6DA;}
	.st11{fill:#808083;}
	.st12{fill:#95B437;}
	.st13{fill:#EBA43D;}
	.st14{fill:none;stroke:#808083;stroke-width:0.5;stroke-miterlimit:10;}
	.st15{fill:#00244E;}
	.st16{fill:#B3D1D5;}
	.st17{fill:#209992;}
	.st18{fill:#ADA7C4;}
	.st19{fill:#997BB6;}
	.st20{fill:#406F36;}
	.st21{fill:#99BCC2;}
	.st22{opacity:0.38;}
	.st23{fill:#D9537C;}
	.st24{fill:none;stroke:#9CBC35;stroke-width:2;stroke-miterlimit:10;}
	.st25{fill:#92B4BB;}
	.st26{fill:#417439;}
	.st27{fill:#E9A48E;}
	.st28{fill:#434041;}
	.st29{fill:#9080AE;}
	.st30{fill:#2F73AC;}
	.st31{fill:#C3C2D1;}
	.st32{fill:#767676;}
	.st33{fill:#4C4480;}
	.st34{fill:#407137;}
	.st35{fill:none;}
	.st36{fill:#18274D;}
	.st37{fill:none;stroke:#FFFFFF;stroke-width:4;stroke-miterlimit:10;}
	.st38{fill:none;stroke:#FFFFFF;stroke-width:3.2;stroke-miterlimit:10;}
	.st39{fill:none;stroke:#FFFFFF;stroke-miterlimit:10;}
	.st40{clip-path:url(#SVGID_2_);}
	.st41{clip-path:url(#SVGID_4_);}
	.st42{clip-path:url(#SVGID_6_);fill:none;stroke:#ECA53D;stroke-width:2.484;stroke-miterlimit:10;}
	.st43{clip-path:url(#SVGID_8_);fill:#ECA53D;}
	.st44{clip-path:url(#SVGID_8_);fill:#00244E;}
	.st45{fill:#C3BBD0;}
	.st46{fill:#514883;}
	.st47{opacity:0.3;}
	.st48{clip-path:url(#SVGID_12_);}
	.st49{fill:#3D753F;}
	.st50{fill:#EE9B3F;}
	.st51{fill:#9F97B9;}
	.st52{fill:#EDA899;}
	.st53{fill:#F0A999;}
	.st54{fill:#382635;}
	.st55{clip-path:url(#SVGID_14_);}
	.st56{clip-path:url(#SVGID_16_);}
	.st57{clip-path:url(#SVGID_18_);fill:none;stroke:#ECA53D;stroke-width:2.484;stroke-miterlimit:10;}
	.st58{clip-path:url(#SVGID_20_);fill:#ECA53D;}
	.st59{clip-path:url(#SVGID_20_);fill:#00244E;}
	.st60{fill:#EFAA99;}
	.st61{fill:#B9C6BD;}
	.st62{fill:#F0AB9A;}
	.st63{fill:none;stroke:#EE9B3F;stroke-width:2;stroke-miterlimit:10;}
	.st64{opacity:0.41;fill:#514883;}
	.st65{opacity:0.32;}
	.st66{fill:#989897;}
	.st67{fill:#1E5A2E;}
	.st68{fill:#573E88;}
	.st69{fill:none;stroke:#F3CE12;stroke-width:2;stroke-miterlimit:10;}
	.st70{opacity:0.54;fill:#FFFFFF;}
	.st71{fill:#EAE8EA;}
	.st72{clip-path:url(#SVGID_24_);}
	.st73{fill:#D29D43;}
	.st74{fill:#EBEBEB;}
	.st75{fill:#DA4A7B;}
</style>
<path class="st45" d="M70.97,111.81c-8.12,2.01-14.55,2.96-20.27,2.96c-8.25,0-15-1.99-20.65-6.09
	c-8.78-6.36-15.43-16.71-17.79-27.7c-6.9-32.16,5.77-58.25,33.9-69.81C50,9.59,54.2,8.79,58.65,8.79c10.11,0,21.22,4.1,30.46,11.26
	c7.62,5.9,12.84,13.62,15.5,22.95c1.48,5.18,2.2,10.95,2.15,17.15C106.64,76.15,101.81,104.13,70.97,111.81 M108.53,41.88
	c-2.74-9.58-8.07-18.2-16.93-25.06C79.02,7.07,60.45,0.89,44.61,7.39C12.4,20.63,1.62,50.8,8.28,81.82
	c2.47,11.51,9.34,22.87,19.38,30.15c13.03,9.44,29.22,7.54,44.3,3.79c28.16-7,38.68-30.48,38.89-55.59
	C110.89,53.84,110.19,47.68,108.53,41.88"/>
<path class="st45" d="M97.14,46.71c-2.22-7.8-6.58-14.25-12.95-19.18c-7.79-6.02-17.11-9.48-25.58-9.48
	c-3.67,0-7.12,0.66-10.26,1.95c-23.76,9.76-34.45,31.85-28.6,59.08c1.98,9.2,7.54,17.86,14.88,23.18
	c4.64,3.36,10.21,4.99,17.04,4.99c4.85,0,10.34-0.81,17.3-2.53C94.8,98.3,98.84,74.71,98.95,61.22C99,55.96,98.39,51.08,97.14,46.71
	"/>
<path class="st46" d="M78.22,79.92c-0.58-3.3-1.36-6.54-1.89-9.85c-0.49-3.09-0.77-6.23-0.94-9.37c-0.07-1.23,0.33-8.09-0.69-8.4
	c-2.11-0.64-5.35,0.1-7.65,0.18c-0.44-7.58-1.97-18.23-8.82-18.44c-7.51-0.24-10.16,11.78-10.1,18.93c-1.59,0.08-3.2,0.16-4.81,0.19
	c-0.64,0.01-1.28,0.03-1.9,0.23c-0.2,0.06-0.4,0.16-0.51,0.35c-0.09,0.16-0.09,0.37-0.09,0.56c0,2.98,0,5.91-0.13,8.89
	c-0.12,2.7-0.2,5.41-0.41,8.09c-0.25,3.15-0.58,6.29-1,9.42c-0.36,2.74-1.29,5.76-1.3,8.51c2.95,0.68,6.6,0.01,9.62,0
	c3.49-0.01,6.98-0.03,10.47-0.05c3.32-0.02,6.64-0.03,9.96-0.05c3.12-0.01,6.58-0.52,9.66-0.02c0.36,0.06,0.74,0.11,1.06-0.07
	C80.04,88.29,78.45,81.26,78.22,79.92 M50.69,52.82c0.05-5.86,1.95-16.64,7.78-15.69c4.64,0.75,5.75,9.17,6.08,15.39
	c-2.14,0.02-4.28,0.04-6.42,0.04C55.62,52.55,53.16,52.68,50.69,52.82"/>
</svg>
