<?xml version="1.0" encoding="utf-8"?>
<!-- Generator: Adobe Illustrator 25.2.3, SVG Export Plug-In . SVG Version: 6.00 Build 0)  -->
<svg version="1.1" id="Capa_1" xmlns="http://www.w3.org/2000/svg" xmlns:xlink="http://www.w3.org/1999/xlink" x="0px" y="0px"
	 viewBox="0 0 116.45 128.96" style="enable-background:new 0 0 116.45 128.96;" xml:space="preserve">
<style type="text/css">
	.st0{fill:#EAEAEA;}
	.st1{fill:#215A36;}
	.st2{fill:#E44A7B;}
	.st3{fill:#FFFFFF;}
	.st4{fill:#0B2650;}
	.st5{fill:#514882;}
	.st6{fill:#EFA898;}
	.st7{fill:#D94A7B;}
	.st8{fill:#67666A;}
	.st9{fill:#BCBBCB;}
	.st10{fill:#B6D6DA;}
	.st11{fill:#808083;}
	.st12{fill:#95B437;}
	.st13{fill:#EBA43D;}
	.st14{fill:none;stroke:#808083;stroke-width:0.5;stroke-miterlimit:10;}
	.st15{fill:#00244E;}
	.st16{fill:#B3D1D5;}
	.st17{fill:#209992;}
	.st18{fill:#ADA7C4;}
	.st19{fill:#997BB6;}
	.st20{fill:#406F36;}
	.st21{fill:#99BCC2;}
	.st22{opacity:0.38;}
	.st23{fill:#D9537C;}
	.st24{fill:none;stroke:#9CBC35;stroke-width:2;stroke-miterlimit:10;}
	.st25{fill:#92B4BB;}
	.st26{fill:#417439;}
	.st27{fill:#E9A48E;}
	.st28{fill:#434041;}
	.st29{fill:#9080AE;}
	.st30{fill:#2F73AC;}
	.st31{fill:#C3C2D1;}
	.st32{fill:#767676;}
	.st33{fill:#4C4480;}
	.st34{fill:#407137;}
	.st35{fill:none;}
	.st36{fill:#18274D;}
	.st37{fill:none;stroke:#FFFFFF;stroke-width:4;stroke-miterlimit:10;}
	.st38{fill:none;stroke:#FFFFFF;stroke-width:3.2;stroke-miterlimit:10;}
	.st39{fill:none;stroke:#FFFFFF;stroke-miterlimit:10;}
	.st40{clip-path:url(#SVGID_2_);}
	.st41{clip-path:url(#SVGID_4_);}
	.st42{clip-path:url(#SVGID_6_);fill:none;stroke:#ECA53D;stroke-width:2.484;stroke-miterlimit:10;}
	.st43{clip-path:url(#SVGID_8_);fill:#ECA53D;}
	.st44{clip-path:url(#SVGID_8_);fill:#00244E;}
	.st45{fill:#C3BBD0;}
	.st46{fill:#514883;}
	.st47{opacity:0.3;}
	.st48{clip-path:url(#SVGID_12_);}
	.st49{fill:#3D753F;}
	.st50{fill:#EE9B3F;}
	.st51{fill:#9F97B9;}
	.st52{fill:#EDA899;}
	.st53{fill:#F0A999;}
	.st54{fill:#382635;}
	.st55{clip-path:url(#SVGID_14_);}
	.st56{clip-path:url(#SVGID_16_);}
	.st57{clip-path:url(#SVGID_18_);fill:none;stroke:#ECA53D;stroke-width:2.484;stroke-miterlimit:10;}
	.st58{clip-path:url(#SVGID_20_);fill:#ECA53D;}
	.st59{clip-path:url(#SVGID_20_);fill:#00244E;}
	.st60{fill:#EFAA99;}
	.st61{fill:#B9C6BD;}
	.st62{fill:#F0AB9A;}
	.st63{fill:none;stroke:#EE9B3F;stroke-width:2;stroke-miterlimit:10;}
	.st64{opacity:0.41;fill:#514883;}
	.st65{opacity:0.32;}
	.st66{fill:#989897;}
	.st67{fill:#1E5A2E;}
	.st68{fill:#573E88;}
	.st69{fill:none;stroke:#F3CE12;stroke-width:2;stroke-miterlimit:10;}
	.st70{opacity:0.54;fill:#FFFFFF;}
	.st71{fill:#EAE8EA;}
	.st72{clip-path:url(#SVGID_24_);}
	.st73{fill:#D29D43;}
	.st74{fill:#EBEBEB;}
	.st75{fill:#DA4A7B;}
</style>
<path class="st45" d="M105.73,45.54c-2.61-9.12-7.69-17.33-16.11-23.85C77.63,12.42,59.97,6.53,44.9,12.72
	C14.24,25.32,3.97,54.03,10.31,83.56c2.35,10.94,8.89,21.76,18.45,28.68c12.39,8.99,27.81,7.18,42.15,3.61
	c26.8-6.67,36.81-29.01,37.01-52.9C107.97,56.92,107.31,51.07,105.73,45.54 M69.98,112.09c-7.73,1.92-13.85,2.82-19.29,2.82
	c-7.84,0-14.27-1.9-19.66-5.8c-8.35-6.05-14.68-15.91-16.93-26.36c-6.56-30.6,5.5-55.43,32.27-66.44c3.64-1.5,7.64-2.26,11.88-2.26
	c9.63,0,20.19,3.91,28.99,10.71C94.5,30.37,99.46,37.72,102,46.6c1.41,4.93,2.09,10.42,2.05,16.33
	C103.92,78.15,99.33,104.79,69.98,112.09"/>
<path class="st45" d="M83.72,29.5c-7.76-5.99-17.04-9.44-25.47-9.44c-3.65,0-7.09,0.66-10.22,1.94
	c-23.66,9.72-34.31,31.72-28.49,58.83c1.97,9.16,7.51,17.79,14.82,23.09c4.62,3.35,10.17,4.97,16.97,4.97
	c4.83,0,10.3-0.8,17.24-2.52c25.71-6.4,29.74-29.89,29.85-43.32c0.04-5.24-0.57-10.1-1.8-14.45C94.4,40.84,90.06,34.42,83.72,29.5"
	/>
<g>
	<path class="st46" d="M61.33,61.59c1.51,0.14,2.88,0.32,3.83,0.64c6.52,2.26,10.55,8.43,7.43,15.1c-1.99,4.25-5.92,6.4-10.29,7.05
		c0.11,1.96,0.2,3.93,0.32,5.89c0.28,4.6-6.87,4.58-7.15,0c-0.12-2.02-0.22-4.05-0.33-6.08c-8.56-1.62-15.61-7.87-9.71-14.58
		c3.05-3.47,8.09,1.61,5.06,5.06c-0.54,0.63,1.75,1.39,4.25,2c-0.14-3.06-0.25-6.12-0.36-9.19c-1.11-0.1-2.14-0.24-2.98-0.5
		c-5.48-1.66-10.2-6.54-8.41-12.62c1.43-4.9,6-7.93,10.86-8.98c-0.03-2.24-0.07-4.48-0.08-6.71c-0.02-4.61,7.13-4.6,7.15,0
		c0.01,2.21,0.05,4.42,0.08,6.63c6.23,1.23,10.77,5.89,13.13,11.8c1.72,4.28-5.21,6.12-6.9,1.9c-1.15-2.87-3.26-5.18-6.13-6.26
		C61.15,55.69,61.24,58.64,61.33,61.59"/>
	<path class="st45" d="M50.49,57.89c0.7,1.25,2.25,1.98,4.14,2.44c-0.08-2.85-0.17-5.7-0.22-8.56
		C51.27,52.72,48.68,54.68,50.49,57.89"/>
	<path class="st45" d="M64.91,70.45c-0.85-0.82-2.06-1.33-3.43-1.66c0.12,3.34,0.24,6.66,0.4,10
		C65.44,77.72,69.05,74.48,64.91,70.45"/>
</g>
</svg>
