<?xml version="1.0" encoding="utf-8"?>
<!-- Generator: Adobe Illustrator 24.0.2, SVG Export Plug-In . SVG Version: 6.00 Build 0)  -->
<svg version="1.1" id="Capa_1" xmlns="http://www.w3.org/2000/svg" xmlns:xlink="http://www.w3.org/1999/xlink" x="0px" y="0px"
	 viewBox="0 0 40.6 49.7" style="enable-background:new 0 0 40.6 49.7;" xml:space="preserve">
<style type="text/css">
	.st0{fill:#51488B;}
	.st1{fill:#265B33;}
</style>
<path class="st0" d="M37.2,26.2C37,25.5,36.3,25,35.6,25H14.8c-0.3,0-0.6,0.3-0.6,0.6v1.8H13v-8.3h0.6c1,0,1.8-0.8,1.8-1.8
	s-0.8-1.8-1.8-1.8H13v-1.8h0.6c0.3,0,0.6-0.3,0.6-0.6v-2.4c0-0.3-0.3-0.6-0.6-0.6H2.3c-0.3,0-0.6,0.3-0.6,0.6v2.4
	c0,0.3,0.3,0.6,0.6,0.6h0.6V28c0,0.3,0.3,0.6,0.6,0.6h0.6c0.2,3.8,2.2,5.4,4,6.8c2.3,1.8,4.4,3.5,3.1,9.7c-0.1,0.3,0.1,0.6,0.5,0.7
	h0.1h19c0.3,0,0.6-0.3,0.6-0.6c0-0.1,0-0.2-0.1-0.3c-1.7-2.8-1.7-5.1-1.7-8.6c3.6-1.2,6.3-4.2,6.5-7.8
	C37.1,28.2,37.6,27.1,37.2,26.2z M13.6,16.7c0.3,0,0.6,0.3,0.6,0.6c0,0.3-0.3,0.6-0.6,0.6H13v-1.2H13.6z M2.9,12.6v-1.2H13v1.2H2.9z
	 M4.1,13.7h7.7v13.7H4.1V13.7z M12.5,44.6c1.1-6.4-1.3-8.3-3.7-10.2c-1.7-1.4-3.4-2.7-3.6-5.9h8.3c0.3,3.6,2.9,6.5,6.5,7.7
	c0,3.3,0,5.6-1.5,8.3L12.5,44.6L12.5,44.6z M29.8,44.6h-9.9c1.3-2.6,1.4-5,1.4-8c0.8,0.2,1.6,0.3,2.4,0.3h2.4c0.8,0,1.6-0.1,2.4-0.3
	C28.4,39.7,28.5,42,29.8,44.6z M26.1,35.7h-2.4c-4.7,0-8.5-3.1-8.9-7.1h20.1C34.6,32.6,30.7,35.7,26.1,35.7z M35.6,27.4H15.4v-1.2
	h20.2c0.3,0,0.6,0.3,0.6,0.6C36.1,27.1,35.9,27.4,35.6,27.4z"/>
<path class="st0" d="M37.2,26.2C37,25.5,36.3,25,35.6,25H14.8c-0.3,0-0.6,0.3-0.6,0.6v1.8H13v-8.3h0.6c1,0,1.8-0.8,1.8-1.8
	s-0.8-1.8-1.8-1.8H13v-1.8h0.6c0.3,0,0.6-0.3,0.6-0.6v-2.4c0-0.3-0.3-0.6-0.6-0.6H2.3c-0.3,0-0.6,0.3-0.6,0.6v2.4
	c0,0.3,0.3,0.6,0.6,0.6h0.6V28c0,0.3,0.3,0.6,0.6,0.6h0.6c0.2,3.8,2.2,5.4,4,6.8c2.3,1.8,4.4,3.5,3.1,9.7c-0.1,0.3,0.1,0.6,0.5,0.7
	h0.1h19c0.3,0,0.6-0.3,0.6-0.6c0-0.1,0-0.2-0.1-0.3c-1.7-2.8-1.7-5.1-1.7-8.6c3.6-1.2,6.3-4.2,6.5-7.8
	C37.1,28.2,37.6,27.1,37.2,26.2z M13.6,16.7c0.3,0,0.6,0.3,0.6,0.6c0,0.3-0.3,0.6-0.6,0.6H13v-1.2H13.6z M2.9,12.6v-1.2H13v1.2H2.9z
	 M4.1,13.7h7.7v13.7H4.1V13.7z M12.5,44.6c1.1-6.4-1.3-8.3-3.7-10.2c-1.7-1.4-3.4-2.7-3.6-5.9h8.3c0.3,3.6,2.9,6.5,6.5,7.7
	c0,3.3,0,5.6-1.5,8.3L12.5,44.6L12.5,44.6z M29.8,44.6h-9.9c1.3-2.6,1.4-5,1.4-8c0.8,0.2,1.6,0.3,2.4,0.3h2.4c0.8,0,1.6-0.1,2.4-0.3
	C28.4,39.7,28.5,42,29.8,44.6z M26.1,35.7h-2.4c-4.7,0-8.5-3.1-8.9-7.1h20.1C34.6,32.6,30.7,35.7,26.1,35.7z M35.6,27.4H15.4v-1.2
	h20.2c0.3,0,0.6,0.3,0.6,0.6C36.1,27.1,35.9,27.4,35.6,27.4z"/>
<path class="st1" d="M37.2,26.2C37,25.5,36.3,25,35.6,25H14.8c-0.3,0-0.6,0.3-0.6,0.6v1.8H13v-8.3h0.6c1,0,1.8-0.8,1.8-1.8
	s-0.8-1.8-1.8-1.8H13v-1.8h0.6c0.3,0,0.6-0.3,0.6-0.6v-2.4c0-0.3-0.3-0.6-0.6-0.6H2.3c-0.3,0-0.6,0.3-0.6,0.6v2.4
	c0,0.3,0.3,0.6,0.6,0.6h0.6V28c0,0.3,0.3,0.6,0.6,0.6h0.6c0.2,3.8,2.2,5.4,4,6.8c2.3,1.8,4.4,3.5,3.1,9.7c-0.1,0.3,0.1,0.6,0.5,0.7
	h0.1h19c0.3,0,0.6-0.3,0.6-0.6c0-0.1,0-0.2-0.1-0.3c-1.7-2.8-1.7-5.1-1.7-8.6c3.6-1.2,6.3-4.2,6.5-7.8
	C37.1,28.2,37.6,27.1,37.2,26.2z M13.6,16.7c0.3,0,0.6,0.3,0.6,0.6c0,0.3-0.3,0.6-0.6,0.6H13v-1.2H13.6z M2.9,12.6v-1.2H13v1.2H2.9z
	 M4.1,13.7h7.7v13.7H4.1V13.7z M12.5,44.6c1.1-6.4-1.3-8.3-3.7-10.2c-1.7-1.4-3.4-2.7-3.6-5.9h8.3c0.3,3.6,2.9,6.5,6.5,7.7
	c0,3.3,0,5.6-1.5,8.3L12.5,44.6L12.5,44.6z M29.8,44.6h-9.9c1.3-2.6,1.4-5,1.4-8c0.8,0.2,1.6,0.3,2.4,0.3h2.4c0.8,0,1.6-0.1,2.4-0.3
	C28.4,39.7,28.5,42,29.8,44.6z M26.1,35.7h-2.4c-4.7,0-8.5-3.1-8.9-7.1h20.1C34.6,32.6,30.7,35.7,26.1,35.7z M35.6,27.4H15.4v-1.2
	h20.2c0.3,0,0.6,0.3,0.6,0.6C36.1,27.1,35.9,27.4,35.6,27.4z"/>
</svg>
