<?xml version="1.0" encoding="utf-8"?>
<!-- Generator: Adobe Illustrator 24.0.2, SVG Export Plug-In . SVG Version: 6.00 Build 0)  -->
<svg version="1.1" id="Capa_1" xmlns="http://www.w3.org/2000/svg" xmlns:xlink="http://www.w3.org/1999/xlink" x="0px" y="0px"
	 viewBox="0 0 40.6 44.4" style="enable-background:new 0 0 40.6 44.4;" xml:space="preserve">
<style type="text/css">
	.st0{clip-path:url(#SVGID_2_);}
	.st1{fill:#265B33;}
</style>
<g>
	<g>
		<g>
			<defs>
				<rect id="SVGID_1_" x="1.7" y="4.6" width="35.6" height="35.6"/>
			</defs>
			<clipPath id="SVGID_2_">
				<use xlink:href="#SVGID_1_"  style="overflow:visible;"/>
			</clipPath>
			<g class="st0">
				<path class="st1" d="M36.3,4.6H21.7c-0.6,0-1,0.5-1,1v11.5h-4.4c0.3-0.8,0.1-1.3,0.2-3.2c0-0.6-0.5-1-1-1H7.1c-0.6,0-1,0.5-1,1
					c0,1.8-0.1,2.3,0.2,3.2H2.9c-0.6,0-1,0.5-1,1v21.1c0,0.6,0.5,1,1,1h33.5c0.6,0,1-0.5,1-1V5.6C37.3,5.1,36.8,4.6,36.3,4.6z
					 M35.2,6.8v8.5H22.7V6.8H35.2z M8,16.1v-1h6.3v1c0,0.6-0.5,1-1,1H9.1C8.4,17.2,8,16.7,8,16.1z M20.5,19.3v3.2h-2.1v-1
					c0-0.6-0.5-1-1-1c-0.6,0-1,0.5-1,1v1h-3.2v-1c0-0.6-0.5-1-1-1c-0.6,0-1,0.5-1,1v1H8v-1c0-0.6-0.5-1-1-1s-1,0.5-1,1v1H4v-3.2
					H20.5z M3.8,24.6h16.7v13.6H3.8V24.6z M22.7,38.1V17.2h12.6v21H22.7V38.1z"/>
				<path class="st1" d="M25.8,19.4c-0.6,0-1,0.5-1,1v2c0,0.6,0.5,1,1,1c0.6,0,1-0.5,1-1v-2C26.9,19.9,26.3,19.4,25.8,19.4z"/>
				<path class="st1" d="M25.8,13.1c0.6,0,1-0.5,1-1V9.9c0-0.6-0.5-1-1-1c-0.6,0-1,0.5-1,1V12C24.7,12.6,25.2,13.1,25.8,13.1z"/>
				<path class="st1" d="M8.3,11c0.6,0,1-0.5,1-1c0-0.4,0.1-0.5,0.4-0.9c0.4-0.4,0.9-1.1,0.9-2.2c0-0.6-0.5-1-1-1c-0.6,0-1,0.5-1,1
					c0,0.4-0.1,0.5-0.4,0.9C7.8,8.2,7.3,8.9,7.3,10C7.3,10.5,7.7,11,8.3,11z"/>
				<path class="st1" d="M12.5,11c0.6,0,1-0.5,1-1c0-0.4,0.1-0.5,0.4-0.9c0.4-0.4,0.9-1.1,0.9-2.2c0-0.6-0.5-1-1-1c-0.6,0-1,0.5-1,1
					c0,0.4-0.1,0.5-0.4,0.9C12,8.2,11.5,8.9,11.5,10C11.5,10.5,11.9,11,12.5,11z"/>
				<path class="st1" d="M17.4,26.6H6.8c-0.6,0-1,0.5-1,1V35c0,0.6,0.5,1,1,1h10.6c0.6,0,1-0.5,1-1v-7.3
					C18.4,27.1,18,26.6,17.4,26.6z M16.4,33.9H7.9v-5.3h8.5V33.9z"/>
			</g>
		</g>
	</g>
</g>
</svg>
