<?xml version="1.0" encoding="utf-8"?>
<!-- Generator: Adobe Illustrator 24.0.2, SVG Export Plug-In . SVG Version: 6.00 Build 0)  -->
<svg version="1.1" id="Capa_1" xmlns="http://www.w3.org/2000/svg" xmlns:xlink="http://www.w3.org/1999/xlink" x="0px" y="0px"
	 viewBox="0 0 75.9 47.3" style="enable-background:new 0 0 75.9 47.3;" xml:space="preserve">
<style type="text/css">
	.st0{fill:#265B33;}
</style>
<path class="st0" d="M74,35.4L74,35.4L74,35.4L62.5,9.8c-0.4-0.9-1.1-1.7-1.8-2.3c-1.5-1.1-3.4-1.8-5.3-1.8h-6.3H49H38.1l0,0l0,0
	H27.2h-0.1h-5c-0.6,0-1.1,0.5-1.1,1c0,0.6,0.5,1,1.1,1h3.8L24,16.1c-1.7-1.3-3.9-2.1-6.2-2.1c-1.4,0-2.8,0.3-4.1,0.9l2-4.3
	C16,9.9,16.4,9.4,16.9,9c0,0,0.9-0.6,1.4-0.8s0.8-0.8,0.5-1.3c-0.2-0.5-0.9-0.7-1.4-0.5c-0.7,0.3-1.3,0.6-1.8,1.1l0,0
	c-0.8,0.6-1.4,1.4-1.9,2.4L6.3,26.3c0,0,0,0,0,0.1l-4.1,9.1l0,0l0,0c-0.1,0.1-0.1,0.3-0.1,0.4v3.7c0,0.6,0.4,1.2,1,1.5
	s1.3,0.1,1.8-0.3c1.9-1.7,4.4-2.6,7-2.6c2.8,0,5.6,1.2,7.5,3.2c0.3,0.3,0.8,0.5,1.2,0.5c0.5,0,0.9-0.2,1.2-0.5
	c1.9-2,4.7-3.2,7.5-3.2s5.6,1.2,7.5,3.2c0.3,0.3,0.8,0.5,1.2,0.5c0.5,0,0.9-0.2,1.2-0.5c1.9-2,4.7-3.2,7.5-3.2s5.6,1.2,7.5,3.2
	c0.3,0.3,0.8,0.5,1.2,0.5s0.9-0.2,1.2-0.5c1.4-1.5,3.2-2.5,5.2-2.9c0.6-0.1,0.9-0.7,0.8-1.2c-0.1-0.5-0.7-0.9-1.3-0.8
	C59,37,57,38.1,55.4,39.7c-2.3-2.2-5.5-3.5-8.7-3.5c-3.3,0-6.4,1.3-8.7,3.5c-2.3-2.2-5.5-3.5-8.7-3.5c-3.3,0-6.4,1.3-8.7,3.5
	c-2.3-2.2-5.5-3.5-8.7-3.5c-2.8,0-5.5,0.9-7.7,2.6v-2.4c4.2-4.6,11.6-4.4,15.6,0.3c0,0,0.2,0.3,0.7,0.4c0.4,0.1,0.8-0.1,1-0.4
	c1.9-2.3,4.8-3.6,7.9-3.6c2.9,0,5.7,1.1,7.9,3.6l0,0l0.1,0.1c0.2,0.1,0.4,0.2,0.7,0.2s0.5-0.1,0.7-0.3l0,0l0,0l0,0l0,0
	c1.9-2.3,4.8-3.6,7.9-3.6c5.3,0,8.1,3.8,8,3.8c0.8,0.7,1.7-0.3,1.5-0.1c4.5-5.1,11.7-4.6,15.6-0.3v2.4c-1.7-1.3-3.7-2.1-5.9-2.5
	c-0.6-0.1-1.1,0.3-1.2,0.8c-0.1,0.6,0.3,1.1,0.9,1.1c2.1,0.3,3.9,1.2,5.5,2.5c0.5,0.4,1.2,0.6,1.8,0.3c0.6-0.3,1-0.8,1-1.5v-3.7
	C74.1,35.7,74.1,35.5,74,35.4z M20,33.7c-3.9-3.3-9.6-3.9-14.1-1.4l2.3-5c1.7-1.8,4.1-2.8,6.7-2.8s5,1,6.7,2.8L20,33.7z M22,24.9
	c-2-1.6-4.5-2.5-7.2-2.5c-1.8,0-3.5,0.4-5,1.1l2.3-5c1.4-1.6,3.5-2.4,5.7-2.4s4.2,0.8,5.6,2.3L22,24.9z M37.1,33.3
	c-2.2-1.7-4.8-2.6-7.7-2.6c-2.5,0-5,0.7-7,2.1l1.3-5.6c1.7-1.8,4.1-2.9,6.7-2.9s5,1,6.7,2.8V33.3L37.1,33.3z M37.1,24.6
	c-1.9-1.4-4.2-2.1-6.7-2.1c-2.2,0-4.2,0.6-6,1.7l1.3-5.6c1.4-1.6,3.5-2.4,5.7-2.4s4.3,0.9,5.7,2.4V24.6z M37.1,15.8
	c-1.6-1.1-3.6-1.7-5.7-1.7c-1.8,0-3.5,0.5-5,1.3l1.7-7.7h9V15.8L37.1,15.8z M55.4,7.7c1.5,0,2.8,0.5,4,1.3c0.5,0.4,0.9,0.9,1.2,1.6
	l2,4.3c-1.3-0.6-2.7-0.9-4.1-0.9c-2.3,0-4.4,0.7-6.2,2.1l-1.9-8.4L55.4,7.7L55.4,7.7z M39.2,7.7h9l1.7,7.7c-1.5-0.9-3.2-1.3-5-1.3
	c-2.1,0-4.1,0.6-5.7,1.7V7.7z M39.2,18.5c1.4-1.5,3.5-2.4,5.7-2.4s4.3,0.9,5.7,2.4l1.3,5.6c-1.8-1.1-3.8-1.7-6-1.7
	c-2.5,0-4.8,0.8-6.7,2.1V18.5L39.2,18.5z M46.9,30.8c-2.8,0-5.5,0.9-7.7,2.6v-6.1c1.7-1.8,4.1-2.8,6.7-2.8c2.6,0,5,1,6.7,2.9
	l1.3,5.6C51.8,31.5,49.4,30.8,46.9,30.8z M52.8,18.4c1.4-1.5,3.5-2.3,5.6-2.3c2.2,0,4.3,0.9,5.7,2.4l2.3,5c-1.5-0.7-3.2-1.1-5-1.1
	c-2.7,0-5.2,0.9-7.2,2.5L52.8,18.4z M56.2,33.7l-1.5-6.5c1.7-1.8,4.1-2.8,6.7-2.8c2.5,0,5,1,6.7,2.8l2.3,5
	C65.9,29.9,60.2,30.3,56.2,33.7z"/>
</svg>
