<svg width="196" height="175" viewBox="0 0 196 175" fill="none" xmlns="http://www.w3.org/2000/svg">
<path d="M21.4267 152.901H8.30693L5.66938 158.703H0L11.9913 133.247H17.7015L29.8016 158.703H24.0779L21.4267 152.901ZM19.6457 148.998L14.86 138.52L10.088 148.998H19.6457Z" fill="#A79FC1"/>
<path d="M55.7285 154.337V158.701H36.7082V158.688H33.5132V133.232H38.7747V154.337H55.7285Z" fill="#A79FC1"/>
<path d="M97.9295 133.232V158.688H92.6816V142.476L82.2266 158.688H76.3533L65.8982 142.531V158.688H60.6367V133.232H65.8982L79.2763 154.147L92.6952 133.232H97.9295Z" fill="#A79FC1"/>
<path d="M123.081 152.9H109.961L107.324 158.701H101.655L113.646 133.246H119.356L131.456 158.701H125.732L123.081 152.9ZM121.3 148.996L116.515 138.518L111.743 148.996H121.3Z" fill="#A79FC1"/>
<path d="M164.738 145.879C164.738 152.629 160.755 158.688 149.769 158.688H135.168V133.232H149.769C161.271 133.232 164.738 139.142 164.738 145.879ZM159.382 145.879C159.382 141.568 157.193 137.773 149.647 137.773H140.416V154.147H149.647C157.193 154.147 159.382 150.189 159.382 145.879Z" fill="#A79FC1"/>
<path d="M187.62 152.9H174.5L171.863 158.701H166.193L178.184 133.246H183.895L195.995 158.701H190.271L187.62 152.9ZM185.839 148.996L181.053 138.518L176.281 148.996H185.839Z" fill="#A79FC1"/>
<path d="M59.1141 171.687L58.9917 171.998C58.747 172.676 58.3527 173.218 57.8089 173.598C57.2651 173.977 56.6397 174.181 55.9327 174.181C54.8451 174.181 53.9749 173.76 53.3224 172.906C52.7242 172.134 52.425 171.171 52.425 170.019C52.425 168.786 52.7377 167.729 53.3631 166.834C54.0429 165.872 54.913 165.384 55.9871 165.384C56.191 165.384 56.5853 165.438 57.1699 165.546C57.4146 165.601 57.5778 165.614 57.6458 165.601C57.9041 165.56 58.0672 165.533 58.1352 165.519C58.1896 165.506 58.312 165.451 58.5023 165.384L59.0869 167.945L58.6654 168.04L58.5159 167.769C58.1488 167.119 57.8225 166.658 57.5234 166.373C57.1155 165.98 56.6397 165.777 56.1095 165.777C55.4025 165.777 54.8587 166.129 54.4644 166.848C54.1245 167.471 53.9478 168.203 53.9478 169.071C53.9478 170.128 54.1653 171.049 54.5868 171.822C55.0898 172.717 55.756 173.164 56.6125 173.164C57.0612 173.164 57.4554 173.042 57.7953 172.798C58.1352 172.554 58.4207 172.229 58.6247 171.795L58.747 171.51L59.1141 171.687Z" fill="#F5B0A1"/>
<path d="M64.4433 174.031H61.2483V173.625L62.0096 173.543V166.034L61.2483 165.953V165.546H64.4433V165.953L63.6003 166.034V173.543L64.4433 173.625V174.031Z" fill="#F5B0A1"/>
<path d="M74.1098 165.967C74.001 165.967 73.8922 165.98 73.7699 166.021C73.6475 166.061 73.5524 166.116 73.4708 166.17C73.3212 166.292 73.2261 166.427 73.1853 166.577C73.1445 166.726 73.1173 166.915 73.1173 167.159V171.524C73.1173 172.337 72.8998 172.974 72.4783 173.435C71.9889 173.964 71.2683 174.221 70.2894 174.221C69.3241 174.221 68.5764 174.004 68.0597 173.557C67.5431 173.11 67.2712 172.5 67.2712 171.727V166.048L66.5642 165.967V165.56H69.596V165.967L68.8483 166.048V171.402C68.8483 172.053 68.9706 172.568 69.2289 172.934C69.5416 173.394 70.0447 173.638 70.7245 173.638C71.3499 173.638 71.8121 173.435 72.1248 173.042C72.3967 172.69 72.5327 172.229 72.5327 171.659V167.146C72.5327 166.915 72.5191 166.739 72.4783 166.617C72.4375 166.495 72.3559 166.36 72.2336 166.238C72.1656 166.17 72.0568 166.102 71.8937 166.048C71.7441 165.994 71.6082 165.967 71.4994 165.967V165.56H74.0962V165.967H74.1098Z" fill="#F5B0A1"/>
<path d="M83.5997 169.775C83.5997 171.063 83.2055 172.107 82.4305 172.893C81.6828 173.652 80.7311 174.031 79.5618 174.031H76.1765V173.625L76.8971 173.543V166.034L76.1765 165.953V165.546H78.7325H79.7522C80.6495 165.546 81.4652 165.858 82.213 166.482C83.1375 167.281 83.5997 168.379 83.5997 169.775ZM81.9955 169.721C81.9955 168.379 81.7371 167.403 81.2341 166.78C80.7854 166.238 80.1736 165.966 79.3579 165.966C79.1947 165.966 78.95 165.98 78.6237 166.021C78.5829 166.021 78.515 166.034 78.4198 166.048V173.557H79.6162C80.4455 173.557 81.0573 173.178 81.4652 172.432C81.8187 171.781 81.9955 170.873 81.9955 169.721Z" fill="#F5B0A1"/>
<path d="M93.7149 174.031H90.7646V173.625L91.5532 173.544L90.8326 171.415H87.9775L87.6105 172.568C87.5561 172.703 87.5289 172.839 87.5289 172.988C87.5289 173.096 87.5425 173.191 87.5833 173.272C87.624 173.354 87.6784 173.422 87.76 173.476C87.8416 173.53 88.0047 173.571 88.2223 173.598C88.2494 173.598 88.3038 173.611 88.3718 173.625V174.031H85.843V173.625C86.047 173.598 86.2509 173.53 86.4276 173.422C86.6044 173.313 86.7403 173.191 86.8083 173.083C86.8763 172.974 86.9579 172.812 87.0122 172.608L89.0652 166.265L88.7797 165.614L90.3976 165.479L93.1439 173.557L93.6877 173.638V174.031H93.7149ZM90.6423 170.86L89.3779 166.997L88.1543 170.86H90.6423Z" fill="#F5B0A1"/>
<path d="M103.204 169.775C103.204 171.063 102.81 172.107 102.035 172.893C101.287 173.652 100.336 174.031 99.1666 174.031H95.7812V173.625L96.5018 173.543V166.034L95.7812 165.953V165.546H98.3372H99.3569C100.254 165.546 101.07 165.858 101.818 166.482C102.729 167.281 103.204 168.379 103.204 169.775ZM101.587 169.721C101.587 168.379 101.328 167.403 100.825 166.78C100.377 166.238 99.7648 165.966 98.949 165.966C98.7859 165.966 98.5412 165.98 98.2149 166.021C98.1741 166.021 98.1061 166.034 98.0109 166.048V173.557H99.2074C100.037 173.557 100.648 173.178 101.056 172.432C101.41 171.781 101.587 170.873 101.587 169.721Z" fill="#F5B0A1"/>
<path d="M117.127 165.966C116.977 165.966 116.868 165.98 116.8 165.994C116.732 166.007 116.624 166.061 116.488 166.143C116.352 166.224 116.243 166.319 116.175 166.441C116.107 166.563 116.025 166.726 115.957 166.942L113.945 173.259L114.244 173.977L112.586 174.086L109.894 166.034L109.336 165.953V165.546H112.273V165.953L111.566 166.034L113.66 172.418L115.386 166.997C115.427 166.902 115.441 166.793 115.441 166.685C115.441 166.4 115.346 166.197 115.155 166.088C115.074 166.048 114.965 166.007 114.856 166.007C114.734 165.994 114.625 165.98 114.516 165.966V165.56H117.14V165.966H117.127Z" fill="#F5B0A1"/>
<path d="M122.388 174.031H119.193V173.625L119.954 173.543V166.034L119.193 165.953V165.546H122.388V165.953L121.545 166.034V173.543L122.388 173.625V174.031Z" fill="#F5B0A1"/>
<path d="M132.19 165.966C132.041 165.966 131.932 165.98 131.864 165.994C131.796 166.007 131.687 166.061 131.551 166.143C131.415 166.224 131.307 166.319 131.239 166.441C131.171 166.563 131.089 166.726 131.021 166.942L129.009 173.259L129.308 173.977L127.649 174.086L124.958 166.034L124.4 165.953V165.546H127.337V165.953L126.63 166.034L128.724 172.418L130.45 166.997C130.491 166.902 130.505 166.793 130.505 166.685C130.505 166.4 130.409 166.197 130.205 166.088C130.124 166.048 130.015 166.007 129.906 166.007C129.784 165.994 129.675 165.98 129.566 165.966V165.56H132.19V165.966Z" fill="#F5B0A1"/>
<path d="M142.129 174.031H139.165V173.625L139.953 173.544L139.233 171.415H136.378L136.011 172.568C135.956 172.703 135.929 172.839 135.929 172.988C135.929 173.096 135.943 173.191 135.983 173.272C136.024 173.354 136.079 173.422 136.16 173.476C136.242 173.53 136.405 173.571 136.622 173.598C136.65 173.598 136.704 173.611 136.772 173.625V174.031H134.243V173.625C134.461 173.598 134.651 173.53 134.828 173.422C135.005 173.313 135.127 173.191 135.208 173.083C135.276 172.974 135.344 172.812 135.412 172.608L137.465 166.265L137.18 165.614L138.798 165.479L141.544 173.557L142.088 173.638V174.031H142.129ZM139.056 170.86L137.792 166.997L136.568 170.86H139.056Z" fill="#F5B0A1"/>
<path d="M36.9666 120.179C36.8035 119.989 36.6132 119.84 36.382 119.732C36.1509 119.623 35.879 119.583 35.5799 119.583C35.2808 119.583 34.9953 119.637 34.737 119.759C34.4786 119.881 34.2475 120.043 34.0708 120.247C33.8804 120.464 33.7309 120.708 33.6221 120.992C33.5134 121.277 33.459 121.589 33.459 121.928C33.459 122.266 33.5134 122.592 33.6221 122.876C33.7309 123.161 33.8804 123.405 34.0572 123.622C34.2475 123.839 34.465 124.001 34.7098 124.11C34.9545 124.232 35.2264 124.286 35.5255 124.286C35.8518 124.286 36.1509 124.218 36.4092 124.083C36.6675 123.947 36.8715 123.757 37.0346 123.5L38.3806 124.503C38.0679 124.937 37.6736 125.262 37.1978 125.465C36.7219 125.669 36.2325 125.777 35.7294 125.777C35.1584 125.777 34.6282 125.682 34.1388 125.506C33.6493 125.33 33.2414 125.072 32.888 124.733C32.5345 124.394 32.2626 124.001 32.0586 123.527C31.8683 123.053 31.7595 122.524 31.7595 121.941C31.7595 121.358 31.8547 120.83 32.0586 120.355C32.249 119.881 32.5345 119.474 32.888 119.149C33.2414 118.81 33.6629 118.552 34.1388 118.376C34.6282 118.2 35.1448 118.105 35.7294 118.105C35.9334 118.105 36.1509 118.119 36.382 118.159C36.5996 118.2 36.8307 118.254 37.0482 118.336C37.2657 118.417 37.4697 118.525 37.6736 118.661C37.8775 118.796 38.0543 118.973 38.2174 119.162L36.9666 120.179Z" fill="#A79FC1"/>
<path d="M39.3323 118.281H44.3083V119.772H40.9502V121.141H44.1315V122.632H40.9502V124.123H44.4986V125.614H39.3323V118.281Z" fill="#A79FC1"/>
<path d="M45.7902 118.281H48.6317C48.9988 118.281 49.3523 118.322 49.6922 118.39C50.032 118.458 50.3176 118.58 50.5759 118.756C50.8342 118.918 51.0245 119.149 51.1741 119.434C51.3236 119.718 51.3916 120.071 51.3916 120.504C51.3916 121.019 51.2557 121.453 50.9837 121.819C50.7118 122.185 50.3176 122.416 49.8009 122.51L51.6635 125.587H49.7329L48.1966 122.673H47.3945V125.587H45.7766V118.281H45.7902ZM47.4081 121.304H48.3598C48.5093 121.304 48.6589 121.304 48.822 121.29C48.9852 121.277 49.1347 121.25 49.2571 121.196C49.3931 121.141 49.5018 121.06 49.5834 120.952C49.665 120.843 49.7193 120.681 49.7193 120.491C49.7193 120.301 49.6786 120.152 49.6106 120.043C49.529 119.935 49.4338 119.854 49.3251 119.786C49.2027 119.732 49.0668 119.691 48.9172 119.664C48.7677 119.65 48.6181 119.637 48.4686 119.637H47.4081V121.304Z" fill="#A79FC1"/>
<path d="M52.4927 118.281H55.3342C55.7012 118.281 56.0547 118.322 56.3946 118.39C56.7345 118.458 57.02 118.58 57.2783 118.756C57.5366 118.918 57.727 119.149 57.8765 119.434C58.0261 119.718 58.0941 120.071 58.0941 120.504C58.0941 121.019 57.9581 121.453 57.6862 121.819C57.4143 122.185 57.02 122.416 56.5034 122.51L58.366 125.601H56.4354L54.8991 122.687H54.1106V125.601H52.4927V118.281ZM54.1106 121.304H55.0622C55.2118 121.304 55.3613 121.304 55.5245 121.29C55.6876 121.277 55.8372 121.25 55.9596 121.196C56.0955 121.141 56.2043 121.06 56.2859 120.952C56.3674 120.843 56.4218 120.681 56.4218 120.491C56.4218 120.301 56.381 120.152 56.313 120.043C56.2315 119.935 56.1363 119.854 56.0275 119.786C55.9052 119.732 55.7692 119.691 55.6197 119.664C55.4701 119.65 55.3206 119.637 55.171 119.637H54.1106V121.304Z" fill="#A79FC1"/>
<path d="M61.6153 118.281H62.9477L66.129 125.587H64.3072L63.6818 124.042H60.8403L60.2285 125.587H58.4475L61.6153 118.281ZM62.2407 120.409L61.357 122.673H63.1516L62.2407 120.409Z" fill="#A79FC1"/>
<path d="M66.877 118.281H69.297C69.8816 118.281 70.439 118.349 70.9692 118.471C71.4995 118.607 71.9617 118.81 72.356 119.108C72.7503 119.406 73.063 119.786 73.2941 120.247C73.5252 120.708 73.6476 121.277 73.6476 121.955C73.6476 122.551 73.5388 123.066 73.3077 123.513C73.0766 123.961 72.7775 124.34 72.3968 124.652C72.0161 124.964 71.581 125.194 71.078 125.343C70.575 125.506 70.0583 125.587 69.5145 125.587H66.877V118.281ZM68.4812 124.096H69.3242C69.6913 124.096 70.0447 124.056 70.371 123.988C70.6973 123.907 70.9692 123.785 71.2004 123.608C71.4315 123.432 71.6218 123.202 71.7578 122.917C71.8937 122.632 71.9617 122.28 71.9617 121.873C71.9617 121.521 71.8937 121.209 71.7578 120.938C71.6218 120.667 71.4451 120.45 71.214 120.287C70.9828 120.111 70.7245 119.989 70.4118 119.894C70.0991 119.813 69.7864 119.759 69.4465 119.759H68.4948V124.096H68.4812Z" fill="#A79FC1"/>
<path d="M77.1414 118.281H78.4738L81.6552 125.587H79.8334L79.2079 124.042H76.3665L75.7547 125.587H73.9736L77.1414 118.281ZM77.7668 120.409L76.8831 122.673H78.6777L77.7668 120.409Z" fill="#A79FC1"/>
<path d="M85.4622 118.281H87.08V121.006H90.2206V118.281H91.8385V125.587H90.2206V122.429H87.08V125.587H85.4622V118.281Z" fill="#A79FC1"/>
<path d="M95.7267 118.281H97.0591L100.24 125.587H98.4322L97.8068 124.042H94.9653L94.3535 125.587H92.5725L95.7267 118.281ZM96.3521 120.409L95.4684 122.673H97.263L96.3521 120.409Z" fill="#A79FC1"/>
<path d="M100.988 118.281H103.721C104.034 118.281 104.36 118.308 104.673 118.349C104.999 118.39 105.285 118.485 105.543 118.62C105.801 118.756 106.005 118.946 106.168 119.176C106.331 119.42 106.413 119.732 106.413 120.138C106.413 120.545 106.304 120.897 106.073 121.169C105.842 121.44 105.529 121.629 105.162 121.751V121.778C105.407 121.819 105.624 121.873 105.815 121.982C106.005 122.077 106.182 122.212 106.318 122.361C106.454 122.51 106.563 122.7 106.644 122.903C106.726 123.107 106.753 123.324 106.753 123.568C106.753 123.947 106.671 124.273 106.508 124.53C106.345 124.788 106.127 124.991 105.869 125.154C105.611 125.316 105.312 125.425 104.985 125.492C104.659 125.56 104.333 125.601 104.007 125.601H101.002V118.281H100.988ZM102.606 121.196H103.775C103.898 121.196 104.02 121.182 104.142 121.155C104.265 121.128 104.374 121.087 104.469 121.019C104.564 120.952 104.646 120.87 104.7 120.775C104.754 120.667 104.781 120.545 104.781 120.409C104.781 120.26 104.754 120.138 104.686 120.03C104.618 119.935 104.537 119.854 104.428 119.799C104.319 119.745 104.21 119.705 104.075 119.677C103.939 119.65 103.816 119.637 103.694 119.637H102.593V121.196H102.606ZM102.606 124.232H104.061C104.183 124.232 104.306 124.218 104.442 124.191C104.564 124.164 104.686 124.11 104.781 124.042C104.89 123.974 104.972 123.879 105.04 123.771C105.108 123.663 105.135 123.527 105.135 123.364C105.135 123.188 105.094 123.053 104.999 122.944C104.917 122.836 104.809 122.754 104.673 122.7C104.537 122.646 104.401 122.605 104.251 122.592C104.102 122.565 103.952 122.565 103.83 122.565H102.606V124.232Z" fill="#A79FC1"/>
<path d="M107.677 118.281H109.295V125.587H107.677V118.281Z" fill="#A79FC1"/>
<path d="M112.178 119.705H110.084V118.281H115.876V119.705H113.796V125.587H112.178V119.705Z" fill="#A79FC1"/>
<path d="M118.16 118.281H119.492L122.673 125.587H120.865L120.24 124.042H117.398L116.786 125.587H115.005L118.16 118.281ZM118.785 120.409L117.901 122.673H119.696L118.785 120.409Z" fill="#A79FC1"/>
<path d="M128.207 120.179C128.043 119.989 127.853 119.84 127.622 119.732C127.391 119.623 127.119 119.583 126.82 119.583C126.521 119.583 126.235 119.637 125.977 119.759C125.719 119.881 125.488 120.043 125.311 120.247C125.12 120.464 124.971 120.708 124.862 120.992C124.753 121.277 124.699 121.589 124.699 121.928C124.699 122.266 124.753 122.592 124.862 122.876C124.971 123.161 125.12 123.405 125.297 123.622C125.488 123.839 125.705 124.001 125.95 124.11C126.194 124.232 126.466 124.286 126.765 124.286C127.092 124.286 127.391 124.218 127.649 124.083C127.908 123.947 128.111 123.757 128.275 123.5L129.621 124.503C129.308 124.937 128.914 125.262 128.438 125.465C127.962 125.669 127.472 125.777 126.969 125.777C126.398 125.777 125.868 125.682 125.379 125.506C124.889 125.33 124.481 125.072 124.128 124.733C123.774 124.394 123.503 124.001 123.299 123.527C123.108 123.053 123 122.524 123 121.941C123 121.358 123.095 120.83 123.299 120.355C123.489 119.881 123.774 119.474 124.128 119.149C124.481 118.81 124.903 118.552 125.379 118.376C125.868 118.2 126.385 118.105 126.969 118.105C127.173 118.105 127.391 118.119 127.622 118.159C127.84 118.2 128.071 118.254 128.288 118.336C128.506 118.417 128.71 118.525 128.914 118.661C129.118 118.796 129.294 118.973 129.457 119.162L128.207 120.179Z" fill="#A79FC1"/>
<path d="M130.491 118.281H132.109V125.587H130.491V118.281Z" fill="#A79FC1"/>
<path d="M133.169 121.941C133.169 121.358 133.264 120.83 133.468 120.355C133.659 119.881 133.944 119.474 134.298 119.149C134.651 118.81 135.073 118.552 135.548 118.376C136.038 118.2 136.554 118.105 137.139 118.105C137.71 118.105 138.24 118.2 138.716 118.376C139.206 118.552 139.613 118.81 139.967 119.149C140.32 119.488 140.592 119.881 140.796 120.355C140.987 120.83 141.095 121.358 141.095 121.941C141.095 122.524 141 123.053 140.796 123.527C140.606 124.001 140.32 124.408 139.967 124.733C139.613 125.072 139.192 125.33 138.716 125.506C138.227 125.682 137.71 125.777 137.139 125.777C136.568 125.777 136.038 125.682 135.548 125.506C135.059 125.33 134.651 125.072 134.298 124.733C133.944 124.394 133.672 124.001 133.468 123.527C133.278 123.053 133.169 122.524 133.169 121.941ZM134.855 121.941C134.855 122.28 134.909 122.605 135.018 122.89C135.127 123.175 135.277 123.419 135.48 123.635C135.684 123.852 135.916 124.015 136.201 124.123C136.487 124.245 136.799 124.3 137.139 124.3C137.479 124.3 137.792 124.245 138.077 124.123C138.363 124.001 138.594 123.839 138.798 123.635C139.002 123.432 139.151 123.175 139.26 122.89C139.369 122.605 139.423 122.293 139.423 121.941C139.423 121.602 139.369 121.29 139.26 121.006C139.151 120.721 139.002 120.464 138.798 120.26C138.594 120.057 138.363 119.881 138.077 119.772C137.792 119.65 137.493 119.596 137.139 119.596C136.786 119.596 136.487 119.65 136.201 119.772C135.916 119.894 135.684 120.057 135.48 120.26C135.277 120.477 135.127 120.721 135.018 121.006C134.909 121.29 134.855 121.602 134.855 121.941Z" fill="#A79FC1"/>
<path d="M142.183 118.281H144.372L147.485 123.364H147.499V118.281H149.117V125.587H147.01L143.815 120.382H143.801V125.587H142.183V118.281Z" fill="#A79FC1"/>
<path d="M153.033 118.281H154.365L157.547 125.587H155.725L155.099 124.042H152.258L151.646 125.587H149.865L153.033 118.281ZM153.645 120.409L152.761 122.673H154.555L153.645 120.409Z" fill="#A79FC1"/>
<path d="M158.348 118.281H159.966V124.096H162.957V125.587H158.348V118.281Z" fill="#A79FC1"/>
<path d="M69.5144 94.1677C74.64 103.385 83.8714 106.177 92.3551 106.855C102.375 107.668 113.36 105.906 120.552 96.3771C123.856 91.999 126.072 86.2925 127.731 80.4369C131.171 68.2649 132.204 29.5122 127.038 18.5194C124.55 13.206 120.797 9.16674 116.732 6.17117C103.721 -3.38483 88.8338 -1.55496 76.7881 9.66826C68.6171 17.286 67.04 26.5709 65.9659 39.38C65.0958 49.7764 64.5928 85.3437 69.5144 94.1677Z" fill="#F8B1A1"/>
<path d="M123.693 49.8985C123.394 49.5732 122.959 49.3969 122.524 49.4241L117.983 49.668C118.2 48.8954 118.404 48.1228 118.594 47.3638C118.744 46.7809 118.893 46.1845 119.057 45.6017C119.478 44.0835 119.818 42.5925 120.076 41.1557C120.158 40.7084 120.036 40.2611 119.736 39.9223C119.437 39.5834 118.989 39.3936 118.54 39.4208L111.688 39.8003C111.715 39.6376 111.742 39.4885 111.769 39.3259C111.851 38.7837 111.946 38.2551 112.041 37.7129C112.286 36.3574 112.49 35.002 112.639 33.7007C112.694 33.267 112.544 32.8468 112.245 32.5215C111.946 32.2097 111.525 32.0335 111.09 32.0606L104.904 32.3724C104.7 31.5591 104.333 30.8813 103.789 30.3392C102.959 29.5123 101.899 28.9973 100.553 28.7668C100.499 28.7533 100.444 28.7533 100.39 28.7533C100.132 28.7397 99.8732 28.6991 99.6013 28.6584C99.3702 28.6313 99.1254 28.5906 98.8807 28.5635C98.2961 28.5093 97.6979 28.4822 97.0861 28.5093C96.2568 28.5364 95.4138 28.6448 94.5981 28.821C93.8775 28.9837 92.9938 29.1735 92.1917 29.7563C91.7158 30.1087 91.308 30.5289 90.9681 31.044C90.8049 31.288 90.669 31.5455 90.5602 31.8166L90.5058 31.9386C90.4378 32.0877 90.3427 32.2775 90.2747 32.5215C90.2475 32.6028 90.2339 32.6841 90.2203 32.7654C88.045 32.6434 86.1008 32.3724 84.2926 31.9386C83.8439 31.8302 83.3817 31.9386 83.0146 32.2233C82.6611 32.5079 82.4572 32.9552 82.4708 33.4025C82.5388 36.1676 82.8379 38.5261 83.3545 40.6407C81.3016 40.5187 79.3574 40.3154 77.522 40.0307C77.0869 39.9629 76.6519 40.0849 76.3256 40.3696C75.9993 40.6542 75.8089 41.0609 75.8225 41.4946C75.8497 43.9073 76.0672 47.0927 77.2773 50.3187C76.0401 50.156 74.8436 49.9798 73.6608 49.7494C73.2258 49.668 72.7771 49.79 72.4372 50.0747C72.0973 50.3593 71.907 50.7795 71.907 51.2268C72.0022 56.1878 72.6276 63.5344 77.0597 69.8915C81.3424 76.0318 88.0994 79.434 96.08 79.4882H96.3927C106.685 79.4882 114.203 76.2215 118.744 69.7966C120.824 66.8417 121.613 63.1278 122.36 59.5494C122.537 58.7361 122.7 57.9228 122.891 57.1095C123.366 55.0628 123.747 53.0296 124.046 51.0913C124.128 50.6711 123.992 50.2238 123.693 49.8985ZM120.036 56.4725C119.845 57.2993 119.668 58.1397 119.492 58.9665C118.771 62.4094 118.091 65.6625 116.351 68.1159C112.395 73.7139 105.692 76.5604 96.4199 76.5604H96.1208C89.1326 76.5197 83.2321 73.5513 79.5069 68.2243C76.6926 64.1986 75.2651 59.4409 74.9388 52.9889C76.1896 53.1922 77.4812 53.3549 78.8 53.4904C79.1942 54.1275 79.6293 54.7646 80.1323 55.3881C83.7216 59.8747 89.3774 62.3416 96.08 62.3416H96.1752C104.985 62.3145 111.443 59.8476 115.386 55.0357C115.984 54.3037 116.46 53.5176 116.854 52.6907L120.851 52.4738C120.62 53.7751 120.348 55.117 120.036 56.4725ZM85.5298 35.2188C86.9438 35.4628 88.4393 35.6255 90.03 35.7203C90.03 35.8152 90.0164 35.9237 90.03 36.0592C90.0436 36.2896 90.0843 36.5201 90.1251 36.7505L90.1387 36.8454C90.5874 39.3936 92.2053 40.3425 93.4697 40.7084C94.9652 41.1286 96.3383 41.3184 97.6979 41.3184C98.2689 41.3184 98.8535 41.2777 99.4109 41.21C100.811 41.0202 102.008 40.4645 102.973 39.5427C103.938 38.621 104.564 37.496 104.822 36.2083C104.876 35.9237 104.931 35.639 104.972 35.3408L109.458 35.1104C109.363 35.8017 109.241 36.493 109.118 37.1978C109.023 37.7535 108.928 38.2957 108.833 38.8515C108.466 41.1015 108.112 43.216 107.215 44.7613C105.216 48.2177 101.926 49.8849 97.1677 49.8849C97.0181 49.8849 96.8822 49.8849 96.7326 49.8849C94.1766 49.8307 90.601 48.8548 88.0586 44.5308C86.6039 42.0368 85.8017 39.109 85.5298 35.2188ZM93.1298 33.3483C93.1434 33.2941 93.1706 33.2534 93.1841 33.2127C93.2249 33.1314 93.2657 33.0501 93.3065 32.9552C93.3473 32.8468 93.4017 32.7519 93.4697 32.6434C93.6056 32.4401 93.7688 32.2639 93.9591 32.1284C94.2582 31.9115 94.7205 31.8031 95.2643 31.6946C95.9169 31.5455 96.5695 31.4642 97.2085 31.4506C97.3308 31.4506 97.4396 31.4506 97.5619 31.4506C97.9154 31.4506 98.2689 31.4642 98.6088 31.5049C98.7991 31.5184 99.0031 31.5591 99.1934 31.5862C99.5061 31.6269 99.8188 31.6675 100.132 31.6946C100.838 31.8302 101.328 32.047 101.709 32.4266C101.967 32.6841 102.089 33.0365 102.144 33.6194C102.198 34.2293 102.103 34.8529 101.953 35.6119C101.817 36.3167 101.491 36.886 100.947 37.4011C100.444 37.8755 99.8188 38.1602 99.0303 38.2686C97.5483 38.4719 96.012 38.3364 94.2718 37.8484C93.6736 37.6858 93.2385 37.3605 93.0618 36.3167L93.0482 36.2219C93.021 36.0863 92.9938 35.9508 92.9938 35.8152C93.0074 35.6526 93.021 35.4899 93.021 35.3137C92.9938 34.8393 92.9938 34.4462 93.021 34.0802C93.021 33.8091 93.0618 33.5652 93.1298 33.3483ZM85.5298 46.0219C88.0586 50.3187 92.0285 52.7314 96.6918 52.8398C96.855 52.8398 97.0181 52.8398 97.1949 52.8398C103.014 52.8398 107.256 50.6169 109.798 46.2387C110.41 45.195 110.804 44.0158 111.117 42.7823L116.8 42.457C116.623 43.2296 116.433 44.0158 116.215 44.8019C116.052 45.4119 115.889 46.0219 115.739 46.6318C115.114 49.0987 114.529 51.4166 113.115 53.1516C109.757 57.2586 104.061 59.346 96.1888 59.3731H96.1072C90.3155 59.3731 85.4754 57.2993 82.4708 53.5311C80.2819 50.7931 79.1535 47.5535 78.8815 43.1889C80.6218 43.4058 82.4572 43.5549 84.3878 43.6498C84.7005 44.4902 85.0812 45.2763 85.5298 46.0219Z" fill="#51488B"/>
</svg>
