<svg width="414" height="985" viewBox="0 0 414 985" fill="none" xmlns="http://www.w3.org/2000/svg">
<rect width="414" height="985" fill="white"/>
<rect width="414" height="184.864" fill="#E7E7E7"/>
<rect y="92" width="414" height="893" fill="#0B2650"/>
<g clip-path="url(#clip0)">
<path d="M427.865 107.172C428.006 107.005 428.217 106.839 428.358 106.589C424.487 103.594 424.487 97.0204 422.305 92.1111C420.757 88.6996 418.152 86.1202 416.322 82.9583C413.366 77.7162 412.733 70.6436 414.844 64.8191C423.079 73.3894 425.472 87.1187 429.414 99.1838C430.047 101.098 431.103 103.344 432.863 103.427C433.848 103.427 434.763 102.762 435.607 102.013C436.945 100.848 438.282 99.7662 439.549 98.6013C439.971 98.2685 440.464 97.7693 440.534 97.1868C440.605 96.7708 440.394 96.3547 440.253 95.9387C438.986 92.7768 437.789 89.6981 436.593 86.5362C433.214 77.9658 429.555 68.9794 422.938 63.7374C423.361 62.2396 424.909 61.574 426.247 61.9068C427.584 62.1564 428.64 63.1549 429.695 64.1534C435.819 70.3107 440.534 78.5483 442.998 87.6179C443.35 88.7828 443.913 90.2806 444.968 90.2806C445.602 90.2806 446.165 89.7813 446.587 89.2821C448.84 86.8691 451.162 84.3728 452.64 81.2941C454.118 78.1323 454.681 74.2215 453.414 70.9764C452.359 68.4802 450.388 66.7328 448.417 65.1519C443.209 60.9915 437.719 57.164 432.018 53.8356C439.549 47.7615 446.235 40.2728 451.866 31.7856C453.978 28.6238 457.567 21.2183 454.4 20.8022C450.951 22.2168 449.051 26.5436 447.15 30.2047C442.505 39.2743 435.537 46.5966 427.443 51.0898C430.681 46.6798 433.707 41.937 435.607 36.5285C437.508 31.12 438.141 24.9626 436.734 19.3877C436.382 18.0564 435.889 16.7251 435.044 15.7266C434.2 14.8113 433.144 14.3121 432.088 13.896C429.062 12.8143 425.824 12.3983 422.657 12.8975C421.672 13.0639 420.686 13.3136 420.123 14.2288C419.49 15.3105 419.701 16.7251 419.912 17.9732C421.742 28.8734 421.109 40.2728 418.082 50.8402C417.589 52.6707 416.322 54.7509 414.844 54.0853C414.281 50.1745 415.83 46.347 416.815 42.5194C419.208 33.2834 418.223 22.8824 414.141 14.5617C411.184 8.57073 405.695 3.32865 399.994 4.82639C397.882 5.40884 396.052 6.74016 394.292 8.15469C394.081 8.32111 393.87 8.48752 393.659 8.65394C393.589 8.65394 391.618 10.2349 391.266 11.5662C390.914 12.8975 392.885 15.9762 395.067 19.1381C395.982 20.6358 397.319 21.7175 398.375 23.0488C399.29 24.2138 400.064 25.4619 400.838 26.71C401.472 27.8749 402.105 29.0398 402.457 30.3711C402.738 31.3696 402.95 32.3681 403.161 33.4498C403.442 34.5315 403.653 35.6964 403.935 36.7781C404.076 37.4438 404.357 38.0262 404.498 38.6919C404.85 40.356 405.202 42.0202 405.554 43.6011C405.624 43.7675 405.624 43.9339 405.624 44.1004C405.624 45.4317 405.624 46.763 405.695 48.0943C405.765 48.9264 405.906 49.8417 405.976 50.6738C405.976 51.5058 406.117 52.2547 406.328 53.0036C406.398 53.2532 406.539 53.4196 406.61 53.586C407.032 54.6677 407.454 55.6662 407.876 56.7479C407.947 56.9143 407.947 57.164 407.947 57.3304L407.806 57.4136C407.595 57.0807 407.384 56.7479 407.173 56.4151C406.398 54.7509 405.765 53.0036 405.554 51.0898C405.483 50.3409 405.343 49.5921 405.413 48.9264C405.413 48.344 405.272 47.8447 405.202 47.2623C405.061 46.347 404.92 45.4317 404.85 44.5164C404.78 43.6843 404.498 42.9355 404.287 42.1866C404.005 41.1881 403.724 40.1896 403.372 39.3575C402.738 37.8598 402.457 36.1956 402.105 34.5315C401.683 32.7009 401.19 30.8704 400.416 29.2062C399.642 27.5421 398.727 26.0443 397.882 24.4634C397.319 23.4649 396.686 22.4664 396.193 21.3847C395.911 20.719 395.489 20.2198 395.067 19.7205L394.996 19.6373C394.926 19.5541 394.856 19.4709 394.785 19.3045C393.8 17.9732 390.914 14.5617 390.421 13.9792C389.858 13.3136 388.31 12.9807 386.973 13.9792C385.143 15.3938 383.313 16.8083 381.412 18.2228C380.216 19.1381 378.949 20.1366 378.175 21.6343C376.908 24.297 377.752 27.7085 379.442 29.9551C381.131 32.2017 383.453 33.6162 385.635 35.1139C391.688 39.2743 397.53 45.7645 397.882 54.0853C397.952 55.7494 397.671 57.7464 396.404 58.5785C394.644 59.8266 392.392 57.996 391.196 55.9991C388.31 51.589 386.761 46.1806 384.439 41.3545C380.92 33.949 375.571 27.7085 369.306 23.5481C365.858 25.0458 364.028 29.7887 364.38 34.1155C364.732 38.4422 366.843 42.2698 369.377 45.4317C371.911 48.5936 374.796 51.3394 377.189 54.5845C377.964 55.583 378.667 57.2472 377.893 58.2457C373.107 54.8341 368.814 50.2577 363.605 47.7615C358.397 45.2653 351.781 45.1821 347.84 50.0081C353.611 56.5815 363.957 53.9189 369.799 60.409C362.69 62.3228 356.004 55.3334 348.755 54.4181C343.405 53.7524 338.197 56.4983 333.411 59.4938C332.778 59.9098 332.144 60.2426 331.722 60.9083C331.088 61.9068 331.018 63.3213 331.299 64.5694C332.285 68.813 336.156 71.0596 339.816 72.0581C345.939 73.6391 352.485 72.9734 358.327 70.1443C353.752 75.4696 350.444 82.2094 348.825 89.5317C348.684 90.0309 348.614 90.6134 348.825 91.1126C349.036 91.6951 349.67 92.0279 350.162 92.1943C355.863 93.9417 361.494 89.0325 365.224 83.5408C368.955 78.0491 371.911 71.6421 377.049 68.2306C377.893 67.6481 379.371 67.4817 379.582 68.6466C379.723 69.3955 379.16 69.9779 378.597 70.4772C370.644 77.5498 364.168 87.0355 360.086 97.7693C362.198 101.264 364.943 105.175 368.603 104.925C370.996 103.178 373.037 100.848 374.585 98.1021C376.345 94.9402 377.471 91.4455 378.808 88.034C382.257 79.3804 388.028 71.226 395.911 69.2291C394.926 73.8055 393.026 78.0491 390.421 81.627C387.254 85.9538 383.172 89.1157 379.794 93.1096C376.486 97.1036 373.811 101.93 372.122 107.088C371.981 107.421 373.811 109.252 374.022 109.502C374.796 110.334 375.571 111.082 376.415 111.748C378.104 113.079 380.005 114.078 381.975 114.744C383.805 115.326 385.706 113.079 386.761 111.415C388.028 109.418 388.873 107.089 389.366 104.675C390.21 100.349 390.281 95.7723 391.407 91.5287C392.251 88.5332 393.589 85.7874 394.644 82.8751C396.052 79.0475 396.967 75.0536 397.882 71.0596C398.164 69.7283 398.515 68.2306 399.501 67.3985C400.416 66.5664 402.105 66.7328 402.457 68.0641C398.515 73.8887 395.982 80.9613 395.137 88.2836C394.081 97.3532 395.63 107.089 392.251 115.326C397.249 116.657 402.809 114.827 406.469 110.5C413.226 114.577 422.094 113.079 427.865 107.172ZM406.961 103.76C406.891 103.594 406.821 103.427 406.821 103.344C406.961 102.179 406.68 101.014 406.68 99.8494C406.68 98.7677 406.469 97.7692 406.328 96.6876C406.258 95.7723 406.117 94.857 406.047 93.9417C405.835 91.8615 405.835 89.6981 405.906 87.6179C405.976 85.9538 406.047 84.2064 406.187 82.5423C406.258 81.7934 406.469 81.1277 406.539 80.3789C406.539 80.2125 406.61 80.046 406.61 79.7964C406.75 78.0491 407.384 76.5513 408.369 75.22C409.214 75.4696 409.918 76.0521 410.27 77.0506C410.903 78.7147 411.536 80.4621 412.029 82.1262C412.522 83.7904 412.451 85.5377 412.099 87.2851C412.029 87.6179 412.029 87.9508 411.959 88.2836C411.818 89.1157 411.607 89.9477 411.466 90.7798C411.325 91.5287 411.255 92.3608 411.044 93.1096C410.903 93.6089 410.833 94.1913 410.551 94.6074C409.566 95.9387 409.073 97.6028 408.58 99.1838C408.088 100.682 407.665 102.179 407.173 103.76C407.102 103.76 407.032 103.76 406.961 103.76Z" fill="#3D753F"/>
<path d="M421.601 115.326C422.727 118.405 423.783 121.484 424.698 124.646C424.769 124.895 424.839 125.145 424.769 125.395C424.628 125.894 424.065 126.06 423.642 125.811C423.22 125.561 423.009 125.062 422.798 124.646C419.701 118.322 416.393 112.165 413.015 106.007C411.325 102.929 409.495 99.7666 407.314 97.104C411.114 109.169 414.352 121.401 417.026 133.882C417.167 134.631 417.167 135.796 416.463 135.879C416.041 135.962 415.689 135.379 415.478 134.88C413.155 129.721 410.833 124.646 408.51 119.57C407.243 114.827 405.695 110.168 403.865 105.758C403.161 116.325 403.231 127.059 404.076 137.626C404.146 138.292 404.146 139.041 403.654 139.373C402.879 139.873 402.176 138.625 402.035 137.543C400.275 128.057 398.656 118.572 397.319 109.086C394.152 118.405 391.9 128.14 390.562 138.042C390.492 138.625 390.422 139.29 390.07 139.706C389.718 140.122 389.014 140.289 388.732 139.789C388.592 139.54 388.592 139.29 388.521 139.041C387.677 128.224 390.844 117.49 391.548 106.59C388.31 112.747 377.26 135.796 374.022 141.953C373.741 142.452 373.389 143.035 372.896 143.367C372.403 143.617 371.7 143.451 371.488 142.868C371.418 142.535 371.488 142.119 371.629 141.703C373.53 135.796 383.454 113.08 385.847 107.505C378.879 113.329 371.981 119.154 365.013 125.062C364.38 125.561 363.394 125.977 363.113 125.145C362.972 124.729 363.183 124.23 363.465 123.814C367.195 117.407 371.629 111.582 376.626 106.423C377.753 105.258 378.879 104.177 379.723 102.762C380.779 101.098 381.483 99.101 382.679 97.6865C375.5 100.266 368.251 102.762 361.072 105.342C360.649 105.508 360.157 105.674 359.664 105.508C359.242 105.342 358.819 104.842 358.96 104.26C359.031 104.01 359.171 103.844 359.383 103.677C361.916 100.932 365.224 99.4338 368.462 97.9361C373.037 95.8559 377.541 93.7757 382.116 91.6955C375.43 90.6138 362.691 89.0329 362.127 88.3672C361.564 87.7015 363.183 86.7031 364.028 86.3702C367.547 85.2053 371.207 84.5397 374.937 84.5397C376.697 84.0404 378.597 84.29 380.427 84.3732C382.75 84.4564 385.072 84.1236 387.325 83.458C381.694 79.7136 376.063 75.8861 369.94 73.5563C369.377 73.3066 368.744 73.057 368.462 72.4746C367.406 70.3112 373.952 70.0615 375.008 70.1447C377.823 70.3112 380.638 71.06 383.383 71.6425C391.407 73.473 399.571 74.2219 407.736 75.3036C408.229 75.3868 408.792 75.47 409.143 75.8861C409.636 76.3853 409.707 77.2174 409.847 77.9663C411.396 91.113 417.026 103.012 421.601 115.326Z" fill="#EB983F"/>
</g>
<defs>
<clipPath id="clip0">
<rect width="101" height="152.103" fill="white" transform="translate(313)"/>
</clipPath>
</defs>
</svg>
