<svg width="265" height="76" viewBox="0 0 265 76" fill="none" xmlns="http://www.w3.org/2000/svg">
<path d="M2.89958 66.58C6.50958 73.09 13.0196 75.07 18.9996 75.55C26.0596 76.12 33.8096 74.88 38.8796 68.14C41.2096 65.04 42.7696 61.01 43.9396 56.87C46.3596 48.26 47.0896 20.86 43.4496 13.09C41.6896 9.34003 39.0496 6.48003 36.1796 4.36003C26.9996 -2.39997 16.5096 -1.08996 8.01958 6.84003C2.25958 12.22 1.14958 18.79 0.399576 27.85C-0.220424 35.19 -0.570424 60.33 2.89958 66.58Z" fill="#EE4A7B"/>
<path d="M35.5895 40.9H36.5595V38.52H35.5895C31.0895 38.52 27.1095 40.78 24.7095 44.22V37.5C28.8795 36.63 34.1395 32.44 34.1395 23.07H31.7595C31.7595 31.19 27.4995 34.19 24.7095 35.02V31.1C27.0995 30.48 28.4995 27.91 28.4995 23.96C28.4995 19.19 25.2195 15.46 21.0195 15.46C17.3195 15.46 9.68945 18.31 9.68945 27.11C9.68945 35.03 17.5595 37.42 22.3295 37.65V38.46V44.22C19.9295 40.78 15.9495 38.52 11.4495 38.52H10.4795V40.9H11.4495C17.0795 40.9 21.7195 45.2 22.2695 50.69C19.8695 47.29 15.9195 45.06 11.4495 45.06H10.4795V47.44H11.4495C17.4495 47.44 22.3295 52.32 22.3295 58.32V59.29V61.24H24.7095V59.29V58.32C24.7095 52.32 29.5895 47.44 35.5895 47.44H36.5595V45.06H35.5895C31.1195 45.06 27.1695 47.29 24.7595 50.69C25.3095 45.2 29.9595 40.9 35.5895 40.9ZM12.0695 27.11C12.0695 19.41 19.1295 17.84 21.0195 17.84C23.8795 17.84 26.1195 20.53 26.1195 23.97C26.1195 25.15 25.9595 27.58 24.6995 28.5C24.5695 26.11 23.4595 23.3 21.4495 22.21C20.2495 21.55 18.9095 21.63 17.6795 22.42C16.3695 23.27 15.8695 24.87 16.3795 26.6C16.9895 28.67 19.0395 30.77 22.3295 31.18V35.26C19.8495 35.07 12.0695 33.94 12.0695 27.11ZM22.3295 28.78C20.2795 28.43 19.0295 27.18 18.6595 25.94C18.5795 25.68 18.3795 24.81 18.9695 24.42C19.2795 24.22 19.5395 24.15 19.7595 24.15C19.9795 24.15 20.1595 24.22 20.3095 24.3C21.3895 24.88 22.2695 26.86 22.3295 28.78Z" fill="white"/>
<path d="M61.9393 56.2201C61.6093 55.8601 61.2893 55.6201 60.9693 55.5001C60.6593 55.3801 60.3493 55.3201 60.0293 55.3201C59.5593 55.3201 59.1393 55.4001 58.7593 55.5701C58.3793 55.7401 58.0493 55.9701 57.7793 56.2601C57.5093 56.5501 57.2993 56.9001 57.1493 57.2901C56.9993 57.6801 56.9293 58.1001 56.9293 58.5601C56.9293 59.0501 56.9993 59.4901 57.1493 59.9001C57.2993 60.3101 57.5093 60.6601 57.7793 60.9601C58.0493 61.2601 58.3793 61.4901 58.7593 61.6601C59.1393 61.8301 59.5593 61.9201 60.0293 61.9201C60.3993 61.9201 60.7493 61.8301 61.0993 61.6601C61.4493 61.4901 61.7693 61.2101 62.0693 60.8201L63.3993 61.7701C62.9893 62.3301 62.4893 62.7401 61.8993 63.0001C61.3093 63.2601 60.6893 63.3801 60.0193 63.3801C59.3193 63.3801 58.6793 63.2701 58.0993 63.0401C57.5193 62.8101 57.0093 62.4901 56.5893 62.0801C56.1693 61.6701 55.8393 61.1701 55.5993 60.5901C55.3593 60.0101 55.2393 59.3701 55.2393 58.6601C55.2393 57.9401 55.3593 57.2801 55.5993 56.6801C55.8393 56.0901 56.1693 55.5801 56.5893 55.1601C57.0093 54.7401 57.5093 54.4201 58.0993 54.1901C58.6793 53.9601 59.3193 53.8501 60.0193 53.8501C60.6293 53.8501 61.1993 53.9601 61.7293 54.1801C62.2493 54.4001 62.7393 54.7701 63.1893 55.2901L61.9393 56.2201Z" fill="white"/>
<path d="M66.999 54.0903H68.609V63.1403H66.999V54.0903Z" fill="white"/>
<path d="M80.3991 59.8203C80.3991 60.3703 80.3091 60.8603 80.1191 61.3003C79.9291 61.7403 79.6791 62.1103 79.3491 62.4203C79.0291 62.7303 78.6391 62.9603 78.1991 63.1303C77.7591 63.3003 77.2691 63.3803 76.7591 63.3803C76.2391 63.3803 75.7591 63.3003 75.3191 63.1303C74.8791 62.9603 74.4891 62.7303 74.1591 62.4203C73.8291 62.1103 73.5791 61.7403 73.3891 61.3003C73.2091 60.8603 73.1191 60.3703 73.1191 59.8203V54.0903H74.7291V59.7703C74.7291 59.9903 74.7591 60.2203 74.8291 60.4703C74.8991 60.7103 75.0091 60.9403 75.1691 61.1403C75.3291 61.3403 75.5391 61.5103 75.7991 61.6403C76.0591 61.7703 76.3791 61.8403 76.7691 61.8403C77.1491 61.8403 77.4791 61.7703 77.7391 61.6403C77.9991 61.5103 78.2091 61.3403 78.3691 61.1403C78.5291 60.9403 78.6391 60.7103 78.7091 60.4703C78.7791 60.2303 78.8091 59.9903 78.8091 59.7703V54.0903H80.4191V59.8203H80.3991Z" fill="white"/>
<path d="M84.9397 54.0903H88.5097C89.1097 54.0903 89.6797 54.1803 90.2397 54.3703C90.7897 54.5503 91.2797 54.8303 91.7097 55.2103C92.1397 55.5903 92.4797 56.0603 92.7297 56.6203C92.9897 57.1903 93.1097 57.8503 93.1097 58.6203C93.1097 59.4003 92.9597 60.0703 92.6697 60.6303C92.3797 61.2003 91.9997 61.6703 91.5297 62.0403C91.0697 62.4103 90.5497 62.6903 89.9797 62.8703C89.4097 63.0503 88.8597 63.1403 88.3097 63.1403H84.9297V54.0903H84.9397ZM87.7497 61.6903C88.2497 61.6903 88.7297 61.6303 89.1797 61.5203C89.6297 61.4003 90.0197 61.2303 90.3497 60.9803C90.6797 60.7403 90.9397 60.4203 91.1397 60.0303C91.3297 59.6403 91.4297 59.1703 91.4297 58.6203C91.4297 58.0703 91.3397 57.6103 91.1697 57.2103C90.9997 56.8203 90.7597 56.5003 90.4597 56.2603C90.1597 56.0203 89.7997 55.8403 89.3897 55.7203C88.9797 55.6003 88.5197 55.5503 88.0297 55.5503H86.5597V61.6903H87.7497Z" fill="white"/>
<path d="M100.129 54.0903H101.519L105.419 63.1403H103.579L102.739 61.0703H98.8192L97.9992 63.1403H96.1992L100.129 54.0903ZM102.169 59.6903L100.779 56.0103L99.3592 59.6903H102.169Z" fill="white"/>
<path d="M108.989 54.0903H112.559C113.159 54.0903 113.729 54.1803 114.289 54.3703C114.839 54.5503 115.329 54.8303 115.759 55.2103C116.189 55.5903 116.529 56.0603 116.779 56.6203C117.039 57.1903 117.159 57.8503 117.159 58.6203C117.159 59.4003 117.009 60.0703 116.719 60.6303C116.429 61.2003 116.049 61.6703 115.579 62.0403C115.119 62.4103 114.599 62.6903 114.029 62.8703C113.459 63.0503 112.909 63.1403 112.359 63.1403H108.979V54.0903H108.989ZM111.799 61.6903C112.299 61.6903 112.779 61.6303 113.229 61.5203C113.679 61.4003 114.069 61.2303 114.399 60.9803C114.729 60.7403 114.989 60.4203 115.189 60.0303C115.379 59.6403 115.479 59.1703 115.479 58.6203C115.479 58.0703 115.389 57.6103 115.219 57.2103C115.049 56.8203 114.809 56.5003 114.509 56.2603C114.209 56.0203 113.849 55.8403 113.439 55.7203C113.029 55.6003 112.569 55.5503 112.079 55.5503H110.609V61.6903H111.799Z" fill="white"/>
<path d="M126.539 54.0903H128.389L130.859 60.9303L133.399 54.0903H135.139L131.479 63.1403H130.089L126.539 54.0903Z" fill="white"/>
<path d="M138.64 54.0903H140.25V63.1403H138.64V54.0903Z" fill="white"/>
<path d="M143.739 54.0903H145.589L148.059 60.9303L150.599 54.0903H152.339L148.679 63.1403H147.289L143.739 54.0903Z" fill="white"/>
<path d="M158.089 54.0903H159.479L163.379 63.1403H161.539L160.699 61.0703H156.779L155.959 63.1403H154.159L158.089 54.0903ZM160.139 59.6903L158.749 56.0103L157.329 59.6903H160.139Z" fill="white"/>
<path d="M77.0692 37.9404L75.1792 38.3104V44.4904L75.2892 45.6404L75.3292 46.5304C74.8592 46.4304 74.6092 46.3804 74.5892 46.3804C74.3692 46.3804 74.1792 46.3804 74.0392 46.3804C73.6192 46.3804 72.5392 46.6904 70.7992 47.3204C69.0592 47.9504 67.3792 48.2604 65.7492 48.2604C62.1992 48.2604 59.2692 46.8704 56.9492 44.0904C54.7792 41.4804 53.6992 38.4004 53.6992 34.8304C53.6992 31.0204 54.7592 27.6504 56.8792 24.7204C59.0992 21.6704 61.7692 20.1504 64.8992 20.1504C65.6592 20.1504 66.4892 20.2304 67.3792 20.4004C68.2692 20.5604 69.1992 20.7404 70.1892 20.9304C70.8992 20.9304 71.5192 20.8604 72.0392 20.7104C72.5092 20.5104 72.8692 20.3804 73.1092 20.3004L75.0292 28.2504L73.6192 28.5804L73.0992 27.7004C71.9692 25.7404 70.9092 24.3004 69.9192 23.4004C68.5892 22.2004 67.0692 21.6004 65.3692 21.6004C63.1792 21.6004 61.4492 22.7204 60.1892 24.9604C59.0992 26.9004 58.5592 29.2204 58.5592 31.9304C58.5592 35.5704 59.3592 38.7804 60.9592 41.5504C62.7592 44.6704 65.0992 46.2304 67.9892 46.2304C68.8992 46.2304 69.4692 46.1804 69.6892 46.0804C69.9092 45.9804 70.0992 45.8804 70.2392 45.7904V38.2404L68.0592 38.0604V36.7704H76.9692L77.0692 37.9404Z" fill="#EE4A7B"/>
<path d="M91.8589 30.8804C91.8589 31.6204 91.5889 32.2204 91.0489 32.6904C90.5089 33.1604 89.8289 33.3904 89.0189 33.3904C88.6289 33.3904 88.1289 33.2804 87.5389 33.0704C87.4389 33.0404 87.3089 32.9804 87.1289 32.8704C86.9589 33.1704 86.8189 33.4004 86.7189 33.5704C86.4189 34.1404 86.2089 34.6304 86.0689 35.0504C85.9289 35.4704 85.8189 35.8604 85.7189 36.2304C85.4489 37.3104 85.3089 38.4204 85.3089 39.5504V46.1204L87.4489 46.4504V47.6704H79.0989V46.4104L81.0989 46.1104V36.8804C81.0989 36.0404 80.9889 35.1504 80.7889 34.2004C80.5789 33.2504 80.3489 32.6104 80.1089 32.2604C79.9589 32.0404 79.6889 31.8804 79.2989 31.8004C78.9089 31.7104 78.6789 31.6704 78.6289 31.6704V30.5304L83.0689 28.6504C83.4589 29.4404 83.6689 29.8704 83.6989 29.9204C83.8689 30.2904 84.0189 30.7404 84.1389 31.2704C84.2589 31.8004 84.3889 32.3404 84.5289 32.9004C84.6689 33.4504 84.7289 34.0004 84.7289 34.5504L85.1389 33.5104C85.6589 32.2004 86.2489 31.1604 86.9189 30.3704C87.7589 29.4104 88.6489 28.9304 89.5789 28.9304C90.4889 28.9304 91.1189 29.1304 91.4689 29.5204C91.7289 29.8004 91.8589 30.2604 91.8589 30.8804Z" fill="#EE4A7B"/>
<path d="M110.459 46.0802C110.109 46.6002 109.809 46.9802 109.539 47.2302C108.729 47.9902 107.789 48.3802 106.729 48.3802C105.989 48.3802 105.359 48.1702 104.839 47.7502C104.319 47.3302 103.929 46.7402 103.659 45.9702L102.769 46.6702C102.049 47.2602 101.379 47.6902 100.739 47.9602C100.099 48.2302 99.3594 48.3702 98.5194 48.3702C97.2394 48.3702 96.1394 47.9102 95.2294 47.0002C94.3194 46.0902 93.8594 44.9702 93.8594 43.6602C93.8594 41.9302 94.7294 40.3502 96.4894 38.9202C98.0194 37.6602 99.9494 36.7002 102.299 36.0302L103.299 35.7302V34.1002C103.299 33.1402 102.979 32.3002 102.339 31.5802C102.039 31.2302 101.549 30.9402 100.859 30.6902C100.639 30.6202 100.329 30.5302 99.9394 30.4302C99.9894 30.9202 99.7694 31.4802 99.2694 32.0902C98.6794 32.8302 97.9494 33.2002 97.0894 33.2002C96.4694 33.2002 95.9494 33.0202 95.5194 32.6602C95.0894 32.3002 94.8694 31.8202 94.8694 31.2002C94.8694 30.4602 95.1794 29.9102 95.8094 29.5402C96.4394 29.1702 97.2494 28.9902 98.2294 28.9902C100.789 28.9902 102.909 29.5402 104.589 30.6502C106.409 31.8602 107.329 33.5202 107.329 35.6402V44.2902C107.329 44.7302 107.439 45.1202 107.659 45.4402C107.879 45.7602 108.189 45.9202 108.579 45.9202C108.849 45.9202 109.169 45.7602 109.539 45.4402C109.589 45.3902 109.679 45.3002 109.799 45.1802L110.459 46.0802ZM103.439 44.3702V37.1602L102.699 37.3102C101.319 37.6602 100.169 38.3402 99.2394 39.3502C98.3194 40.3702 97.8494 41.4502 97.8494 42.6202C97.8494 43.4602 98.1294 44.1902 98.6994 44.8102C99.2694 45.4302 99.9594 45.7402 100.769 45.7402C101.289 45.7402 101.799 45.5902 102.299 45.2902C102.809 45.0002 103.189 44.6902 103.439 44.3702Z" fill="#EE4A7B"/>
<path d="M129.8 47.6701H122.18V46.3801L124.03 46.1201V35.3201C124.03 34.3801 123.8 33.5401 123.33 32.7901C122.86 32.0401 122.21 31.6601 121.37 31.6601C120.83 31.6601 120.32 31.7501 119.85 31.9201C119.38 32.0901 118.94 32.3901 118.52 32.8001L117.74 33.6501V46.0801L119.63 46.3401V47.6701H111.64V46.3401L113.64 46.0801V33.9401C113.64 33.4001 113.61 33.0101 113.55 32.7601C113.49 32.5101 113.3 32.2601 112.98 31.9901C112.86 31.8701 112.67 31.7801 112.43 31.7301C112.18 31.6801 111.95 31.6601 111.73 31.6601C111.41 31.6601 111.22 31.6601 111.18 31.6601V30.5201L115.95 28.3901C116.42 28.8601 116.79 29.4101 117.06 30.0301C117.23 30.4501 117.35 30.7901 117.41 31.0701C117.47 31.3401 117.5 31.6601 117.5 32.0301C117.72 31.5401 118.3 30.9301 119.24 30.2201C120.5 29.2601 121.7 28.7801 122.86 28.7801C124.36 28.7801 125.61 29.3601 126.61 30.5201C127.61 31.6801 128.11 33.0501 128.11 34.6201V46.1201L129.81 46.3801V47.6701H129.8Z" fill="#EE4A7B"/>
<path d="M161.569 40.2002L161.199 41.2002C160.439 43.3702 159.179 45.0602 157.449 46.2802C155.709 47.5002 153.729 48.1102 151.509 48.1102C148.079 48.1102 145.329 46.7702 143.259 44.0802C141.359 41.6202 140.409 38.5602 140.409 34.9102C140.409 30.9902 141.399 27.6202 143.369 24.8102C145.509 21.7502 148.279 20.2202 151.649 20.2202C152.289 20.2202 153.539 20.3902 155.379 20.7402C156.139 20.9102 156.649 20.9702 156.899 20.9202C157.739 20.8002 158.249 20.7102 158.429 20.6602C158.609 20.6102 158.999 20.4602 159.589 20.2202L161.439 28.3502L160.109 28.6502L159.629 27.8002C158.469 25.7402 157.419 24.2702 156.489 23.3802C155.179 22.1302 153.689 21.5002 152.019 21.5002C149.799 21.5002 148.059 22.6302 146.809 24.9002C145.719 26.8702 145.179 29.2202 145.179 31.9502C145.179 35.3202 145.859 38.2302 147.209 40.6602C148.789 43.4902 150.919 44.9102 153.609 44.9102C155.019 44.9102 156.269 44.5302 157.359 43.7602C158.459 43.0002 159.329 41.9402 159.969 40.5802L160.379 39.6902L161.569 40.2002Z" fill="#EE4A7B"/>
<path d="M180.359 46.0802C180.009 46.6002 179.709 46.9802 179.439 47.2302C178.629 47.9902 177.689 48.3802 176.629 48.3802C175.889 48.3802 175.259 48.1702 174.739 47.7502C174.219 47.3302 173.829 46.7402 173.559 45.9702L172.669 46.6702C171.949 47.2602 171.279 47.6902 170.639 47.9602C169.999 48.2302 169.259 48.3702 168.419 48.3702C167.139 48.3702 166.039 47.9102 165.129 47.0002C164.219 46.0902 163.759 44.9702 163.759 43.6602C163.759 41.9302 164.629 40.3502 166.389 38.9202C167.919 37.6602 169.849 36.7002 172.199 36.0302L173.199 35.7302V34.1002C173.199 33.1402 172.879 32.3002 172.239 31.5802C171.939 31.2302 171.449 30.9402 170.759 30.6902C170.539 30.6202 170.229 30.5302 169.839 30.4302C169.889 30.9202 169.669 31.4802 169.169 32.0902C168.579 32.8302 167.849 33.2002 166.989 33.2002C166.369 33.2002 165.849 33.0202 165.419 32.6602C164.989 32.3002 164.769 31.8202 164.769 31.2002C164.769 30.4602 165.079 29.9102 165.709 29.5402C166.339 29.1702 167.149 28.9902 168.129 28.9902C170.689 28.9902 172.809 29.5402 174.489 30.6502C176.309 31.8602 177.229 33.5202 177.229 35.6402V44.2902C177.229 44.7302 177.339 45.1202 177.559 45.4402C177.779 45.7602 178.089 45.9202 178.479 45.9202C178.749 45.9202 179.069 45.7602 179.439 45.4402C179.489 45.3902 179.579 45.3002 179.699 45.1802L180.359 46.0802ZM173.329 44.3702V37.1602L172.589 37.3102C171.209 37.6602 170.059 38.3402 169.129 39.3502C168.209 40.3702 167.739 41.4502 167.739 42.6202C167.739 43.4602 168.019 44.1902 168.589 44.8102C169.159 45.4302 169.849 45.7402 170.659 45.7402C171.179 45.7402 171.689 45.5902 172.189 45.2902C172.709 45.0002 173.079 44.6902 173.329 44.3702Z" fill="#EE4A7B"/>
<path d="M190.339 47.6702H181.869V46.3802L183.939 46.1202V24.2902C183.939 24.0202 183.939 23.8202 183.939 23.7002C183.939 23.5002 183.939 23.3102 183.939 23.1102C183.889 22.7702 183.739 22.4902 183.479 22.2802C183.219 22.0702 182.839 21.9702 182.349 21.9702C181.879 21.9702 181.599 21.9902 181.499 22.0402V20.7402L188.119 18.2202V46.1102L190.339 46.3702V47.6702Z" fill="#EE4A7B"/>
<path d="M207.57 41.1203L205.72 48.0404L204.76 47.8204C204.49 47.7504 204.3 47.7104 204.21 47.7104C204.06 47.6904 203.86 47.6703 203.62 47.6703H192.6V46.4504L202.73 30.9504H200.92C200.13 30.9504 199.46 31.0704 198.9 31.3204C198.35 31.5704 197.75 31.9704 197.11 32.5404C196.57 33.0304 195.99 33.7703 195.37 34.7603C195.17 35.0803 194.91 35.5503 194.59 36.1703L193.37 35.7603L194.96 29.3604L195.81 29.6604H196.62H207.46V30.8804L197.33 46.3703H199.07C199.98 46.3703 200.75 46.2404 201.38 45.9704C202.01 45.7004 202.73 45.2404 203.54 44.5704C204.16 44.0804 204.82 43.3103 205.54 42.2603C205.76 41.9203 206.06 41.4304 206.43 40.7904L207.57 41.1203Z" fill="#EE4A7B"/>
<path d="M226.399 46.0802C226.049 46.6002 225.749 46.9802 225.479 47.2302C224.669 47.9902 223.729 48.3802 222.669 48.3802C221.929 48.3802 221.299 48.1702 220.779 47.7502C220.259 47.3302 219.869 46.7402 219.599 45.9702L218.709 46.6702C217.989 47.2602 217.319 47.6902 216.679 47.9602C216.039 48.2302 215.299 48.3702 214.459 48.3702C213.179 48.3702 212.079 47.9102 211.169 47.0002C210.259 46.0902 209.799 44.9702 209.799 43.6602C209.799 41.9302 210.669 40.3502 212.429 38.9202C213.959 37.6602 215.889 36.7002 218.239 36.0302L219.239 35.7302V34.1002C219.239 33.1402 218.919 32.3002 218.279 31.5802C217.979 31.2302 217.489 30.9402 216.799 30.6902C216.579 30.6202 216.269 30.5302 215.879 30.4302C215.929 30.9202 215.709 31.4802 215.209 32.0902C214.619 32.8302 213.889 33.2002 213.029 33.2002C212.409 33.2002 211.889 33.0202 211.459 32.6602C211.029 32.3002 210.809 31.8202 210.809 31.2002C210.809 30.4602 211.119 29.9102 211.749 29.5402C212.379 29.1702 213.189 28.9902 214.169 28.9902C216.729 28.9902 218.849 29.5402 220.529 30.6502C222.349 31.8602 223.269 33.5202 223.269 35.6402V44.2902C223.269 44.7302 223.379 45.1202 223.599 45.4402C223.819 45.7602 224.129 45.9202 224.519 45.9202C224.789 45.9202 225.109 45.7602 225.479 45.4402C225.529 45.3902 225.619 45.3002 225.739 45.1802L226.399 46.0802ZM219.369 44.3702V37.1602L218.629 37.3102C217.249 37.6602 216.099 38.3402 215.169 39.3502C214.249 40.3702 213.779 41.4502 213.779 42.6202C213.779 43.4602 214.059 44.1902 214.629 44.8102C215.199 45.4302 215.889 45.7402 216.699 45.7402C217.219 45.7402 217.729 45.5902 218.229 45.2902C218.749 45.0002 219.119 44.6902 219.369 44.3702Z" fill="#EE4A7B"/>
<path d="M245.7 46.7402L241.08 48.3702C240.93 48.1502 240.77 47.8602 240.6 47.5202C240.43 47.1802 240.33 46.9802 240.3 46.9302C240.2 46.7102 240.11 46.4602 240.02 46.1902C239.93 45.9202 239.85 45.5702 239.78 45.1502L239.04 46.0502C237.91 47.5202 236.43 48.2602 234.6 48.2602C232.55 48.2602 230.91 47.3102 229.68 45.4102C228.57 43.7102 228.02 41.6602 228.02 39.2602C228.02 36.5902 228.66 34.2702 229.95 32.2902C231.38 30.0702 233.28 28.9602 235.63 28.9602C236.4 28.9602 237.05 29.0302 237.58 29.1702C238.11 29.3102 238.74 29.5602 239.45 29.9202V23.7202C239.45 23.0402 239.17 22.5402 238.62 22.2202C238.42 22.1002 238.13 22.0402 237.76 22.0402C237.58 22.0402 237.41 22.0402 237.23 22.0402C237.18 22.0402 237.1 22.0402 237 22.0402V20.7402L243.55 18.7002V42.7102C243.55 43.3502 243.61 43.8802 243.73 44.3002C243.85 44.7202 244.12 45.0502 244.53 45.2802C244.94 45.5102 245.33 45.6302 245.7 45.6302V46.7402ZM239.45 43.4402V32.4802C239.15 32.0802 238.87 31.6902 238.6 31.2902C237.88 30.6002 237 30.2502 235.94 30.2502C234.53 30.2502 233.5 31.0402 232.83 32.6302C232.31 33.8702 232.05 35.4702 232.05 37.4202C232.05 39.4502 232.41 41.2002 233.12 42.6602C233.98 44.4202 235.24 45.3002 236.89 45.3002C237.63 45.3002 238.26 45.0202 238.78 44.4502C239.2 43.8302 239.42 43.4902 239.45 43.4402Z" fill="#EE4A7B"/>
<path d="M264.039 46.0802C263.689 46.6002 263.389 46.9802 263.119 47.2302C262.309 47.9902 261.369 48.3802 260.309 48.3802C259.569 48.3802 258.939 48.1702 258.419 47.7502C257.899 47.3302 257.509 46.7402 257.239 45.9702L256.349 46.6702C255.629 47.2602 254.959 47.6902 254.319 47.9602C253.679 48.2302 252.939 48.3702 252.099 48.3702C250.819 48.3702 249.719 47.9102 248.809 47.0002C247.899 46.0902 247.439 44.9702 247.439 43.6602C247.439 41.9302 248.309 40.3502 250.069 38.9202C251.599 37.6602 253.529 36.7002 255.879 36.0302L256.879 35.7302V34.1002C256.879 33.1402 256.559 32.3002 255.919 31.5802C255.619 31.2302 255.129 30.9402 254.439 30.6902C254.219 30.6202 253.909 30.5302 253.519 30.4302C253.569 30.9202 253.349 31.4802 252.849 32.0902C252.259 32.8302 251.529 33.2002 250.669 33.2002C250.049 33.2002 249.529 33.0202 249.099 32.6602C248.669 32.3002 248.449 31.8202 248.449 31.2002C248.449 30.4602 248.759 29.9102 249.389 29.5402C250.019 29.1702 250.829 28.9902 251.809 28.9902C254.369 28.9902 256.489 29.5402 258.169 30.6502C259.989 31.8602 260.909 33.5202 260.909 35.6402V44.2902C260.909 44.7302 261.019 45.1202 261.239 45.4402C261.459 45.7602 261.769 45.9202 262.159 45.9202C262.429 45.9202 262.749 45.7602 263.119 45.4402C263.169 45.3902 263.259 45.3002 263.379 45.1802L264.039 46.0802ZM257.019 44.3702V37.1602L256.279 37.3102C254.899 37.6602 253.749 38.3402 252.819 39.3502C251.899 40.3702 251.429 41.4502 251.429 42.6202C251.429 43.4602 251.709 44.1902 252.279 44.8102C252.849 45.4302 253.539 45.7402 254.349 45.7402C254.869 45.7402 255.379 45.5902 255.879 45.2902C256.389 45.0002 256.769 44.6902 257.019 44.3702Z" fill="#EE4A7B"/>
</svg>
