<?xml version="1.0" encoding="utf-8"?>
<!-- Generator: Adobe Illustrator 24.0.2, SVG Export Plug-In . SVG Version: 6.00 Build 0)  -->
<svg version="1.1" id="Capa_1" xmlns="http://www.w3.org/2000/svg" xmlns:xlink="http://www.w3.org/1999/xlink" x="0px" y="0px"
	 viewBox="0 0 1176.1 393.5" style="enable-background:new 0 0 1176.1 393.5;" xml:space="preserve">
<style type="text/css">
	.st0{clip-path:url(#SVGID_2_);}
	.st1{fill:#FFFFFF;}
	.st2{fill:#1A2C4C;}
</style>
<g>
	<defs>
		<rect id="SVGID_1_" x="361.2" y="20.1" width="453.6" height="353.2"/>
	</defs>
	<clipPath id="SVGID_2_">
		<use xlink:href="#SVGID_1_"  style="overflow:visible;"/>
	</clipPath>
	<g class="st0">
		<path class="st1" d="M779.5,191.5c-0.1-0.3-0.1-0.5-0.2-0.8c-0.1-0.5-0.2-1.1-0.4-1.6c-0.1-0.3-0.2-0.6-0.3-0.8
			c-0.2-0.4-0.3-0.9-0.6-1.3c-0.2-0.3-0.2-0.6-0.4-0.8c-0.3-0.4-0.5-0.8-0.8-1.3c-0.2-0.3-0.3-0.5-0.5-0.7c-0.3-0.4-0.8-0.8-1.1-1.3
			c-0.2-0.2-0.2-0.3-0.4-0.5c-0.6-0.5-1.2-1-1.8-1.4c-0.2-0.1-0.3-0.2-0.5-0.3c-0.4-0.3-0.8-0.5-1.3-0.8l-0.2-0.1
			c-0.8-0.4-1.8-0.8-2.7-1.1h-0.1l-185.7-72.7c-0.8-0.4-1.6-0.8-2.4-1c-2.6-0.9-5.4-1.5-8.4-1.5c-0.4,0-0.8,0.1-1.2,0.1
			s-0.8-0.1-1.2-0.1c-2.9,0-5.8,0.5-8.4,1.5c-0.8,0.3-1.6,0.7-2.4,1l-96.7,38v-27.8c0-6.9-5.7-12.5-12.8-12.5h-36.6
			c-7,0-12.8,5.6-12.8,12.5v52.1l-26.9,10.6h-0.1c-0.9,0.3-1.8,0.7-2.7,1.1l-0.2,0.1c-0.4,0.3-0.8,0.5-1.3,0.8
			c-0.2,0.1-0.3,0.2-0.5,0.3c-0.7,0.4-1.3,0.9-1.8,1.4c-0.2,0.2-0.3,0.3-0.4,0.5c-0.4,0.4-0.8,0.8-1.1,1.3c-0.2,0.3-0.3,0.5-0.5,0.7
			c-0.3,0.4-0.6,0.8-0.8,1.3c-0.2,0.3-0.3,0.5-0.4,0.8c-0.3,0.4-0.4,0.8-0.6,1.3c-0.1,0.3-0.3,0.5-0.3,0.8c-0.2,0.5-0.3,1-0.4,1.6
			c-0.1,0.3-0.1,0.5-0.2,0.8c-0.2,0.7-0.3,1.4-0.3,2.3v160.9c0,8.6,7.2,15.7,16,15.7h386.5c8.9,0,16-7,16-15.7V193.9
			C779.7,193.1,779.6,192.4,779.5,191.5z"/>
		<path class="st1" d="M801.8,347.2c2.1,0,4.3,0.6,6.4,1.7c2.2,1.2,3.7,2.7,4.8,4.8c1.3,2.1,1.8,4.3,1.8,6.5c0,2.3-0.6,4.5-1.7,6.5
			c-1.3,2.1-2.8,3.7-4.9,4.9c-2,1.1-4.1,1.7-6.4,1.7c-2.3,0-4.5-0.6-6.5-1.7c-2.2-1.3-3.7-2.8-4.9-4.9c-1.2-1.9-1.8-4.3-1.8-6.5
			c0-2.3,0.6-4.4,1.8-6.5c1.2-2.1,2.7-3.7,4.8-4.8C797.4,347.7,799.6,347.2,801.8,347.2z M801.8,349.3c-1.8,0-3.7,0.6-5.4,1.4
			c-1.8,1-3.1,2.4-4.1,4.1c-1,1.7-1.6,3.5-1.6,5.4c0,2,0.6,3.7,1.6,5.5c0.8,1.7,2.3,2.9,4,3.9c1.7,1,3.5,1.4,5.5,1.4
			c1.8,0,3.7-0.4,5.4-1.4c1.7-1,3.2-2.3,3.9-3.9c1-1.8,1.4-3.5,1.4-5.5c0-1.8-0.4-3.7-1.4-5.4c-1-1.7-2.3-3.1-4.1-4.1
			C805.4,349.8,803.5,349.3,801.8,349.3z M796,367.4v-14h4.8c1.7,0,2.8,0.2,3.5,0.4c0.8,0.3,1.4,0.7,1.8,1.3
			c0.4,0.7,0.8,1.4,0.8,2.1c0,1-0.4,2-1.2,2.7c-0.7,0.7-1.7,1.1-3,1.3c0.6,0.3,1,0.4,1.3,0.7c0.6,0.6,1.3,1.6,2,2.8l1.8,2.7h-2.7
			l-1.3-2.1c-1-1.7-1.8-2.8-2.4-3.3c-0.4-0.4-1-0.6-1.8-0.6h-1.3v5.9L796,367.4L796,367.4z M798.2,359.6h2.8c1.3,0,2.2-0.3,2.7-0.7
			c0.4-0.3,0.7-0.8,0.7-1.6c0-0.4-0.2-0.7-0.4-1.2c-0.2-0.3-0.6-0.6-1-0.7c-0.4-0.2-1.2-0.2-2.3-0.2h-2.6L798.2,359.6L798.2,359.6z"
			/>
		<path class="st2" d="M462.6,270c-2.4,2.7-7.5,6.7-16.4,6.7c-5.1,0-9.6-1.3-13.5-4.5c-6.7-5.5-7.2-13.3-7.2-16.1
			c0-2.4,0.3-7.8,4.1-13.1c5.5-7.6,13.1-8.1,16.6-8.1c9.1,0,14.5,4.7,16.8,7.1c1.2,1.3,1.8,2.3,2.6,3.8l-10.6,5.1
			c-0.2-0.4-0.4-0.8-0.6-1.2c-0.7-1.3-2.7-5.4-7.8-5.4c-2.3,0-3.8,0.8-4.6,1.4c-4,2.8-3.8,8.5-3.8,9.5c0,5.4,1.8,8.3,3.7,9.8
			c2,1.5,3.8,1.5,4.8,1.5c4.3,0,6.4-2.8,7.2-4.2c0.3-0.6,0.5-1.1,0.9-2.2l10.9,5.1C464.3,267.9,463.5,268.9,462.6,270z"/>
		<path class="st2" d="M493.4,247.4l-4.3,13.8h8.6L493.4,247.4z M502,275.4l-1.8-5.4h-13.9l-1.8,5.4h-13.6l15.3-39.2h14.4l15,39.2
			H502z"/>
		<path class="st2" d="M553.7,273c-5.2,3.7-11.9,3.6-13.6,3.6c-5.8,0-11.4-0.9-16.1-4.4c-1.8-1.3-2.9-2.5-4.3-4.2l9.7-6
			c0.8,1.3,1.3,1.9,1.9,2.4c2.3,1.9,6.4,2.8,9.3,2.8c3.6,0,6.1-1.1,6.1-3c0-0.4-0.3-0.8-0.3-0.9c-0.3-0.6-0.8-1.1-1.9-1.4
			c-1.4-0.5-4-0.8-7.5-1.5c-5.5-1.1-8.4-2.3-10.4-4c-1.3-1.1-3.5-3.7-3.4-8c0-1.1,0.1-3.4,1.5-5.9c4.1-7.4,14.7-7.2,16.2-7.2
			c2,0,9.3,0.1,15,4.2c1.3,0.9,2,1.7,3.1,2.7l-8,6.5c-0.5-0.7-0.8-1-1.2-1.3c-2.3-2.1-6.3-2.7-9.4-2.7c-0.3,0-1.8,0-3,0.5
			c-0.3,0.1-1.6,0.8-1.6,2.1c0,0.8,0.4,1.4,1,1.8c1,0.6,3.4,1.1,4.5,1.3c1.4,0.3,5.2,0.8,9.1,2c2.5,0.8,8.7,2.9,8.7,10.7
			C558.9,268.6,555.4,271.8,553.7,273z"/>
		<path class="st2" d="M580.3,236.2h-12.7v39.2h12.7V236.2z"/>
		<path class="st2" d="M610.2,246v29.5h-12.7V246h-10.2v-9.7h33v9.7H610.2z"/>
		<path class="st2" d="M644.1,247.4l-4.3,13.8h8.6L644.1,247.4z M652.7,275.4l-1.8-5.4H637l-1.8,5.4h-13.6l15.3-39.2h14.4l15,39.2
			H652.7z"/>
		<path class="st2" d="M705.5,273c-5.2,3.7-11.9,3.6-13.6,3.6c-5.8,0-11.4-0.9-16.1-4.4c-1.8-1.3-2.9-2.5-4.3-4.2l9.7-6
			c0.8,1.3,1.3,1.9,1.9,2.4c2.3,1.9,6.4,2.8,9.3,2.8c3.6,0,6.1-1.1,6.1-3c0-0.4-0.3-0.8-0.3-0.9c-0.3-0.6-0.8-1.1-1.9-1.4
			c-1.4-0.5-3.9-0.8-7.5-1.5c-5.5-1.1-8.4-2.3-10.4-4c-1.3-1.1-3.5-3.7-3.4-8c0-1.1,0.1-3.4,1.5-5.9c4.1-7.4,14.7-7.2,16.2-7.2
			c2,0,9.3,0.1,15,4.2c1.3,0.9,2,1.7,3.1,2.7l-8,6.5c-0.5-0.7-0.8-1-1.2-1.3c-2.3-2.1-6.3-2.7-9.4-2.7c-0.3,0-1.8,0-3,0.5
			c-0.3,0.1-1.6,0.8-1.6,2.1c0,0.8,0.4,1.4,1,1.8c1,0.6,3.4,1.1,4.5,1.3c1.4,0.3,5.2,0.8,9.1,2c2.5,0.8,8.7,2.9,8.7,10.7
			C710.8,268.6,707.3,271.8,705.5,273z"/>
		<path class="st2" d="M536.8,201.2v8.3c-0.9,0.8-2.1,1.3-3.4,1.8c-1.4,0.5-2.9,0.8-4.5,0.8c-1.5,0-2.8-0.3-4-0.7
			c-1.2-0.5-2.1-1.1-2.8-1.9c-0.8-0.8-1.3-1.8-1.7-3c-0.4-1.2-0.6-2.4-0.6-3.9c0-1.5,0.2-2.8,0.6-4.1c0.4-1.2,1-2.2,1.8-3
			c0.8-0.8,1.7-1.4,2.8-1.9c1.1-0.4,2.4-0.7,3.8-0.7c1.3,0,2.3,0.2,3.3,0.5s1.7,0.8,2.3,1.3c0.7,0.5,1.2,1.2,1.5,1.8
			c0.3,0.8,0.6,1.5,0.8,2.3l-5,0.5c-0.2-0.8-0.5-1.3-1-1.7c-0.4-0.3-1.1-0.6-1.9-0.6c-1.3,0-2.3,0.4-2.8,1.3
			c-0.6,0.9-0.9,2.3-0.9,4.1c0,1.8,0.3,3.2,1,4.1c0.7,0.9,1.8,1.3,3.3,1.3c1.1,0,2.1-0.3,2.9-0.7v-2.1h-2.9v-3.9L536.8,201.2
			L536.8,201.2z"/>
		<path class="st2" d="M550.1,201.6c1,0,1.8-0.2,2.1-0.6c0.4-0.4,0.6-0.9,0.6-1.7c0-0.7-0.3-1.2-0.7-1.6c-0.4-0.4-1.2-0.6-2.3-0.6
			h-2.3v4.4L550.1,201.6L550.1,201.6z M557,202.2c-0.5,0.9-1.2,1.6-2.1,2.2l3.8,7.3h-5.3l-3.1-6.3h-2.7v6.3H543v-18.3h7.4
			c1.4,0,2.7,0.2,3.6,0.5c0.9,0.3,1.7,0.8,2.3,1.3c0.6,0.5,1,1.2,1.2,1.8c0.3,0.7,0.3,1.4,0.3,2.2
			C557.7,200.4,557.4,201.4,557,202.2z"/>
		<path class="st2" d="M567.8,211.6c-1-0.3-1.8-0.8-2.5-1.4c-0.7-0.7-1.2-1.5-1.5-2.5c-0.3-1-0.5-2.3-0.5-3.6v-10.6h5v10.9
			c0,1.3,0.2,2.1,0.7,2.8c0.4,0.6,1.2,0.9,2.3,0.9c1.1,0,1.8-0.3,2.2-0.9c0.4-0.6,0.7-1.5,0.7-2.8v-10.9h5v10.6
			c0,1.4-0.2,2.6-0.6,3.6c-0.4,1-0.9,1.8-1.6,2.5c-0.7,0.7-1.5,1.1-2.5,1.4c-1,0.3-2.1,0.5-3.3,0.5
			C569.9,212.1,568.8,212,567.8,211.6z"/>
		<path class="st2" d="M592.3,201.8c1.1,0,1.8-0.2,2.2-0.6c0.4-0.3,0.6-0.9,0.6-1.7c0-0.8-0.3-1.3-0.7-1.7c-0.4-0.3-1.2-0.6-2.2-0.6
			h-2.1v4.5H592.3z M592.3,193.4c1.4,0,2.7,0.2,3.6,0.5c1,0.3,1.8,0.8,2.3,1.3c0.5,0.6,1,1.2,1.2,1.9c0.2,0.8,0.3,1.5,0.3,2.3
			c0,0.8-0.1,1.7-0.3,2.4c-0.3,0.8-0.7,1.4-1.3,2c-0.6,0.6-1.3,1-2.3,1.3c-0.9,0.3-2.2,0.5-3.5,0.5h-2.2v5.9h-4.8v-18.3L592.3,193.4
			L592.3,193.4z"/>
		<path class="st2" d="M610.8,206.5c0.7,0.9,1.7,1.3,3,1.3c1.3,0,2.3-0.4,3-1.3c0.7-0.9,1-2.3,1-4s-0.3-3.1-1-4
			c-0.7-0.9-1.7-1.3-3-1.3c-1.3,0-2.3,0.4-3,1.3c-0.7,0.9-1,2.3-1,4C609.8,204.3,610.1,205.6,610.8,206.5z M617.7,193.6
			c1.1,0.4,2.1,1.1,2.8,1.9c0.8,0.8,1.3,1.8,1.8,3c0.4,1.2,0.6,2.5,0.6,3.9c0,1.5-0.2,2.8-0.6,4c-0.4,1.2-1,2.2-1.8,3
			c-0.8,0.8-1.8,1.5-2.9,1.9c-1.2,0.4-2.5,0.7-3.9,0.7s-2.8-0.3-3.9-0.7c-1.2-0.4-2.1-1.1-2.8-1.8c-0.8-0.8-1.3-1.8-1.8-3
			c-0.4-1.2-0.6-2.5-0.6-3.9c0-1.5,0.2-2.8,0.6-4c0.4-1.2,1-2.2,1.8-3c0.8-0.8,1.8-1.5,2.9-1.9c1.2-0.4,2.4-0.7,3.9-0.7
			C615.3,192.9,616.6,193.2,617.7,193.6z"/>
		<path class="st2" d="M469.9,314.5c1.5,0,2.7-0.4,3.3-1.3c0.8-0.8,1.1-2.1,1.1-3.7s-0.3-2.8-1-3.7c-0.7-0.8-1.8-1.3-3.2-1.3h-2.3
			v10H469.9z M462.7,300.3h7.4c3.1,0,5.4,0.8,7,2.3c1.6,1.5,2.3,3.7,2.3,6.6c0,3-0.8,5.3-2.5,6.9c-1.7,1.6-4.1,2.4-7.2,2.4h-7V300.3
			z"/>
		<path class="st2" d="M498.5,300.3v4h-8.4v2.9h7.9v4h-7.9v3.3h8.9l-0.4,4h-13.4v-18.3H498.5z"/>
		<path class="st2" d="M509.5,314.5c0.5,0.4,1.3,0.7,2.3,0.7c0.9,0,1.6-0.2,2-0.5c0.4-0.3,0.7-0.8,0.7-1.3c0-0.4-0.2-0.8-0.4-1.1
			c-0.3-0.3-0.8-0.5-1.6-0.7l-2.5-0.4c-2.1-0.4-3.6-1-4.6-1.9c-1-0.9-1.5-2.1-1.5-3.7c0-1.9,0.7-3.4,2-4.3c1.3-0.9,3.2-1.4,5.5-1.4
			c1.3,0,2.5,0.2,3.5,0.4c0.9,0.3,1.8,0.8,2.3,1.3c0.6,0.5,1.1,1.1,1.3,1.8c0.3,0.7,0.5,1.4,0.6,2.1l-4.8,0.5
			c-0.2-0.8-0.4-1.3-0.9-1.6c-0.4-0.3-1.2-0.6-2.1-0.6c-0.8,0-1.5,0.2-1.9,0.4c-0.4,0.3-0.6,0.7-0.6,1.2c0,0.4,0.2,0.8,0.5,1
			c0.3,0.3,0.8,0.4,1.6,0.6l2.5,0.5c2.2,0.4,3.8,1.1,4.7,2.1c0.9,0.9,1.4,2.2,1.4,3.6c0,0.9-0.2,1.7-0.5,2.4
			c-0.3,0.8-0.8,1.3-1.4,1.8c-0.7,0.5-1.4,0.9-2.4,1.2c-1,0.3-2.2,0.4-3.5,0.4c-5.2,0-7.9-2.2-8.1-6.5h5
			C508.7,313.4,509,314.1,509.5,314.5z"/>
		<path class="st2" d="M534.6,311.2l-1.9-6.3l-1.9,6.3H534.6z M542.1,318.6h-5.2l-1.1-3.5h-6.3l-1.1,3.5h-5l6.4-18.3h5.7
			L542.1,318.6z"/>
		<path class="st2" d="M554.3,308.5c1,0,1.8-0.2,2.1-0.6c0.4-0.4,0.6-0.9,0.6-1.7c0-0.7-0.3-1.2-0.7-1.6c-0.4-0.4-1.2-0.6-2.3-0.6
			h-2.3v4.4L554.3,308.5L554.3,308.5z M561.1,309.2c-0.5,0.8-1.2,1.6-2.1,2.2l3.8,7.3h-5.3l-3-6.3h-2.7v6.3h-4.8v-18.3h7.4
			c1.4,0,2.7,0.2,3.6,0.5c0.9,0.3,1.7,0.8,2.3,1.3c0.6,0.5,1,1.2,1.2,1.8c0.3,0.7,0.3,1.4,0.3,2.2
			C561.8,307.3,561.6,308.3,561.1,309.2z"/>
		<path class="st2" d="M575,308.5c1,0,1.8-0.2,2.1-0.6c0.4-0.4,0.6-0.9,0.6-1.7c0-0.7-0.3-1.2-0.7-1.6s-1.2-0.6-2.3-0.6h-2.3v4.4
			L575,308.5L575,308.5z M581.8,309.2c-0.5,0.8-1.2,1.6-2.1,2.2l3.8,7.3h-5.3l-3.1-6.3h-2.8v6.3h-4.8v-18.3h7.4
			c1.4,0,2.7,0.2,3.6,0.5c0.9,0.3,1.8,0.8,2.3,1.3c0.6,0.5,0.9,1.2,1.2,1.8s0.3,1.4,0.3,2.2C582.5,307.3,582.3,308.3,581.8,309.2z"
			/>
		<path class="st2" d="M593.8,313.5c0.7,0.9,1.7,1.3,3,1.3s2.3-0.4,3-1.3c0.7-0.9,1-2.3,1-4s-0.3-3.1-1-4s-1.7-1.3-3-1.3
			s-2.3,0.4-3,1.3s-1,2.3-1,4S593.1,312.6,593.8,313.5z M600.7,300.6c1.1,0.4,2.1,1.1,2.8,1.9c0.8,0.8,1.3,1.8,1.8,3
			c0.4,1.2,0.6,2.5,0.6,3.9c0,1.5-0.2,2.8-0.6,4c-0.4,1.2-1,2.2-1.8,3c-0.8,0.8-1.8,1.5-2.9,1.9c-1.2,0.4-2.5,0.7-3.9,0.7
			c-1.4,0-2.8-0.3-3.9-0.7c-1.2-0.4-2.1-1.1-2.8-1.9c-0.8-0.8-1.3-1.8-1.8-3c-0.4-1.2-0.6-2.5-0.6-3.9c0-1.5,0.3-2.8,0.6-4
			c0.4-1.2,1-2.2,1.8-3c0.8-0.8,1.8-1.5,2.8-1.9c1.2-0.4,2.5-0.7,3.9-0.7C598.3,299.9,599.6,300.1,600.7,300.6z"/>
		<path class="st2" d="M616.7,300.3v14.1h8.2l-0.4,4.2h-12.8v-18.3H616.7z"/>
		<path class="st2" d="M635,300.3v14.1h8.3l-0.5,4.2H630v-18.3H635z"/>
		<path class="st2" d="M653.9,313.5c0.7,0.9,1.7,1.3,3,1.3c1.3,0,2.3-0.4,3-1.3c0.7-0.9,1-2.3,1-4s-0.3-3.1-1-4
			c-0.7-0.9-1.7-1.3-3-1.3c-1.3,0-2.3,0.4-3,1.3s-1,2.3-1,4S653.2,312.6,653.9,313.5z M660.8,300.6c1.1,0.4,2.1,1.1,2.8,1.9
			c0.8,0.8,1.3,1.8,1.8,3c0.4,1.2,0.6,2.5,0.6,3.9c0,1.5-0.2,2.8-0.6,4c-0.4,1.2-1,2.2-1.8,3c-0.8,0.8-1.8,1.5-2.9,1.9
			c-1.2,0.4-2.4,0.7-3.9,0.7c-1.4,0-2.8-0.3-3.9-0.7c-1.1-0.4-2.1-1.1-2.8-1.9c-0.8-0.8-1.3-1.8-1.8-3c-0.4-1.2-0.6-2.5-0.6-3.9
			c0-1.5,0.2-2.8,0.6-4c0.4-1.2,1-2.2,1.8-3c0.8-0.8,1.8-1.5,2.9-1.9c1.2-0.4,2.4-0.7,3.9-0.7C658.4,299.9,659.7,300.1,660.8,300.6z
			"/>
		<path class="st2" d="M676.7,314.5c0.5,0.4,1.3,0.7,2.3,0.7c0.9,0,1.6-0.2,2-0.5c0.4-0.3,0.7-0.8,0.7-1.3c0-0.4-0.2-0.8-0.4-1.1
			c-0.3-0.3-0.8-0.5-1.6-0.7l-2.5-0.4c-2.1-0.4-3.6-1-4.6-1.9c-1-0.9-1.5-2.1-1.5-3.7c0-1.9,0.7-3.4,2-4.3c1.3-0.9,3.2-1.4,5.5-1.4
			c1.3,0,2.5,0.2,3.4,0.4c1,0.3,1.8,0.8,2.3,1.3c0.6,0.5,1.1,1.1,1.3,1.8c0.3,0.7,0.5,1.4,0.6,2.1l-4.8,0.5
			c-0.2-0.8-0.4-1.3-0.9-1.6c-0.4-0.3-1.2-0.6-2.1-0.6c-0.8,0-1.5,0.2-1.9,0.4c-0.4,0.3-0.6,0.7-0.6,1.2c0,0.4,0.2,0.8,0.5,1
			c0.3,0.3,0.8,0.4,1.6,0.6l2.5,0.5c2.2,0.4,3.8,1.1,4.7,2.1c0.9,0.9,1.4,2.2,1.4,3.6c0,0.9-0.2,1.7-0.5,2.4
			c-0.3,0.8-0.8,1.3-1.4,1.8c-0.7,0.5-1.4,0.9-2.4,1.2c-1,0.3-2.2,0.4-3.5,0.4c-5.2,0-7.9-2.2-8.1-6.5h5
			C675.9,313.4,676.2,314.1,676.7,314.5z"/>
		<path class="st1" d="M403,20.9v17.7c0,2.8,0.5,4.9,1.5,6.2c1,1.3,2.7,2,5.1,2c2.3,0,4-0.7,5-2c0.9-1.4,1.4-3.4,1.4-6.2V20.9h5
			v17.7c0,2.3-0.3,4.2-0.8,5.8c-0.6,1.6-1.3,2.8-2.3,3.9c-1.1,1-2.3,1.8-3.7,2.2c-1.3,0.5-2.9,0.7-4.7,0.7c-3.8,0-6.6-1-8.5-3
			c-2-2-2.9-5.2-2.9-9.6V20.9H403z"/>
		<path class="st1" d="M426.8,20.9h4.6l13.5,21.3V20.9h4.8v29.4h-4.6l-13.5-21.2v21.2h-4.8V20.9z"/>
		<path class="st1" d="M465.1,20.9h10.2c2.3,0,4,0.3,5.5,0.8c1.4,0.5,2.6,1.2,3.4,2c0.8,0.8,1.4,1.8,1.8,2.8
			c0.3,1.1,0.5,2.2,0.5,3.4c0,1.3-0.2,2.4-0.5,3.6c-0.3,1.2-0.9,2.2-1.8,3c-0.8,0.8-2,1.6-3.4,2.1c-1.4,0.5-3.3,0.8-5.3,0.8h-5.3
			v10.9h-4.9L465.1,20.9L465.1,20.9z M475.3,35.2c1.3,0,2.3-0.1,3.1-0.3c0.8-0.3,1.4-0.6,1.9-1.1c0.5-0.4,0.8-1,1-1.6
			c0.2-0.7,0.3-1.3,0.3-2.2s-0.1-1.5-0.3-2.2c-0.2-0.6-0.5-1.1-1-1.5s-1.1-0.8-1.9-0.9c-0.8-0.2-1.8-0.3-3.1-0.3h-5.2v10.1H475.3z"
			/>
		<path class="st1" d="M501.2,20.9c2.3,0,4,0.3,5.5,0.8c1.4,0.5,2.6,1.2,3.4,2c0.8,0.8,1.4,1.8,1.8,2.8c0.3,1.1,0.5,2.1,0.5,3.1
			c0,1.9-0.3,3.5-1.1,4.9c-0.8,1.3-2,2.3-3.7,3.2l6.1,12.9h-5.4l-5.3-11.7c-0.3,0-0.5,0.1-0.8,0.1c-0.3,0-0.6,0-0.8,0h-5.3v11.5
			h-4.9V20.9H501.2z M501.6,34.4c1.1,0,2.1-0.1,2.8-0.3c0.8-0.3,1.3-0.6,1.8-1c0.4-0.4,0.8-0.9,0.9-1.5c0.2-0.6,0.3-1.3,0.3-2
			c0-0.7-0.1-1.3-0.3-1.8s-0.6-1.1-1-1.4c-0.5-0.4-1.1-0.7-1.9-0.9c-0.8-0.3-1.8-0.3-2.9-0.3h-5v9.5L501.6,34.4L501.6,34.4z"/>
		<path class="st1" d="M529.9,51c-2.1,0-4-0.3-5.7-1.1s-3.2-1.7-4.3-3c-1.2-1.3-2.1-2.9-2.8-4.9c-0.7-1.9-1-4.1-1-6.5
			c0-2.4,0.3-4.6,1-6.5c0.7-1.9,1.6-3.5,2.8-4.9c1.2-1.3,2.7-2.3,4.3-3.1c1.8-0.6,3.7-0.9,5.7-0.9c2.1,0,4,0.3,5.7,1.1
			c1.7,0.7,3.2,1.8,4.3,3c1.2,1.3,2.1,2.9,2.8,4.9c0.7,1.9,1,4.1,1,6.5c0,2.4-0.3,4.6-0.9,6.5c-0.7,1.9-1.5,3.5-2.8,4.9
			c-1.2,1.3-2.6,2.3-4.3,3C534.1,50.7,532,51,529.9,51z M529.9,46.8c2.8,0,4.9-1,6.4-3c1.5-2,2.2-4.7,2.2-8.2c0-1.8-0.2-3.3-0.6-4.7
			c-0.3-1.3-0.9-2.5-1.6-3.5c-0.7-0.9-1.6-1.7-2.7-2.3c-1.1-0.6-2.3-0.8-3.8-0.8s-2.7,0.3-3.8,0.8c-1.1,0.5-2,1.3-2.7,2.3
			c-0.8,1-1.3,2.1-1.6,3.5c-0.3,1.4-0.5,2.9-0.5,4.7c0,3.4,0.8,6.2,2.2,8.2C524.9,45.8,527,46.8,529.9,46.8z"/>
		<path class="st1" d="M553.6,38.1l-10.2-17.2h5.5l7.1,12.8l7.3-12.8h5.3l-10,17.2v12.2h-4.9V38.1z"/>
		<path class="st1" d="M572.1,20.9h19.5v4.3h-14.5V33h13.8v4.3h-13.8V46h15.4l-0.6,4.3h-19.7L572.1,20.9L572.1,20.9z"/>
		<path class="st1" d="M621.4,40.4c-0.2,1.5-0.5,2.9-1.1,4.3c-0.6,1.3-1.4,2.4-2.4,3.4c-1,0.9-2.3,1.7-3.7,2.3
			c-1.4,0.5-3.2,0.8-5.1,0.8c-2.1,0-4-0.3-5.7-1.1c-1.7-0.8-3.1-1.8-4.2-3.1c-1.2-1.3-2-2.9-2.6-4.9c-0.6-1.9-0.9-4-0.9-6.5
			c0-2.4,0.3-4.6,1-6.5s1.6-3.5,2.8-4.9c1.2-1.3,2.6-2.3,4.3-3.1c1.6-0.7,3.4-1,5.3-1c1.8,0,3.4,0.3,4.8,0.7c1.3,0.5,2.5,1.1,3.4,2
			c0.9,0.9,1.7,1.9,2.3,3.1c0.6,1.2,1,2.5,1.3,4l-4.8,0.8c-0.3-1-0.5-1.8-0.8-2.7c-0.3-0.8-0.8-1.4-1.3-1.9
			c-0.5-0.5-1.2-0.9-1.9-1.3c-0.8-0.3-1.7-0.4-2.8-0.4c-1.3,0-2.5,0.3-3.5,0.8c-1,0.5-1.8,1.3-2.6,2.3c-0.7,1-1.3,2.2-1.6,3.5
			c-0.3,1.3-0.5,2.9-0.5,4.7c0,1.8,0.2,3.3,0.6,4.7c0.3,1.3,0.9,2.5,1.6,3.5c0.7,1,1.6,1.8,2.6,2.3c1,0.5,2.2,0.8,3.4,0.8
			c1.2,0,2.1-0.2,2.9-0.4c0.8-0.3,1.5-0.8,2-1.3c0.6-0.6,1-1.3,1.3-2c0.3-0.8,0.5-1.7,0.7-2.7L621.4,40.4L621.4,40.4z"/>
		<path class="st1" d="M633,25.2h-9.3v-4.3h23.6v4.3H638v25.1h-5V25.2z"/>
		<path class="st1" d="M662.6,51c-2.1,0-4-0.3-5.7-1.1c-1.7-0.8-3.2-1.7-4.3-3c-1.2-1.3-2.1-2.9-2.8-4.9c-0.7-1.9-1-4.1-1-6.5
			c0-2.4,0.3-4.6,1-6.5c0.7-1.9,1.6-3.5,2.8-4.9c1.2-1.3,2.7-2.3,4.3-3.1c1.8-0.6,3.6-0.9,5.7-0.9s4,0.3,5.7,1.1
			c1.7,0.7,3.2,1.8,4.3,3c1.2,1.3,2.1,2.9,2.8,4.9s1,4.1,1,6.5c0,2.4-0.3,4.6-0.9,6.5c-0.7,1.9-1.5,3.5-2.8,4.9
			c-1.2,1.3-2.6,2.3-4.3,3C666.8,50.7,664.8,51,662.6,51z M662.6,46.8c2.8,0,4.9-1,6.4-3s2.2-4.7,2.2-8.2c0-1.8-0.2-3.3-0.6-4.7
			c-0.3-1.3-0.9-2.5-1.6-3.5c-0.7-0.9-1.6-1.7-2.7-2.3c-1.1-0.6-2.3-0.8-3.8-0.8c-1.4,0-2.7,0.3-3.8,0.8c-1.1,0.5-2,1.3-2.7,2.3
			c-0.8,1-1.3,2.1-1.6,3.5c-0.3,1.4-0.5,2.9-0.5,4.7c0,3.4,0.8,6.2,2.2,8.2C657.6,45.8,659.8,46.8,662.6,46.8z"/>
		<path class="st1" d="M701.4,20.9c2.2,0,4.1,0.3,5.8,0.9c1.8,0.6,3.2,1.5,4.4,2.7c1.3,1.2,2.1,2.8,2.8,4.5c0.7,1.8,1,3.9,1,6.5
			c0,2.4-0.3,4.6-1,6.5s-1.8,3.4-3,4.6c-1.3,1.3-2.8,2.2-4.7,2.8s-4,0.9-6.3,0.9h-9.6V20.9H701.4z M700.5,46c1.8,0,3.2-0.3,4.4-0.8
			c1.3-0.5,2.3-1.2,3-2.1c0.8-0.9,1.3-2,1.7-3.4c0.3-1.3,0.5-2.8,0.5-4.4c0-3.3-0.7-5.8-2.1-7.6c-1.4-1.8-3.5-2.7-6.7-2.7h-5.7V46
			H700.5z"/>
		<path class="st1" d="M720.6,20.9h19.5v4.3h-14.5V33h13.8v4.3h-13.8V46h15.4l-0.6,4.3h-19.7L720.6,20.9L720.6,20.9z"/>
		<path class="st1" d="M749.9,28.8v5.7h-5v-5.7H749.9z M749.9,44.6v5.7h-5v-5.7H749.9z"/>
	</g>
</g>
</svg>
