<?xml version="1.0" encoding="utf-8"?>
<!-- Generator: Adobe Illustrator 24.0.2, SVG Export Plug-In . SVG Version: 6.00 Build 0)  -->
<svg version="1.1" id="Capa_1" xmlns="http://www.w3.org/2000/svg" xmlns:xlink="http://www.w3.org/1999/xlink" x="0px" y="0px"
	 viewBox="0 0 79 57" style="enable-background:new 0 0 79 57;" xml:space="preserve">
<style type="text/css">
	.st0{fill:#1A2C4C;}
	.st1{fill:#FFBB00;}
</style>
<g>
	<path class="st0" d="M36,9.1c-0.1-3.7,1.3-6,4.6-7.3c3.3-1.4,6.6-1.2,9.6,1.1c3,2.5,2.9,11-3.1,12.8c-1,0.3-2.1,0.5-3.2,0.6
		C38.2,16.7,36.1,14.7,36,9.1z"/>
	<path class="st1" d="M7.5,27.1c-0.1-3.4,1.4-5.4,5-6.7c3.6-1.2,7.2-1.1,10.3,1c3.2,2.2,3.1,9.9-3.4,11.6c-1.1,0.3-2.3,0.5-3.5,0.6
		C10,34.1,7.6,32.3,7.5,27.1z"/>
	<path class="st1" d="M31.1,36.9c0-2.7,1.1-4.3,4.1-5.3c3-1,5.9-0.9,8.5,0.8c2.7,1.8,2.5,8-2.8,9.3C40,41.9,39,42.1,38,42.2
		C33.1,42.5,31.2,41,31.1,36.9z"/>
	<path class="st0" d="M12.7,55.6C9.3,55.6,7.1,53,7.3,49c0.1-3.2,3.9-6.4,7.6-6.4c2.6,0,5.2,3.2,5.2,6.5
		C20.2,52.5,16.6,55.7,12.7,55.6z"/>
	<path class="st0" d="M59.6,36.6c-3.1,0-4.7-1.7-4.7-5.3c0-3.2,2.7-5.7,6.2-5.6c3.3,0,5.4,2,5.3,5.1C66.4,34.6,63.9,36.7,59.6,36.6z
		"/>
	<path class="st0" d="M67.6,16.3c-0.1-3.4,2.3-5.8,5.9-5.9c3.3-0.1,5.5,1.9,5.6,4.9c0.1,3.7-2.3,6-6.6,6.1
		C69.1,21.4,67.6,19.9,67.6,16.3z"/>
</g>
</svg>
