<svg width="414" height="951" viewBox="0 0 414 951" fill="none" xmlns="http://www.w3.org/2000/svg">
<g clip-path="url(#clip0)">
<rect width="414" height="951" fill="white"/>
<rect width="414" height="184.864" fill="#E7E7E7"/>
<rect y="103" width="414" height="848" fill="#0B2650"/>
<g clip-path="url(#clip1)">
<path d="M430.865 136.172C431.006 136.005 431.217 135.839 431.358 135.589C427.487 132.594 427.487 126.02 425.305 121.111C423.757 117.7 421.152 115.12 419.322 111.958C416.366 106.716 415.733 99.6436 417.844 93.8191C426.079 102.389 428.472 116.119 432.414 128.184C433.047 130.098 434.103 132.344 435.863 132.427C436.848 132.427 437.763 131.762 438.607 131.013C439.945 129.848 441.282 128.766 442.549 127.601C442.971 127.268 443.464 126.769 443.534 126.187C443.605 125.771 443.394 125.355 443.253 124.939C441.986 121.777 440.789 118.698 439.593 115.536C436.214 106.966 432.555 97.9794 425.938 92.7374C426.361 91.2396 427.909 90.574 429.247 90.9068C430.584 91.1564 431.64 92.1549 432.695 93.1534C438.819 99.3107 443.534 107.548 445.998 116.618C446.35 117.783 446.913 119.281 447.968 119.281C448.602 119.281 449.165 118.781 449.587 118.282C451.84 115.869 454.162 113.373 455.64 110.294C457.118 107.132 457.681 103.222 456.414 99.9764C455.359 97.4802 453.388 95.7328 451.417 94.1519C446.209 89.9915 440.719 86.164 435.018 82.8356C442.549 76.7615 449.235 69.2728 454.866 60.7856C456.978 57.6238 460.567 50.2183 457.4 49.8022C453.951 51.2168 452.051 55.5436 450.15 59.2047C445.505 68.2743 438.537 75.5966 430.443 80.0898C433.681 75.6798 436.707 70.937 438.607 65.5285C440.508 60.12 441.141 53.9626 439.734 48.3877C439.382 47.0564 438.889 45.7251 438.044 44.7266C437.2 43.8113 436.144 43.3121 435.088 42.896C432.062 41.8143 428.824 41.3983 425.657 41.8975C424.672 42.0639 423.686 42.3136 423.123 43.2288C422.49 44.3105 422.701 45.7251 422.912 46.9732C424.742 57.8734 424.109 69.2728 421.082 79.8402C420.589 81.6707 419.322 83.7509 417.844 83.0853C417.281 79.1745 418.83 75.347 419.815 71.5194C422.208 62.2834 421.223 51.8824 417.141 43.5617C414.184 37.5707 408.695 32.3287 402.994 33.8264C400.882 34.4088 399.052 35.7402 397.292 37.1547C397.081 37.3211 396.87 37.4875 396.659 37.6539C396.589 37.6539 394.618 39.2349 394.266 40.5662C393.914 41.8975 395.885 44.9762 398.067 48.1381C398.982 49.6358 400.319 50.7175 401.375 52.0488C402.29 53.2138 403.064 54.4619 403.838 55.71C404.472 56.8749 405.105 58.0398 405.457 59.3711C405.738 60.3696 405.95 61.3681 406.161 62.4498C406.442 63.5315 406.653 64.6964 406.935 65.7781C407.076 66.4438 407.357 67.0262 407.498 67.6919C407.85 69.356 408.202 71.0202 408.554 72.6011C408.624 72.7675 408.624 72.9339 408.624 73.1004C408.624 74.4317 408.624 75.763 408.695 77.0943C408.765 77.9264 408.906 78.8417 408.976 79.6738C408.976 80.5058 409.117 81.2547 409.328 82.0036C409.398 82.2532 409.539 82.4196 409.61 82.586C410.032 83.6677 410.454 84.6662 410.876 85.7479C410.947 85.9143 410.947 86.164 410.947 86.3304L410.806 86.4136C410.595 86.0807 410.384 85.7479 410.173 85.4151C409.398 83.7509 408.765 82.0036 408.554 80.0898C408.483 79.3409 408.343 78.5921 408.413 77.9264C408.413 77.344 408.272 76.8447 408.202 76.2623C408.061 75.347 407.92 74.4317 407.85 73.5164C407.78 72.6843 407.498 71.9355 407.287 71.1866C407.005 70.1881 406.724 69.1896 406.372 68.3575C405.738 66.8598 405.457 65.1956 405.105 63.5315C404.683 61.7009 404.19 59.8704 403.416 58.2062C402.642 56.5421 401.727 55.0443 400.882 53.4634C400.319 52.4649 399.686 51.4664 399.193 50.3847C398.911 49.719 398.489 49.2198 398.067 48.7205L397.996 48.6373C397.926 48.5541 397.856 48.4709 397.785 48.3045C396.8 46.9732 393.914 43.5617 393.421 42.9792C392.858 42.3136 391.31 41.9807 389.973 42.9792C388.143 44.3938 386.313 45.8083 384.412 47.2228C383.216 48.1381 381.949 49.1366 381.175 50.6343C379.908 53.297 380.752 56.7085 382.442 58.9551C384.131 61.2017 386.453 62.6162 388.635 64.1139C394.688 68.2743 400.53 74.7645 400.882 83.0853C400.952 84.7494 400.671 86.7464 399.404 87.5785C397.644 88.8266 395.392 86.996 394.196 84.9991C391.31 80.589 389.761 75.1806 387.439 70.3545C383.92 62.949 378.571 56.7085 372.306 52.5481C368.858 54.0458 367.028 58.7887 367.38 63.1155C367.732 67.4422 369.843 71.2698 372.377 74.4317C374.911 77.5936 377.796 80.3394 380.189 83.5845C380.964 84.583 381.667 86.2472 380.893 87.2457C376.107 83.8341 371.814 79.2577 366.605 76.7615C361.397 74.2653 354.781 74.1821 350.84 79.0081C356.611 85.5815 366.957 82.9189 372.799 89.409C365.69 91.3228 359.004 84.3334 351.755 83.4181C346.405 82.7524 341.197 85.4983 336.411 88.4938C335.778 88.9098 335.144 89.2426 334.722 89.9083C334.088 90.9068 334.018 92.3213 334.299 93.5694C335.285 97.813 339.156 100.06 342.816 101.058C348.939 102.639 355.485 101.973 361.327 99.1443C356.752 104.47 353.444 111.209 351.825 118.532C351.684 119.031 351.614 119.613 351.825 120.113C352.036 120.695 352.67 121.028 353.162 121.194C358.863 122.942 364.494 118.032 368.224 112.541C371.955 107.049 374.911 100.642 380.049 97.2306C380.893 96.6481 382.371 96.4817 382.582 97.6466C382.723 98.3955 382.16 98.9779 381.597 99.4772C373.644 106.55 367.168 116.035 363.086 126.769C365.198 130.264 367.943 134.175 371.603 133.925C373.996 132.178 376.037 129.848 377.585 127.102C379.345 123.94 380.471 120.445 381.808 117.034C385.257 108.38 391.028 100.226 398.911 98.2291C397.926 102.805 396.026 107.049 393.421 110.627C390.254 114.954 386.172 118.116 382.794 122.11C379.486 126.104 376.811 130.93 375.122 136.088C374.981 136.421 376.811 138.252 377.022 138.502C377.796 139.334 378.571 140.082 379.415 140.748C381.104 142.079 383.005 143.078 384.975 143.744C386.805 144.326 388.706 142.079 389.761 140.415C391.028 138.418 391.873 136.089 392.366 133.675C393.21 129.349 393.281 124.772 394.407 120.529C395.251 117.533 396.589 114.787 397.644 111.875C399.052 108.048 399.967 104.054 400.882 100.06C401.164 98.7283 401.515 97.2306 402.501 96.3985C403.416 95.5664 405.105 95.7328 405.457 97.0641C401.515 102.889 398.982 109.961 398.137 117.284C397.081 126.353 398.63 136.089 395.251 144.326C400.249 145.657 405.809 143.827 409.469 139.5C416.226 143.577 425.094 142.079 430.865 136.172ZM409.961 132.76C409.891 132.594 409.821 132.427 409.821 132.344C409.961 131.179 409.68 130.014 409.68 128.849C409.68 127.768 409.469 126.769 409.328 125.688C409.258 124.772 409.117 123.857 409.047 122.942C408.835 120.862 408.835 118.698 408.906 116.618C408.976 114.954 409.047 113.206 409.187 111.542C409.258 110.793 409.469 110.128 409.539 109.379C409.539 109.212 409.61 109.046 409.61 108.796C409.75 107.049 410.384 105.551 411.369 104.22C412.214 104.47 412.918 105.052 413.27 106.051C413.903 107.715 414.536 109.462 415.029 111.126C415.522 112.79 415.451 114.538 415.099 116.285C415.029 116.618 415.029 116.951 414.959 117.284C414.818 118.116 414.607 118.948 414.466 119.78C414.325 120.529 414.255 121.361 414.044 122.11C413.903 122.609 413.833 123.191 413.551 123.607C412.566 124.939 412.073 126.603 411.58 128.184C411.088 129.682 410.665 131.179 410.173 132.76C410.102 132.76 410.032 132.76 409.961 132.76Z" fill="#3D753F"/>
<path d="M424.601 144.326C425.727 147.405 426.783 150.484 427.698 153.646C427.769 153.895 427.839 154.145 427.769 154.395C427.628 154.894 427.065 155.06 426.642 154.811C426.22 154.561 426.009 154.062 425.798 153.646C422.701 147.322 419.393 141.165 416.015 135.007C414.325 131.929 412.495 128.767 410.314 126.104C414.114 138.169 417.352 150.401 420.026 162.882C420.167 163.631 420.167 164.796 419.463 164.879C419.041 164.962 418.689 164.379 418.478 163.88C416.155 158.721 413.833 153.646 411.51 148.57C410.243 143.827 408.695 139.168 406.865 134.758C406.161 145.325 406.231 156.059 407.076 166.626C407.146 167.292 407.146 168.041 406.654 168.373C405.879 168.873 405.176 167.625 405.035 166.543C403.275 157.057 401.656 147.572 400.319 138.086C397.152 147.405 394.9 157.14 393.562 167.042C393.492 167.625 393.422 168.29 393.07 168.706C392.718 169.122 392.014 169.289 391.732 168.789C391.592 168.54 391.592 168.29 391.521 168.041C390.677 157.224 393.844 146.49 394.548 135.59C391.31 141.747 380.26 164.796 377.022 170.953C376.741 171.452 376.389 172.035 375.896 172.367C375.403 172.617 374.7 172.451 374.488 171.868C374.418 171.535 374.488 171.119 374.629 170.703C376.53 164.796 386.454 142.08 388.847 136.505C381.879 142.329 374.981 148.154 368.013 154.062C367.38 154.561 366.394 154.977 366.113 154.145C365.972 153.729 366.183 153.23 366.465 152.814C370.195 146.407 374.629 140.582 379.626 135.423C380.753 134.258 381.879 133.177 382.723 131.762C383.779 130.098 384.483 128.101 385.679 126.686C378.5 129.266 371.251 131.762 364.072 134.342C363.649 134.508 363.157 134.674 362.664 134.508C362.242 134.342 361.819 133.842 361.96 133.26C362.031 133.01 362.171 132.844 362.383 132.677C364.916 129.932 368.224 128.434 371.462 126.936C376.037 124.856 380.541 122.776 385.116 120.696C378.43 119.614 365.691 118.033 365.127 117.367C364.564 116.702 366.183 115.703 367.028 115.37C370.547 114.205 374.207 113.54 377.937 113.54C379.697 113.04 381.597 113.29 383.427 113.373C385.75 113.456 388.072 113.124 390.325 112.458C384.694 108.714 379.063 104.886 372.94 102.556C372.377 102.307 371.744 102.057 371.462 101.475C370.406 99.3112 376.952 99.0615 378.008 99.1447C380.823 99.3112 383.638 100.06 386.383 100.642C394.407 102.473 402.571 103.222 410.736 104.304C411.229 104.387 411.792 104.47 412.143 104.886C412.636 105.385 412.707 106.217 412.847 106.966C414.396 120.113 420.026 132.012 424.601 144.326Z" fill="#EB983F"/>
</g>
</g>
<defs>
<clipPath id="clip0">
<rect width="414" height="951" fill="white"/>
</clipPath>
<clipPath id="clip1">
<rect width="101" height="152.103" fill="white" transform="translate(316 29)"/>
</clipPath>
</defs>
</svg>
