<svg width="1131" height="519" viewBox="0 0 1131 519" fill="none" xmlns="http://www.w3.org/2000/svg">
<rect width="1131" height="374" fill="#E7E7E7"/>
<rect y="113" width="1131" height="406" fill="#0B2650"/>
<g clip-path="url(#clip0)">
<path d="M1147.06 131.689C1147.22 131.525 1147.47 131.361 1147.63 131.115C1143.15 128.161 1143.15 121.678 1140.62 116.837C1138.83 113.473 1135.81 110.929 1133.69 107.811C1130.27 102.641 1129.53 95.6663 1131.98 89.9223C1141.52 98.3742 1144.29 111.914 1148.86 123.812C1149.59 125.699 1150.81 127.915 1152.85 127.997C1153.99 127.997 1155.05 127.34 1156.03 126.602C1157.58 125.453 1159.13 124.386 1160.6 123.237C1161.09 122.909 1161.66 122.417 1161.74 121.842C1161.82 121.432 1161.57 121.022 1161.41 120.612C1159.94 117.493 1158.56 114.457 1157.17 111.339C1153.26 102.887 1149.02 94.0251 1141.35 88.8556C1141.84 87.3785 1143.64 86.7221 1145.19 87.0503C1146.74 87.2965 1147.96 88.2812 1149.18 89.2658C1156.28 95.338 1161.74 103.462 1164.59 112.406C1165 113.555 1165.65 115.032 1166.87 115.032C1167.61 115.032 1168.26 114.539 1168.75 114.047C1171.36 111.667 1174.05 109.206 1175.76 106.17C1177.47 103.051 1178.13 99.1947 1176.66 95.9945C1175.44 93.5328 1173.15 91.8096 1170.87 90.2505C1164.84 86.1477 1158.48 82.3731 1151.87 79.0908C1160.6 73.1006 1168.34 65.7155 1174.86 57.3457C1177.31 54.2275 1181.47 46.9245 1177.8 46.5142C1173.8 47.9092 1171.6 52.1761 1169.4 55.7866C1164.02 64.7308 1155.95 71.9518 1146.57 76.3829C1150.32 72.0339 1153.83 67.3567 1156.03 62.023C1158.23 56.6893 1158.97 50.617 1157.34 45.1192C1156.93 43.8063 1156.36 42.4934 1155.38 41.5087C1154.4 40.6061 1153.18 40.1138 1151.95 39.7035C1148.45 38.6367 1144.7 38.2265 1141.03 38.7188C1139.89 38.8829 1138.75 39.1291 1138.09 40.0317C1137.36 41.0984 1137.6 42.4934 1137.85 43.7243C1139.97 54.4737 1139.23 65.7155 1135.73 76.1367C1135.16 77.942 1133.69 79.9934 1131.98 79.337C1131.33 75.4803 1133.12 71.7057 1134.26 67.931C1137.03 58.8227 1135.89 48.5656 1131.16 40.3599C1127.74 34.4518 1121.38 29.2823 1114.77 30.7593C1112.33 31.3337 1110.21 32.6466 1108.17 34.0416C1107.93 34.2057 1107.68 34.3698 1107.44 34.5339C1107.36 34.5339 1105.07 36.093 1104.66 37.4059C1104.26 38.7188 1106.54 41.7549 1109.07 44.8731C1110.13 46.3501 1111.68 47.4168 1112.9 48.7297C1113.96 49.8785 1114.86 51.1094 1115.75 52.3402C1116.49 53.489 1117.22 54.6378 1117.63 55.9507C1117.95 56.9354 1118.2 57.9201 1118.44 58.9868C1118.77 60.0536 1119.01 61.2024 1119.34 62.2691C1119.5 62.9256 1119.83 63.5 1119.99 64.1564C1120.4 65.7976 1120.81 67.4387 1121.22 68.9978C1121.3 69.1619 1121.3 69.326 1121.3 69.4901C1121.3 70.803 1121.3 72.1159 1121.38 73.4289C1121.46 74.2494 1121.62 75.1521 1121.71 75.9726C1121.71 76.7932 1121.87 77.5317 1122.11 78.2702C1122.19 78.5164 1122.36 78.6805 1122.44 78.8446C1122.93 79.9114 1123.42 80.896 1123.91 81.9628C1123.99 82.1269 1123.99 82.3731 1123.99 82.5372L1123.82 82.6192C1123.58 82.291 1123.34 81.9628 1123.09 81.6346C1122.19 79.9934 1121.46 78.2702 1121.22 76.3829C1121.13 75.6444 1120.97 74.9059 1121.05 74.2494C1121.05 73.675 1120.89 73.1827 1120.81 72.6083C1120.65 71.7057 1120.48 70.803 1120.4 69.9004C1120.32 69.0798 1119.99 68.3413 1119.75 67.6028C1119.42 66.6181 1119.1 65.6335 1118.69 64.8129C1117.95 63.3359 1117.63 61.6947 1117.22 60.0536C1116.73 58.2483 1116.16 56.4431 1115.26 54.8019C1114.37 53.1608 1113.31 51.6838 1112.33 50.1247C1111.68 49.14 1110.94 48.1553 1110.37 47.0886C1110.05 46.4321 1109.56 45.9398 1109.07 45.4475L1108.99 45.3654C1108.9 45.2833 1108.82 45.2013 1108.74 45.0372C1107.6 43.7243 1104.26 40.3599 1103.69 39.7855C1103.03 39.1291 1101.24 38.8009 1099.69 39.7855C1097.57 41.1805 1095.45 42.5755 1093.25 43.9704C1091.86 44.8731 1090.4 45.8577 1089.5 47.3348C1088.03 49.9606 1089.01 53.3249 1090.97 55.5405C1092.92 57.756 1095.61 59.151 1098.14 60.628C1105.15 64.7308 1111.92 71.1313 1112.33 79.337C1112.41 80.9781 1112.08 82.9475 1110.62 83.768C1108.58 84.9989 1105.97 83.1936 1104.58 81.2243C1101.24 76.8753 1099.45 71.5416 1096.76 66.7823C1092.68 59.4792 1086.48 53.3249 1079.23 49.2221C1075.23 50.6991 1073.11 55.3763 1073.52 59.6433C1073.93 63.9103 1076.37 67.6849 1079.31 70.803C1082.24 73.9212 1085.59 76.6291 1088.36 79.8293C1089.25 80.814 1090.07 82.4551 1089.17 83.4398C1083.63 80.0755 1078.66 75.5623 1072.62 73.1006C1066.59 70.6389 1058.92 70.5569 1054.36 75.3162C1061.04 81.7987 1073.03 79.1728 1079.8 85.5733C1071.56 87.4606 1063.82 80.5678 1055.42 79.6652C1049.22 79.0087 1043.19 81.7166 1037.64 84.6707C1036.91 85.0809 1036.18 85.4092 1035.69 86.0656C1034.95 87.0503 1034.87 88.4453 1035.2 89.6761C1036.34 93.861 1040.82 96.0766 1045.06 97.0612C1052.16 98.6203 1059.74 97.9639 1066.51 95.1739C1061.21 100.426 1057.38 107.072 1055.5 114.293C1055.34 114.786 1055.26 115.36 1055.5 115.852C1055.74 116.427 1056.48 116.755 1057.05 116.919C1063.65 118.642 1070.18 113.801 1074.5 108.385C1078.82 102.969 1082.24 96.651 1088.19 93.2866C1089.17 92.7122 1090.89 92.5481 1091.13 93.6969C1091.29 94.4354 1090.64 95.0098 1089.99 95.5022C1080.78 102.477 1073.27 111.831 1068.55 122.417C1070.99 125.863 1074.17 129.72 1078.41 129.474C1081.18 127.751 1083.55 125.453 1085.34 122.745C1087.38 119.627 1088.68 116.181 1090.23 112.816C1094.23 104.282 1100.91 96.2407 1110.05 94.2713C1108.9 98.7844 1106.7 102.969 1103.69 106.498C1100.02 110.765 1095.29 113.883 1091.37 117.822C1087.54 121.76 1084.44 126.52 1082.49 131.607C1082.32 131.935 1084.44 133.741 1084.69 133.987C1085.59 134.807 1086.48 135.546 1087.46 136.202C1089.42 137.515 1091.62 138.5 1093.9 139.156C1096.02 139.731 1098.22 137.515 1099.45 135.874C1100.91 133.905 1101.89 131.607 1102.46 129.228C1103.44 124.961 1103.52 120.447 1104.83 116.263C1105.81 113.309 1107.36 110.601 1108.58 107.729C1110.21 103.954 1111.27 100.015 1112.33 96.0766C1112.65 94.7637 1113.06 93.2866 1114.2 92.4661C1115.26 91.6455 1117.22 91.8096 1117.63 93.1225C1113.06 98.8665 1110.13 105.841 1109.15 113.062C1107.93 122.007 1109.72 131.607 1105.81 139.731C1111.59 141.044 1118.04 139.238 1122.28 134.972C1130.1 138.992 1140.38 137.515 1147.06 131.689ZM1122.85 128.325C1122.76 128.161 1122.68 127.997 1122.68 127.915C1122.85 126.766 1122.52 125.617 1122.52 124.468C1122.52 123.402 1122.28 122.417 1122.11 121.35C1122.03 120.447 1121.87 119.545 1121.79 118.642C1121.54 116.591 1121.54 114.457 1121.62 112.406C1121.71 110.765 1121.79 109.042 1121.95 107.4C1122.03 106.662 1122.28 106.005 1122.36 105.267C1122.36 105.103 1122.44 104.939 1122.44 104.693C1122.6 102.969 1123.34 101.492 1124.48 100.179C1125.46 100.426 1126.27 101 1126.68 101.985C1127.41 103.626 1128.15 105.349 1128.72 106.99C1129.29 108.631 1129.21 110.354 1128.8 112.078C1128.72 112.406 1128.72 112.734 1128.64 113.062C1128.47 113.883 1128.23 114.703 1128.06 115.524C1127.9 116.263 1127.82 117.083 1127.58 117.822C1127.41 118.314 1127.33 118.888 1127 119.299C1125.86 120.612 1125.29 122.253 1124.72 123.812C1124.15 125.289 1123.66 126.766 1123.09 128.325C1123.01 128.325 1122.93 128.325 1122.85 128.325Z" fill="#3D753F"/>
<path d="M1139.81 139.731C1141.11 142.767 1142.33 145.803 1143.39 148.921C1143.47 149.167 1143.56 149.414 1143.47 149.66C1143.31 150.152 1142.66 150.316 1142.17 150.07C1141.68 149.824 1141.44 149.331 1141.19 148.921C1137.6 142.685 1133.77 136.613 1129.86 130.54C1127.9 127.504 1125.78 124.386 1123.25 121.76C1127.66 133.659 1131.41 145.721 1134.51 158.029C1134.67 158.768 1134.67 159.917 1133.85 159.999C1133.36 160.081 1132.96 159.507 1132.71 159.014C1130.02 153.927 1127.33 148.921 1124.64 143.916C1123.17 139.238 1121.38 134.643 1119.26 130.294C1118.44 140.715 1118.53 151.301 1119.5 161.722C1119.59 162.378 1119.59 163.117 1119.01 163.445C1118.12 163.938 1117.3 162.707 1117.14 161.64C1115.1 152.285 1113.23 142.931 1111.68 133.577C1108.01 142.767 1105.4 152.368 1103.85 162.132C1103.77 162.707 1103.69 163.363 1103.28 163.773C1102.87 164.184 1102.06 164.348 1101.73 163.856C1101.57 163.609 1101.57 163.363 1101.48 163.117C1100.51 152.45 1104.18 141.864 1104.99 131.115C1101.24 137.187 1088.44 159.917 1084.69 165.989C1084.36 166.481 1083.96 167.056 1083.38 167.384C1082.81 167.63 1082 167.466 1081.75 166.892C1081.67 166.563 1081.75 166.153 1081.92 165.743C1084.12 159.917 1095.61 137.515 1098.39 132.017C1090.31 137.761 1082.32 143.505 1074.25 149.331C1073.52 149.824 1072.38 150.234 1072.05 149.414C1071.89 149.003 1072.13 148.511 1072.46 148.101C1076.78 141.782 1081.92 136.038 1087.71 130.951C1089.01 129.802 1090.31 128.735 1091.29 127.34C1092.52 125.699 1093.33 123.73 1094.72 122.335C1086.4 124.879 1078 127.34 1069.69 129.884C1069.2 130.048 1068.63 130.212 1068.06 130.048C1067.57 129.884 1067.08 129.392 1067.24 128.817C1067.32 128.571 1067.49 128.407 1067.73 128.243C1070.67 125.535 1074.5 124.058 1078.25 122.581C1083.55 120.529 1088.77 118.478 1094.07 116.427C1086.32 115.36 1071.56 113.801 1070.91 113.144C1070.26 112.488 1072.13 111.503 1073.11 111.175C1077.19 110.026 1081.43 109.37 1085.75 109.37C1087.79 108.877 1089.99 109.124 1092.11 109.206C1094.8 109.288 1097.49 108.959 1100.1 108.303C1093.58 104.61 1087.05 100.836 1079.96 98.5382C1079.31 98.2921 1078.57 98.0459 1078.25 97.4715C1077.02 95.338 1084.61 95.0919 1085.83 95.1739C1089.09 95.338 1092.35 96.0765 1095.53 96.6509C1104.83 98.4562 1114.29 99.1947 1123.74 100.261C1124.31 100.343 1124.97 100.426 1125.37 100.836C1125.94 101.328 1126.03 102.149 1126.19 102.887C1127.98 115.852 1134.51 127.586 1139.81 139.731Z" fill="#EB983F"/>
</g>
<defs>
<clipPath id="clip0">
<rect width="117" height="150" fill="white" transform="translate(1014 26)"/>
</clipPath>
</defs>
</svg>
