<svg width="265" height="76" viewBox="0 0 265 76" fill="none" xmlns="http://www.w3.org/2000/svg">
<g clip-path="url(#clip0)">
<path d="M2.89958 66.58C6.50958 73.09 13.0196 75.07 18.9996 75.55C26.0596 76.12 33.8096 74.88 38.8796 68.14C41.2096 65.04 42.7696 61.01 43.9396 56.87C46.3596 48.26 47.0896 20.86 43.4496 13.09C41.6896 9.34003 39.0496 6.48003 36.1796 4.36003C26.9996 -2.39997 16.5096 -1.08996 8.01958 6.84003C2.25958 12.22 1.14958 18.79 0.399576 27.85C-0.220424 35.19 -0.570424 60.33 2.89958 66.58Z" fill="white"/>
<path d="M35.5895 40.9001H36.5595V38.5201H35.5895C31.0895 38.5201 27.1095 40.7801 24.7095 44.2201V37.5001C28.8795 36.6301 34.1395 32.4401 34.1395 23.0701H31.7595C31.7595 31.1901 27.4995 34.1901 24.7095 35.0201V31.1001C27.0995 30.4801 28.4995 27.9101 28.4995 23.9601C28.4995 19.1901 25.2195 15.4601 21.0195 15.4601C17.3195 15.4601 9.68945 18.3101 9.68945 27.1101C9.68945 35.0301 17.5595 37.4201 22.3295 37.6501V38.4601V44.2201C19.9295 40.7801 15.9495 38.5201 11.4495 38.5201H10.4795V40.9001H11.4495C17.0795 40.9001 21.7195 45.2001 22.2695 50.6901C19.8695 47.2901 15.9195 45.0601 11.4495 45.0601H10.4795V47.4401H11.4495C17.4495 47.4401 22.3295 52.3201 22.3295 58.3201V59.2901V61.2401H24.7095V59.2901V58.3201C24.7095 52.3201 29.5895 47.4401 35.5895 47.4401H36.5595V45.0601H35.5895C31.1195 45.0601 27.1695 47.2901 24.7595 50.6901C25.3095 45.2001 29.9595 40.9001 35.5895 40.9001ZM12.0695 27.1101C12.0695 19.4101 19.1295 17.8401 21.0195 17.8401C23.8795 17.8401 26.1195 20.5301 26.1195 23.9701C26.1195 25.1501 25.9595 27.5801 24.6995 28.5001C24.5695 26.1101 23.4595 23.3001 21.4495 22.2101C20.2495 21.5501 18.9095 21.6301 17.6795 22.4201C16.3695 23.2701 15.8695 24.8701 16.3795 26.6001C16.9895 28.6701 19.0395 30.7701 22.3295 31.1801V35.2601C19.8495 35.0701 12.0695 33.9401 12.0695 27.1101ZM22.3295 28.7801C20.2795 28.4301 19.0295 27.1801 18.6595 25.9401C18.5795 25.6801 18.3795 24.8101 18.9695 24.4201C19.2795 24.2201 19.5395 24.1501 19.7595 24.1501C19.9795 24.1501 20.1595 24.2201 20.3095 24.3001C21.3895 24.8801 22.2695 26.8601 22.3295 28.7801Z" fill="#EE4A7B"/>
<path d="M61.9393 56.22C61.6093 55.86 61.2893 55.62 60.9693 55.5C60.6593 55.38 60.3493 55.32 60.0293 55.32C59.5593 55.32 59.1393 55.4 58.7593 55.57C58.3793 55.74 58.0493 55.97 57.7793 56.26C57.5093 56.55 57.2993 56.9 57.1493 57.29C56.9993 57.68 56.9293 58.1 56.9293 58.56C56.9293 59.05 56.9993 59.49 57.1493 59.9C57.2993 60.31 57.5093 60.66 57.7793 60.96C58.0493 61.26 58.3793 61.49 58.7593 61.66C59.1393 61.83 59.5593 61.92 60.0293 61.92C60.3993 61.92 60.7493 61.83 61.0993 61.66C61.4493 61.49 61.7693 61.21 62.0693 60.82L63.3993 61.77C62.9893 62.33 62.4893 62.74 61.8993 63C61.3093 63.26 60.6893 63.38 60.0193 63.38C59.3193 63.38 58.6793 63.27 58.0993 63.04C57.5193 62.81 57.0093 62.49 56.5893 62.08C56.1693 61.67 55.8393 61.17 55.5993 60.59C55.3593 60.01 55.2393 59.37 55.2393 58.66C55.2393 57.94 55.3593 57.28 55.5993 56.68C55.8393 56.09 56.1693 55.58 56.5893 55.16C57.0093 54.74 57.5093 54.42 58.0993 54.19C58.6793 53.96 59.3193 53.85 60.0193 53.85C60.6293 53.85 61.1993 53.96 61.7293 54.18C62.2493 54.4 62.7393 54.77 63.1893 55.29L61.9393 56.22Z" fill="white"/>
<path d="M66.999 54.09H68.609V63.14H66.999V54.09Z" fill="white"/>
<path d="M80.3991 59.82C80.3991 60.37 80.3091 60.86 80.1191 61.3C79.9291 61.74 79.6791 62.11 79.3491 62.42C79.0291 62.73 78.6391 62.96 78.1991 63.13C77.7591 63.3 77.2691 63.38 76.7591 63.38C76.2391 63.38 75.7591 63.3 75.3191 63.13C74.8791 62.96 74.4891 62.73 74.1591 62.42C73.8291 62.11 73.5791 61.74 73.3891 61.3C73.2091 60.86 73.1191 60.37 73.1191 59.82V54.09H74.7291V59.77C74.7291 59.99 74.7591 60.22 74.8291 60.47C74.8991 60.71 75.0091 60.94 75.1691 61.14C75.3291 61.34 75.5391 61.51 75.7991 61.64C76.0591 61.77 76.3791 61.84 76.7691 61.84C77.1491 61.84 77.4791 61.77 77.7391 61.64C77.9991 61.51 78.2091 61.34 78.3691 61.14C78.5291 60.94 78.6391 60.71 78.7091 60.47C78.7791 60.23 78.8091 59.99 78.8091 59.77V54.09H80.4191V59.82H80.3991Z" fill="white"/>
<path d="M84.9397 54.09H88.5097C89.1097 54.09 89.6797 54.18 90.2397 54.37C90.7897 54.55 91.2797 54.83 91.7097 55.21C92.1397 55.59 92.4797 56.06 92.7297 56.62C92.9897 57.19 93.1097 57.85 93.1097 58.62C93.1097 59.4 92.9597 60.07 92.6697 60.63C92.3797 61.2 91.9997 61.67 91.5297 62.04C91.0697 62.41 90.5497 62.69 89.9797 62.87C89.4097 63.05 88.8597 63.14 88.3097 63.14H84.9297V54.09H84.9397ZM87.7497 61.69C88.2497 61.69 88.7297 61.63 89.1797 61.52C89.6297 61.4 90.0197 61.23 90.3497 60.98C90.6797 60.74 90.9397 60.42 91.1397 60.03C91.3297 59.64 91.4297 59.17 91.4297 58.62C91.4297 58.07 91.3397 57.61 91.1697 57.21C90.9997 56.82 90.7597 56.5 90.4597 56.26C90.1597 56.02 89.7997 55.84 89.3897 55.72C88.9797 55.6 88.5197 55.55 88.0297 55.55H86.5597V61.69H87.7497Z" fill="white"/>
<path d="M100.129 54.09H101.519L105.419 63.14H103.579L102.739 61.07H98.8192L97.9992 63.14H96.1992L100.129 54.09ZM102.169 59.69L100.779 56.01L99.3592 59.69H102.169Z" fill="white"/>
<path d="M108.989 54.09H112.559C113.159 54.09 113.729 54.18 114.289 54.37C114.839 54.55 115.329 54.83 115.759 55.21C116.189 55.59 116.529 56.06 116.779 56.62C117.039 57.19 117.159 57.85 117.159 58.62C117.159 59.4 117.009 60.07 116.719 60.63C116.429 61.2 116.049 61.67 115.579 62.04C115.119 62.41 114.599 62.69 114.029 62.87C113.459 63.05 112.909 63.14 112.359 63.14H108.979V54.09H108.989ZM111.799 61.69C112.299 61.69 112.779 61.63 113.229 61.52C113.679 61.4 114.069 61.23 114.399 60.98C114.729 60.74 114.989 60.42 115.189 60.03C115.379 59.64 115.479 59.17 115.479 58.62C115.479 58.07 115.389 57.61 115.219 57.21C115.049 56.82 114.809 56.5 114.509 56.26C114.209 56.02 113.849 55.84 113.439 55.72C113.029 55.6 112.569 55.55 112.079 55.55H110.609V61.69H111.799Z" fill="white"/>
<path d="M126.539 54.09H128.389L130.859 60.93L133.399 54.09H135.139L131.479 63.14H130.089L126.539 54.09Z" fill="white"/>
<path d="M138.64 54.09H140.25V63.14H138.64V54.09Z" fill="white"/>
<path d="M143.739 54.09H145.589L148.059 60.93L150.599 54.09H152.339L148.679 63.14H147.289L143.739 54.09Z" fill="white"/>
<path d="M158.089 54.09H159.479L163.379 63.14H161.539L160.699 61.07H156.779L155.959 63.14H154.159L158.089 54.09ZM160.139 59.69L158.749 56.01L157.329 59.69H160.139Z" fill="white"/>
<path d="M77.0692 37.9401L75.1792 38.3101V44.4901L75.2892 45.6401L75.3292 46.5301C74.8592 46.4301 74.6092 46.3801 74.5892 46.3801C74.3692 46.3801 74.1792 46.3801 74.0392 46.3801C73.6192 46.3801 72.5392 46.6901 70.7992 47.3201C69.0592 47.9501 67.3792 48.2601 65.7492 48.2601C62.1992 48.2601 59.2692 46.8701 56.9492 44.0901C54.7792 41.4801 53.6992 38.4001 53.6992 34.8301C53.6992 31.0201 54.7592 27.6501 56.8792 24.7201C59.0992 21.6701 61.7692 20.1501 64.8992 20.1501C65.6592 20.1501 66.4892 20.2301 67.3792 20.4001C68.2692 20.5601 69.1992 20.7401 70.1892 20.9301C70.8992 20.9301 71.5192 20.8601 72.0392 20.7101C72.5092 20.5101 72.8692 20.3801 73.1092 20.3001L75.0292 28.2501L73.6192 28.5801L73.0992 27.7001C71.9692 25.7401 70.9092 24.3001 69.9192 23.4001C68.5892 22.2001 67.0692 21.6001 65.3692 21.6001C63.1792 21.6001 61.4492 22.7201 60.1892 24.9601C59.0992 26.9001 58.5592 29.2201 58.5592 31.9301C58.5592 35.5701 59.3592 38.7801 60.9592 41.5501C62.7592 44.6701 65.0992 46.2301 67.9892 46.2301C68.8992 46.2301 69.4692 46.1801 69.6892 46.0801C69.9092 45.9801 70.0992 45.8801 70.2392 45.7901V38.2401L68.0592 38.0601V36.7701H76.9692L77.0692 37.9401Z" fill="white"/>
<path d="M91.8589 30.8801C91.8589 31.6201 91.5889 32.2201 91.0489 32.6901C90.5089 33.1601 89.8289 33.3901 89.0189 33.3901C88.6289 33.3901 88.1289 33.2801 87.5389 33.0701C87.4389 33.0401 87.3089 32.9801 87.1289 32.8701C86.9589 33.1701 86.8189 33.4001 86.7189 33.5701C86.4189 34.1401 86.2089 34.6301 86.0689 35.0501C85.9289 35.4701 85.8189 35.8601 85.7189 36.2301C85.4489 37.3101 85.3089 38.4201 85.3089 39.5501V46.1201L87.4489 46.4501V47.6701H79.0989V46.4101L81.0989 46.1101V36.8801C81.0989 36.0401 80.9889 35.1501 80.7889 34.2001C80.5789 33.2501 80.3489 32.6101 80.1089 32.2601C79.9589 32.0401 79.6889 31.8801 79.2989 31.8001C78.9089 31.7101 78.6789 31.6701 78.6289 31.6701V30.5301L83.0689 28.6501C83.4589 29.4401 83.6689 29.8701 83.6989 29.9201C83.8689 30.2901 84.0189 30.7401 84.1389 31.2701C84.2589 31.8001 84.3889 32.3401 84.5289 32.9001C84.6689 33.4501 84.7289 34.0001 84.7289 34.5501L85.1389 33.5101C85.6589 32.2001 86.2489 31.1601 86.9189 30.3701C87.7589 29.4101 88.6489 28.9301 89.5789 28.9301C90.4889 28.9301 91.1189 29.1301 91.4689 29.5201C91.7289 29.8001 91.8589 30.2601 91.8589 30.8801Z" fill="white"/>
<path d="M110.459 46.0801C110.109 46.6001 109.809 46.9801 109.539 47.2301C108.729 47.9901 107.789 48.3801 106.729 48.3801C105.989 48.3801 105.359 48.1701 104.839 47.7501C104.319 47.3301 103.929 46.7401 103.659 45.9701L102.769 46.6701C102.049 47.2601 101.379 47.6901 100.739 47.9601C100.099 48.2301 99.3594 48.3701 98.5194 48.3701C97.2394 48.3701 96.1394 47.9101 95.2294 47.0001C94.3194 46.0901 93.8594 44.9701 93.8594 43.6601C93.8594 41.9301 94.7294 40.3501 96.4894 38.9201C98.0194 37.6601 99.9494 36.7001 102.299 36.0301L103.299 35.7301V34.1001C103.299 33.1401 102.979 32.3001 102.339 31.5801C102.039 31.2301 101.549 30.9401 100.859 30.6901C100.639 30.6201 100.329 30.5301 99.9394 30.4301C99.9894 30.9201 99.7694 31.4801 99.2694 32.0901C98.6794 32.8301 97.9494 33.2001 97.0894 33.2001C96.4694 33.2001 95.9494 33.0201 95.5194 32.6601C95.0894 32.3001 94.8694 31.8201 94.8694 31.2001C94.8694 30.4601 95.1794 29.9101 95.8094 29.5401C96.4394 29.1701 97.2494 28.9901 98.2294 28.9901C100.789 28.9901 102.909 29.5401 104.589 30.6501C106.409 31.8601 107.329 33.5201 107.329 35.6401V44.2901C107.329 44.7301 107.439 45.1201 107.659 45.4401C107.879 45.7601 108.189 45.9201 108.579 45.9201C108.849 45.9201 109.169 45.7601 109.539 45.4401C109.589 45.3901 109.679 45.3001 109.799 45.1801L110.459 46.0801ZM103.439 44.3701V37.1601L102.699 37.3101C101.319 37.6601 100.169 38.3401 99.2394 39.3501C98.3194 40.3701 97.8494 41.4501 97.8494 42.6201C97.8494 43.4601 98.1294 44.1901 98.6994 44.8101C99.2694 45.4301 99.9594 45.7401 100.769 45.7401C101.289 45.7401 101.799 45.5901 102.299 45.2901C102.809 45.0001 103.189 44.6901 103.439 44.3701Z" fill="white"/>
<path d="M129.8 47.6701H122.18V46.3801L124.03 46.1201V35.3201C124.03 34.3801 123.8 33.5401 123.33 32.7901C122.86 32.0401 122.21 31.6601 121.37 31.6601C120.83 31.6601 120.32 31.7501 119.85 31.9201C119.38 32.0901 118.94 32.3901 118.52 32.8001L117.74 33.6501V46.0801L119.63 46.3401V47.6701H111.64V46.3401L113.64 46.0801V33.9401C113.64 33.4001 113.61 33.0101 113.55 32.7601C113.49 32.5101 113.3 32.2601 112.98 31.9901C112.86 31.8701 112.67 31.7801 112.43 31.7301C112.18 31.6801 111.95 31.6601 111.73 31.6601C111.41 31.6601 111.22 31.6601 111.18 31.6601V30.5201L115.95 28.3901C116.42 28.8601 116.79 29.4101 117.06 30.0301C117.23 30.4501 117.35 30.7901 117.41 31.0701C117.47 31.3401 117.5 31.6601 117.5 32.0301C117.72 31.5401 118.3 30.9301 119.24 30.2201C120.5 29.2601 121.7 28.7801 122.86 28.7801C124.36 28.7801 125.61 29.3601 126.61 30.5201C127.61 31.6801 128.11 33.0501 128.11 34.6201V46.1201L129.81 46.3801V47.6701H129.8Z" fill="white"/>
<path d="M161.569 40.2001L161.199 41.2001C160.439 43.3701 159.179 45.0601 157.449 46.2801C155.709 47.5001 153.729 48.1101 151.509 48.1101C148.079 48.1101 145.329 46.7701 143.259 44.0801C141.359 41.6201 140.409 38.5601 140.409 34.9101C140.409 30.9901 141.399 27.6201 143.369 24.8101C145.509 21.7501 148.279 20.2201 151.649 20.2201C152.289 20.2201 153.539 20.3901 155.379 20.7401C156.139 20.9101 156.649 20.9701 156.899 20.9201C157.739 20.8001 158.249 20.7101 158.429 20.6601C158.609 20.6101 158.999 20.4601 159.589 20.2201L161.439 28.3501L160.109 28.6501L159.629 27.8001C158.469 25.7401 157.419 24.2701 156.489 23.3801C155.179 22.1301 153.689 21.5001 152.019 21.5001C149.799 21.5001 148.059 22.6301 146.809 24.9001C145.719 26.8701 145.179 29.2201 145.179 31.9501C145.179 35.3201 145.859 38.2301 147.209 40.6601C148.789 43.4901 150.919 44.9101 153.609 44.9101C155.019 44.9101 156.269 44.5301 157.359 43.7601C158.459 43.0001 159.329 41.9401 159.969 40.5801L160.379 39.6901L161.569 40.2001Z" fill="white"/>
<path d="M180.359 46.0801C180.009 46.6001 179.709 46.9801 179.439 47.2301C178.629 47.9901 177.689 48.3801 176.629 48.3801C175.889 48.3801 175.259 48.1701 174.739 47.7501C174.219 47.3301 173.829 46.7401 173.559 45.9701L172.669 46.6701C171.949 47.2601 171.279 47.6901 170.639 47.9601C169.999 48.2301 169.259 48.3701 168.419 48.3701C167.139 48.3701 166.039 47.9101 165.129 47.0001C164.219 46.0901 163.759 44.9701 163.759 43.6601C163.759 41.9301 164.629 40.3501 166.389 38.9201C167.919 37.6601 169.849 36.7001 172.199 36.0301L173.199 35.7301V34.1001C173.199 33.1401 172.879 32.3001 172.239 31.5801C171.939 31.2301 171.449 30.9401 170.759 30.6901C170.539 30.6201 170.229 30.5301 169.839 30.4301C169.889 30.9201 169.669 31.4801 169.169 32.0901C168.579 32.8301 167.849 33.2001 166.989 33.2001C166.369 33.2001 165.849 33.0201 165.419 32.6601C164.989 32.3001 164.769 31.8201 164.769 31.2001C164.769 30.4601 165.079 29.9101 165.709 29.5401C166.339 29.1701 167.149 28.9901 168.129 28.9901C170.689 28.9901 172.809 29.5401 174.489 30.6501C176.309 31.8601 177.229 33.5201 177.229 35.6401V44.2901C177.229 44.7301 177.339 45.1201 177.559 45.4401C177.779 45.7601 178.089 45.9201 178.479 45.9201C178.749 45.9201 179.069 45.7601 179.439 45.4401C179.489 45.3901 179.579 45.3001 179.699 45.1801L180.359 46.0801ZM173.329 44.3701V37.1601L172.589 37.3101C171.209 37.6601 170.059 38.3401 169.129 39.3501C168.209 40.3701 167.739 41.4501 167.739 42.6201C167.739 43.4601 168.019 44.1901 168.589 44.8101C169.159 45.4301 169.849 45.7401 170.659 45.7401C171.179 45.7401 171.689 45.5901 172.189 45.2901C172.709 45.0001 173.079 44.6901 173.329 44.3701Z" fill="white"/>
<path d="M190.339 47.6701H181.869V46.3801L183.939 46.1201V24.2901C183.939 24.0201 183.939 23.8201 183.939 23.7001C183.939 23.5001 183.939 23.3101 183.939 23.1101C183.889 22.7701 183.739 22.4901 183.479 22.2801C183.219 22.0701 182.839 21.9701 182.349 21.9701C181.879 21.9701 181.599 21.9901 181.499 22.0401V20.7401L188.119 18.2201V46.1101L190.339 46.3701V47.6701Z" fill="white"/>
<path d="M207.57 41.1201L205.72 48.0401L204.76 47.8201C204.49 47.7501 204.3 47.7101 204.21 47.7101C204.06 47.6901 203.86 47.6701 203.62 47.6701H192.6V46.4501L202.73 30.9501H200.92C200.13 30.9501 199.46 31.0701 198.9 31.3201C198.35 31.5701 197.75 31.9701 197.11 32.5401C196.57 33.0301 195.99 33.7701 195.37 34.7601C195.17 35.0801 194.91 35.5501 194.59 36.1701L193.37 35.7601L194.96 29.3601L195.81 29.6601H196.62H207.46V30.8801L197.33 46.3701H199.07C199.98 46.3701 200.75 46.2401 201.38 45.9701C202.01 45.7001 202.73 45.2401 203.54 44.5701C204.16 44.0801 204.82 43.3101 205.54 42.2601C205.76 41.9201 206.06 41.4301 206.43 40.7901L207.57 41.1201Z" fill="white"/>
<path d="M226.399 46.0801C226.049 46.6001 225.749 46.9801 225.479 47.2301C224.669 47.9901 223.729 48.3801 222.669 48.3801C221.929 48.3801 221.299 48.1701 220.779 47.7501C220.259 47.3301 219.869 46.7401 219.599 45.9701L218.709 46.6701C217.989 47.2601 217.319 47.6901 216.679 47.9601C216.039 48.2301 215.299 48.3701 214.459 48.3701C213.179 48.3701 212.079 47.9101 211.169 47.0001C210.259 46.0901 209.799 44.9701 209.799 43.6601C209.799 41.9301 210.669 40.3501 212.429 38.9201C213.959 37.6601 215.889 36.7001 218.239 36.0301L219.239 35.7301V34.1001C219.239 33.1401 218.919 32.3001 218.279 31.5801C217.979 31.2301 217.489 30.9401 216.799 30.6901C216.579 30.6201 216.269 30.5301 215.879 30.4301C215.929 30.9201 215.709 31.4801 215.209 32.0901C214.619 32.8301 213.889 33.2001 213.029 33.2001C212.409 33.2001 211.889 33.0201 211.459 32.6601C211.029 32.3001 210.809 31.8201 210.809 31.2001C210.809 30.4601 211.119 29.9101 211.749 29.5401C212.379 29.1701 213.189 28.9901 214.169 28.9901C216.729 28.9901 218.849 29.5401 220.529 30.6501C222.349 31.8601 223.269 33.5201 223.269 35.6401V44.2901C223.269 44.7301 223.379 45.1201 223.599 45.4401C223.819 45.7601 224.129 45.9201 224.519 45.9201C224.789 45.9201 225.109 45.7601 225.479 45.4401C225.529 45.3901 225.619 45.3001 225.739 45.1801L226.399 46.0801ZM219.369 44.3701V37.1601L218.629 37.3101C217.249 37.6601 216.099 38.3401 215.169 39.3501C214.249 40.3701 213.779 41.4501 213.779 42.6201C213.779 43.4601 214.059 44.1901 214.629 44.8101C215.199 45.4301 215.889 45.7401 216.699 45.7401C217.219 45.7401 217.729 45.5901 218.229 45.2901C218.749 45.0001 219.119 44.6901 219.369 44.3701Z" fill="white"/>
<path d="M245.7 46.7401L241.08 48.3701C240.93 48.1501 240.77 47.8601 240.6 47.5201C240.43 47.1801 240.33 46.9801 240.3 46.9301C240.2 46.7101 240.11 46.4601 240.02 46.1901C239.93 45.9201 239.85 45.5701 239.78 45.1501L239.04 46.0501C237.91 47.5201 236.43 48.2601 234.6 48.2601C232.55 48.2601 230.91 47.3101 229.68 45.4101C228.57 43.7101 228.02 41.6601 228.02 39.2601C228.02 36.5901 228.66 34.2701 229.95 32.2901C231.38 30.0701 233.28 28.9601 235.63 28.9601C236.4 28.9601 237.05 29.0301 237.58 29.1701C238.11 29.3101 238.74 29.5601 239.45 29.9201V23.7201C239.45 23.0401 239.17 22.5401 238.62 22.2201C238.42 22.1001 238.13 22.0401 237.76 22.0401C237.58 22.0401 237.41 22.0401 237.23 22.0401C237.18 22.0401 237.1 22.0401 237 22.0401V20.7401L243.55 18.7001V42.7101C243.55 43.3501 243.61 43.8801 243.73 44.3001C243.85 44.7201 244.12 45.0501 244.53 45.2801C244.94 45.5101 245.33 45.6301 245.7 45.6301V46.7401ZM239.45 43.4401V32.4801C239.15 32.0801 238.87 31.6901 238.6 31.2901C237.88 30.6001 237 30.2501 235.94 30.2501C234.53 30.2501 233.5 31.0401 232.83 32.6301C232.31 33.8701 232.05 35.4701 232.05 37.4201C232.05 39.4501 232.41 41.2001 233.12 42.6601C233.98 44.4201 235.24 45.3001 236.89 45.3001C237.63 45.3001 238.26 45.0201 238.78 44.4501C239.2 43.8301 239.42 43.4901 239.45 43.4401Z" fill="white"/>
<path d="M264.039 46.0801C263.689 46.6001 263.389 46.9801 263.119 47.2301C262.309 47.9901 261.369 48.3801 260.309 48.3801C259.569 48.3801 258.939 48.1701 258.419 47.7501C257.899 47.3301 257.509 46.7401 257.239 45.9701L256.349 46.6701C255.629 47.2601 254.959 47.6901 254.319 47.9601C253.679 48.2301 252.939 48.3701 252.099 48.3701C250.819 48.3701 249.719 47.9101 248.809 47.0001C247.899 46.0901 247.439 44.9701 247.439 43.6601C247.439 41.9301 248.309 40.3501 250.069 38.9201C251.599 37.6601 253.529 36.7001 255.879 36.0301L256.879 35.7301V34.1001C256.879 33.1401 256.559 32.3001 255.919 31.5801C255.619 31.2301 255.129 30.9401 254.439 30.6901C254.219 30.6201 253.909 30.5301 253.519 30.4301C253.569 30.9201 253.349 31.4801 252.849 32.0901C252.259 32.8301 251.529 33.2001 250.669 33.2001C250.049 33.2001 249.529 33.0201 249.099 32.6601C248.669 32.3001 248.449 31.8201 248.449 31.2001C248.449 30.4601 248.759 29.9101 249.389 29.5401C250.019 29.1701 250.829 28.9901 251.809 28.9901C254.369 28.9901 256.489 29.5401 258.169 30.6501C259.989 31.8601 260.909 33.5201 260.909 35.6401V44.2901C260.909 44.7301 261.019 45.1201 261.239 45.4401C261.459 45.7601 261.769 45.9201 262.159 45.9201C262.429 45.9201 262.749 45.7601 263.119 45.4401C263.169 45.3901 263.259 45.3001 263.379 45.1801L264.039 46.0801ZM257.019 44.3701V37.1601L256.279 37.3101C254.899 37.6601 253.749 38.3401 252.819 39.3501C251.899 40.3701 251.429 41.4501 251.429 42.6201C251.429 43.4601 251.709 44.1901 252.279 44.8101C252.849 45.4301 253.539 45.7401 254.349 45.7401C254.869 45.7401 255.379 45.5901 255.879 45.2901C256.389 45.0001 256.769 44.6901 257.019 44.3701Z" fill="white"/>
</g>
<defs>
<clipPath id="clip0">
<rect width="264.04" height="75.67" fill="white"/>
</clipPath>
</defs>
</svg>
