<svg width="307" height="238" viewBox="0 0 307 238" fill="none" xmlns="http://www.w3.org/2000/svg">
<path d="M205.975 180.592C205.953 180.524 205.953 180.457 205.93 180.389C205.908 180.254 205.863 180.096 205.818 179.961C205.796 179.893 205.773 179.803 205.728 179.736C205.683 179.623 205.638 179.488 205.571 179.375C205.526 179.308 205.504 179.218 205.459 179.15C205.391 179.037 205.324 178.925 205.234 178.812C205.189 178.744 205.144 178.677 205.099 178.632C205.009 178.519 204.897 178.407 204.807 178.294C204.762 178.249 204.74 178.204 204.695 178.159C204.538 178.024 204.38 177.888 204.201 177.776C204.156 177.753 204.111 177.731 204.066 177.686C203.954 177.618 203.841 177.55 203.729 177.483L203.684 177.46C203.459 177.348 203.212 177.258 202.965 177.168H202.943L153.006 157.613C152.804 157.501 152.579 157.411 152.355 157.343C151.658 157.095 150.895 156.938 150.086 156.938C149.974 156.938 149.884 156.96 149.771 156.96C149.659 156.96 149.569 156.938 149.457 156.938C148.671 156.938 147.884 157.073 147.188 157.343C146.963 157.411 146.761 157.523 146.537 157.613L120.524 167.841V160.362C120.524 158.514 118.996 157.005 117.087 157.005H107.248C105.361 157.005 103.811 158.514 103.811 160.362V174.374L96.5775 177.213H96.5551C96.308 177.303 96.0833 177.393 95.8362 177.505L95.7913 177.528C95.679 177.596 95.5667 177.663 95.4543 177.731C95.4094 177.753 95.3645 177.776 95.3196 177.821C95.1398 177.933 94.9826 178.069 94.8254 178.204C94.7804 178.249 94.758 178.294 94.713 178.339C94.6007 178.452 94.5109 178.564 94.421 178.677C94.3761 178.744 94.3312 178.812 94.2862 178.857C94.2188 178.97 94.129 179.06 94.0841 179.195C94.0391 179.263 93.9942 179.33 93.9717 179.42C93.9043 179.533 93.8594 179.646 93.8145 179.781C93.792 179.848 93.7471 179.916 93.7246 180.006C93.6797 180.141 93.6572 180.276 93.6123 180.434C93.5899 180.502 93.5899 180.569 93.5674 180.637C93.5225 180.817 93.5 181.02 93.5 181.245V224.521C93.5 226.841 95.4319 228.734 97.7906 228.734H201.73C204.111 228.734 206.02 226.841 206.02 224.521V181.245C206.043 181.02 206.02 180.817 205.975 180.592Z" fill="white"/>
<path d="M211.995 222.449C212.557 222.449 213.141 222.606 213.725 222.899C214.309 223.215 214.713 223.62 215.028 224.183C215.365 224.747 215.522 225.332 215.522 225.941C215.522 226.549 215.365 227.157 215.073 227.698C214.736 228.261 214.309 228.689 213.747 229.027C213.208 229.32 212.647 229.477 212.018 229.477C211.411 229.477 210.805 229.32 210.266 229.027C209.682 228.689 209.277 228.261 208.94 227.698C208.626 227.18 208.469 226.549 208.469 225.941C208.469 225.332 208.626 224.769 208.963 224.183C209.277 223.62 209.682 223.192 210.266 222.899C210.805 222.606 211.389 222.449 211.995 222.449ZM211.995 223.034C211.501 223.034 211.007 223.192 210.535 223.417C210.041 223.688 209.704 224.071 209.434 224.521C209.165 224.972 209.008 225.467 209.008 225.963C209.008 226.504 209.165 226.954 209.434 227.45C209.659 227.9 210.041 228.238 210.513 228.509C210.962 228.779 211.456 228.892 211.995 228.892C212.489 228.892 212.984 228.779 213.455 228.509C213.905 228.238 214.309 227.9 214.511 227.45C214.781 226.954 214.893 226.504 214.893 225.963C214.893 225.467 214.781 224.972 214.511 224.521C214.242 224.071 213.905 223.688 213.411 223.417C212.939 223.17 212.445 223.034 211.995 223.034ZM210.423 227.9V224.138H211.726C212.175 224.138 212.489 224.183 212.669 224.251C212.894 224.319 213.051 224.431 213.163 224.589C213.276 224.769 213.366 224.972 213.366 225.152C213.366 225.422 213.253 225.693 213.051 225.873C212.871 226.053 212.602 226.166 212.242 226.211C212.4 226.278 212.512 226.324 212.579 226.391C212.737 226.549 212.916 226.819 213.118 227.157L213.59 227.878H212.871L212.534 227.315C212.265 226.864 212.063 226.549 211.883 226.436C211.771 226.324 211.613 226.278 211.389 226.278H211.052V227.878H210.423V227.9ZM211.029 225.805H211.793C212.13 225.805 212.377 225.738 212.512 225.625C212.624 225.558 212.692 225.4 212.692 225.197C212.692 225.084 212.647 225.017 212.579 224.882C212.534 224.814 212.422 224.724 212.31 224.702C212.197 224.656 211.995 224.656 211.703 224.656H211.007V225.805H211.029Z" fill="white"/>
<path d="M120.77 201.701C120.119 202.422 118.748 203.503 116.367 203.503C114.997 203.503 113.784 203.165 112.728 202.287C110.931 200.8 110.796 198.705 110.796 197.961C110.796 197.308 110.864 195.866 111.897 194.447C113.379 192.397 115.424 192.262 116.367 192.262C118.816 192.262 120.276 193.523 120.882 194.177C121.197 194.537 121.354 194.785 121.579 195.19L118.726 196.565C118.681 196.452 118.613 196.362 118.569 196.249C118.389 195.889 117.85 194.807 116.479 194.807C115.85 194.807 115.469 195.033 115.244 195.19C114.166 195.956 114.233 197.488 114.233 197.759C114.233 199.2 114.705 199.989 115.221 200.394C115.761 200.8 116.232 200.8 116.502 200.8C117.67 200.8 118.232 200.034 118.434 199.673C118.501 199.516 118.569 199.381 118.681 199.088L121.601 200.462C121.219 201.138 121.017 201.408 120.77 201.701Z" fill="#1A2C4C"/>
<path d="M129.039 195.618L127.87 199.335H130.184L129.039 195.618ZM131.352 203.165L130.881 201.7H127.129L126.657 203.165H122.996L127.107 192.622H130.97L134.991 203.165H131.352Z" fill="#1A2C4C"/>
<path d="M145.257 202.512C143.864 203.503 142.045 203.48 141.596 203.48C140.023 203.48 138.541 203.233 137.26 202.286C136.766 201.926 136.474 201.611 136.115 201.16L138.72 199.538C138.945 199.899 139.08 200.056 139.237 200.191C139.843 200.71 140.967 200.935 141.73 200.935C142.696 200.935 143.37 200.642 143.37 200.124C143.37 200.011 143.303 199.921 143.303 199.876C143.235 199.718 143.101 199.583 142.786 199.493C142.404 199.358 141.708 199.268 140.764 199.088C139.282 198.795 138.496 198.457 137.979 198.006C137.642 197.713 137.036 197.015 137.058 195.866C137.058 195.573 137.08 194.942 137.462 194.267C138.563 192.284 141.416 192.329 141.82 192.329C142.359 192.329 144.314 192.352 145.841 193.456C146.178 193.703 146.38 193.906 146.672 194.176L144.516 195.911C144.381 195.731 144.314 195.641 144.201 195.573C143.572 195.01 142.494 194.852 141.685 194.852C141.618 194.852 141.191 194.852 140.877 194.987C140.809 195.01 140.45 195.19 140.45 195.551C140.45 195.753 140.562 195.934 140.72 196.024C140.989 196.181 141.641 196.317 141.933 196.362C142.314 196.429 143.325 196.564 144.381 196.902C145.055 197.105 146.717 197.691 146.717 199.786C146.672 201.318 145.729 202.174 145.257 202.512Z" fill="#1A2C4C"/>
<path d="M152.423 192.622H149.009V203.165H152.423V192.622Z" fill="#1A2C4C"/>
<path d="M160.465 195.235V203.165H157.05V195.235H154.31V192.622H163.183V195.235H160.465Z" fill="#1A2C4C"/>
<path d="M169.562 195.618L168.394 199.335H170.707L169.562 195.618ZM171.876 203.165L171.404 201.7H167.652L167.181 203.165H163.519L167.63 192.622H171.494L175.515 203.165H171.876Z" fill="#1A2C4C"/>
<path d="M186.096 202.512C184.703 203.503 182.883 203.48 182.434 203.48C180.862 203.48 179.379 203.233 178.099 202.286C177.604 201.926 177.312 201.611 176.953 201.16L179.559 199.538C179.783 199.899 179.918 200.056 180.075 200.191C180.682 200.71 181.805 200.935 182.569 200.935C183.535 200.935 184.209 200.642 184.209 200.124C184.209 200.011 184.141 199.921 184.141 199.876C184.074 199.718 183.939 199.583 183.625 199.493C183.243 199.358 182.569 199.268 181.603 199.088C180.12 198.795 179.334 198.457 178.817 198.006C178.48 197.713 177.874 197.015 177.896 195.866C177.896 195.573 177.919 194.942 178.301 194.267C179.401 192.284 182.254 192.329 182.659 192.329C183.198 192.329 185.152 192.352 186.68 193.456C187.017 193.703 187.219 193.906 187.511 194.176L185.354 195.911C185.219 195.731 185.13 195.641 185.04 195.573C184.411 195.01 183.333 194.852 182.524 194.852C182.456 194.852 182.03 194.852 181.715 194.987C181.648 195.01 181.288 195.19 181.288 195.551C181.288 195.753 181.401 195.934 181.558 196.024C181.827 196.181 182.479 196.317 182.771 196.362C183.153 196.429 184.164 196.564 185.219 196.902C185.893 197.105 187.556 197.691 187.556 199.786C187.511 201.318 186.567 202.174 186.096 202.512Z" fill="#1A2C4C"/>
<path d="M140.719 183.205V185.435C140.472 185.638 140.157 185.796 139.798 185.931C139.416 186.066 139.012 186.133 138.585 186.133C138.181 186.133 137.821 186.066 137.507 185.953C137.192 185.818 136.945 185.66 136.743 185.435C136.541 185.21 136.384 184.94 136.294 184.624C136.181 184.309 136.136 183.971 136.136 183.588C136.136 183.182 136.181 182.822 136.294 182.484C136.406 182.169 136.563 181.898 136.765 181.673C136.968 181.448 137.215 181.29 137.529 181.155C137.821 181.042 138.181 180.975 138.563 180.975C138.9 180.975 139.192 181.02 139.439 181.11C139.686 181.2 139.888 181.313 140.068 181.47C140.247 181.605 140.382 181.786 140.472 181.966C140.562 182.169 140.629 182.371 140.674 182.574L139.326 182.709C139.281 182.507 139.192 182.349 139.057 182.259C138.944 182.169 138.765 182.101 138.54 182.101C138.181 182.101 137.934 182.214 137.776 182.461C137.619 182.709 137.529 183.07 137.529 183.565C137.529 184.061 137.619 184.421 137.799 184.669C137.978 184.917 138.293 185.03 138.697 185.03C138.989 185.03 139.259 184.962 139.484 184.849V184.286H138.697V183.227H140.719V183.205Z" fill="#1A2C4C"/>
<path d="M144.29 183.295C144.56 183.295 144.762 183.25 144.852 183.137C144.964 183.025 145.009 182.89 145.009 182.687C145.009 182.507 144.941 182.371 144.829 182.259C144.717 182.146 144.515 182.101 144.223 182.101H143.616V183.273H144.29V183.295ZM146.155 183.475C146.02 183.723 145.84 183.903 145.593 184.061L146.626 186.021H145.211L144.38 184.331H143.661V186.021H142.381V181.11H144.357C144.739 181.11 145.076 181.155 145.323 181.245C145.57 181.335 145.773 181.448 145.93 181.583C146.087 181.718 146.199 181.898 146.244 182.079C146.312 182.259 146.334 182.462 146.334 182.664C146.334 182.98 146.267 183.25 146.155 183.475Z" fill="#1A2C4C"/>
<path d="M149.052 185.998C148.782 185.908 148.558 185.796 148.378 185.615C148.198 185.435 148.064 185.21 147.974 184.94C147.884 184.669 147.839 184.331 147.839 183.971V181.11H149.187V184.038C149.187 184.376 149.232 184.602 149.366 184.782C149.479 184.94 149.681 185.03 149.973 185.03C150.265 185.03 150.445 184.962 150.557 184.782C150.669 184.624 150.737 184.376 150.737 184.038V181.11H152.084V183.971C152.084 184.354 152.04 184.669 151.927 184.94C151.815 185.21 151.68 185.435 151.5 185.615C151.321 185.796 151.096 185.908 150.827 185.998C150.557 186.089 150.265 186.134 149.928 186.134C149.613 186.134 149.321 186.089 149.052 185.998Z" fill="#1A2C4C"/>
<path d="M155.635 183.363C155.927 183.363 156.106 183.318 156.219 183.205C156.331 183.115 156.376 182.957 156.376 182.754C156.376 182.552 156.309 182.394 156.196 182.304C156.084 182.214 155.882 182.146 155.612 182.146H155.051V183.363H155.635ZM155.635 181.11C156.017 181.11 156.354 181.155 156.601 181.245C156.87 181.335 157.072 181.448 157.207 181.605C157.342 181.763 157.477 181.921 157.522 182.124C157.567 182.326 157.612 182.529 157.612 182.754C157.612 182.98 157.589 183.205 157.522 183.408C157.454 183.61 157.342 183.791 157.185 183.948C157.027 184.106 156.825 184.219 156.578 184.309C156.331 184.399 155.994 184.444 155.635 184.444H155.051V186.043H153.748V181.132H155.635V181.11Z" fill="#1A2C4C"/>
<path d="M160.622 184.624C160.802 184.872 161.071 184.985 161.431 184.985C161.79 184.985 162.06 184.872 162.239 184.624C162.419 184.377 162.509 184.016 162.509 183.543C162.509 183.07 162.419 182.71 162.239 182.462C162.06 182.214 161.79 182.101 161.431 182.101C161.071 182.101 160.802 182.214 160.622 182.462C160.442 182.71 160.352 183.07 160.352 183.543C160.352 184.039 160.442 184.377 160.622 184.624ZM162.487 181.155C162.779 181.268 163.048 181.448 163.25 181.673C163.452 181.899 163.61 182.169 163.722 182.484C163.834 182.8 163.879 183.16 163.879 183.543C163.879 183.949 163.834 184.309 163.722 184.624C163.61 184.94 163.452 185.21 163.25 185.435C163.048 185.661 162.779 185.841 162.464 185.954C162.15 186.066 161.79 186.134 161.408 186.134C161.026 186.134 160.667 186.066 160.352 185.954C160.038 185.841 159.791 185.661 159.589 185.458C159.387 185.233 159.229 184.962 159.117 184.647C159.005 184.332 158.96 183.971 158.96 183.588C158.96 183.183 159.005 182.822 159.117 182.507C159.229 182.191 159.387 181.921 159.589 181.696C159.791 181.471 160.06 181.29 160.375 181.178C160.689 181.065 161.026 180.997 161.431 180.997C161.835 180.975 162.172 181.043 162.487 181.155Z" fill="#1A2C4C"/>
<path d="M122.726 213.663C123.13 213.663 123.444 213.551 123.624 213.303C123.826 213.077 123.916 212.74 123.916 212.311C123.916 211.883 123.826 211.546 123.647 211.32C123.467 211.095 123.175 210.982 122.793 210.982H122.164V213.663H122.726ZM120.794 209.856H122.771C123.602 209.856 124.231 210.059 124.657 210.464C125.084 210.87 125.286 211.455 125.286 212.244C125.286 213.055 125.062 213.663 124.613 214.091C124.163 214.519 123.512 214.744 122.681 214.744H120.794V209.856Z" fill="#1A2C4C"/>
<path d="M130.43 209.856V210.937H128.161V211.726H130.295V212.807H128.161V213.686H130.565L130.453 214.767H126.836V209.856H130.43Z" fill="#1A2C4C"/>
<path d="M133.372 213.663C133.507 213.776 133.731 213.843 134.001 213.843C134.248 213.843 134.428 213.798 134.54 213.708C134.652 213.618 134.72 213.505 134.72 213.348C134.72 213.235 134.675 213.145 134.607 213.055C134.54 212.987 134.383 212.92 134.18 212.875L133.507 212.762C132.945 212.649 132.541 212.492 132.271 212.244C132.001 211.996 131.867 211.681 131.867 211.253C131.867 210.734 132.046 210.351 132.406 210.104C132.765 209.856 133.259 209.721 133.888 209.721C134.248 209.721 134.562 209.766 134.832 209.833C135.079 209.923 135.304 210.036 135.461 210.171C135.618 210.306 135.753 210.464 135.82 210.644C135.91 210.825 135.955 211.027 135.978 211.208L134.675 211.343C134.63 211.14 134.562 211.005 134.428 210.915C134.315 210.825 134.113 210.757 133.866 210.757C133.641 210.757 133.462 210.802 133.349 210.87C133.237 210.937 133.192 211.05 133.192 211.185C133.192 211.298 133.237 211.388 133.327 211.455C133.417 211.523 133.551 211.568 133.754 211.613L134.428 211.748C135.012 211.861 135.438 212.041 135.686 212.311C135.933 212.559 136.067 212.897 136.067 213.28C136.067 213.528 136.022 213.731 135.933 213.933C135.843 214.136 135.708 214.294 135.551 214.429C135.371 214.564 135.169 214.677 134.899 214.744C134.63 214.812 134.315 214.857 133.956 214.857C132.563 214.857 131.844 214.271 131.777 213.122H133.125C133.147 213.37 133.237 213.55 133.372 213.663Z" fill="#1A2C4C"/>
<path d="M140.112 212.785L139.595 211.095L139.079 212.785H140.112ZM142.134 214.767H140.741L140.449 213.821H138.764L138.472 214.767H137.124L138.854 209.856H140.381L142.134 214.767Z" fill="#1A2C4C"/>
<path d="M145.413 212.064C145.683 212.064 145.885 212.019 145.975 211.906C146.087 211.793 146.132 211.658 146.132 211.455C146.132 211.275 146.065 211.14 145.952 211.027C145.84 210.915 145.638 210.87 145.346 210.87H144.739V212.041H145.413V212.064ZM147.255 212.244C147.12 212.469 146.941 212.672 146.694 212.83L147.727 214.789H146.312L145.503 213.1H144.784V214.789H143.504V209.878H145.48C145.862 209.878 146.199 209.923 146.446 210.014C146.694 210.104 146.896 210.216 147.053 210.352C147.21 210.487 147.322 210.667 147.367 210.847C147.435 211.027 147.457 211.23 147.457 211.433C147.435 211.726 147.39 211.996 147.255 212.244Z" fill="#1A2C4C"/>
<path d="M150.985 212.064C151.255 212.064 151.457 212.019 151.547 211.906C151.659 211.793 151.704 211.658 151.704 211.455C151.704 211.275 151.637 211.14 151.524 211.027C151.412 210.915 151.21 210.87 150.918 210.87H150.311V212.041H150.985V212.064ZM152.827 212.244C152.693 212.469 152.513 212.672 152.266 212.83L153.299 214.789H151.884L151.053 213.1H150.311V214.789H149.031V209.878H151.008C151.39 209.878 151.727 209.923 151.974 210.014C152.221 210.104 152.445 210.216 152.58 210.352C152.738 210.487 152.827 210.667 152.895 210.847C152.962 211.027 152.985 211.23 152.985 211.433C153.007 211.726 152.962 211.996 152.827 212.244Z" fill="#1A2C4C"/>
<path d="M156.038 213.393C156.218 213.64 156.488 213.753 156.847 213.753C157.206 213.753 157.476 213.64 157.656 213.393C157.835 213.145 157.925 212.784 157.925 212.311C157.925 211.838 157.835 211.478 157.656 211.23C157.476 210.982 157.206 210.87 156.847 210.87C156.488 210.87 156.218 210.982 156.038 211.23C155.859 211.478 155.769 211.838 155.769 212.311C155.769 212.784 155.859 213.145 156.038 213.393ZM157.903 209.923C158.195 210.036 158.464 210.216 158.667 210.442C158.869 210.667 159.026 210.937 159.138 211.253C159.251 211.568 159.296 211.928 159.296 212.311C159.296 212.717 159.251 213.077 159.138 213.393C159.026 213.708 158.869 213.978 158.667 214.204C158.464 214.429 158.195 214.609 157.88 214.722C157.566 214.834 157.206 214.902 156.825 214.902C156.443 214.902 156.083 214.834 155.769 214.722C155.454 214.609 155.207 214.429 155.005 214.204C154.803 213.978 154.646 213.708 154.533 213.393C154.421 213.077 154.376 212.717 154.376 212.334C154.376 211.928 154.443 211.568 154.533 211.253C154.646 210.937 154.803 210.667 155.005 210.442C155.207 210.216 155.477 210.036 155.769 209.923C156.083 209.811 156.443 209.743 156.825 209.743C157.251 209.743 157.611 209.788 157.903 209.923Z" fill="#1A2C4C"/>
<path d="M162.216 209.856V213.641H164.418L164.306 214.767H160.869V209.856H162.216Z" fill="#1A2C4C"/>
<path d="M167.135 209.856V213.641H169.359L169.225 214.767H165.788V209.856H167.135Z" fill="#1A2C4C"/>
<path d="M172.214 213.393C172.393 213.64 172.663 213.753 173.022 213.753C173.382 213.753 173.651 213.64 173.831 213.393C174.011 213.145 174.101 212.784 174.101 212.311C174.101 211.838 174.011 211.478 173.831 211.23C173.651 210.982 173.382 210.87 173.022 210.87C172.663 210.87 172.393 210.982 172.214 211.23C172.034 211.478 171.944 211.838 171.944 212.311C171.944 212.784 172.034 213.145 172.214 213.393ZM174.078 209.923C174.37 210.036 174.64 210.216 174.842 210.442C175.044 210.667 175.201 210.937 175.314 211.253C175.426 211.568 175.471 211.928 175.471 212.311C175.471 212.717 175.426 213.077 175.314 213.393C175.201 213.708 175.044 213.978 174.842 214.204C174.64 214.429 174.37 214.609 174.056 214.722C173.741 214.834 173.404 214.902 173 214.902C172.618 214.902 172.259 214.834 171.944 214.722C171.652 214.609 171.382 214.429 171.18 214.204C170.978 213.978 170.821 213.708 170.709 213.393C170.596 213.077 170.551 212.717 170.551 212.334C170.551 211.928 170.596 211.568 170.709 211.253C170.821 210.937 170.978 210.667 171.18 210.442C171.382 210.216 171.652 210.036 171.966 209.923C172.281 209.811 172.618 209.743 173.022 209.743C173.427 209.743 173.764 209.788 174.078 209.923Z" fill="#1A2C4C"/>
<path d="M178.346 213.663C178.481 213.776 178.706 213.843 178.975 213.843C179.222 213.843 179.402 213.798 179.514 213.708C179.627 213.618 179.694 213.505 179.694 213.348C179.694 213.235 179.649 213.145 179.582 213.055C179.492 212.987 179.357 212.92 179.155 212.875L178.481 212.762C177.919 212.649 177.515 212.492 177.245 212.244C176.976 211.996 176.841 211.681 176.841 211.253C176.841 210.734 177.021 210.351 177.38 210.104C177.74 209.856 178.234 209.721 178.863 209.721C179.222 209.721 179.537 209.766 179.784 209.833C180.053 209.923 180.256 210.036 180.413 210.171C180.57 210.306 180.705 210.464 180.772 210.644C180.862 210.825 180.907 211.027 180.929 211.208L179.627 211.343C179.582 211.14 179.514 211.005 179.379 210.915C179.267 210.825 179.065 210.757 178.818 210.757C178.593 210.757 178.414 210.802 178.301 210.87C178.189 210.937 178.144 211.05 178.144 211.185C178.144 211.298 178.189 211.388 178.279 211.455C178.369 211.523 178.503 211.568 178.706 211.613L179.379 211.748C179.964 211.861 180.39 212.041 180.637 212.311C180.885 212.559 181.019 212.897 181.019 213.28C181.019 213.528 180.974 213.731 180.885 213.933C180.795 214.136 180.66 214.294 180.503 214.429C180.323 214.564 180.121 214.677 179.851 214.744C179.582 214.812 179.267 214.857 178.908 214.857C177.515 214.857 176.796 214.271 176.729 213.122H178.077C178.122 213.37 178.211 213.55 178.346 213.663Z" fill="#1A2C4C"/>
<path d="M104.732 134.703V139.456C104.732 140.199 104.867 140.763 105.136 141.123C105.406 141.484 105.855 141.664 106.507 141.664C107.136 141.664 107.585 141.484 107.855 141.123C108.102 140.74 108.236 140.199 108.236 139.456V134.703H109.584V139.456C109.584 140.064 109.517 140.582 109.36 141.01C109.202 141.438 109 141.776 108.731 142.047C108.439 142.317 108.124 142.52 107.742 142.632C107.383 142.768 106.956 142.813 106.484 142.813C105.473 142.813 104.71 142.542 104.193 142.002C103.654 141.461 103.407 140.605 103.407 139.411V134.703H104.732Z" fill="white"/>
<path d="M111.134 134.703H112.369L116.008 140.425V134.703H117.311V142.61H116.076L112.436 136.91V142.61H111.134V134.703Z" fill="white"/>
<path d="M121.444 134.703H124.185C124.791 134.703 125.263 134.77 125.667 134.905C126.049 135.041 126.364 135.221 126.588 135.446C126.813 135.671 126.97 135.919 127.06 136.212C127.15 136.505 127.195 136.798 127.195 137.136C127.195 137.474 127.15 137.789 127.06 138.104C126.97 138.42 126.813 138.69 126.588 138.915C126.364 139.141 126.049 139.343 125.667 139.479C125.285 139.614 124.791 139.681 124.23 139.681H122.792V142.61H121.467V134.703H121.444ZM124.185 138.555C124.522 138.555 124.791 138.532 125.016 138.465C125.24 138.397 125.398 138.307 125.532 138.172C125.667 138.059 125.735 137.902 125.802 137.744C125.847 137.564 125.869 137.383 125.869 137.158C125.869 136.933 125.847 136.753 125.802 136.572C125.757 136.415 125.667 136.28 125.532 136.167C125.398 136.054 125.24 135.964 125.016 135.919C124.791 135.874 124.522 135.829 124.185 135.829H122.792V138.555H124.185Z" fill="white"/>
<path d="M131.149 134.703C131.756 134.703 132.228 134.77 132.632 134.905C133.014 135.041 133.328 135.221 133.553 135.446C133.778 135.671 133.935 135.919 134.025 136.189C134.115 136.482 134.16 136.753 134.16 137.023C134.16 137.541 134.07 137.969 133.868 138.33C133.665 138.69 133.328 138.96 132.879 139.186L134.519 142.655H133.059L131.644 139.501C131.576 139.501 131.509 139.524 131.442 139.524C131.374 139.524 131.284 139.524 131.217 139.524H129.802V142.61H128.476V134.703H131.149ZM131.262 138.352C131.554 138.352 131.823 138.33 132.003 138.262C132.205 138.194 132.363 138.104 132.475 137.992C132.587 137.879 132.677 137.744 132.722 137.586C132.767 137.429 132.789 137.248 132.789 137.046C132.789 136.865 132.767 136.685 132.699 136.55C132.632 136.415 132.542 136.257 132.43 136.167C132.295 136.054 132.138 135.987 131.913 135.919C131.689 135.852 131.442 135.829 131.127 135.829H129.779V138.375H131.262V138.352Z" fill="white"/>
<path d="M138.855 142.813C138.294 142.813 137.777 142.723 137.328 142.52C136.879 142.317 136.474 142.069 136.16 141.709C135.845 141.348 135.598 140.92 135.418 140.402C135.239 139.884 135.149 139.298 135.149 138.645C135.149 137.992 135.239 137.406 135.418 136.888C135.598 136.37 135.845 135.942 136.16 135.581C136.474 135.221 136.879 134.951 137.328 134.748C137.8 134.59 138.316 134.5 138.855 134.5C139.417 134.5 139.934 134.59 140.383 134.793C140.832 134.973 141.237 135.266 141.551 135.604C141.866 135.964 142.113 136.392 142.292 136.91C142.472 137.429 142.562 138.014 142.562 138.668C142.562 139.321 142.472 139.907 142.315 140.425C142.135 140.943 141.91 141.371 141.574 141.731C141.259 142.092 140.877 142.362 140.428 142.542C139.979 142.723 139.439 142.813 138.855 142.813ZM138.855 141.664C139.619 141.664 140.181 141.394 140.585 140.853C140.989 140.312 141.169 139.591 141.169 138.645C141.169 138.172 141.124 137.767 141.012 137.384C140.922 137.023 140.765 136.708 140.585 136.437C140.405 136.19 140.158 135.987 139.866 135.829C139.574 135.671 139.237 135.626 138.855 135.626C138.474 135.626 138.137 135.694 137.845 135.829C137.553 135.964 137.305 136.167 137.126 136.437C136.924 136.708 136.789 137.001 136.699 137.384C136.609 137.767 136.564 138.172 136.564 138.645C136.564 139.569 136.766 140.312 137.148 140.853C137.508 141.394 138.092 141.664 138.855 141.664Z" fill="white"/>
<path d="M145.234 139.321L142.494 134.703H143.976L145.886 138.149L147.84 134.703H149.255L146.56 139.321V142.61H145.234V139.321Z" fill="white"/>
<path d="M150.221 134.703H155.477V135.852H151.569V137.969H155.275V139.118H151.569V141.461H155.702L155.545 142.61H150.243V134.703H150.221Z" fill="white"/>
<path d="M163.474 139.952C163.43 140.357 163.34 140.74 163.182 141.101C163.025 141.439 162.801 141.754 162.531 142.002C162.261 142.25 161.924 142.452 161.543 142.61C161.161 142.745 160.689 142.835 160.172 142.835C159.611 142.835 159.094 142.745 158.645 142.542C158.196 142.34 157.814 142.069 157.522 141.709C157.207 141.348 156.982 140.92 156.825 140.402C156.668 139.884 156.578 139.321 156.578 138.668C156.578 138.014 156.668 137.429 156.848 136.91C157.027 136.392 157.274 135.964 157.589 135.604C157.903 135.243 158.285 134.973 158.735 134.77C159.161 134.59 159.656 134.5 160.172 134.5C160.667 134.5 161.093 134.568 161.453 134.68C161.812 134.815 162.127 134.973 162.374 135.221C162.621 135.469 162.823 135.739 162.98 136.054C163.138 136.37 163.25 136.73 163.317 137.136L162.014 137.339C161.947 137.068 161.88 136.843 161.79 136.618C161.7 136.415 161.588 136.235 161.43 136.099C161.295 135.964 161.116 135.852 160.914 135.762C160.711 135.671 160.464 135.649 160.172 135.649C159.813 135.649 159.498 135.717 159.229 135.852C158.959 135.987 158.735 136.19 158.532 136.46C158.353 136.73 158.196 137.046 158.106 137.406C158.016 137.767 157.971 138.195 157.971 138.668C157.971 139.141 158.016 139.546 158.128 139.929C158.218 140.29 158.375 140.605 158.555 140.875C158.735 141.146 158.982 141.348 159.251 141.484C159.521 141.619 159.835 141.686 160.172 141.686C160.487 141.686 160.734 141.641 160.959 141.574C161.183 141.484 161.363 141.371 161.498 141.236C161.655 141.078 161.767 140.898 161.857 140.695C161.947 140.492 161.992 140.245 162.037 139.974H163.474V139.952Z" fill="white"/>
<path d="M166.596 135.852H164.103V134.703H170.438V135.852H167.944V142.61H166.596V135.852Z" fill="white"/>
<path d="M174.549 142.813C173.987 142.813 173.47 142.723 173.021 142.52C172.572 142.317 172.167 142.069 171.853 141.709C171.538 141.348 171.291 140.92 171.112 140.402C170.932 139.884 170.842 139.298 170.842 138.645C170.842 137.992 170.932 137.406 171.112 136.888C171.291 136.37 171.538 135.942 171.853 135.581C172.167 135.221 172.572 134.951 173.021 134.748C173.493 134.59 173.987 134.5 174.549 134.5C175.11 134.5 175.627 134.59 176.076 134.793C176.525 134.973 176.93 135.266 177.244 135.604C177.559 135.964 177.806 136.392 177.985 136.91C178.165 137.429 178.255 138.014 178.255 138.668C178.255 139.321 178.165 139.907 178.008 140.425C177.828 140.943 177.604 141.371 177.267 141.731C176.952 142.092 176.57 142.362 176.121 142.542C175.672 142.723 175.133 142.813 174.549 142.813ZM174.549 141.664C175.312 141.664 175.874 141.394 176.278 140.853C176.683 140.312 176.862 139.591 176.862 138.645C176.862 138.172 176.817 137.767 176.705 137.384C176.615 137.023 176.458 136.708 176.278 136.437C176.099 136.19 175.851 135.987 175.559 135.829C175.267 135.671 174.93 135.626 174.549 135.626C174.167 135.626 173.83 135.694 173.538 135.829C173.246 135.964 172.999 136.167 172.819 136.437C172.617 136.708 172.482 137.001 172.392 137.384C172.302 137.767 172.257 138.172 172.257 138.645C172.257 139.569 172.459 140.312 172.841 140.853C173.201 141.394 173.785 141.664 174.549 141.664Z" fill="white"/>
<path d="M184.971 134.703C185.555 134.703 186.072 134.793 186.544 134.95C187.015 135.108 187.397 135.356 187.734 135.671C188.071 135.987 188.296 136.415 188.475 136.888C188.655 137.383 188.745 137.947 188.745 138.622C188.745 139.276 188.655 139.862 188.475 140.357C188.296 140.853 188.004 141.258 187.667 141.596C187.33 141.934 186.903 142.182 186.409 142.362C185.915 142.542 185.33 142.61 184.701 142.61H182.118V134.703H184.971ZM184.746 141.461C185.218 141.461 185.6 141.393 185.937 141.258C186.274 141.123 186.544 140.943 186.746 140.695C186.948 140.447 187.105 140.154 187.195 139.794C187.285 139.456 187.33 139.051 187.33 138.622C187.33 137.744 187.15 137.068 186.768 136.572C186.386 136.077 185.825 135.852 184.971 135.852H183.444V141.461H184.746Z" fill="white"/>
<path d="M190.138 134.703H195.394V135.852H191.486V137.969H195.192V139.118H191.486V141.461H195.619L195.462 142.61H190.16V134.703H190.138Z" fill="white"/>
<path d="M198.023 136.843V138.375H196.675V136.843H198.023ZM198.023 141.078V142.61H196.675V141.078H198.023Z" fill="white"/>
<g clip-path="url(#clip0)">
<path d="M12.6632 81.5295C16.6008 88.6701 23.7015 90.8419 30.2242 91.3684C37.9248 91.9936 46.3781 90.6335 51.9081 83.2406C54.4496 79.8403 56.1511 75.42 57.4273 70.8789C60.0669 61.4349 60.8632 31.3807 56.8928 22.858C54.9731 18.7448 52.0936 15.6077 48.9631 13.2824C38.9501 5.86755 27.5082 7.30445 18.2478 16.0026C11.9651 21.9038 10.7544 29.1102 9.93632 39.0478C9.26006 47.0988 8.8783 74.6741 12.6632 81.5295Z" fill="white"/>
<path d="M48.3196 53.3618H49.3776V50.7513H48.3196C43.4113 50.7513 39.0701 53.2302 36.4523 57.0034V49.6325C41.0007 48.6782 46.738 44.0823 46.738 33.8047H44.142C44.142 42.7113 39.4955 46.0019 36.4523 46.9123V42.6125C39.0592 41.9325 40.5862 39.1135 40.5862 34.7809C40.5862 29.5488 37.0086 25.4575 32.4275 25.4575C28.3917 25.4575 20.0693 28.5836 20.0693 38.236C20.0693 46.9232 28.6535 49.5447 33.8563 49.797V50.6855V57.0034C31.2386 53.2302 26.8974 50.7513 21.989 50.7513H20.931V53.3618H21.989C28.1299 53.3618 33.191 58.0784 33.7909 64.1002C31.1731 60.3708 26.8647 57.9248 21.989 57.9248H20.931V60.5354H21.989C28.5335 60.5354 33.8563 65.8881 33.8563 72.4693V73.5332V75.6721H36.4523V73.5332V72.4693C36.4523 65.8881 41.7751 60.5354 48.3196 60.5354H49.3776V57.9248H48.3196C43.444 57.9248 39.1355 60.3708 36.5068 64.1002C37.1068 58.0784 42.1787 53.3618 48.3196 53.3618ZM22.6653 38.236C22.6653 29.7901 30.366 28.0681 32.4275 28.0681C35.547 28.0681 37.9903 31.0186 37.9903 34.7919C37.9903 36.0862 37.8157 38.7516 36.4414 39.7607C36.2996 37.1392 35.0889 34.057 32.8965 32.8614C31.5876 32.1374 30.126 32.2252 28.7844 33.0917C27.3555 34.0241 26.8101 35.779 27.3664 37.6766C28.0318 39.9471 30.2678 42.2506 33.8563 42.7003V47.1755C31.1513 46.9671 22.6653 45.7276 22.6653 38.236ZM33.8563 40.0678C31.6203 39.6839 30.2569 38.3128 29.8533 36.9527C29.766 36.6675 29.5479 35.7132 30.1914 35.2855C30.5296 35.0661 30.8132 34.9893 31.0531 34.9893C31.2931 34.9893 31.4894 35.0661 31.653 35.1538C32.831 35.79 33.7909 37.9618 33.8563 40.0678Z" fill="#EE4A7B"/>
<path d="M77.0607 70.166C76.7007 69.7711 76.3517 69.5079 76.0026 69.3762C75.6645 69.2446 75.3264 69.1788 74.9773 69.1788C74.4647 69.1788 74.0066 69.2666 73.5921 69.453C73.1776 69.6395 72.8177 69.8918 72.5232 70.2099C72.2287 70.5279 71.9996 70.9119 71.836 71.3396C71.6724 71.7674 71.596 72.2281 71.596 72.7327C71.596 73.2701 71.6724 73.7527 71.836 74.2025C71.9996 74.6522 72.2287 75.0361 72.5232 75.3651C72.8177 75.6942 73.1776 75.9465 73.5921 76.1329C74.0066 76.3194 74.4647 76.4181 74.9773 76.4181C75.3809 76.4181 75.7627 76.3194 76.1444 76.1329C76.5262 75.9465 76.8752 75.6394 77.2025 75.2116L78.6532 76.2536C78.206 76.8678 77.6606 77.3176 77.017 77.6027C76.3735 77.8879 75.6972 78.0196 74.9664 78.0196C74.2029 78.0196 73.5048 77.8989 72.8722 77.6466C72.2396 77.3943 71.6833 77.0433 71.2252 76.5936C70.7671 76.1439 70.4071 75.5955 70.1453 74.9593C69.8836 74.3231 69.7527 73.6211 69.7527 72.8423C69.7527 72.0526 69.8836 71.3287 70.1453 70.6705C70.4071 70.0234 70.7671 69.464 71.2252 69.0033C71.6833 68.5426 72.2287 68.1916 72.8722 67.9393C73.5048 67.6871 74.2029 67.5664 74.9664 67.5664C75.6318 67.5664 76.2535 67.6871 76.8316 67.9284C77.3988 68.1697 77.9333 68.5755 78.4241 69.1459L77.0607 70.166Z" fill="white"/>
<path d="M82.5798 67.8296H84.3359V77.7562H82.5798V67.8296Z" fill="white"/>
<path d="M97.1957 74.1146C97.1957 74.7179 97.0976 75.2554 96.8903 75.738C96.6831 76.2206 96.4104 76.6265 96.0505 76.9665C95.7014 77.3065 95.276 77.5588 94.7961 77.7453C94.3162 77.9317 93.7817 78.0195 93.2254 78.0195C92.6582 78.0195 92.1347 77.9317 91.6548 77.7453C91.1748 77.5588 90.7494 77.3065 90.3895 76.9665C90.0296 76.6265 89.7569 76.2206 89.5496 75.738C89.3533 75.2554 89.2551 74.7179 89.2551 74.1146V67.8296H91.0112V74.0598C91.0112 74.3011 91.0439 74.5534 91.1203 74.8276C91.1967 75.0909 91.3166 75.3431 91.4911 75.5625C91.6657 75.7819 91.8947 75.9683 92.1783 76.1109C92.4619 76.2535 92.8109 76.3303 93.2363 76.3303C93.6508 76.3303 94.0108 76.2535 94.2944 76.1109C94.578 75.9683 94.807 75.7819 94.9815 75.5625C95.1561 75.3431 95.276 75.0909 95.3524 74.8276C95.4287 74.5644 95.4615 74.3011 95.4615 74.0598V67.8296H97.2176V74.1146H97.1957Z" fill="white"/>
<path d="M102.148 67.8296H106.042C106.696 67.8296 107.318 67.9283 107.929 68.1367C108.529 68.3341 109.063 68.6413 109.532 69.0581C110.001 69.4749 110.372 69.9904 110.645 70.6047C110.928 71.2299 111.059 71.9538 111.059 72.7984C111.059 73.654 110.896 74.3889 110.579 75.0031C110.263 75.6283 109.849 76.1439 109.336 76.5497C108.834 76.9555 108.267 77.2627 107.645 77.4601C107.023 77.6575 106.424 77.7562 105.824 77.7562H102.137V67.8296H102.148ZM105.213 76.1658C105.758 76.1658 106.282 76.1 106.773 75.9793C107.263 75.8477 107.689 75.6612 108.049 75.387C108.409 75.1238 108.692 74.7728 108.91 74.345C109.118 73.9172 109.227 73.4017 109.227 72.7984C109.227 72.1951 109.129 71.6906 108.943 71.2518C108.758 70.824 108.496 70.473 108.169 70.2098C107.842 69.9465 107.449 69.7491 107.002 69.6175C106.554 69.4859 106.053 69.431 105.518 69.431H103.915V76.1658H105.213Z" fill="white"/>
<path d="M118.716 67.8296H120.232L124.486 77.7562H122.479L121.563 75.4857H117.287L116.393 77.7562H114.429L118.716 67.8296ZM120.941 73.972L119.425 69.9356L117.876 73.972H120.941Z" fill="white"/>
<path d="M128.38 67.8296H132.274C132.928 67.8296 133.55 67.9283 134.161 68.1367C134.761 68.3341 135.295 68.6413 135.764 69.0581C136.233 69.4749 136.604 69.9904 136.877 70.6047C137.161 71.2299 137.291 71.9538 137.291 72.7984C137.291 73.654 137.128 74.3889 136.811 75.0031C136.495 75.6283 136.081 76.1439 135.568 76.5497C135.066 76.9555 134.499 77.2627 133.877 77.4601C133.256 77.6575 132.656 77.7562 132.056 77.7562H128.369V67.8296H128.38ZM131.445 76.1658C131.99 76.1658 132.514 76.1 133.005 75.9793C133.496 75.8477 133.921 75.6612 134.281 75.387C134.641 75.1238 134.925 74.7728 135.143 74.345C135.35 73.9172 135.459 73.4017 135.459 72.7984C135.459 72.1951 135.361 71.6906 135.175 71.2518C134.99 70.824 134.728 70.473 134.401 70.2098C134.074 69.9465 133.681 69.7491 133.234 69.6175C132.787 69.4859 132.285 69.431 131.75 69.431H130.147V76.1658H131.445Z" fill="white"/>
<path d="M147.523 67.8296H149.541L152.235 75.3322L155.005 67.8296H156.903L152.911 77.7562H151.395L147.523 67.8296Z" fill="white"/>
<path d="M160.721 67.8296H162.477V77.7562H160.721V67.8296Z" fill="white"/>
<path d="M166.283 67.8296H168.301L170.995 75.3322L173.766 67.8296H175.664L171.672 77.7562H170.156L166.283 67.8296Z" fill="white"/>
<path d="M181.936 67.8296H183.452L187.706 77.7562H185.699L184.783 75.4857H180.507L179.613 77.7562H177.649L181.936 67.8296ZM184.172 73.972L182.656 69.9356L181.107 73.972H184.172Z" fill="white"/>
<path d="M93.5637 50.1151L91.5022 50.5209V57.2996L91.6222 58.561L91.6658 59.5372C91.1531 59.4275 90.8804 59.3727 90.8586 59.3727C90.6187 59.3727 90.4114 59.3727 90.2587 59.3727C89.8006 59.3727 88.6226 59.7127 86.7247 60.4037C84.8268 61.0947 82.9944 61.4348 81.2165 61.4348C77.3443 61.4348 74.1484 59.9101 71.6179 56.8608C69.251 53.998 68.073 50.6196 68.073 46.7038C68.073 42.5248 69.2292 38.8283 71.5416 35.6145C73.963 32.269 76.8753 30.6018 80.2893 30.6018C81.1183 30.6018 82.0236 30.6896 82.9944 30.876C83.9651 31.0515 84.9795 31.249 86.0594 31.4574C86.8338 31.4574 87.51 31.3806 88.0772 31.2161C88.5899 30.9967 88.9826 30.8541 89.2443 30.7663L91.3386 39.4864L89.8006 39.8484L89.2334 38.8832C88.0009 36.7333 86.8447 35.1538 85.7649 34.1666C84.3142 32.8504 82.6562 32.1923 80.802 32.1923C78.4132 32.1923 76.5263 33.4208 75.1519 35.8777C73.963 38.0057 73.374 40.5504 73.374 43.5229C73.374 47.5155 74.2466 51.0365 75.9918 54.0748C77.9551 57.497 80.5075 59.2081 83.6597 59.2081C84.6523 59.2081 85.274 59.1533 85.514 59.0436C85.754 58.9339 85.9612 58.8242 86.1139 58.7255V50.4442L83.7361 50.2467V48.8318H93.4546L93.5637 50.1151Z" fill="white"/>
<path d="M109.696 42.3713C109.696 43.183 109.401 43.8411 108.812 44.3566C108.223 44.8722 107.481 45.1244 106.598 45.1244C106.173 45.1244 105.627 45.0038 104.984 44.7734C104.875 44.7405 104.733 44.6747 104.536 44.5541C104.351 44.8831 104.198 45.1354 104.089 45.3219C103.762 45.9471 103.533 46.4846 103.38 46.9452C103.228 47.4059 103.108 47.8337 102.999 48.2396C102.704 49.4242 102.551 50.6417 102.551 51.8812V59.0876L104.885 59.4495V60.7877H95.7778V59.4057L97.9593 59.0766V48.9525C97.9593 48.0311 97.8393 47.0549 97.6211 46.0129C97.3921 44.9709 97.1412 44.2689 96.8794 43.885C96.7158 43.6437 96.4213 43.4682 95.9959 43.3804C95.5706 43.2817 95.3197 43.2378 95.2651 43.2378V41.9874L100.108 39.9253C100.533 40.7918 100.762 41.2635 100.795 41.3183C100.981 41.7242 101.144 42.2177 101.275 42.7991C101.406 43.3804 101.548 43.9727 101.701 44.587C101.853 45.1903 101.919 45.7935 101.919 46.3968L102.366 45.2561C102.933 43.8192 103.577 42.6784 104.307 41.8119C105.224 40.7589 106.194 40.2324 107.209 40.2324C108.201 40.2324 108.889 40.4518 109.27 40.8796C109.554 41.1867 109.696 41.6912 109.696 42.3713Z" fill="white"/>
<path d="M129.984 59.0436C129.602 59.6139 129.275 60.0307 128.98 60.305C128.097 61.1386 127.071 61.5664 125.915 61.5664C125.108 61.5664 124.421 61.336 123.854 60.8753C123.286 60.4147 122.861 59.7675 122.566 58.9229L121.596 59.6907C120.81 60.3379 120.08 60.8095 119.382 61.1057C118.683 61.4018 117.876 61.5554 116.96 61.5554C115.564 61.5554 114.364 61.0508 113.372 60.0527C112.379 59.0545 111.877 57.826 111.877 56.3891C111.877 54.4916 112.826 52.7585 114.746 51.19C116.415 49.8079 118.52 48.7549 121.083 48.02L122.174 47.691V45.9031C122.174 44.8501 121.825 43.9287 121.127 43.139C120.799 42.7551 120.265 42.437 119.512 42.1628C119.272 42.086 118.934 41.9873 118.509 41.8776C118.563 42.4151 118.323 43.0293 117.778 43.6984C117.135 44.5101 116.338 44.9159 115.4 44.9159C114.724 44.9159 114.157 44.7185 113.688 44.3236C113.219 43.9287 112.979 43.4022 112.979 42.7222C112.979 41.9105 113.317 41.3072 114.004 40.9014C114.691 40.4955 115.575 40.2981 116.644 40.2981C119.436 40.2981 121.748 40.9014 123.581 42.1189C125.566 43.4461 126.57 45.2669 126.57 47.5923V57.0802C126.57 57.5628 126.69 57.9906 126.929 58.3416C127.169 58.6926 127.508 58.8681 127.933 58.8681C128.227 58.8681 128.576 58.6926 128.98 58.3416C129.035 58.2867 129.133 58.188 129.264 58.0564L129.984 59.0436ZM122.327 57.1679V49.2595L121.519 49.424C120.014 49.8079 118.76 50.5538 117.745 51.6616C116.742 52.7804 116.229 53.9651 116.229 55.2484C116.229 56.1698 116.535 56.9705 117.156 57.6505C117.778 58.3306 118.531 58.6706 119.414 58.6706C119.981 58.6706 120.538 58.5061 121.083 58.177C121.639 57.8589 122.054 57.5189 122.327 57.1679Z" fill="white"/>
<path d="M151.079 60.7878H142.767V59.3728L144.785 59.0876V47.2414C144.785 46.2104 144.534 45.289 144.022 44.4664C143.509 43.6437 142.8 43.2269 141.884 43.2269C141.295 43.2269 140.738 43.3256 140.226 43.5121C139.713 43.6985 139.233 44.0276 138.775 44.4773L137.924 45.4097V59.0437L139.986 59.3289V60.7878H131.271V59.3289L133.452 59.0437V45.7278C133.452 45.1354 133.42 44.7077 133.354 44.4334C133.289 44.1592 133.081 43.885 132.732 43.5889C132.601 43.4572 132.394 43.3585 132.132 43.3037C131.86 43.2488 131.609 43.2269 131.369 43.2269C131.02 43.2269 130.813 43.2269 130.769 43.2269V41.9765L135.972 39.6401C136.485 40.1557 136.888 40.7589 137.183 41.439C137.368 41.8997 137.499 42.2726 137.564 42.5797C137.63 42.8759 137.663 43.2269 137.663 43.6327C137.903 43.0953 138.535 42.4262 139.56 41.6474C140.935 40.5944 142.244 40.0679 143.509 40.0679C145.145 40.0679 146.508 40.7041 147.599 41.9765C148.69 43.2488 149.235 44.7515 149.235 46.4736V59.0876L151.09 59.3728V60.7878H151.079Z" fill="white"/>
<path d="M185.732 52.5941L185.328 53.691C184.499 56.0712 183.125 57.9249 181.238 59.2631C179.34 60.6013 177.18 61.2704 174.759 61.2704C171.017 61.2704 168.018 59.8006 165.76 56.85C163.688 54.1517 162.651 50.7953 162.651 46.7917C162.651 42.492 163.731 38.7955 165.88 35.7133C168.214 32.3569 171.236 30.6787 174.911 30.6787C175.609 30.6787 176.973 30.8652 178.98 31.2491C179.809 31.4356 180.365 31.5014 180.638 31.4465C181.554 31.3149 182.11 31.2162 182.307 31.1613C182.503 31.1065 182.928 30.942 183.572 30.6787L185.59 39.5962L184.139 39.9253L183.615 38.993C182.35 36.7334 181.205 35.121 180.191 34.1448C178.762 32.7737 177.136 32.0827 175.315 32.0827C172.893 32.0827 170.996 33.3222 169.632 35.8121C168.443 37.9729 167.854 40.5505 167.854 43.545C167.854 47.2414 168.596 50.4333 170.068 53.0987C171.792 56.2028 174.115 57.7604 177.049 57.7604C178.587 57.7604 179.951 57.3436 181.139 56.499C182.339 55.6654 183.288 54.5027 183.986 53.0109L184.434 52.0347L185.732 52.5941Z" fill="white"/>
<path d="M206.227 59.0436C205.845 59.6139 205.518 60.0307 205.223 60.305C204.34 61.1386 203.314 61.5664 202.158 61.5664C201.351 61.5664 200.664 61.336 200.097 60.8753C199.53 60.4147 199.104 59.7675 198.81 58.9229L197.839 59.6907C197.054 60.3379 196.323 60.8095 195.625 61.1057C194.927 61.4018 194.119 61.5554 193.203 61.5554C191.807 61.5554 190.607 61.0508 189.615 60.0527C188.622 59.0545 188.12 57.826 188.12 56.3891C188.12 54.4916 189.069 52.7585 190.989 51.19C192.658 49.8079 194.763 48.7549 197.326 48.02L198.417 47.691V45.9031C198.417 44.8501 198.068 43.9287 197.37 43.139C197.043 42.7551 196.508 42.437 195.756 42.1628C195.516 42.086 195.177 41.9873 194.752 41.8776C194.807 42.4151 194.567 43.0293 194.021 43.6984C193.378 44.5101 192.582 44.9159 191.643 44.9159C190.967 44.9159 190.4 44.7185 189.931 44.3236C189.462 43.9287 189.222 43.4022 189.222 42.7222C189.222 41.9105 189.56 41.3072 190.247 40.9014C190.934 40.4955 191.818 40.2981 192.887 40.2981C195.679 40.2981 197.992 40.9014 199.824 42.1189C201.809 43.4461 202.813 45.2669 202.813 47.5923V57.0802C202.813 57.5628 202.933 57.9906 203.173 58.3416C203.413 58.6926 203.751 58.8681 204.176 58.8681C204.471 58.8681 204.82 58.6926 205.223 58.3416C205.278 58.2867 205.376 58.188 205.507 58.0564L206.227 59.0436ZM198.559 57.1679V49.2595L197.752 49.424C196.246 49.8079 194.992 50.5538 193.978 51.6616C192.974 52.7804 192.462 53.9651 192.462 55.2484C192.462 56.1698 192.767 56.9705 193.389 57.6505C194.01 58.3306 194.763 58.6706 195.646 58.6706C196.214 58.6706 196.77 58.5061 197.315 58.177C197.883 57.8589 198.286 57.5189 198.559 57.1679Z" fill="white"/>
<path d="M217.112 60.7876H207.874V59.3727L210.131 59.0875V35.1429C210.131 34.8467 210.131 34.6273 210.131 34.4957C210.131 34.2763 210.131 34.0679 210.131 33.8485C210.077 33.4756 209.913 33.1685 209.63 32.9381C209.346 32.7078 208.932 32.5981 208.397 32.5981C207.884 32.5981 207.579 32.6201 207.47 32.6749V31.249L214.691 28.4849V59.0765L217.112 59.3617V60.7876Z" fill="white"/>
<path d="M235.906 53.603L233.888 61.1934L232.841 60.952C232.546 60.8753 232.339 60.8314 232.241 60.8314C232.077 60.8094 231.859 60.7875 231.597 60.7875H219.577V59.4493L230.627 42.4479H228.652C227.791 42.4479 227.06 42.5795 226.449 42.8537C225.849 43.1279 225.195 43.5667 224.497 44.1919C223.908 44.7294 223.275 45.541 222.599 46.6269C222.381 46.9779 222.097 47.4935 221.748 48.1735L220.417 47.7238L222.152 40.7039L223.079 41.0329H223.962H235.786V42.3711L224.737 59.3616H226.635C227.627 59.3616 228.467 59.219 229.154 58.9228C229.841 58.6267 230.627 58.1221 231.51 57.3872C232.186 56.8498 232.906 56.0052 233.692 54.8535C233.932 54.4805 234.259 53.9431 234.662 53.2411L235.906 53.603Z" fill="white"/>
<path d="M256.444 59.0436C256.063 59.6139 255.735 60.0307 255.441 60.305C254.557 61.1386 253.532 61.5664 252.376 61.5664C251.569 61.5664 250.882 61.336 250.314 60.8753C249.747 60.4147 249.322 59.7675 249.027 58.9229L248.057 59.6907C247.271 60.3379 246.541 60.8095 245.842 61.1057C245.144 61.4018 244.337 61.5554 243.421 61.5554C242.025 61.5554 240.825 61.0508 239.832 60.0527C238.84 59.0545 238.338 57.826 238.338 56.3891C238.338 54.4916 239.287 52.7585 241.207 51.19C242.876 49.8079 244.981 48.7549 247.544 48.02L248.635 47.691V45.9031C248.635 44.8501 248.286 43.9287 247.588 43.139C247.26 42.7551 246.726 42.437 245.973 42.1628C245.733 42.086 245.395 41.9873 244.97 41.8776C245.024 42.4151 244.784 43.0293 244.239 43.6984C243.596 44.5101 242.799 44.9159 241.861 44.9159C241.185 44.9159 240.618 44.7185 240.149 44.3236C239.68 43.9287 239.44 43.4022 239.44 42.7222C239.44 41.9105 239.778 41.3072 240.465 40.9014C241.152 40.4955 242.036 40.2981 243.105 40.2981C245.897 40.2981 248.209 40.9014 250.042 42.1189C252.027 43.4461 253.03 45.2669 253.03 47.5923V57.0802C253.03 57.5628 253.15 57.9906 253.39 58.3416C253.63 58.6926 253.968 58.8681 254.394 58.8681C254.688 58.8681 255.037 58.6926 255.441 58.3416C255.496 58.2867 255.594 58.188 255.725 58.0564L256.444 59.0436ZM248.777 57.1679V49.2595L247.969 49.424C246.464 49.8079 245.21 50.5538 244.195 51.6616C243.192 52.7804 242.679 53.9651 242.679 55.2484C242.679 56.1698 242.985 56.9705 243.606 57.6505C244.228 58.3306 244.981 58.6706 245.864 58.6706C246.431 58.6706 246.988 58.5061 247.533 58.177C248.1 57.8589 248.504 57.5189 248.777 57.1679Z" fill="white"/>
<path d="M277.496 59.7677L272.457 61.5555C272.293 61.3142 272.118 60.9961 271.933 60.6232C271.748 60.2503 271.638 60.0309 271.606 59.9761C271.497 59.7347 271.399 59.4605 271.3 59.1644C271.202 58.8682 271.115 58.4843 271.039 58.0236L270.231 59.0108C268.999 60.6232 267.385 61.4349 265.389 61.4349C263.153 61.4349 261.364 60.3929 260.022 58.3088C258.811 56.4441 258.211 54.1956 258.211 51.5631C258.211 48.6344 258.909 46.0897 260.317 43.9179C261.876 41.4829 263.949 40.2653 266.512 40.2653C267.352 40.2653 268.061 40.3421 268.639 40.4957C269.217 40.6492 269.904 40.9235 270.679 41.3183V34.5178C270.679 33.7719 270.373 33.2234 269.773 32.8724C269.555 32.7408 269.239 32.675 268.835 32.675C268.639 32.675 268.454 32.675 268.257 32.675C268.203 32.675 268.115 32.675 268.006 32.675V31.2491L275.151 29.0115V55.3473C275.151 56.0493 275.216 56.6306 275.347 57.0913C275.478 57.552 275.772 57.9139 276.22 58.1662C276.667 58.4185 277.092 58.5501 277.496 58.5501V59.7677ZM270.679 56.148V44.1263C270.351 43.6876 270.046 43.2598 269.752 42.821C268.966 42.0642 268.006 41.6803 266.85 41.6803C265.312 41.6803 264.189 42.5468 263.458 44.2908C262.891 45.651 262.607 47.4059 262.607 49.5448C262.607 51.7715 263 53.691 263.774 55.2924C264.712 57.2229 266.087 58.1882 267.886 58.1882C268.693 58.1882 269.381 57.881 269.948 57.2558C270.406 56.5758 270.646 56.2028 270.679 56.148Z" fill="white"/>
<path d="M297.5 59.0436C297.118 59.6139 296.791 60.0307 296.496 60.305C295.613 61.1386 294.588 61.5664 293.431 61.5664C292.624 61.5664 291.937 61.336 291.37 60.8753C290.803 60.4147 290.377 59.7675 290.083 58.9229L289.112 59.6907C288.327 60.3379 287.596 60.8095 286.898 61.1057C286.2 61.4018 285.393 61.5554 284.476 61.5554C283.08 61.5554 281.88 61.0508 280.888 60.0527C279.895 59.0545 279.394 57.826 279.394 56.3891C279.394 54.4916 280.343 52.7585 282.262 51.19C283.931 49.8079 286.036 48.7549 288.599 48.02L289.69 47.691V45.9031C289.69 44.8501 289.341 43.9287 288.643 43.139C288.316 42.7551 287.781 42.437 287.029 42.1628C286.789 42.086 286.451 41.9873 286.025 41.8776C286.08 42.4151 285.84 43.0293 285.294 43.6984C284.651 44.5101 283.855 44.9159 282.917 44.9159C282.24 44.9159 281.673 44.7185 281.204 44.3236C280.735 43.9287 280.495 43.4022 280.495 42.7222C280.495 41.9105 280.833 41.3072 281.521 40.9014C282.208 40.4955 283.091 40.2981 284.16 40.2981C286.952 40.2981 289.265 40.9014 291.097 42.1189C293.082 43.4461 294.086 45.2669 294.086 47.5923V57.0802C294.086 57.5628 294.206 57.9906 294.446 58.3416C294.686 58.6926 295.024 58.8681 295.449 58.8681C295.744 58.8681 296.093 58.6926 296.496 58.3416C296.551 58.2867 296.649 58.188 296.78 58.0564L297.5 59.0436ZM289.843 57.1679V49.2595L289.036 49.424C287.53 49.8079 286.276 50.5538 285.262 51.6616C284.258 52.7804 283.746 53.9651 283.746 55.2484C283.746 56.1698 284.051 56.9705 284.673 57.6505C285.294 58.3306 286.047 58.6706 286.931 58.6706C287.498 58.6706 288.054 58.5061 288.599 58.177C289.156 57.8589 289.57 57.5189 289.843 57.1679Z" fill="white"/>
</g>
<defs>
<clipPath id="clip0">
<rect width="288" height="83" fill="white" transform="translate(9.5 8.5)"/>
</clipPath>
</defs>
</svg>
