<?xml version="1.0" encoding="UTF-8" standalone="no"?>
<svg
   width="49.965164"
   height="82.003159"
   viewBox="0 0 49.965164 82.003159"
   fill="none"
   version="1.1"
   id="svg55"
   sodipodi:docname="Logo-GranCalzada.svg"
   inkscape:version="1.1 (c68e22c387, 2021-05-23)"
   xmlns:inkscape="http://www.inkscape.org/namespaces/inkscape"
   xmlns:sodipodi="http://sodipodi.sourceforge.net/DTD/sodipodi-0.dtd"
   xmlns="http://www.w3.org/2000/svg"
   xmlns:svg="http://www.w3.org/2000/svg">
  <sodipodi:namedview
     id="namedview57"
     pagecolor="#ffffff"
     bordercolor="#999999"
     borderopacity="1"
     inkscape:pageshadow="0"
     inkscape:pageopacity="0"
     inkscape:pagecheckerboard="0"
     showgrid="false"
     fit-margin-top="0"
     fit-margin-left="0"
     fit-margin-right="0"
     fit-margin-bottom="0"
     inkscape:zoom="2.3606272"
     inkscape:cx="99.126199"
     inkscape:cy="35.371956"
     inkscape:window-width="1920"
     inkscape:window-height="1001"
     inkscape:window-x="-9"
     inkscape:window-y="-9"
     inkscape:window-maximized="1"
     inkscape:current-layer="svg55" />
  <g
     id="g164"
     transform="translate(-4.8796261e-4)">
    <path
       d="m 3.1522,72.1496 c 3.92391,7.0546 11,9.2003 17.5,9.7204 7.6739,0.6177 16.0978,-0.726 21.6087,-8.0299 2.5326,-3.3593 4.2283,-7.7264 5.5,-12.2127 C 50.3913,52.2971 51.1848,22.605 47.2283,14.1851 45.3152,10.1214 42.4457,7.02211 39.3261,4.72476 29.3479,-2.60073 17.9457,-1.18114 8.71742,7.41222 2.45655,13.2423 1.25003,20.3619 0.43481,30.1798 c -0.673913,7.954 -1.054348,35.197 2.71739,41.9698 z"
       fill="#ee4a7b"
       id="path2" />
    <path
       d="m 38.6849,44.3215 h 1.0543 v -2.579 h -1.0543 c -4.8913,0 -9.2174,2.449 -11.8261,6.1768 V 40.6371 C 31.3914,39.6943 37.1088,35.1538 37.1088,25 h -2.587 c 0,8.7993 -4.6304,12.0502 -7.663,12.9497 v -4.248 c 2.5978,-0.6718 4.1196,-3.4568 4.1196,-7.7372 0,-5.1691 -3.5653,-9.2111 -8.1305,-9.2111 -4.0217,0 -12.3152,3.0884 -12.3152,12.6246 0,8.5825 8.5544,11.1724 13.7391,11.4217 v 0.8777 6.2419 c -2.6087,-3.7278 -6.9347,-6.1768 -11.826,-6.1768 h -1.0544 v 2.579 h 1.0544 c 6.1195,0 11.163,4.6598 11.7608,10.609 -2.6087,-3.6844 -6.9021,-6.101 -11.7608,-6.101 h -1.0544 v 2.5791 h 1.0544 c 6.5217,0 11.826,5.2883 11.826,11.7902 v 1.0511 2.1131 h 2.587 v -2.1131 -1.0511 c 0,-6.5019 5.3043,-11.7902 11.8261,-11.7902 h 1.0543 v -2.5791 h -1.0543 c -4.8587,0 -9.1522,2.4166 -11.7718,6.101 0.5979,-5.9492 5.6522,-10.609 11.7718,-10.609 z M 13.1197,29.378 c 0,-8.3442 7.6739,-10.0455 9.7282,-10.0455 3.1087,0 5.5435,2.915 5.5435,6.6428 0,1.2787 -0.1739,3.912 -1.5435,4.9089 -0.1413,-2.5899 -1.3478,-5.6349 -3.5326,-6.8161 -1.3043,-0.7152 -2.7608,-0.6285 -4.0978,0.2275 -1.4239,0.9211 -1.9674,2.655 -1.413,4.5297 0.663,2.2432 2.8913,4.5188 6.4673,4.9631 v 4.4213 C 21.5762,38.0038 13.1197,36.7793 13.1197,29.378 Z m 11.1521,1.8097 c -2.2282,-0.3793 -3.5869,-1.7339 -3.9891,-3.0776 -0.0869,-0.2818 -0.3043,-1.2245 0.337,-1.6472 0.3369,-0.2167 0.6195,-0.2925 0.8587,-0.2925 0.2391,0 0.4347,0.0758 0.5978,0.1625 1.1739,0.6285 2.1304,2.7742 2.1956,4.8548 z"
       fill="#ffffff"
       id="path4" />
  </g>
  <defs
     id="defs53">
    <clipPath
       id="clip0">
      <rect
         width="287"
         height="82"
         fill="#ffffff"
         id="rect50"
         x="0"
         y="0" />
    </clipPath>
  </defs>
</svg>
