<svg width="287" height="82" viewBox="0 0 287 82" fill="none" xmlns="http://www.w3.org/2000/svg">
<g clip-path="url(#clip0)">
<path d="M3.1522 72.1496C7.07611 79.2042 14.1522 81.3499 20.6522 81.87C28.3261 82.4877 36.75 81.144 42.2609 73.8401C44.7935 70.4808 46.4892 66.1137 47.7609 61.6274C50.3913 52.2971 51.1848 22.605 47.2283 14.1851C45.3152 10.1214 42.4457 7.02211 39.3261 4.72476C29.3479 -2.60073 17.9457 -1.18114 8.71742 7.41222C2.45655 13.2423 1.25003 20.3619 0.43481 30.1798C-0.239103 38.1338 -0.619538 65.3768 3.1522 72.1496Z" fill="#EE4A7B"/>
<path d="M38.6849 44.3215H39.7392V41.7425H38.6849C33.7936 41.7425 29.4675 44.1915 26.8588 47.9193V40.6371C31.3914 39.6943 37.1088 35.1538 37.1088 25H34.5218C34.5218 33.7993 29.8914 37.0502 26.8588 37.9497V33.7017C29.4566 33.0299 30.9784 30.2449 30.9784 25.9645C30.9784 20.7954 27.4131 16.7534 22.8479 16.7534C18.8262 16.7534 10.5327 19.8418 10.5327 29.378C10.5327 37.9605 19.0871 40.5504 24.2718 40.7997V41.6774V47.9193C21.6631 44.1915 17.3371 41.7425 12.4458 41.7425H11.3914V44.3215H12.4458C18.5653 44.3215 23.6088 48.9813 24.2066 54.9305C21.5979 51.2461 17.3045 48.8295 12.4458 48.8295H11.3914V51.4086H12.4458C18.9675 51.4086 24.2718 56.6969 24.2718 63.1988V64.2499V66.363H26.8588V64.2499V63.1988C26.8588 56.6969 32.1631 51.4086 38.6849 51.4086H39.7392V48.8295H38.6849C33.8262 48.8295 29.5327 51.2461 26.9131 54.9305C27.511 48.9813 32.5653 44.3215 38.6849 44.3215ZM13.1197 29.378C13.1197 21.0338 20.7936 19.3325 22.8479 19.3325C25.9566 19.3325 28.3914 22.2475 28.3914 25.9753C28.3914 27.254 28.2175 29.8873 26.8479 30.8842C26.7066 28.2943 25.5001 25.2493 23.3153 24.0681C22.011 23.3529 20.5545 23.4396 19.2175 24.2956C17.7936 25.2167 17.2501 26.9506 17.8045 28.8253C18.4675 31.0685 20.6958 33.3441 24.2718 33.7884V38.2097C21.5762 38.0038 13.1197 36.7793 13.1197 29.378ZM24.2718 31.1877C22.0436 30.8084 20.6849 29.4538 20.2827 28.1101C20.1958 27.8283 19.9784 26.8856 20.6197 26.4629C20.9566 26.2462 21.2392 26.1704 21.4784 26.1704C21.7175 26.1704 21.9131 26.2462 22.0762 26.3329C23.2501 26.9614 24.2066 29.1071 24.2718 31.1877Z" fill="white"/>
<path d="M67.3261 60.923C66.9674 60.5329 66.6195 60.2728 66.2717 60.1428C65.9348 60.0127 65.5978 59.9477 65.25 59.9477C64.7391 59.9477 64.2826 60.0344 63.8695 60.2186C63.4565 60.4028 63.0978 60.6521 62.8043 60.9663C62.5108 61.2806 62.2826 61.6599 62.1195 62.0825C61.9565 62.5051 61.8804 62.9603 61.8804 63.4587C61.8804 63.9897 61.9565 64.4665 62.1195 64.9108C62.2826 65.3551 62.5108 65.7344 62.8043 66.0595C63.0978 66.3846 63.4565 66.6338 63.8695 66.8181C64.2826 67.0023 64.7391 67.0998 65.25 67.0998C65.6522 67.0998 66.0326 67.0023 66.413 66.8181C66.7935 66.6338 67.1413 66.3304 67.4674 65.9078L68.913 66.9373C68.4674 67.5441 67.9239 67.9884 67.2826 68.2702C66.6413 68.5519 65.9674 68.6819 65.2391 68.6819C64.4782 68.6819 63.7826 68.5627 63.1522 68.3135C62.5217 68.0643 61.9674 67.7175 61.5108 67.2732C61.0543 66.8289 60.6956 66.2871 60.4348 65.6586C60.1739 65.03 60.0435 64.3365 60.0435 63.5671C60.0435 62.7869 60.1739 62.0717 60.4348 61.4215C60.6956 60.7821 61.0543 60.2295 61.5108 59.7743C61.9674 59.3192 62.5108 58.9724 63.1522 58.7232C63.7826 58.4739 64.4782 58.3547 65.2391 58.3547C65.9022 58.3547 66.5217 58.4739 67.0978 58.7123C67.663 58.9507 68.1956 59.3517 68.6848 59.9152L67.3261 60.923Z" fill="#EE4A7B"/>
<path d="M72.8262 58.6147H74.5762V68.4218H72.8262V58.6147Z" fill="#EE4A7B"/>
<path d="M87.3911 64.8241C87.3911 65.4201 87.2932 65.9511 87.0867 66.4279C86.8802 66.9047 86.6085 67.3056 86.2498 67.6416C85.9019 67.9775 85.478 68.2267 84.9998 68.411C84.5215 68.5952 83.9889 68.6819 83.4345 68.6819C82.8693 68.6819 82.3476 68.5952 81.8693 68.411C81.3911 68.2267 80.9672 67.9775 80.6085 67.6416C80.2498 67.3056 79.978 66.9047 79.7715 66.4279C79.5758 65.9511 79.478 65.4201 79.478 64.8241V58.6147H81.228V64.7699C81.228 65.0083 81.2606 65.2575 81.3367 65.5285C81.4128 65.7885 81.5324 66.0378 81.7063 66.2545C81.8802 66.4712 82.1085 66.6554 82.3911 66.7963C82.6737 66.9372 83.0215 67.0131 83.4454 67.0131C83.8585 67.0131 84.2172 66.9372 84.4998 66.7963C84.7824 66.6554 85.0106 66.4712 85.1845 66.2545C85.3585 66.0378 85.478 65.7885 85.5541 65.5285C85.6302 65.2684 85.6628 65.0083 85.6628 64.7699V58.6147H87.4128V64.8241H87.3911Z" fill="#EE4A7B"/>
<path d="M92.3263 58.6147H96.2067C96.8589 58.6147 97.4785 58.7123 98.0872 58.9182C98.685 59.1132 99.2176 59.4166 99.685 59.8284C100.152 60.2402 100.522 60.7495 100.794 61.3564C101.076 61.9741 101.207 62.6893 101.207 63.5237C101.207 64.3689 101.044 65.095 100.728 65.7018C100.413 66.3195 100 66.8288 99.4893 67.2298C98.9893 67.6307 98.4241 67.9342 97.8046 68.1292C97.185 68.3243 96.5872 68.4218 95.9893 68.4218H92.3154V58.6147H92.3263ZM95.3806 66.8505C95.9241 66.8505 96.4459 66.7855 96.935 66.6663C97.4241 66.5362 97.848 66.352 98.2067 66.0811C98.5654 65.821 98.848 65.4743 99.0654 65.0516C99.2719 64.629 99.3806 64.1197 99.3806 63.5237C99.3806 62.9277 99.2828 62.4292 99.098 61.9957C98.9132 61.5731 98.6524 61.2263 98.3263 60.9663C98.0002 60.7062 97.6089 60.5111 97.1633 60.3811C96.7176 60.2511 96.2176 60.1969 95.685 60.1969H94.0872V66.8505H95.3806Z" fill="#EE4A7B"/>
<path d="M108.837 58.6147H110.348L114.587 68.4218H112.587L111.674 66.1786H107.413L106.522 68.4218H104.565L108.837 58.6147ZM111.055 64.6832L109.544 60.6954L108 64.6832H111.055Z" fill="#EE4A7B"/>
<path d="M118.467 58.6147H122.348C123 58.6147 123.62 58.7123 124.228 58.9182C124.826 59.1132 125.359 59.4166 125.826 59.8284C126.293 60.2402 126.663 60.7495 126.935 61.3564C127.217 61.9741 127.348 62.6893 127.348 63.5237C127.348 64.3689 127.185 65.095 126.87 65.7018C126.554 66.3195 126.141 66.8288 125.63 67.2298C125.13 67.6307 124.565 67.9342 123.946 68.1292C123.326 68.3243 122.728 68.4218 122.13 68.4218H118.457V58.6147H118.467ZM121.522 66.8505C122.065 66.8505 122.587 66.7855 123.076 66.6663C123.565 66.5362 123.989 66.352 124.348 66.0811C124.707 65.821 124.989 65.4743 125.207 65.0516C125.413 64.629 125.522 64.1197 125.522 63.5237C125.522 62.9277 125.424 62.4292 125.239 61.9957C125.054 61.5731 124.793 61.2263 124.467 60.9663C124.141 60.7062 123.75 60.5111 123.304 60.3811C122.859 60.2511 122.359 60.1969 121.826 60.1969H120.228V66.8505H121.522Z" fill="#EE4A7B"/>
<path d="M137.543 58.6147H139.554L142.239 66.0269L145 58.6147H146.891L142.913 68.4218H141.402L137.543 58.6147Z" fill="#EE4A7B"/>
<path d="M150.696 58.6147H152.446V68.4218H150.696V58.6147Z" fill="#EE4A7B"/>
<path d="M156.239 58.6147H158.25L160.935 66.0269L163.696 58.6147H165.587L161.609 68.4218H160.098L156.239 58.6147Z" fill="#EE4A7B"/>
<path d="M171.837 58.6147H173.348L177.587 68.4218H175.587L174.674 66.1786H170.413L169.522 68.4218H167.565L171.837 58.6147ZM174.065 64.6832L172.555 60.6954L171.011 64.6832H174.065Z" fill="#EE4A7B"/>
<path d="M83.7718 41.1139L81.7175 41.5148V48.2118L81.837 49.458L81.8805 50.4225C81.3696 50.3141 81.0979 50.2599 81.0761 50.2599C80.837 50.2599 80.6305 50.2599 80.4783 50.2599C80.0218 50.2599 78.8479 50.5958 76.9566 51.2785C75.0653 51.9612 73.2392 52.2972 71.4675 52.2972C67.6088 52.2972 64.424 50.7909 61.9022 47.7783C59.5435 44.95 58.3696 41.6124 58.3696 37.7437C58.3696 33.615 59.5218 29.9631 61.8262 26.788C64.2392 23.4828 67.1414 21.8357 70.5435 21.8357C71.3696 21.8357 72.2718 21.9224 73.2392 22.1066C74.2066 22.28 75.2175 22.475 76.2935 22.6809C77.0653 22.6809 77.7392 22.6051 78.3044 22.4425C78.8153 22.2258 79.2066 22.0849 79.4675 21.9982L81.5544 30.6133L80.0218 30.9709L79.4566 30.0173C78.2283 27.8933 77.0761 26.3329 76.0001 25.3576C74.5544 24.0572 72.9022 23.407 71.0544 23.407C68.674 23.407 66.7935 24.6207 65.424 27.0481C64.2392 29.1503 63.6522 31.6644 63.6522 34.6011C63.6522 38.5456 64.5218 42.0241 66.2609 45.0259C68.2175 48.4069 70.7609 50.0974 73.9022 50.0974C74.8914 50.0974 75.5109 50.0432 75.7501 49.9348C75.9892 49.8264 76.1957 49.7181 76.3479 49.6206V41.439L73.9783 41.2439V39.846H83.6631L83.7718 41.1139Z" fill="#1A2C4C"/>
<path d="M99.8477 33.4632C99.8477 34.2651 99.5543 34.9153 98.9673 35.4246C98.3803 35.9339 97.6412 36.1831 96.7608 36.1831C96.3369 36.1831 95.7934 36.0639 95.1521 35.8364C95.0434 35.8039 94.9021 35.7388 94.7064 35.6196C94.5216 35.9447 94.3695 36.194 94.2608 36.3782C93.9347 36.9959 93.7064 37.5269 93.5542 37.982C93.4021 38.4371 93.2825 38.8598 93.1738 39.2607C92.8803 40.4311 92.7282 41.6339 92.7282 42.8584V49.978L95.0542 50.3357V51.6577H85.9782V50.2923L88.1521 49.9672V39.9651C88.1521 39.0548 88.0325 38.0904 87.8151 37.0609C87.5869 36.0314 87.3369 35.3379 87.076 34.9586C86.9129 34.7202 86.6195 34.5468 86.1956 34.4601C85.7716 34.3626 85.5216 34.3193 85.4673 34.3193V33.0839L90.2934 31.0466C90.7173 31.9027 90.9455 32.3687 90.9782 32.4229C91.1629 32.8238 91.326 33.3115 91.4564 33.8858C91.5869 34.4601 91.7282 35.0453 91.8803 35.6522C92.0325 36.2482 92.0977 36.8442 92.0977 37.4402L92.5434 36.3132C93.1086 34.8936 93.7499 33.7666 94.4782 32.9105C95.3912 31.8702 96.3586 31.3501 97.3695 31.3501C98.3586 31.3501 99.0434 31.5668 99.4238 31.9894C99.7064 32.2928 99.8477 32.7913 99.8477 33.4632Z" fill="#1A2C4C"/>
<path d="M120.065 49.9347C119.685 50.4982 119.359 50.91 119.065 51.1809C118.185 52.0044 117.163 52.4271 116.011 52.4271C115.207 52.4271 114.522 52.1995 113.957 51.7444C113.392 51.2892 112.968 50.6499 112.674 49.8155L111.707 50.574C110.924 51.2134 110.196 51.6793 109.5 51.9719C108.805 52.2645 108 52.4162 107.087 52.4162C105.696 52.4162 104.5 51.9177 103.511 50.9316C102.522 49.9455 102.022 48.7318 102.022 47.3122C102.022 45.4375 102.968 43.7253 104.881 42.1757C106.544 40.8103 108.642 39.77 111.196 39.044L112.283 38.7189V36.9525C112.283 35.9122 111.935 35.0019 111.239 34.2217C110.913 33.8424 110.381 33.5282 109.631 33.2572C109.392 33.1814 109.055 33.0839 108.631 32.9755C108.685 33.5065 108.446 34.1133 107.902 34.7744C107.261 35.5763 106.468 35.9772 105.533 35.9772C104.859 35.9772 104.294 35.7822 103.826 35.392C103.359 35.0019 103.12 34.4818 103.12 33.8099C103.12 33.008 103.457 32.412 104.142 32.011C104.826 31.6101 105.707 31.415 106.772 31.415C109.555 31.415 111.859 32.011 113.685 33.2139C115.663 34.5251 116.663 36.324 116.663 38.6213V47.9949C116.663 48.4717 116.783 48.8944 117.022 49.2411C117.261 49.5879 117.598 49.7613 118.022 49.7613C118.315 49.7613 118.663 49.5879 119.065 49.2411C119.12 49.1869 119.218 49.0894 119.348 48.9594L120.065 49.9347ZM112.435 48.0816V40.2685L111.631 40.431C110.131 40.8103 108.881 41.5472 107.87 42.6417C106.87 43.747 106.359 44.9173 106.359 46.1852C106.359 47.0955 106.663 47.8866 107.283 48.5584C107.902 49.2303 108.652 49.5662 109.533 49.5662C110.098 49.5662 110.652 49.4037 111.196 49.0786C111.75 48.7643 112.163 48.4284 112.435 48.0816Z" fill="#1A2C4C"/>
<path d="M141.087 51.6577H132.804V50.2598L134.815 49.9781V38.2746C134.815 37.256 134.565 36.3457 134.054 35.533C133.543 34.7202 132.837 34.3084 131.924 34.3084C131.337 34.3084 130.782 34.406 130.272 34.5902C129.761 34.7744 129.282 35.0995 128.826 35.5438L127.978 36.4649V49.9347L130.032 50.2165V51.6577H121.348V50.2165L123.522 49.9347V36.7792C123.522 36.194 123.489 35.7714 123.424 35.5005C123.359 35.2295 123.152 34.9586 122.804 34.666C122.674 34.536 122.467 34.4385 122.206 34.3843C121.935 34.3301 121.685 34.3084 121.445 34.3084C121.098 34.3084 120.891 34.3084 120.848 34.3084V33.0731L126.032 30.7649C126.543 31.2742 126.945 31.8702 127.239 32.5421C127.424 32.9972 127.554 33.3657 127.619 33.6691C127.685 33.9617 127.717 34.3084 127.717 34.7094C127.956 34.1784 128.587 33.5174 129.609 32.748C130.978 31.7077 132.282 31.1875 133.543 31.1875C135.174 31.1875 136.532 31.816 137.619 33.0731C138.706 34.3301 139.25 35.8147 139.25 37.516V49.9781L141.098 50.2598V51.6577H141.087Z" fill="#1A2C4C"/>
<path d="M175.62 43.5628L175.217 44.6464C174.391 46.9979 173.022 48.8293 171.141 50.1514C169.25 51.4734 167.098 52.1345 164.685 52.1345C160.957 52.1345 157.967 50.6824 155.717 47.7673C153.652 45.1015 152.62 41.7856 152.62 37.8302C152.62 33.5823 153.696 29.9304 155.837 26.8853C158.163 23.5694 161.174 21.9114 164.837 21.9114C165.533 21.9114 166.891 22.0956 168.891 22.4749C169.717 22.6591 170.272 22.7241 170.544 22.6699C171.457 22.5399 172.011 22.4424 172.207 22.3882C172.402 22.334 172.826 22.1715 173.467 21.9114L175.478 30.7215L174.033 31.0466L173.511 30.1255C172.25 27.8931 171.109 26.3002 170.098 25.3357C168.674 23.9812 167.054 23.2985 165.239 23.2985C162.826 23.2985 160.935 24.523 159.576 26.9829C158.391 29.1177 157.804 31.6643 157.804 34.6226C157.804 38.2745 158.544 41.428 160.011 44.0612C161.728 47.128 164.044 48.6668 166.967 48.6668C168.5 48.6668 169.859 48.255 171.044 47.4206C172.239 46.597 173.185 45.4483 173.88 43.9746L174.326 43.0101L175.62 43.5628Z" fill="#1A2C4C"/>
<path d="M196.043 49.9347C195.663 50.4982 195.337 50.91 195.043 51.1809C194.163 52.0044 193.141 52.4271 191.989 52.4271C191.185 52.4271 190.5 52.1995 189.935 51.7444C189.37 51.2892 188.946 50.6499 188.652 49.8155L187.685 50.574C186.902 51.2134 186.174 51.6793 185.478 51.9719C184.783 52.2645 183.978 52.4162 183.065 52.4162C181.674 52.4162 180.478 51.9177 179.489 50.9316C178.5 49.9455 178 48.7318 178 47.3122C178 45.4375 178.946 43.7253 180.859 42.1757C182.522 40.8103 184.62 39.77 187.174 39.044L188.261 38.7189V36.9525C188.261 35.9122 187.913 35.0019 187.217 34.2217C186.891 33.8424 186.359 33.5282 185.609 33.2572C185.37 33.1814 185.033 33.0839 184.609 32.9755C184.663 33.5065 184.424 34.1133 183.88 34.7744C183.239 35.5763 182.446 35.9772 181.511 35.9772C180.837 35.9772 180.272 35.7822 179.804 35.392C179.337 35.0019 179.098 34.4818 179.098 33.8099C179.098 33.008 179.435 32.412 180.12 32.011C180.804 31.6101 181.685 31.415 182.75 31.415C185.533 31.415 187.837 32.011 189.663 33.2139C191.641 34.5251 192.641 36.324 192.641 38.6213V47.9949C192.641 48.4717 192.761 48.8944 193 49.2411C193.239 49.5879 193.576 49.7613 194 49.7613C194.293 49.7613 194.641 49.5879 195.043 49.2411C195.098 49.1869 195.196 49.0894 195.326 48.9594L196.043 49.9347ZM188.402 48.0816V40.2685L187.598 40.431C186.098 40.8103 184.848 41.5472 183.837 42.6417C182.837 43.747 182.326 44.9173 182.326 46.1852C182.326 47.0955 182.63 47.8866 183.25 48.5584C183.87 49.2303 184.62 49.5662 185.5 49.5662C186.065 49.5662 186.62 49.4037 187.163 49.0786C187.728 48.7643 188.13 48.4284 188.402 48.0816Z" fill="#1A2C4C"/>
<path d="M206.891 51.6577H197.685V50.2598L199.935 49.9781V26.3219C199.935 26.0293 199.935 25.8126 199.935 25.6826C199.935 25.4658 199.935 25.2599 199.935 25.0432C199.881 24.6748 199.717 24.3713 199.435 24.1438C199.152 23.9162 198.739 23.8078 198.207 23.8078C197.696 23.8078 197.391 23.8295 197.283 23.8837V22.4749L204.478 19.7441V49.9672L206.891 50.249V51.6577Z" fill="#1A2C4C"/>
<path d="M225.619 44.5597L223.609 52.0585L222.565 51.8201C222.272 51.7443 222.065 51.7009 221.967 51.7009C221.804 51.6793 221.587 51.6576 221.326 51.6576H209.348V50.3355L220.359 33.5389H218.391C217.532 33.5389 216.804 33.669 216.195 33.9399C215.598 34.2108 214.945 34.6443 214.25 35.2619C213.663 35.7929 213.032 36.5948 212.359 37.6676C212.141 38.0144 211.859 38.5237 211.511 39.1956L210.185 38.7513L211.913 31.8159L212.837 32.141H213.717H225.5V33.4631L214.489 50.2488H216.38C217.369 50.2488 218.206 50.108 218.891 49.8154C219.576 49.5228 220.359 49.0243 221.239 48.2983C221.913 47.7673 222.63 46.9329 223.413 45.795C223.652 45.4266 223.978 44.8956 224.38 44.2021L225.619 44.5597Z" fill="#1A2C4C"/>
<path d="M246.087 49.9347C245.706 50.4982 245.38 50.91 245.087 51.1809C244.206 52.0044 243.185 52.4271 242.033 52.4271C241.228 52.4271 240.543 52.1995 239.978 51.7444C239.413 51.2892 238.989 50.6499 238.696 49.8155L237.728 50.574C236.946 51.2134 236.217 51.6793 235.522 51.9719C234.826 52.2645 234.022 52.4162 233.109 52.4162C231.717 52.4162 230.522 51.9177 229.533 50.9316C228.543 49.9455 228.043 48.7318 228.043 47.3122C228.043 45.4375 228.989 43.7253 230.902 42.1757C232.565 40.8103 234.663 39.77 237.217 39.044L238.304 38.7189V36.9525C238.304 35.9122 237.956 35.0019 237.261 34.2217C236.935 33.8424 236.402 33.5282 235.652 33.2572C235.413 33.1814 235.076 33.0839 234.652 32.9755C234.707 33.5065 234.467 34.1133 233.924 34.7744C233.283 35.5763 232.489 35.9772 231.554 35.9772C230.88 35.9772 230.315 35.7822 229.848 35.392C229.38 35.0019 229.141 34.4818 229.141 33.8099C229.141 33.008 229.478 32.412 230.163 32.011C230.848 31.6101 231.728 31.415 232.793 31.415C235.576 31.415 237.88 32.011 239.706 33.2139C241.685 34.5251 242.685 36.324 242.685 38.6213V47.9949C242.685 48.4717 242.804 48.8944 243.043 49.2411C243.283 49.5879 243.62 49.7613 244.043 49.7613C244.337 49.7613 244.685 49.5879 245.087 49.2411C245.141 49.1869 245.239 49.0894 245.37 48.9594L246.087 49.9347ZM238.446 48.0816V40.2685L237.641 40.431C236.141 40.8103 234.891 41.5472 233.88 42.6417C232.88 43.747 232.37 44.9173 232.37 46.1852C232.37 47.0955 232.674 47.8866 233.293 48.5584C233.913 49.2303 234.663 49.5662 235.543 49.5662C236.109 49.5662 236.663 49.4037 237.206 49.0786C237.772 48.7643 238.174 48.4284 238.446 48.0816Z" fill="#1A2C4C"/>
<path d="M267.065 50.65L262.043 52.4164C261.88 52.178 261.706 51.8637 261.522 51.4953C261.337 51.1268 261.228 50.9101 261.195 50.8559C261.087 50.6175 260.989 50.3466 260.891 50.054C260.793 49.7614 260.706 49.3822 260.63 48.927L259.826 49.9023C258.598 51.4953 256.989 52.2972 255 52.2972C252.772 52.2972 250.989 51.2677 249.652 49.2088C248.445 47.3666 247.848 45.1451 247.848 42.5443C247.848 39.651 248.543 37.1369 249.945 34.9912C251.5 32.5855 253.565 31.3827 256.119 31.3827C256.956 31.3827 257.663 31.4585 258.239 31.6102C258.815 31.762 259.5 32.0329 260.272 32.423V25.7043C260.272 24.9675 259.967 24.4256 259.369 24.0789C259.152 23.9488 258.837 23.8838 258.435 23.8838C258.239 23.8838 258.054 23.8838 257.859 23.8838C257.804 23.8838 257.717 23.8838 257.609 23.8838V22.4751L264.728 20.2644V46.2829C264.728 46.9764 264.793 47.5508 264.924 48.0059C265.054 48.4611 265.348 48.8187 265.793 49.0679C266.239 49.3171 266.663 49.4472 267.065 49.4472V50.65ZM260.272 47.074V35.1971C259.945 34.7637 259.641 34.3411 259.348 33.9076C258.565 33.1599 257.609 32.7806 256.456 32.7806C254.924 32.7806 253.804 33.6367 253.076 35.3597C252.511 36.7034 252.228 38.4373 252.228 40.5504C252.228 42.7502 252.619 44.6466 253.391 46.2287C254.326 48.136 255.695 49.0896 257.489 49.0896C258.293 49.0896 258.978 48.7861 259.543 48.1685C260 47.4966 260.239 47.1282 260.272 47.074Z" fill="#1A2C4C"/>
<path d="M287 49.9347C286.62 50.4982 286.293 50.91 286 51.1809C285.12 52.0044 284.098 52.4271 282.946 52.4271C282.141 52.4271 281.457 52.1995 280.891 51.7444C280.326 51.2892 279.902 50.6499 279.609 49.8155L278.641 50.574C277.859 51.2134 277.13 51.6793 276.435 51.9719C275.739 52.2645 274.935 52.4162 274.022 52.4162C272.63 52.4162 271.435 51.9177 270.446 50.9316C269.457 49.9455 268.957 48.7318 268.957 47.3122C268.957 45.4375 269.902 43.7253 271.815 42.1757C273.478 40.8103 275.576 39.77 278.13 39.044L279.217 38.7189V36.9525C279.217 35.9122 278.87 35.0019 278.174 34.2217C277.848 33.8424 277.315 33.5282 276.565 33.2572C276.326 33.1814 275.989 33.0839 275.565 32.9755C275.62 33.5065 275.38 34.1133 274.837 34.7744C274.196 35.5763 273.402 35.9772 272.467 35.9772C271.793 35.9772 271.228 35.7822 270.761 35.392C270.294 35.0019 270.054 34.4818 270.054 33.8099C270.054 33.008 270.391 32.412 271.076 32.011C271.761 31.6101 272.641 31.415 273.707 31.415C276.489 31.415 278.794 32.011 280.62 33.2139C282.598 34.5251 283.598 36.324 283.598 38.6213V47.9949C283.598 48.4717 283.717 48.8944 283.957 49.2411C284.196 49.5879 284.533 49.7613 284.957 49.7613C285.25 49.7613 285.598 49.5879 286 49.2411C286.054 49.1869 286.152 49.0894 286.283 48.9594L287 49.9347ZM279.37 48.0816V40.2685L278.565 40.431C277.065 40.8103 275.815 41.5472 274.804 42.6417C273.804 43.747 273.293 44.9173 273.293 46.1852C273.293 47.0955 273.598 47.8866 274.217 48.5584C274.837 49.2303 275.587 49.5662 276.467 49.5662C277.033 49.5662 277.587 49.4037 278.13 49.0786C278.685 48.7643 279.098 48.4284 279.37 48.0816Z" fill="#1A2C4C"/>
</g>
<defs>
<clipPath id="clip0">
<rect width="287" height="82" fill="white"/>
</clipPath>
</defs>
</svg>
