<?xml version="1.0" encoding="utf-8"?>
<!-- Generator: Adobe Illustrator 24.0.2, SVG Export Plug-In . SVG Version: 6.00 Build 0)  -->
<svg version="1.1" id="Capa_1" xmlns="http://www.w3.org/2000/svg" xmlns:xlink="http://www.w3.org/1999/xlink" x="0px" y="0px"
	 viewBox="0 0 143.5 182.8" style="enable-background:new 0 0 143.5 182.8;" xml:space="preserve">
<style type="text/css">
	.st0{clip-path:url(#SVGID_2_);}
	.st1{fill:#3D753F;}
	.st2{fill:#EB983F;}
</style>
<g>
	<g>
		<defs>
			<rect id="SVGID_1_" x="18.2" width="125.3" height="199"/>
		</defs>
		<clipPath id="SVGID_2_">
			<use xlink:href="#SVGID_1_"  style="overflow:visible;"/>
		</clipPath>
		<g class="st0">
			<path class="st1" d="M163.2,128.8c0.2-0.2,0.5-0.4,0.7-0.7c-5.5-3.6-5.5-11.5-8.6-17.4c-2.2-4.1-5.9-7.2-8.5-11
				c-4.2-6.3-5.1-14.8-2.1-21.8c11.7,10.3,15.1,26.8,20.7,41.3c0.9,2.3,2.4,5,4.9,5.1c1.4,0,2.7-0.8,3.9-1.7
				c1.9-1.4,3.8-2.7,5.6-4.1c0.6-0.4,1.3-1,1.4-1.7c0.1-0.5-0.2-1-0.4-1.5c-1.8-3.8-3.5-7.5-5.2-11.3c-4.8-10.3-10-21.1-19.4-27.4
				c0.6-1.8,2.8-2.6,4.7-2.2c1.9,0.3,3.4,1.5,4.9,2.7c8.7,7.4,15.4,17.3,18.9,28.2c0.5,1.4,1.3,3.2,2.8,3.2c0.9,0,1.7-0.6,2.3-1.2
				c3.2-2.9,6.5-5.9,8.6-9.6c2.1-3.8,2.9-8.5,1.1-12.4c-1.5-3-4.3-5.1-7.1-7c-7.4-5-15.2-9.6-23.3-13.6
				c10.7-7.3,20.2-16.3,28.2-26.5c3-3.8,8.1-12.7,3.6-13.2c-4.9,1.7-7.6,6.9-10.3,11.3c-6.6,10.9-16.5,19.7-28,25.1
				c4.6-5.3,8.9-11,11.6-17.5c2.7-6.5,3.6-13.9,1.6-20.6c-0.5-1.6-1.2-3.2-2.4-4.4c-1.2-1.1-2.7-1.7-4.2-2.2
				c-4.3-1.3-8.9-1.8-13.4-1.2c-1.4,0.2-2.8,0.5-3.6,1.6c-0.9,1.3-0.6,3-0.3,4.5c2.6,13.1,1.7,26.8-2.6,39.5
				c-0.7,2.2-2.5,4.7-4.6,3.9c-0.8-4.7,1.4-9.3,2.8-13.9c3.4-11.1,2-23.6-3.8-33.6c-4.2-7.2-12-13.5-20.1-11.7c-3,0.7-5.6,2.3-8.1,4
				c-0.3,0.2-0.6,0.4-0.9,0.6c-0.1,0-2.9,1.9-3.4,3.5c-0.5,1.6,2.3,5.3,5.4,9.1c1.3,1.8,3.2,3.1,4.7,4.7c1.3,1.4,2.4,2.9,3.5,4.4
				c0.9,1.4,1.8,2.8,2.3,4.4c0.4,1.2,0.7,2.4,1,3.7c0.4,1.3,0.7,2.7,1.1,4c0.2,0.8,0.6,1.5,0.8,2.3c0.5,2,1,4,1.5,5.9
				c0.1,0.2,0.1,0.4,0.1,0.6c0,1.6,0,3.2,0.1,4.8c0.1,1,0.3,2.1,0.4,3.1c0,1,0.2,1.9,0.5,2.8c0.1,0.3,0.3,0.5,0.4,0.7
				c0.6,1.3,1.2,2.5,1.8,3.8c0.1,0.2,0.1,0.5,0.1,0.7l-0.2,0.1c-0.3-0.4-0.6-0.8-0.9-1.2c-1.1-2-2-4.1-2.3-6.4
				c-0.1-0.9-0.3-1.8-0.2-2.6c0-0.7-0.2-1.3-0.3-2c-0.2-1.1-0.4-2.2-0.5-3.3c-0.1-1-0.5-1.9-0.8-2.8c-0.4-1.2-0.8-2.4-1.3-3.4
				c-0.9-1.8-1.3-3.8-1.8-5.8c-0.6-2.2-1.3-4.4-2.4-6.4c-1.1-2-2.4-3.8-3.6-5.7c-0.8-1.2-1.7-2.4-2.4-3.7c-0.4-0.8-1-1.4-1.6-2
				c0,0,0,0,0,0c0,0-0.1-0.1-0.1-0.1c-0.1-0.1-0.2-0.2-0.3-0.4c0,0,0,0,0,0c-1.4-1.6-5.5-5.7-6.2-6.4c-0.8-0.8-3-1.2-4.9,0l0,0
				c-2.6,1.7-5.2,3.4-7.9,5.1c-1.7,1.1-3.5,2.3-4.6,4.1c-1.8,3.2-0.6,7.3,1.8,10c2.4,2.7,5.7,4.4,8.8,6.2c8.6,5,16.9,12.8,17.4,22.8
				c0.1,2-0.3,4.4-2.1,5.4c-2.5,1.5-5.7-0.7-7.4-3.1c-4.1-5.3-6.3-11.8-9.6-17.6c-5-8.9-12.6-16.4-21.5-21.4
				c-4.9,1.8-7.5,7.5-7,12.7c0.5,5.2,3.5,9.8,7.1,13.6s7.7,7.1,11.1,11c1.1,1.2,2.1,3.2,1,4.4c-6.8-4.1-12.9-9.6-20.3-12.6
				c-7.4-3-16.8-3.1-22.4,2.7c8.2,7.9,22.9,4.7,31.2,12.5c-10.1,2.3-19.6-6.1-29.9-7.2c-7.6-0.8-15,2.5-21.8,6.1
				c-0.9,0.5-1.8,0.9-2.4,1.7c-0.9,1.2-1,2.9-0.6,4.4c1.4,5.1,6.9,7.8,12.1,9c8.7,1.9,18,1.1,26.3-2.3c-6.5,6.4-11.2,14.5-13.5,23.3
				c-0.2,0.6-0.3,1.3,0,1.9c0.3,0.7,1.2,1.1,1.9,1.3c8.1,2.1,16.1-3.8,21.4-10.4s9.5-14.3,16.8-18.4c1.2-0.7,3.3-0.9,3.6,0.5
				c0.2,0.9-0.6,1.6-1.4,2.2c-11.3,8.5-20.5,19.9-26.3,32.8c3,4.2,6.9,8.9,12.1,8.6c3.4-2.1,6.3-4.9,8.5-8.2c2.5-3.8,4.1-8,6-12.1
				c4.9-10.4,13.1-20.2,24.3-22.6c-1.4,5.5-4.1,10.6-7.8,14.9c-4.5,5.2-10.3,9-15.1,13.8c-4.7,4.8-8.5,10.6-10.9,16.8
				c-0.2,0.4,2.4,2.6,2.7,2.9c1.1,1,2.2,1.9,3.4,2.7c2.4,1.6,5.1,2.8,7.9,3.6c2.6,0.7,5.3-2,6.8-4c1.8-2.4,3-5.2,3.7-8.1
				c1.2-5.2,1.3-10.7,2.9-15.8c1.2-3.6,3.1-6.9,4.6-10.4c2-4.6,3.3-9.4,4.6-14.2c0.4-1.6,0.9-3.4,2.3-4.4c1.3-1,3.7-0.8,4.2,0.8
				c-5.6,7-9.2,15.5-10.4,24.3c-1.5,10.9,0.7,22.6-4.1,32.5c7.1,1.6,15-0.6,20.2-5.8C142.4,137.7,155,135.9,163.2,128.8z
				 M133.5,124.7c-0.1-0.2-0.2-0.4-0.2-0.5c0.2-1.4-0.2-2.8-0.2-4.2c0-1.3-0.3-2.5-0.5-3.8c-0.1-1.1-0.3-2.2-0.4-3.3
				c-0.3-2.5-0.3-5.1-0.2-7.6c0.1-2,0.2-4.1,0.4-6.1c0.1-0.9,0.4-1.7,0.5-2.6c0-0.2,0.1-0.4,0.1-0.7c0.2-2.1,1.1-3.9,2.5-5.5
				c1.2,0.3,2.2,1,2.7,2.2c0.9,2,1.8,4.1,2.5,6.1c0.7,2,0.6,4.1,0.1,6.2c-0.1,0.4-0.1,0.8-0.2,1.2c-0.2,1-0.5,2-0.7,3
				c-0.2,0.9-0.3,1.9-0.6,2.8c-0.2,0.6-0.3,1.3-0.7,1.8c-1.4,1.6-2.1,3.6-2.8,5.5c-0.7,1.8-1.3,3.6-2,5.5
				C133.7,124.7,133.6,124.7,133.5,124.7z"/>
			<g>
				<g>
					<path class="st2" d="M154.3,138.6c1.6,3.7,3.1,7.4,4.4,11.2c0.1,0.3,0.2,0.6,0.1,0.9c-0.2,0.6-1,0.8-1.6,0.5s-0.9-0.9-1.2-1.4
						c-4.4-7.6-9.1-15-13.9-22.4c-2.4-3.7-5-7.5-8.1-10.7c5.4,14.5,10,29.2,13.8,44.2c0.2,0.9,0.2,2.3-0.8,2.4
						c-0.6,0.1-1.1-0.6-1.4-1.2c-3.3-6.2-6.6-12.3-9.9-18.4c-1.8-5.7-4-11.3-6.6-16.6c-1,12.7-0.9,25.6,0.3,38.3
						c0.1,0.8,0.1,1.7-0.6,2.1c-1.1,0.6-2.1-0.9-2.3-2.2c-2.5-11.4-4.8-22.8-6.7-34.2c-4.5,11.2-7.7,22.9-9.6,34.8
						c-0.1,0.7-0.2,1.5-0.7,2s-1.5,0.7-1.9,0.1c-0.2-0.3-0.2-0.6-0.3-0.9c-1.2-13,3.3-25.9,4.3-39c-4.6,7.4-20.3,35.1-24.9,42.5
						c-0.4,0.6-0.9,1.3-1.6,1.7c-0.7,0.3-1.7,0.1-2-0.6c-0.1-0.4,0-0.9,0.2-1.4c2.7-7.1,16.8-34.4,20.2-41.1
						c-9.9,7-19.7,14-29.6,21.1c-0.9,0.6-2.3,1.1-2.7,0.1c-0.2-0.5,0.1-1.1,0.5-1.6c5.3-7.7,11.6-14.7,18.7-20.9
						c1.6-1.4,3.2-2.7,4.4-4.4c1.5-2,2.5-4.4,4.2-6.1c-10.2,3.1-20.5,6.1-30.7,9.2c-0.6,0.2-1.3,0.4-2,0.2c-0.6-0.2-1.2-0.8-1-1.5
						c0.1-0.3,0.3-0.5,0.6-0.7c3.6-3.3,8.3-5.1,12.9-6.9c6.5-2.5,12.9-5,19.4-7.5c-9.5-1.3-27.6-3.2-28.4-4s1.5-2,2.7-2.4
						c5-1.4,10.2-2.2,15.5-2.2c2.5-0.6,5.2-0.3,7.8-0.2c3.3,0.1,6.6-0.3,9.8-1.1c-8-4.5-16-9.1-24.7-11.9c-0.8-0.3-1.7-0.6-2.1-1.3
						c-1.5-2.6,7.8-2.9,9.3-2.8c4,0.2,8,1.1,11.9,1.8c11.4,2.2,23,3.1,34.6,4.4c0.7,0.1,1.5,0.2,2,0.7c0.7,0.6,0.8,1.6,1,2.5
						C139.8,109.5,147.8,123.8,154.3,138.6z"/>
				</g>
			</g>
		</g>
	</g>
</g>
</svg>
