<?xml version="1.0" encoding="utf-8"?>
<!-- Generator: Adobe Illustrator 25.2.3, SVG Export Plug-In . SVG Version: 6.00 Build 0)  -->
<svg version="1.1" id="Capa_1" xmlns="http://www.w3.org/2000/svg" xmlns:xlink="http://www.w3.org/1999/xlink" x="0px" y="0px"
	 viewBox="0 0 281.86 107.96" style="enable-background:new 0 0 281.86 107.96;" xml:space="preserve">
<style type="text/css">
	.st0{fill:none;stroke:#72BFC1;stroke-width:3.6272;stroke-miterlimit:10;}
	.st1{fill:none;stroke:#72BFC1;stroke-width:2.4181;stroke-miterlimit:10;}
	.st2{opacity:0.44;fill:none;stroke:#B4B4B3;stroke-width:4.2317;stroke-miterlimit:10;}
	.st3{fill:none;stroke:#EEEEEE;stroke-width:5.4408;stroke-miterlimit:10;}
	.st4{fill:#F2A31A;}
	.st5{fill:#D35377;}
	.st6{fill:#FFFFFF;}
	.st7{opacity:0.78;}
	.st8{clip-path:url(#SVGID_2_);fill:#E14C77;}
	.st9{fill:#F2A31C;stroke:#F2A31C;stroke-width:1.2091;stroke-miterlimit:10;}
	.st10{fill:none;stroke:#F2A31C;stroke-width:1.2091;stroke-miterlimit:10;}
	.st11{fill:#E1537C;}
	.st12{fill:none;stroke:#FFFDFD;stroke-width:0.3023;stroke-miterlimit:10;}
	.st13{fill:none;stroke:#C0BFBE;stroke-width:0.4534;stroke-miterlimit:10;}
	.st14{fill:#C0BFBE;}
	.st15{fill:none;stroke:#F3E07A;stroke-width:3.6272;stroke-miterlimit:10;}
	.st16{clip-path:url(#SVGID_4_);fill:#FFFFFF;}
	.st17{fill:#51488A;}
	.st18{fill:#F7B0A0;}
	.st19{fill:#215A36;}
	.st20{fill:#F7B2A1;}
</style>
<g>
	<g>
		<g>
			<path class="st17" d="M102.56,54.87H91.67l-2.19,4.83h-4.71l9.96-21.2h4.74l10.05,21.2h-4.75L102.56,54.87z M101.08,51.62
				l-3.98-8.73l-3.96,8.73H101.08z"/>
			<path class="st17" d="M131.04,56.07v3.64h-15.79v-0.01h-2.66v-21.2h4.36v17.58H131.04z"/>
			<path class="st17" d="M166.1,38.49v21.2h-4.36V46.19l-8.69,13.51h-4.88l-8.69-13.46v13.46h-4.36v-21.2h4.36l11.11,17.42
				l11.14-17.42H166.1z"/>
			<path class="st17" d="M186.98,54.87h-10.89l-2.19,4.83h-4.71l9.96-21.2h4.74l10.05,21.2h-4.75L186.98,54.87z M185.5,51.62
				l-3.98-8.73l-3.96,8.73H185.5z"/>
			<path class="st17" d="M221.57,49.02c0,5.62-3.31,10.67-12.43,10.67h-12.13v-21.2h12.13C218.69,38.49,221.57,43.4,221.57,49.02z
				 M217.13,49.02c0-3.59-1.82-6.75-8.09-6.75h-7.66v13.64h7.66C215.31,55.91,217.13,52.61,217.13,49.02z"/>
			<path class="st17" d="M240.58,54.87h-10.89l-2.19,4.83h-4.71l9.96-21.2h4.74l10.05,21.2h-4.76L240.58,54.87z M239.1,51.62
				l-3.98-8.73l-3.96,8.73H239.1z"/>
		</g>
	</g>
	<g>
		<path class="st18" d="M133.86,70.51l-0.1,0.26c-0.2,0.57-0.53,1.01-0.99,1.33c-0.46,0.32-0.97,0.48-1.56,0.48
			c-0.9,0-1.62-0.35-2.16-1.06c-0.5-0.65-0.75-1.45-0.75-2.41c0-1.03,0.26-1.91,0.78-2.65c0.56-0.8,1.29-1.2,2.17-1.2
			c0.17,0,0.5,0.05,0.98,0.14c0.2,0.04,0.33,0.06,0.4,0.05c0.22-0.03,0.35-0.05,0.4-0.07c0.05-0.01,0.15-0.05,0.31-0.12l0.49,2.13
			l-0.35,0.08l-0.13-0.22c-0.3-0.54-0.58-0.93-0.83-1.16c-0.34-0.33-0.73-0.49-1.17-0.49c-0.58,0-1.04,0.3-1.37,0.89
			c-0.29,0.52-0.43,1.13-0.43,1.85c0,0.88,0.18,1.65,0.53,2.29c0.41,0.74,0.97,1.11,1.68,1.11c0.37,0,0.7-0.1,0.98-0.3
			c0.29-0.2,0.52-0.48,0.68-0.83l0.11-0.23L133.86,70.51z"/>
		<path class="st18" d="M138.29,72.47h-2.65v-0.34l0.63-0.07v-6.25l-0.63-0.07v-0.34h2.65v0.34l-0.7,0.07v6.25l0.7,0.07V72.47z"/>
		<path class="st18" d="M146.31,65.75c-0.09,0-0.19,0.02-0.29,0.05c-0.1,0.03-0.18,0.07-0.25,0.13c-0.12,0.1-0.2,0.22-0.24,0.34
			c-0.04,0.12-0.05,0.28-0.05,0.48v3.64c0,0.67-0.18,1.2-0.53,1.59c-0.4,0.44-1.01,0.66-1.81,0.66c-0.8,0-1.42-0.18-1.85-0.55
			c-0.43-0.37-0.65-0.88-0.65-1.52v-4.74l-0.58-0.07v-0.34h2.52v0.34l-0.62,0.07v4.46c0,0.54,0.11,0.97,0.32,1.28
			c0.27,0.39,0.68,0.58,1.24,0.58c0.52,0,0.9-0.16,1.16-0.5c0.23-0.29,0.34-0.68,0.34-1.15v-3.77c0-0.19-0.01-0.33-0.04-0.44
			c-0.03-0.1-0.1-0.21-0.21-0.32c-0.06-0.06-0.15-0.11-0.28-0.16c-0.13-0.04-0.23-0.07-0.32-0.07v-0.34h2.15V65.75z"/>
		<path class="st18" d="M154.19,68.92c0,1.07-0.32,1.94-0.97,2.6c-0.62,0.63-1.42,0.95-2.39,0.95h-2.81v-0.34l0.6-0.07v-6.25
			l-0.6-0.07v-0.34h2.12h0.84c0.74,0,1.42,0.26,2.04,0.78C153.8,66.84,154.19,67.76,154.19,68.92z M152.85,68.87
			c0-1.11-0.21-1.93-0.63-2.45c-0.37-0.45-0.89-0.68-1.55-0.68c-0.14,0-0.34,0.02-0.61,0.05c-0.04,0-0.09,0.01-0.16,0.02v6.25h0.99
			c0.69,0,1.2-0.31,1.53-0.93C152.71,70.59,152.85,69.84,152.85,68.87z"/>
		<path class="st18" d="M162.59,72.47h-2.45v-0.34l0.65-0.07l-0.6-1.78h-2.37l-0.3,0.96c-0.04,0.11-0.06,0.23-0.06,0.35
			c0,0.09,0.01,0.17,0.04,0.24c0.03,0.07,0.08,0.13,0.15,0.17c0.07,0.04,0.2,0.08,0.39,0.1c0.03,0,0.07,0.01,0.13,0.02v0.34h-2.1
			v-0.34c0.17-0.02,0.34-0.08,0.48-0.17c0.15-0.09,0.25-0.19,0.32-0.28s0.12-0.22,0.17-0.39l1.71-5.29l-0.23-0.54l1.35-0.12
			l2.28,6.73l0.46,0.07V72.47z M160.04,69.82l-1.05-3.21l-1.02,3.21H160.04z"/>
		<path class="st18" d="M170.47,68.92c0,1.07-0.32,1.94-0.97,2.6c-0.62,0.63-1.42,0.95-2.39,0.95h-2.81v-0.34l0.6-0.07v-6.25
			l-0.6-0.07v-0.34h2.12h0.84c0.74,0,1.42,0.26,2.04,0.78C170.08,66.84,170.47,67.76,170.47,68.92z M169.13,68.87
			c0-1.11-0.21-1.93-0.63-2.45c-0.37-0.45-0.89-0.68-1.55-0.68c-0.14,0-0.34,0.02-0.61,0.05c-0.04,0-0.09,0.01-0.16,0.02v6.25h0.99
			c0.69,0,1.2-0.31,1.53-0.93C168.98,70.59,169.13,69.84,169.13,68.87z"/>
		<path class="st18" d="M182.04,65.75c-0.12,0-0.21,0.01-0.27,0.02s-0.14,0.06-0.26,0.13c-0.11,0.07-0.2,0.15-0.26,0.25
			s-0.12,0.24-0.18,0.42l-1.67,5.26l0.25,0.6l-1.38,0.09l-2.23-6.71l-0.47-0.07v-0.34h2.44v0.34l-0.59,0.07l1.74,5.31l1.43-4.52
			c0.03-0.08,0.04-0.16,0.04-0.26c0-0.24-0.08-0.4-0.24-0.49c-0.07-0.04-0.16-0.06-0.25-0.07c-0.1-0.01-0.19-0.02-0.28-0.03v-0.34
			h2.18V65.75z"/>
		<path class="st18" d="M186.4,72.47h-2.65v-0.34l0.63-0.07v-6.25l-0.63-0.07v-0.34h2.65v0.34l-0.7,0.07v6.25l0.7,0.07V72.47z"/>
		<path class="st18" d="M194.54,65.75c-0.12,0-0.21,0.01-0.27,0.02c-0.06,0.02-0.14,0.06-0.26,0.13c-0.11,0.07-0.2,0.15-0.26,0.25
			c-0.06,0.1-0.12,0.24-0.18,0.42l-1.67,5.26l0.25,0.6l-1.38,0.09l-2.23-6.71l-0.47-0.07v-0.34h2.44v0.34l-0.59,0.07l1.74,5.31
			l1.43-4.52c0.03-0.08,0.04-0.16,0.04-0.26c0-0.24-0.08-0.4-0.24-0.49c-0.07-0.04-0.15-0.06-0.25-0.07
			c-0.1-0.01-0.19-0.02-0.28-0.03v-0.34h2.18V65.75z"/>
		<path class="st18" d="M202.79,72.47h-2.46v-0.34l0.65-0.07l-0.6-1.78h-2.37l-0.3,0.96c-0.04,0.11-0.06,0.23-0.06,0.35
			c0,0.09,0.01,0.17,0.04,0.24c0.03,0.07,0.08,0.13,0.15,0.17c0.07,0.04,0.2,0.08,0.39,0.1c0.03,0,0.07,0.01,0.13,0.02v0.34h-2.1
			v-0.34c0.18-0.02,0.34-0.08,0.49-0.17c0.15-0.09,0.25-0.19,0.32-0.28c0.06-0.09,0.12-0.22,0.17-0.39l1.71-5.29l-0.23-0.54
			l1.35-0.12l2.28,6.73l0.46,0.07V72.47z M200.24,69.82l-1.05-3.21l-1.02,3.21H200.24z"/>
	</g>
	<g>
		<g>
			<path class="st17" d="M115.47,27.61c-0.13-0.16-0.29-0.28-0.49-0.37c-0.19-0.09-0.41-0.13-0.67-0.13c-0.25,0-0.49,0.05-0.7,0.15
				c-0.21,0.1-0.4,0.23-0.56,0.41c-0.16,0.18-0.28,0.38-0.37,0.62c-0.09,0.24-0.13,0.5-0.13,0.78c0,0.29,0.04,0.55,0.13,0.79
				c0.09,0.24,0.21,0.44,0.37,0.62c0.15,0.18,0.34,0.31,0.55,0.41c0.21,0.1,0.43,0.15,0.67,0.15c0.28,0,0.52-0.06,0.73-0.17
				c0.21-0.11,0.39-0.28,0.52-0.48l1.12,0.83c-0.26,0.36-0.58,0.63-0.98,0.8c-0.4,0.17-0.8,0.26-1.22,0.26
				c-0.48,0-0.91-0.07-1.32-0.22c-0.4-0.15-0.75-0.36-1.04-0.64c-0.29-0.28-0.52-0.61-0.68-1.01c-0.16-0.4-0.25-0.84-0.25-1.32
				c0-0.49,0.08-0.93,0.25-1.32c0.16-0.4,0.39-0.73,0.68-1.01c0.29-0.28,0.64-0.49,1.04-0.64c0.4-0.15,0.84-0.22,1.32-0.22
				c0.17,0,0.35,0.02,0.54,0.05c0.19,0.03,0.37,0.08,0.55,0.15c0.18,0.07,0.35,0.16,0.52,0.28c0.17,0.11,0.31,0.25,0.45,0.42
				L115.47,27.61z"/>
			<path class="st17" d="M117.43,26.03h4.13v1.24h-2.79v1.14h2.64v1.24h-2.64v1.24h2.95v1.24h-4.29V26.03z"/>
			<path class="st17" d="M122.79,26.03h2.36c0.31,0,0.6,0.03,0.88,0.09c0.28,0.06,0.52,0.16,0.73,0.3c0.21,0.14,0.38,0.33,0.5,0.57
				c0.12,0.24,0.18,0.53,0.18,0.89c0,0.43-0.11,0.8-0.34,1.1s-0.55,0.49-0.98,0.57l1.55,2.57h-1.61l-1.27-2.43h-0.66v2.43h-1.34
				V26.03z M124.13,28.55h0.79c0.12,0,0.25,0,0.38-0.01c0.13-0.01,0.26-0.03,0.37-0.08c0.11-0.04,0.2-0.11,0.27-0.2
				c0.07-0.09,0.11-0.22,0.11-0.39c0-0.15-0.03-0.28-0.09-0.37c-0.06-0.09-0.14-0.16-0.24-0.21c-0.1-0.05-0.21-0.08-0.34-0.1
				c-0.13-0.02-0.25-0.03-0.37-0.03h-0.88V28.55z"/>
			<path class="st17" d="M128.36,26.03h2.36c0.31,0,0.6,0.03,0.88,0.09c0.28,0.06,0.52,0.16,0.73,0.3c0.21,0.14,0.38,0.33,0.5,0.57
				c0.12,0.24,0.18,0.53,0.18,0.89c0,0.43-0.11,0.8-0.34,1.1c-0.22,0.3-0.55,0.49-0.98,0.57l1.55,2.57h-1.61l-1.27-2.43h-0.66v2.43
				h-1.34V26.03z M129.7,28.55h0.79c0.12,0,0.25,0,0.38-0.01c0.13-0.01,0.26-0.03,0.37-0.08c0.11-0.04,0.2-0.11,0.27-0.2
				c0.07-0.09,0.11-0.22,0.11-0.39c0-0.15-0.03-0.28-0.09-0.37c-0.06-0.09-0.14-0.16-0.24-0.21c-0.1-0.05-0.21-0.08-0.34-0.1
				c-0.13-0.02-0.25-0.03-0.37-0.03h-0.88V28.55z"/>
			<path class="st17" d="M135.93,26.03h1.11l2.65,6.09h-1.51l-0.52-1.29h-2.36l-0.51,1.29h-1.48L135.93,26.03z M136.45,27.8
				l-0.74,1.89h1.49L136.45,27.8z"/>
			<path class="st17" d="M140.3,26.03h2.01c0.49,0,0.95,0.05,1.39,0.16c0.44,0.11,0.82,0.29,1.15,0.53
				c0.33,0.24,0.59,0.56,0.78,0.95s0.29,0.86,0.29,1.42c0,0.49-0.09,0.93-0.28,1.3c-0.19,0.38-0.44,0.69-0.75,0.95
				c-0.31,0.25-0.68,0.45-1.09,0.58c-0.41,0.13-0.85,0.2-1.3,0.2h-2.19V26.03z M141.64,30.88h0.7c0.31,0,0.6-0.03,0.86-0.09
				c0.27-0.06,0.5-0.17,0.69-0.31c0.19-0.15,0.35-0.34,0.46-0.58c0.11-0.24,0.17-0.53,0.17-0.87c0-0.3-0.06-0.56-0.17-0.78
				c-0.11-0.22-0.26-0.4-0.45-0.55c-0.19-0.14-0.41-0.25-0.67-0.32c-0.25-0.07-0.52-0.11-0.8-0.11h-0.79V30.88z"/>
			<path class="st17" d="M148.83,26.03h1.11l2.65,6.09h-1.51l-0.52-1.29h-2.36l-0.51,1.29h-1.48L148.83,26.03z M149.34,27.8
				l-0.74,1.89h1.49L149.34,27.8z"/>
			<path class="st17" d="M155.74,26.03h1.34v2.27h2.6v-2.27h1.34v6.09h-1.34v-2.63h-2.6v2.63h-1.34V26.03z"/>
			<path class="st17" d="M164.26,26.03h1.11l2.65,6.09h-1.51l-0.52-1.29h-2.36l-0.51,1.29h-1.48L164.26,26.03z M164.78,27.8
				l-0.74,1.89h1.49L164.78,27.8z"/>
			<path class="st17" d="M168.63,26.03h2.27c0.26,0,0.53,0.02,0.8,0.06c0.27,0.04,0.51,0.11,0.72,0.22
				c0.21,0.11,0.38,0.27,0.52,0.47c0.13,0.2,0.2,0.47,0.2,0.8c0,0.34-0.1,0.63-0.29,0.85c-0.19,0.23-0.45,0.39-0.76,0.49v0.02
				c0.2,0.03,0.38,0.08,0.55,0.17c0.16,0.08,0.3,0.19,0.42,0.32c0.12,0.13,0.21,0.28,0.27,0.45c0.06,0.17,0.09,0.36,0.09,0.55
				c0,0.32-0.07,0.59-0.21,0.8c-0.14,0.22-0.32,0.39-0.53,0.52c-0.22,0.13-0.46,0.23-0.74,0.28c-0.27,0.06-0.54,0.09-0.81,0.09
				h-2.49V26.03z M169.97,28.46h0.97c0.1,0,0.2-0.01,0.31-0.03c0.1-0.02,0.19-0.06,0.27-0.11c0.08-0.05,0.14-0.12,0.19-0.21
				c0.05-0.09,0.07-0.19,0.07-0.31c0-0.13-0.03-0.23-0.08-0.31c-0.05-0.08-0.12-0.15-0.21-0.19c-0.09-0.05-0.18-0.08-0.29-0.1
				c-0.11-0.02-0.22-0.03-0.32-0.03h-0.91V28.46z M169.97,30.98h1.2c0.1,0,0.21-0.01,0.31-0.03c0.11-0.02,0.2-0.06,0.29-0.12
				c0.09-0.06,0.16-0.13,0.21-0.22s0.08-0.2,0.08-0.34c0-0.14-0.04-0.26-0.11-0.35c-0.07-0.09-0.16-0.16-0.27-0.2
				c-0.11-0.05-0.23-0.08-0.35-0.09c-0.13-0.02-0.24-0.03-0.35-0.03h-1.01V30.98z"/>
			<path class="st17" d="M174.18,26.03h1.34v6.09h-1.34V26.03z"/>
			<path class="st17" d="M177.92,27.22h-1.74v-1.19H181v1.19h-1.74v4.9h-1.34V27.22z"/>
			<path class="st17" d="M182.89,26.03H184l2.65,6.09h-1.51l-0.52-1.29h-2.36l-0.51,1.29h-1.48L182.89,26.03z M183.41,27.8
				l-0.74,1.89h1.49L183.41,27.8z"/>
			<path class="st17" d="M191.24,27.61c-0.13-0.16-0.29-0.28-0.49-0.37c-0.19-0.09-0.41-0.13-0.67-0.13c-0.25,0-0.49,0.05-0.7,0.15
				c-0.21,0.1-0.4,0.23-0.56,0.41c-0.16,0.18-0.28,0.38-0.37,0.62c-0.09,0.24-0.13,0.5-0.13,0.78c0,0.29,0.04,0.55,0.13,0.79
				c0.09,0.24,0.21,0.44,0.37,0.62c0.15,0.18,0.34,0.31,0.55,0.41c0.21,0.1,0.43,0.15,0.67,0.15c0.28,0,0.52-0.06,0.73-0.17
				c0.21-0.11,0.39-0.28,0.52-0.48l1.12,0.83c-0.26,0.36-0.58,0.63-0.98,0.8c-0.4,0.17-0.8,0.26-1.22,0.26
				c-0.48,0-0.91-0.07-1.32-0.22c-0.4-0.15-0.75-0.36-1.04-0.64c-0.29-0.28-0.52-0.61-0.68-1.01c-0.16-0.4-0.25-0.84-0.25-1.32
				c0-0.49,0.08-0.93,0.25-1.32c0.16-0.4,0.39-0.73,0.68-1.01c0.29-0.28,0.64-0.49,1.04-0.64c0.4-0.15,0.84-0.22,1.32-0.22
				c0.17,0,0.35,0.02,0.54,0.05c0.19,0.03,0.37,0.08,0.55,0.15c0.18,0.07,0.35,0.16,0.52,0.28c0.17,0.11,0.31,0.25,0.45,0.42
				L191.24,27.61z"/>
			<path class="st17" d="M193.13,26.03h1.34v6.09h-1.34V26.03z"/>
			<path class="st17" d="M195.36,29.07c0-0.49,0.08-0.93,0.25-1.32c0.16-0.4,0.39-0.73,0.68-1.01c0.29-0.28,0.64-0.49,1.04-0.64
				c0.4-0.15,0.84-0.22,1.32-0.22c0.48,0,0.91,0.07,1.31,0.22c0.4,0.15,0.75,0.36,1.04,0.64c0.29,0.28,0.52,0.61,0.68,1.01
				c0.16,0.4,0.24,0.84,0.24,1.32c0,0.49-0.08,0.93-0.24,1.32c-0.16,0.4-0.39,0.73-0.68,1.01c-0.29,0.28-0.64,0.49-1.04,0.64
				c-0.4,0.15-0.84,0.22-1.31,0.22c-0.48,0-0.91-0.07-1.32-0.22c-0.4-0.15-0.75-0.36-1.04-0.64c-0.29-0.28-0.52-0.61-0.68-1.01
				C195.44,30,195.36,29.56,195.36,29.07z M196.75,29.07c0,0.29,0.04,0.55,0.13,0.79c0.09,0.24,0.22,0.44,0.38,0.62
				c0.17,0.18,0.37,0.31,0.6,0.41c0.23,0.1,0.49,0.15,0.78,0.15c0.29,0,0.55-0.05,0.78-0.15c0.23-0.1,0.43-0.23,0.6-0.41
				c0.17-0.17,0.29-0.38,0.38-0.62c0.09-0.24,0.13-0.5,0.13-0.79c0-0.28-0.04-0.54-0.13-0.78c-0.09-0.24-0.22-0.45-0.38-0.62
				c-0.17-0.17-0.37-0.31-0.6-0.41c-0.23-0.1-0.49-0.15-0.78-0.15c-0.29,0-0.55,0.05-0.78,0.15c-0.23,0.1-0.43,0.23-0.6,0.41
				c-0.17,0.18-0.29,0.38-0.38,0.62C196.8,28.53,196.75,28.79,196.75,29.07z"/>
			<path class="st17" d="M202.84,26.03h1.82l2.59,4.23h0.02v-4.23h1.34v6.09h-1.75l-2.66-4.33h-0.02v4.33h-1.34V26.03z"/>
			<path class="st17" d="M211.85,26.03h1.11l2.65,6.09h-1.51l-0.52-1.29h-2.36l-0.51,1.29h-1.48L211.85,26.03z M212.36,27.8
				l-0.74,1.89h1.49L212.36,27.8z"/>
			<path class="st17" d="M216.27,26.03h1.34v4.85h2.48v1.24h-3.83V26.03z"/>
		</g>
	</g>
	<g>
		<g>
			<g>
				<path class="st17" d="M20.28,82.96L20.28,82.96c4.26,7.67,11.93,10,18.97,10.57c8.32,0.67,17.45-0.79,23.42-8.73
					c2.75-3.65,4.59-8.4,5.96-13.28c2.85-10.14,3.71-42.42-0.57-51.58c-2.07-4.42-5.18-7.79-8.56-10.29
					c-10.81-7.97-23.17-6.43-33.17,2.91c-6.79,6.34-8.09,14.08-8.98,24.75C16.61,45.98,16.2,75.6,20.28,82.96z"/>
			</g>
		</g>
		<g>
			<path class="st18" d="M65.27,46.08c-0.25-0.27-0.61-0.41-0.97-0.4l-3.77,0.21c0.19-0.64,0.35-1.28,0.51-1.92
				c0.12-0.49,0.25-0.98,0.38-1.47c0.35-1.26,0.63-2.51,0.85-3.7c0.07-0.37-0.04-0.75-0.29-1.03s-0.62-0.44-0.99-0.41l-5.69,0.32
				c0.02-0.13,0.04-0.26,0.07-0.39c0.07-0.45,0.15-0.9,0.23-1.34c0.21-1.13,0.37-2.26,0.49-3.34c0.04-0.36-0.08-0.72-0.33-0.98
				c-0.25-0.26-0.6-0.41-0.96-0.38l-5.13,0.27c-0.17-0.68-0.47-1.24-0.93-1.69c-0.69-0.69-1.57-1.12-2.69-1.31
				c-0.04-0.01-0.09-0.01-0.13-0.02c-0.22-0.01-0.43-0.05-0.65-0.08c-0.2-0.03-0.39-0.06-0.59-0.08c-0.49-0.05-0.98-0.07-1.49-0.05
				c-0.69,0.02-1.38,0.11-2.07,0.26c-0.59,0.13-1.33,0.3-2,0.78c-0.4,0.29-0.74,0.65-1.01,1.07c-0.13,0.2-0.25,0.42-0.34,0.64
				l-0.05,0.1c-0.06,0.12-0.13,0.28-0.19,0.49c-0.02,0.07-0.03,0.14-0.05,0.21c-1.81-0.11-3.42-0.33-4.92-0.69
				c-0.37-0.09-0.76,0-1.06,0.24c-0.3,0.24-0.46,0.6-0.45,0.99c0.06,2.3,0.3,4.27,0.74,6.02c-1.71-0.11-3.32-0.27-4.84-0.51
				c-0.36-0.05-0.72,0.05-0.99,0.29c-0.27,0.24-0.43,0.58-0.42,0.94c0.02,2.01,0.21,4.66,1.21,7.35c-1.02-0.13-2.02-0.29-3-0.47
				c-0.36-0.07-0.74,0.03-1.02,0.27c-0.28,0.24-0.44,0.59-0.43,0.96c0.07,4.14,0.6,10.25,4.28,15.54c3.56,5.11,9.17,7.95,15.8,7.99
				l0.26,0c8.55,0,14.79-2.72,18.56-8.08c1.73-2.46,2.38-5.55,3-8.53c0.14-0.68,0.28-1.36,0.44-2.03c0.39-1.71,0.72-3.4,0.96-5.02
				C65.64,46.72,65.52,46.35,65.27,46.08z M62.23,51.56c-0.16,0.69-0.3,1.39-0.45,2.08c-0.6,2.87-1.17,5.58-2.61,7.63
				c-3.28,4.67-8.85,7.03-16.55,7.03l-0.24,0c-5.81-0.04-10.71-2.5-13.8-6.94c-2.34-3.36-3.53-7.32-3.79-12.69
				c1.04,0.16,2.11,0.3,3.2,0.41c0.32,0.54,0.69,1.07,1.1,1.58c2.98,3.73,7.68,5.79,13.25,5.79h0.08
				c7.31-0.03,12.68-2.08,15.95-6.09c0.5-0.61,0.89-1.27,1.22-1.95l3.31-0.18C62.72,49.31,62.49,50.43,62.23,51.56z M33.58,33.85
				c1.17,0.2,2.41,0.34,3.74,0.41c0,0.08-0.01,0.17,0,0.28c0.02,0.19,0.05,0.39,0.08,0.58l0.01,0.08c0.37,2.12,1.71,2.92,2.77,3.21
				c1.24,0.34,2.38,0.51,3.51,0.51c0.48,0,0.96-0.03,1.43-0.09c1.17-0.16,2.16-0.62,2.96-1.38c0.81-0.77,1.32-1.71,1.54-2.78
				c0.05-0.23,0.09-0.47,0.13-0.72l3.72-0.19c-0.08,0.57-0.18,1.16-0.28,1.74c-0.08,0.46-0.16,0.92-0.23,1.38
				c-0.31,1.87-0.59,3.64-1.34,4.93c-1.66,2.87-4.39,4.27-8.34,4.27c-0.12,0-0.24,0-0.36,0c-2.12-0.04-5.09-0.86-7.21-4.46
				C34.47,39.53,33.8,37.09,33.58,33.85z M39.89,32.3c0.01-0.04,0.03-0.07,0.05-0.11c0.03-0.07,0.07-0.14,0.1-0.21
				c0.04-0.09,0.08-0.17,0.14-0.25c0.11-0.17,0.25-0.31,0.4-0.43c0.25-0.18,0.63-0.27,1.08-0.37c0.54-0.12,1.08-0.19,1.62-0.21
				c0.1,0,0.19,0,0.29,0c0.29,0,0.59,0.01,0.87,0.04c0.16,0.02,0.33,0.04,0.49,0.06c0.26,0.04,0.52,0.07,0.77,0.09
				c0.59,0.11,0.99,0.3,1.3,0.61c0.21,0.21,0.32,0.51,0.36,1c0.04,0.5-0.03,1.03-0.16,1.66c-0.12,0.59-0.38,1.06-0.83,1.49
				c-0.42,0.4-0.94,0.64-1.59,0.72c-1.23,0.16-2.51,0.05-3.95-0.35c-0.5-0.14-0.86-0.41-1.01-1.27l-0.01-0.08
				c-0.02-0.12-0.04-0.23-0.04-0.34c0.01-0.14,0.03-0.27,0.02-0.41c-0.02-0.4-0.03-0.72,0-1.03C39.8,32.68,39.84,32.47,39.89,32.3z
				 M33.58,42.85c2.1,3.58,5.39,5.59,9.27,5.68c0.14,0,0.28,0,0.41,0c4.83,0,8.36-1.85,10.47-5.5c0.51-0.87,0.84-1.86,1.09-2.88
				l4.72-0.27c-0.14,0.64-0.31,1.29-0.49,1.95c-0.14,0.51-0.27,1.02-0.4,1.53c-0.52,2.05-1,3.99-2.18,5.43
				c-2.78,3.42-7.51,5.16-14.06,5.19h-0.07c-4.81,0-8.83-1.73-11.33-4.86c-1.82-2.28-2.76-4.98-2.98-8.61
				c1.45,0.18,2.97,0.3,4.57,0.38C32.89,41.57,33.21,42.23,33.58,42.85z"/>
		</g>
	</g>
	<g>
		<path class="st17" d="M252.37,42.85l0.74,0c0.33,0,0.56-0.08,0.71-0.19c0.11-0.07,0.18-0.23,0.18-0.42c0-0.12-0.04-0.19-0.11-0.31
			c-0.04-0.08-0.15-0.15-0.26-0.19c-0.11-0.04-0.3-0.04-0.59-0.04l-0.67,0L252.37,42.85z M251.78,44.97l0-3.81l1.26,0
			c0.44,0,0.74,0.04,0.93,0.12c0.22,0.08,0.37,0.19,0.48,0.35c0.11,0.19,0.19,0.38,0.19,0.58c0,0.27-0.11,0.54-0.3,0.73
			c-0.18,0.19-0.44,0.31-0.78,0.34c0.15,0.08,0.26,0.12,0.33,0.19c0.15,0.15,0.33,0.42,0.52,0.77l0.45,0.73l-0.71,0l-0.33-0.58
			c-0.26-0.46-0.45-0.77-0.63-0.88c-0.11-0.12-0.26-0.16-0.48-0.16l-0.34,0l0,1.61L251.78,44.97z M253.3,40.05
			c-0.48,0-0.96,0.15-1.41,0.38c-0.48,0.27-0.82,0.65-1.08,1.12c-0.26,0.46-0.41,0.96-0.41,1.46c0,0.54,0.15,1,0.41,1.5
			c0.22,0.46,0.59,0.81,1.04,1.08c0.45,0.27,0.93,0.38,1.45,0.38c0.48,0,0.96-0.11,1.41-0.38c0.44-0.27,0.82-0.62,1.04-1.08
			c0.26-0.5,0.37-0.96,0.37-1.5c0-0.5-0.11-1-0.37-1.46c-0.26-0.46-0.59-0.85-1.07-1.12C254.23,40.2,253.75,40.05,253.3,40.05
			 M253.3,39.47c0.56,0,1.11,0.15,1.67,0.46c0.56,0.31,0.96,0.73,1.26,1.31c0.33,0.58,0.48,1.16,0.48,1.77
			c0,0.62-0.15,1.23-0.45,1.77c-0.33,0.58-0.74,1-1.3,1.35c-0.52,0.31-1.08,0.46-1.67,0.46c-0.59,0-1.19-0.15-1.71-0.46
			c-0.56-0.35-0.96-0.77-1.3-1.35c-0.3-0.53-0.45-1.15-0.45-1.77c0-0.61,0.15-1.19,0.48-1.77c0.3-0.58,0.71-1,1.26-1.3
			C252.15,39.62,252.71,39.47,253.3,39.47"/>
	</g>
</g>
</svg>
