<?xml version="1.0" encoding="utf-8"?>
<!-- Generator: Adobe Illustrator 25.2.3, SVG Export Plug-In . SVG Version: 6.00 Build 0)  -->
<svg version="1.1" id="Capa_1" xmlns="http://www.w3.org/2000/svg" xmlns:xlink="http://www.w3.org/1999/xlink" x="0px" y="0px"
	 viewBox="0 0 309.11 107.96" style="enable-background:new 0 0 309.11 107.96;" xml:space="preserve">
<style type="text/css">
	.st0{fill:none;stroke:#72BFC1;stroke-width:3.6272;stroke-miterlimit:10;}
	.st1{fill:none;stroke:#72BFC1;stroke-width:2.4181;stroke-miterlimit:10;}
	.st2{opacity:0.44;fill:none;stroke:#B4B4B3;stroke-width:4.2317;stroke-miterlimit:10;}
	.st3{fill:none;stroke:#EEEEEE;stroke-width:5.4408;stroke-miterlimit:10;}
	.st4{fill:#F2A31A;}
	.st5{fill:#D35377;}
	.st6{fill:#FFFFFF;}
	.st7{opacity:0.78;}
	.st8{clip-path:url(#SVGID_2_);fill:#E14C77;}
	.st9{fill:#F2A31C;stroke:#F2A31C;stroke-width:1.2091;stroke-miterlimit:10;}
	.st10{fill:none;stroke:#F2A31C;stroke-width:1.2091;stroke-miterlimit:10;}
	.st11{fill:#E1537C;}
	.st12{fill:none;stroke:#FFFDFD;stroke-width:0.3023;stroke-miterlimit:10;}
	.st13{fill:none;stroke:#C0BFBE;stroke-width:0.4534;stroke-miterlimit:10;}
	.st14{fill:#C0BFBE;}
	.st15{fill:none;stroke:#F3E07A;stroke-width:3.6272;stroke-miterlimit:10;}
	.st16{clip-path:url(#SVGID_4_);fill:#FFFFFF;}
	.st17{fill:#51488A;}
	.st18{fill:#F7B0A0;}
	.st19{fill:#215A36;}
	.st20{fill:#F7B2A1;}
</style>
<g>
	<g>
		<g>
			<path class="st19" d="M108.2,41.43v19.4h-3.99V48.47l-7.95,12.35H91.8l-7.95-12.31v12.31h-3.99v-19.4h3.99l10.16,15.93
				l10.19-15.93H108.2z"/>
			<path class="st19" d="M117.36,41.43v19.4h-3.99v-19.4H117.36z"/>
			<path class="st19" d="M142.72,56.21v4.62h-3.98l-0.01-4.34c-0.01-2.21-1.72-2.81-4.87-2.81h-7.33v7.15h-3.99v-19.4h13.16
				c4.48,0,7.44,1.79,7.44,5.88c0,3.28-2.11,4.62-4.89,5.08C141.27,52.63,142.72,53.46,142.72,56.21z M135.7,50.53
				c2.02,0,3.43-1.12,3.45-2.98c0.01-1.77-1.41-2.65-3.45-2.65h-9.17v5.63H135.7z"/>
			<path class="st19" d="M161.78,56.41h-9.97l-2,4.42h-4.31l9.11-19.4h4.34l9.19,19.4h-4.35L161.78,56.41z M160.43,53.44l-3.64-7.99
				l-3.62,7.99H160.43z"/>
			<path class="st19" d="M189.11,41.43l-8.48,19.4h-4.99l-8.56-19.4h4.41l6.64,15.92l6.64-15.92H189.11z"/>
			<path class="st19" d="M210.98,57.5v3.33h-18.97v-19.4h18.93v3.33h-14.93v5.16h12.22v2.48h-12.22v5.1H210.98z"/>
			<path class="st19" d="M235.25,56.21v4.62h-3.98l-0.01-4.34c-0.01-2.21-1.72-2.81-4.87-2.81h-7.33v7.15h-3.99v-19.4h13.16
				c4.48,0,7.44,1.79,7.44,5.88c0,3.28-2.11,4.62-4.89,5.08C233.81,52.63,235.25,53.46,235.25,56.21z M228.23,50.53
				c2.02,0,3.43-1.12,3.45-2.98c0.01-1.77-1.41-2.65-3.45-2.65h-9.17v5.63H228.23z"/>
			<path class="st19" d="M262.31,51.07c0,5.14-3.03,9.76-11.37,9.76h-11.1v-19.4h11.1C259.67,41.43,262.31,45.93,262.31,51.07z
				 M258.24,51.07c0-3.28-1.66-6.17-7.4-6.17h-7.01v12.47h7.01C256.58,57.37,258.24,54.35,258.24,51.07z"/>
			<path class="st19" d="M285.17,57.5v3.33H266.2v-19.4h18.93v3.33h-14.93v5.16h12.22v2.48h-12.22v5.1H285.17z"/>
		</g>
	</g>
	<g>
		<g>
			<path class="st19" d="M133.78,30.04h2.07c0.29,0,0.56,0.03,0.82,0.08c0.26,0.05,0.48,0.14,0.67,0.27
				c0.19,0.13,0.34,0.3,0.46,0.52c0.11,0.22,0.17,0.49,0.17,0.82c0,0.32-0.05,0.6-0.16,0.82c-0.11,0.22-0.25,0.4-0.43,0.53
				c-0.18,0.13-0.4,0.23-0.65,0.28c-0.25,0.06-0.52,0.08-0.82,0.08h-0.9v2.17h-1.23V30.04z M135.01,32.39h0.82
				c0.11,0,0.22-0.01,0.32-0.03s0.19-0.06,0.28-0.11c0.08-0.05,0.15-0.12,0.2-0.2c0.05-0.09,0.07-0.2,0.07-0.33
				c0-0.14-0.03-0.26-0.1-0.34c-0.07-0.09-0.15-0.15-0.25-0.2c-0.1-0.05-0.22-0.08-0.34-0.09c-0.12-0.01-0.25-0.02-0.36-0.02h-0.63
				V32.39z"/>
			<path class="st19" d="M138.73,30.04h2.15c0.28,0,0.55,0.03,0.81,0.08c0.25,0.06,0.48,0.15,0.67,0.28
				c0.19,0.13,0.34,0.3,0.46,0.52c0.11,0.22,0.17,0.49,0.17,0.81c0,0.39-0.1,0.73-0.31,1s-0.5,0.45-0.9,0.52l1.42,2.35h-1.47
				l-1.16-2.22h-0.6v2.22h-1.23V30.04z M139.96,32.34h0.72c0.11,0,0.23,0,0.35-0.01c0.12-0.01,0.23-0.03,0.33-0.07
				c0.1-0.04,0.18-0.1,0.25-0.18c0.07-0.08,0.1-0.2,0.1-0.35c0-0.14-0.03-0.25-0.09-0.34c-0.06-0.08-0.13-0.15-0.22-0.19
				c-0.09-0.04-0.19-0.07-0.31-0.09c-0.12-0.02-0.23-0.02-0.34-0.02h-0.8V32.34z"/>
			<path class="st19" d="M143.81,30.04h1.23v5.57h-1.23V30.04z"/>
			<path class="st19" d="M145.61,30.04h1.4l1.38,3.65h0.02l1.4-3.65h1.31l-2.3,5.57h-0.98L145.61,30.04z"/>
			<path class="st19" d="M153.09,30.04h1.01l2.42,5.57h-1.38l-0.48-1.18h-2.16l-0.46,1.18h-1.35L153.09,30.04z M153.56,31.66
				l-0.68,1.73h1.36L153.56,31.66z"/>
			<path class="st19" d="M157.09,30.04h1.84c0.44,0,0.87,0.05,1.27,0.15c0.4,0.1,0.75,0.26,1.05,0.48c0.3,0.22,0.54,0.51,0.71,0.87
				c0.18,0.36,0.26,0.79,0.26,1.3c0,0.45-0.08,0.85-0.25,1.19c-0.17,0.34-0.4,0.63-0.69,0.87s-0.62,0.41-1,0.53
				c-0.38,0.12-0.77,0.18-1.19,0.18h-2V30.04z M158.31,34.47h0.64c0.28,0,0.55-0.03,0.79-0.09c0.24-0.06,0.45-0.15,0.63-0.29
				c0.18-0.13,0.32-0.31,0.42-0.53c0.1-0.22,0.15-0.48,0.15-0.8c0-0.27-0.05-0.51-0.15-0.71c-0.1-0.2-0.24-0.37-0.41-0.5
				c-0.17-0.13-0.38-0.23-0.61-0.29s-0.48-0.1-0.73-0.1h-0.72V34.47z"/>
			<path class="st19" d="M164.88,30.04h1.01l2.42,5.57h-1.38l-0.48-1.18h-2.16l-0.46,1.18h-1.35L164.88,30.04z M165.36,31.66
				l-0.68,1.73h1.36L165.36,31.66z"/>
			<path class="st19" d="M171.2,30.04h1.23v2.08h2.38v-2.08h1.23v5.57h-1.23V33.2h-2.38v2.41h-1.23V30.04z"/>
			<path class="st19" d="M179,30.04h1.01l2.42,5.57h-1.38l-0.48-1.18h-2.16l-0.46,1.18h-1.35L179,30.04z M179.48,31.66l-0.68,1.73
				h1.36L179.48,31.66z"/>
			<path class="st19" d="M183,30.04h2.08c0.24,0,0.48,0.02,0.73,0.05c0.24,0.03,0.46,0.1,0.66,0.2c0.19,0.1,0.35,0.24,0.47,0.43
				c0.12,0.18,0.18,0.43,0.18,0.73c0,0.31-0.09,0.58-0.26,0.78c-0.18,0.21-0.41,0.36-0.7,0.44v0.02c0.18,0.03,0.35,0.08,0.5,0.15
				s0.28,0.17,0.38,0.29c0.11,0.12,0.19,0.26,0.25,0.41c0.06,0.16,0.09,0.32,0.09,0.5c0,0.29-0.06,0.54-0.19,0.73
				s-0.29,0.36-0.49,0.48c-0.2,0.12-0.42,0.21-0.67,0.26c-0.25,0.05-0.5,0.08-0.74,0.08H183V30.04z M184.23,32.26h0.89
				c0.09,0,0.19-0.01,0.28-0.03c0.09-0.02,0.17-0.06,0.25-0.1c0.07-0.05,0.13-0.11,0.18-0.19c0.05-0.08,0.07-0.17,0.07-0.28
				c0-0.12-0.02-0.21-0.07-0.29c-0.05-0.08-0.11-0.14-0.19-0.18c-0.08-0.04-0.17-0.07-0.27-0.09c-0.1-0.02-0.2-0.03-0.29-0.03h-0.83
				V32.26z M184.23,34.57h1.1c0.09,0,0.19-0.01,0.29-0.03c0.1-0.02,0.18-0.06,0.26-0.11c0.08-0.05,0.14-0.12,0.19-0.2
				c0.05-0.08,0.07-0.19,0.07-0.31c0-0.13-0.03-0.24-0.1-0.32c-0.07-0.08-0.15-0.14-0.25-0.19c-0.1-0.04-0.21-0.07-0.32-0.09
				c-0.12-0.01-0.22-0.02-0.32-0.02h-0.93V34.57z"/>
			<path class="st19" d="M188.08,30.04h1.23v5.57h-1.23V30.04z"/>
			<path class="st19" d="M191.5,31.12h-1.59v-1.08h4.4v1.08h-1.59v4.48h-1.23V31.12z"/>
			<path class="st19" d="M196.04,30.04h1.01l2.42,5.57h-1.38l-0.48-1.18h-2.16l-0.46,1.18h-1.35L196.04,30.04z M196.51,31.66
				l-0.68,1.73h1.36L196.51,31.66z"/>
			<path class="st19" d="M203.68,31.48c-0.12-0.15-0.27-0.26-0.44-0.34c-0.18-0.08-0.38-0.12-0.61-0.12c-0.23,0-0.44,0.04-0.64,0.13
				s-0.37,0.21-0.51,0.37c-0.14,0.16-0.26,0.35-0.34,0.57c-0.08,0.22-0.12,0.46-0.12,0.72c0,0.26,0.04,0.5,0.12,0.72
				s0.19,0.41,0.33,0.57c0.14,0.16,0.31,0.28,0.5,0.37c0.19,0.09,0.4,0.13,0.62,0.13c0.25,0,0.47-0.05,0.67-0.16
				c0.19-0.11,0.35-0.25,0.48-0.44l1.02,0.76c-0.24,0.33-0.54,0.57-0.9,0.73c-0.36,0.16-0.73,0.24-1.12,0.24
				c-0.43,0-0.84-0.07-1.2-0.2c-0.37-0.14-0.69-0.33-0.95-0.59c-0.27-0.25-0.48-0.56-0.63-0.92c-0.15-0.36-0.22-0.77-0.22-1.21
				c0-0.45,0.07-0.85,0.22-1.21c0.15-0.36,0.36-0.67,0.63-0.92c0.27-0.25,0.58-0.45,0.95-0.59c0.37-0.14,0.77-0.2,1.2-0.2
				c0.16,0,0.32,0.01,0.49,0.04c0.17,0.03,0.34,0.07,0.5,0.14c0.17,0.06,0.32,0.15,0.48,0.25c0.15,0.11,0.29,0.23,0.41,0.38
				L203.68,31.48z"/>
			<path class="st19" d="M205.41,30.04h1.23v5.57h-1.23V30.04z"/>
			<path class="st19" d="M207.45,32.82c0-0.45,0.07-0.85,0.22-1.21s0.36-0.67,0.63-0.92c0.27-0.25,0.58-0.45,0.95-0.59
				c0.37-0.14,0.77-0.2,1.2-0.2c0.44,0,0.84,0.07,1.2,0.2c0.37,0.14,0.69,0.33,0.95,0.59c0.27,0.25,0.48,0.56,0.63,0.92
				s0.22,0.77,0.22,1.21c0,0.44-0.07,0.85-0.22,1.21s-0.36,0.67-0.63,0.92c-0.27,0.25-0.58,0.45-0.95,0.59
				c-0.37,0.14-0.77,0.2-1.2,0.2c-0.43,0-0.84-0.07-1.2-0.2c-0.37-0.14-0.69-0.33-0.95-0.59c-0.27-0.25-0.48-0.56-0.63-0.92
				S207.45,33.27,207.45,32.82z M208.72,32.82c0,0.26,0.04,0.5,0.12,0.72s0.2,0.41,0.35,0.57c0.15,0.16,0.33,0.28,0.55,0.37
				c0.21,0.09,0.45,0.13,0.71,0.13c0.26,0,0.5-0.04,0.71-0.13c0.21-0.09,0.39-0.21,0.55-0.37c0.15-0.16,0.27-0.35,0.35-0.57
				c0.08-0.22,0.12-0.46,0.12-0.72c0-0.26-0.04-0.5-0.12-0.72c-0.08-0.22-0.2-0.41-0.35-0.57c-0.15-0.16-0.33-0.28-0.55-0.37
				c-0.21-0.09-0.45-0.13-0.71-0.13c-0.26,0-0.5,0.04-0.71,0.13c-0.21,0.09-0.39,0.21-0.55,0.37c-0.15,0.16-0.27,0.35-0.35,0.57
				C208.76,32.32,208.72,32.56,208.72,32.82z"/>
			<path class="st19" d="M214.29,30.04h1.67l2.37,3.87h0.02v-3.87h1.23v5.57h-1.6l-2.43-3.96h-0.01v3.96h-1.23V30.04z"/>
			<path class="st19" d="M222.53,30.04h1.01l2.42,5.57h-1.38l-0.48-1.18h-2.16l-0.46,1.18h-1.35L222.53,30.04z M223,31.66
				l-0.68,1.73h1.36L223,31.66z"/>
			<path class="st19" d="M226.57,30.04h1.23v4.44h2.27v1.13h-3.5V30.04z"/>
		</g>
	</g>
	<g>
		<g>
			<g>
				<path class="st19" d="M20.92,81.46L20.92,81.46c3.89,7.02,10.91,9.15,17.35,9.67c7.61,0.62,15.96-0.72,21.42-7.98
					c2.51-3.34,4.19-7.68,5.45-12.15c2.61-9.27,3.39-38.8-0.53-47.18c-1.89-4.04-4.74-7.13-7.83-9.41
					c-9.88-7.29-21.2-5.88-30.34,2.66c-6.21,5.8-7.4,12.88-8.22,22.64C17.56,47.63,17.18,74.73,20.92,81.46z"/>
			</g>
		</g>
	</g>
	<g>
		<path class="st20" d="M42.64,73.13c-4,0-5.71-2.11-6.45-3.88c-2.13-5.12,1.01-14.51,5.13-22.56c-2.24-4.22-4.74-8.05-6.87-10.52
			c-1.09,1.35-2.33,3.28-3.47,5.4c2.4,4.73,4.16,10.19,2.87,13.29c-0.48,1.16-1.6,2.54-4.18,2.54c-2.55,0-3.65-1.35-4.13-2.48
			c-1.28-3.02,0.5-8.53,2.91-13.32c-1.43-2.68-3.03-5.06-4.3-6.33c-0.44-0.44-0.44-1.15,0-1.59c0.44-0.44,1.15-0.44,1.59,0
			c1.13,1.14,2.59,3.16,3.98,5.56c1.37-2.38,2.79-4.39,3.91-5.55c0.42-0.44,1.19-0.44,1.62,0c2.08,2.15,4.81,6.07,7.33,10.63
			c2.57-4.63,5.34-8.57,7.4-10.64c0.21-0.21,0.5-0.33,0.79-0.33c0.3,0.06,0.6,0.12,0.81,0.34c1.1,1.14,2.5,3.12,3.85,5.47
			c1.38-2.37,2.82-4.36,3.94-5.48c0.44-0.44,1.15-0.44,1.59,0c0.44,0.44,0.44,1.15,0,1.59c-1.26,1.26-2.84,3.6-4.26,6.25
			c2.4,4.79,4.18,10.33,2.89,13.38c-0.48,1.14-1.6,2.5-4.15,2.5c-2.58,0-3.7-1.38-4.18-2.54c-1.29-3.12,0.49-8.63,2.91-13.37
			c-1.12-2.1-2.34-4-3.42-5.34c-2.12,2.41-4.65,6.25-6.91,10.53c4.17,8.12,7.33,17.56,5.16,22.66
			C48.28,71.08,46.58,73.13,42.64,73.13z M42.59,49.18c-3.53,7.28-5.98,15.21-4.32,19.22c0.7,1.68,2.13,2.49,4.37,2.49
			c2.21,0,3.61-0.79,4.3-2.41C48.63,64.5,46.16,56.53,42.59,49.18z M55.44,44.07c-1.79,3.9-2.95,7.93-2.11,9.94
			c0.22,0.54,0.66,1.16,2.1,1.16c1.42,0,1.86-0.6,2.08-1.13C58.39,52.01,57.23,47.97,55.44,44.07z M29.71,44.15
			c-1.79,3.89-2.95,7.9-2.1,9.91c0.22,0.52,0.65,1.11,2.07,1.11c1.44,0,1.88-0.62,2.11-1.16C32.62,52.01,31.48,48.02,29.71,44.15z"
			/>
	</g>
	<g>
		<g>
			<path class="st20" d="M153.07,70.65l-0.09,0.24c-0.18,0.52-0.48,0.93-0.9,1.22c-0.42,0.29-0.89,0.44-1.42,0.44
				c-0.82,0-1.48-0.32-1.97-0.96c-0.45-0.59-0.68-1.32-0.68-2.19c0-0.94,0.24-1.74,0.71-2.42c0.51-0.73,1.17-1.1,1.98-1.1
				c0.15,0,0.45,0.04,0.89,0.12c0.18,0.04,0.3,0.06,0.36,0.04c0.2-0.03,0.32-0.05,0.37-0.06c0.04-0.01,0.14-0.05,0.28-0.11
				l0.44,1.95l-0.32,0.07l-0.11-0.2c-0.28-0.49-0.53-0.85-0.75-1.06c-0.31-0.3-0.67-0.45-1.07-0.45c-0.53,0-0.95,0.27-1.25,0.81
				c-0.26,0.47-0.39,1.03-0.39,1.69c0,0.81,0.16,1.5,0.49,2.09c0.38,0.68,0.89,1.02,1.53,1.02c0.34,0,0.64-0.09,0.9-0.27
				c0.26-0.18,0.47-0.44,0.62-0.76l0.1-0.21L153.07,70.65z"/>
			<path class="st20" d="M157.11,72.44h-2.42v-0.31l0.58-0.06v-5.7l-0.58-0.06v-0.31h2.42v0.31l-0.64,0.06v5.7l0.64,0.06V72.44z"/>
			<path class="st20" d="M164.42,66.3c-0.08,0-0.17,0.01-0.26,0.04s-0.17,0.07-0.23,0.11c-0.11,0.09-0.18,0.2-0.22,0.31
				c-0.03,0.11-0.05,0.26-0.05,0.44v3.32c0,0.61-0.16,1.1-0.49,1.45c-0.37,0.4-0.92,0.6-1.65,0.6c-0.73,0-1.3-0.17-1.69-0.5
				c-0.4-0.34-0.59-0.8-0.59-1.39v-4.32l-0.53-0.06v-0.31h2.3v0.31l-0.57,0.06v4.07c0,0.5,0.1,0.89,0.29,1.17
				c0.24,0.35,0.62,0.53,1.13,0.53c0.47,0,0.82-0.15,1.06-0.45c0.21-0.27,0.31-0.62,0.31-1.05V67.2c0-0.17-0.01-0.3-0.04-0.4
				c-0.03-0.09-0.09-0.19-0.19-0.29c-0.05-0.05-0.14-0.1-0.25-0.14c-0.11-0.04-0.21-0.06-0.3-0.06v-0.31h1.97V66.3z"/>
			<path class="st20" d="M171.62,69.2c0,0.98-0.3,1.77-0.89,2.37c-0.57,0.58-1.29,0.87-2.18,0.87h-2.57v-0.31l0.55-0.06v-5.7
				l-0.55-0.06v-0.31h1.94h0.77c0.68,0,1.3,0.24,1.86,0.71C171.26,67.3,171.62,68.14,171.62,69.2z M170.39,69.15
				c0-1.01-0.19-1.76-0.58-2.23c-0.34-0.41-0.81-0.62-1.42-0.62c-0.12,0-0.31,0.01-0.56,0.04c-0.03,0-0.09,0.01-0.15,0.02v5.7h0.9
				c0.63,0,1.09-0.28,1.4-0.85C170.26,70.72,170.39,70.03,170.39,69.15z"/>
			<path class="st20" d="M179.28,72.44h-2.24v-0.31l0.59-0.06l-0.55-1.62h-2.16l-0.27,0.88c-0.04,0.1-0.06,0.21-0.06,0.32
				c0,0.08,0.01,0.16,0.04,0.22c0.03,0.07,0.07,0.12,0.14,0.15c0.06,0.04,0.18,0.07,0.35,0.09c0.02,0,0.06,0.01,0.12,0.02v0.31
				h-1.91v-0.31c0.16-0.02,0.31-0.07,0.44-0.15c0.14-0.09,0.23-0.17,0.29-0.26c0.06-0.09,0.11-0.21,0.16-0.36l1.56-4.82l-0.21-0.5
				l1.23-0.11l2.08,6.13l0.42,0.06V72.44z M176.95,70.02l-0.96-2.93l-0.93,2.93H176.95z"/>
			<path class="st20" d="M186.46,69.2c0,0.98-0.3,1.77-0.89,2.37c-0.57,0.58-1.29,0.87-2.18,0.87h-2.57v-0.31l0.55-0.06v-5.7
				l-0.55-0.06v-0.31h1.94h0.77c0.68,0,1.3,0.24,1.86,0.71C186.1,67.3,186.46,68.14,186.46,69.2z M185.24,69.15
				c0-1.01-0.19-1.76-0.58-2.23c-0.34-0.41-0.81-0.62-1.42-0.62c-0.12,0-0.31,0.01-0.56,0.04c-0.04,0-0.09,0.01-0.15,0.02v5.7h0.9
				c0.63,0,1.09-0.28,1.4-0.85C185.1,70.72,185.24,70.03,185.24,69.15z"/>
			<path class="st20" d="M197.01,66.3c-0.11,0-0.19,0.01-0.25,0.02c-0.05,0.01-0.13,0.05-0.24,0.11c-0.1,0.06-0.18,0.14-0.24,0.23
				s-0.11,0.22-0.16,0.38l-1.52,4.8l0.23,0.55l-1.26,0.08l-2.04-6.12l-0.42-0.06v-0.31h2.22v0.31l-0.54,0.06l1.58,4.84l1.31-4.12
				c0.03-0.07,0.04-0.15,0.04-0.24c0-0.22-0.07-0.37-0.22-0.45c-0.07-0.04-0.14-0.06-0.23-0.07s-0.17-0.02-0.26-0.03v-0.31h1.99
				V66.3z"/>
			<path class="st20" d="M200.99,72.44h-2.42v-0.31l0.58-0.06v-5.7l-0.58-0.06v-0.31h2.42v0.31l-0.64,0.06v5.7l0.64,0.06V72.44z"/>
			<path class="st20" d="M208.41,66.3c-0.11,0-0.19,0.01-0.25,0.02c-0.05,0.01-0.13,0.05-0.23,0.11c-0.1,0.06-0.18,0.14-0.24,0.23
				c-0.06,0.09-0.11,0.22-0.16,0.38l-1.52,4.8l0.23,0.55l-1.26,0.08l-2.04-6.12l-0.43-0.06v-0.31h2.22v0.31l-0.54,0.06l1.58,4.84
				l1.31-4.12c0.03-0.07,0.04-0.15,0.04-0.24c0-0.22-0.07-0.37-0.22-0.45c-0.06-0.04-0.14-0.06-0.23-0.07s-0.17-0.02-0.26-0.03
				v-0.31h1.99V66.3z"/>
			<path class="st20" d="M215.93,72.44h-2.24v-0.31l0.59-0.06l-0.55-1.62h-2.16l-0.27,0.88c-0.04,0.1-0.06,0.21-0.06,0.32
				c0,0.08,0.01,0.16,0.04,0.22c0.03,0.07,0.07,0.12,0.14,0.15c0.07,0.04,0.18,0.07,0.35,0.09c0.02,0,0.06,0.01,0.11,0.02v0.31
				h-1.91v-0.31c0.16-0.02,0.31-0.07,0.44-0.15c0.14-0.09,0.23-0.17,0.29-0.26c0.06-0.09,0.11-0.21,0.15-0.36l1.56-4.82l-0.21-0.5
				l1.23-0.11l2.08,6.13l0.42,0.06V72.44z M213.61,70.02l-0.96-2.93l-0.93,2.93H213.61z"/>
		</g>
	</g>
	<path class="st19" d="M292.05,43.57l0.71,0c0.32,0,0.53-0.07,0.67-0.19c0.1-0.07,0.18-0.22,0.18-0.4c0-0.11-0.04-0.18-0.11-0.3
		c-0.04-0.07-0.14-0.15-0.25-0.18c-0.11-0.04-0.29-0.04-0.57-0.04l-0.64,0L292.05,43.57z M291.48,45.59l0-3.64l1.21,0
		c0.42,0,0.71,0.04,0.88,0.11c0.21,0.07,0.36,0.18,0.46,0.33c0.11,0.18,0.18,0.37,0.18,0.55c0,0.26-0.11,0.51-0.28,0.7
		c-0.18,0.18-0.42,0.29-0.74,0.33c0.14,0.07,0.25,0.11,0.32,0.19c0.14,0.15,0.32,0.41,0.49,0.74l0.43,0.7l-0.67,0l-0.32-0.55
		c-0.25-0.44-0.43-0.74-0.6-0.84c-0.11-0.11-0.25-0.15-0.46-0.15l-0.32,0l0,1.54L291.48,45.59z M292.94,40.89
		c-0.46,0-0.92,0.15-1.35,0.37c-0.46,0.26-0.78,0.63-1.03,1.07c-0.25,0.44-0.39,0.92-0.39,1.4c0,0.52,0.14,0.96,0.39,1.43
		c0.21,0.44,0.57,0.77,0.99,1.03c0.43,0.26,0.89,0.37,1.38,0.37c0.46,0,0.92-0.11,1.35-0.37c0.43-0.26,0.78-0.59,0.99-1.03
		c0.25-0.48,0.36-0.92,0.36-1.43c0-0.48-0.11-0.95-0.36-1.4c-0.25-0.44-0.57-0.81-1.03-1.07C293.82,41.04,293.36,40.89,292.94,40.89
		 M292.94,40.34c0.53,0,1.06,0.15,1.6,0.44c0.53,0.29,0.92,0.7,1.2,1.25c0.32,0.55,0.46,1.11,0.46,1.69c0,0.59-0.14,1.18-0.43,1.69
		c-0.32,0.55-0.71,0.96-1.24,1.29c-0.5,0.29-1.03,0.44-1.6,0.44c-0.56,0-1.13-0.15-1.63-0.44c-0.53-0.33-0.92-0.74-1.24-1.29
		c-0.28-0.51-0.43-1.1-0.43-1.69c0-0.59,0.14-1.14,0.46-1.69c0.28-0.55,0.68-0.95,1.21-1.25C291.84,40.48,292.37,40.34,292.94,40.34
		"/>
</g>
</svg>
