<?xml version="1.0" encoding="utf-8"?>
<!-- Generator: Adobe Illustrator 24.0.2, SVG Export Plug-In . SVG Version: 6.00 Build 0)  -->
<svg version="1.1" id="Capa_1" xmlns="http://www.w3.org/2000/svg" xmlns:xlink="http://www.w3.org/1999/xlink" x="0px" y="0px"
	 viewBox="0 0 414.1 405" style="enable-background:new 0 0 414.1 405;" xml:space="preserve">
<style type="text/css">
	.st0{fill:none;stroke:#72BFC1;stroke-width:3.6272;stroke-miterlimit:10;}
	.st1{fill:none;stroke:#72BFC1;stroke-width:2.4181;stroke-miterlimit:10;}
	.st2{opacity:0.44;fill:none;stroke:#B4B4B3;stroke-width:4.2317;stroke-miterlimit:10;enable-background:new    ;}
	.st3{fill:#1F140F;}
	.st4{font-family:'Avenir-Black';}
	.st5{font-size:4.4674px;}
	.st6{fill:none;stroke:#EEEEEE;stroke-width:5.4408;stroke-miterlimit:10;}
	.st7{font-size:4.2973px;}
	.st8{font-size:4.2571px;}
	.st9{font-size:4.2525px;}
	.st10{font-size:4.2528px;}
	.st11{font-size:4.2526px;}
	.st12{font-size:4.3162px;}
	.st13{fill:#FFFFFF;}
	.st14{font-size:3.6469px;}
	.st15{font-size:4.6299px;}
	.st16{fill:#F2A31A;}
	.st17{fill:#D35377;}
	.st18{opacity:0.78;}
	.st19{clip-path:url(#SVGID_2_);fill:#E14C77;}
	.st20{fill:#F2A31C;stroke:#F2A31C;stroke-width:1.2091;stroke-miterlimit:10;}
	.st21{fill:none;stroke:#F2A31C;stroke-width:1.2091;stroke-miterlimit:10;}
	.st22{fill:#E1537C;}
	.st23{fill:none;stroke:#FFFDFD;stroke-width:0.3023;stroke-miterlimit:10;}
	.st24{fill:#111A53;}
	.st25{font-size:4.2853px;}
	.st26{font-size:4.2854px;}
	.st27{font-size:4.2694px;}
	.st28{font-size:4.2697px;}
	.st29{font-size:4.2474px;}
	.st30{font-size:4.2473px;}
	.st31{font-size:4.2224px;}
	.st32{font-size:4.2412px;}
	.st33{font-size:4.2311px;}
	.st34{font-size:5.5432px;}
	.st35{font-size:5.5938px;}
	.st36{font-size:5.6306px;}
	.st37{font-size:5.6287px;}
	.st38{font-size:5.623px;}
	.st39{font-size:5.6157px;}
	.st40{font-size:5.6077px;}
	.st41{font-size:5.6017px;}
	.st42{font-size:5.5948px;}
	.st43{font-size:5.5818px;}
	.st44{font-size:5.5667px;}
	.st45{font-size:5.5439px;}
	.st46{font-size:5.5233px;}
	.st47{font-size:5.5918px;}
	.st48{font-size:5.6408px;}
	.st49{font-size:5.6731px;}
	.st50{font-size:5.6796px;}
	.st51{font-size:5.5908px;}
	.st52{font-size:5.5907px;}
	.st53{fill:#101E67;}
	.st54{font-size:4.8192px;}
	.st55{fill:#0B1E66;}
	.st56{font-size:4.1556px;}
	.st57{font-size:4.2339px;}
	.st58{font-size:4.3646px;}
	.st59{font-size:4.3647px;}
	.st60{font-size:4.3117px;}
	.st61{fill:#0E1140;}
	.st62{font-size:3.5808px;}
	.st63{font-size:3.5805px;}
	.st64{font-size:3.6312px;}
	.st65{font-size:3.6313px;}
	.st66{fill:#141A50;}
	.st67{font-size:4.2975px;}
	.st68{fill:none;stroke:#C0BFBE;stroke-width:0.4534;stroke-miterlimit:10;}
	.st69{fill:#C0BFBE;}
	.st70{font-size:7.2277px;}
	.st71{fill:none;stroke:#F3E07A;stroke-width:3.6272;stroke-miterlimit:10;}
	.st72{clip-path:url(#SVGID_4_);fill:#FFFFFF;}
	.st73{clip-path:url(#SVGID_6_);}
	.st74{fill:#E04A77;}
	.st75{font-family:'ClearfaceBold';}
	.st76{font-size:12.3809px;}
	.st77{clip-path:url(#SVGID_8_);}
	.st78{fill:none;}
	.st79{font-family:'ArialMT';}
	.st80{font-size:14.196px;}
	.st81{font-size:4.291px;}
	.st82{font-size:4.1432px;}
	.st83{font-size:4.2019px;}
	.st84{font-size:4.1345px;}
	.st85{font-size:13.6782px;}
	.st86{font-size:14.2335px;}
	.st87{font-size:4.3023px;}
	.st88{font-size:13.7062px;}
	.st89{font-size:3.3378px;}
	.st90{font-size:14.3875px;}
	.st91{font-size:4.3533px;}
	.st92{font-size:4.3559px;}
	.st93{font-size:4.3573px;}
	.st94{font-size:4.3581px;}
	.st95{font-size:4.3591px;}
	.st96{font-size:4.3638px;}
	.st97{font-size:4.365px;}
	.st98{font-size:4.3653px;}
	.st99{font-size:4.3656px;}
	.st100{font-size:4.3658px;}
	.st101{font-size:4.366px;}
	.st102{font-size:4.3661px;}
	.st103{font-size:4.3662px;}
	.st104{font-size:14.4453px;}
	.st105{font-size:4.8191px;}
</style>
<g>
	<path class="st0" d="M141.3,213.8l-13.2-2l-26.6-8.3H60.8c0,0-18.1-3.1-42.7-10.4c-25.4-7.5-14.2-14.9-44.3-17.1
		c-21-1.5-24.9,8.4-24.9,8.4"/>
	<polyline class="st1" points="133.6,245 162.2,239.4 168.3,221.9 208.7,212.4 213.7,209.3 228.6,208.2 257,213.9 281,221.9 
		284,223.4 293.2,219.9 310.8,219.9 321.9,224.7 358.9,251.6 405.8,265.8 413.3,267.9 	"/>
	<path class="st2" d="M173.3,384c0,0-110.1-105.2-107.6-118.5c2.6-13.3,19.5-74.1,19.5-74.1L184,77.7l27.8-32.5"/>
	<text transform="matrix(0.6065 -0.8122 0.7653 0.6437 108.6737 218.3288)" class="st3 st4 st5"> </text>
	<polyline class="st0" points="92,382.5 142.7,329 171,312.1 	"/>
	<polyline class="st0" points="2.4,46 119.8,122.4 126,124.4 214.3,188.5 	"/>
	<path class="st6" d="M175.8,155.8l8.8-15.3l23.2-64.2l4.1-4.3l25.1-2h12.2c0,0,21.3,15,38.9,18.3c17.6,3.3,32,14.3,32,14.3l11,12
		l6.9,27.9l-9.7,84.1c0,0-4.4,11-12.5,15c-8.2,4-46.1,40.2-46.1,40.2l-33.5,24.6c0,0-37,28.3-52,18.3s-50.1-87.5-50.1-87.5
		s-6-4.3,2.2-15c8.2-10.6,15.7-23.6,15.7-27.9c0-4.3,9.1-12.3,9.1-12.3L175.8,155.8z"/>
	<path class="st0" d="M231.5,17.2l21,130.5l-1.6,3.3v2.3l-18.2,2c0,0-7.8,5.7-7.8,38.2c0,32.6-11.6,37.9-11.6,37.9l-30.7,22.3
		l-5,6.6l-10.3,6.3l-15,8l-22.6,12.3l-12.2,9.3l-29.2,29.7l-14.5,10.5l-11,3.4L20.8,312l-21.6,3.3l-33.5-29.1"/>
	<text transform="matrix(0.7923 -0.5744 0.5413 0.8408 83.1659 332.1477)" class="st3 st4 st7">C</text>
	<text transform="matrix(0.6994 -0.7111 0.6701 0.7423 85.6942 330.3415)" class="st3 st4 st8">A</text>
	<text transform="matrix(0.6994 -0.7111 0.6701 0.7423 87.9642 328.0933)" class="st3 st4 st8">R</text>
	<text transform="matrix(0.6994 -0.7111 0.6701 0.7423 89.8363 326.13)" class="st3 st4 st8">R</text>
	<text transform="matrix(0.6994 -0.7111 0.6701 0.7423 91.8328 324.1431)" class="st3 st4 st8">E</text>
	<text transform="matrix(0.6994 -0.7111 0.6701 0.7423 93.6894 322.229)" class="st3 st4 st8">T</text>
	<text transform="matrix(0.6994 -0.7111 0.6701 0.7423 95.4044 320.488)" class="st3 st4 st8">E</text>
	<text transform="matrix(0.6994 -0.7111 0.6701 0.7423 97.2831 318.6014)" class="st3 st4 st8">R</text>
	<text transform="matrix(0.6994 -0.7111 0.6701 0.7423 99.2135 316.654)" class="st3 st4 st8">A</text>
	<text transform="matrix(0.6994 -0.7111 0.6701 0.7423 101.4249 314.3637)" class="st3 st4 st8"> </text>
	<text transform="matrix(0.6994 -0.7111 0.6701 0.7423 102.3042 313.4962)" class="st3 st4 st8">A</text>
	<text transform="matrix(0.6994 -0.7111 0.6701 0.7423 104.527 311.25)" class="st3 st4 st8"> </text>
	<text transform="matrix(0.6994 -0.7111 0.6701 0.7423 105.338 310.3683)" class="st3 st4 st8">U</text>
	<text transform="matrix(0.6994 -0.7111 0.6701 0.7423 107.6061 308.0817)" class="st3 st4 st8">M</text>
	<text transform="matrix(0.6994 -0.7111 0.6701 0.7423 110.3595 305.2627)" class="st3 st4 st8">Á</text>
	<text transform="matrix(0.6994 -0.7111 0.6701 0.7423 112.6316 302.9734)" class="st3 st4 st8">N</text>
	<text transform="matrix(0.688 -0.7252 0.6833 0.7301 118.1878 357.4442)" class="st3 st4 st9">C</text>
	<text transform="matrix(0.688 -0.7252 0.6833 0.7301 120.147 355.2798)" class="st3 st4 st9">A</text>
	<text transform="matrix(0.688 -0.7252 0.6833 0.7301 122.3763 353.0248)" class="st3 st4 st9">R</text>
	<text transform="matrix(0.688 -0.7252 0.6833 0.7301 124.2619 351.0386)" class="st3 st4 st9">R</text>
	<text transform="matrix(0.688 -0.7251 0.6833 0.7302 126.1143 349.0039)" class="st3 st4 st10">E</text>
	<text transform="matrix(0.688 -0.7252 0.6833 0.7301 127.9462 347.06)" class="st3 st4 st9">T</text>
	<text transform="matrix(0.688 -0.7251 0.6833 0.7302 129.6261 345.3054)" class="st3 st4 st10">E</text>
	<text transform="matrix(0.688 -0.7251 0.6833 0.7302 131.4811 343.3502)" class="st3 st4 st10">R</text>
	<text transform="matrix(0.688 -0.7251 0.6833 0.7302 133.3691 341.3575)" class="st3 st4 st10">A</text>
	<text transform="matrix(0.688 -0.7251 0.6833 0.7302 135.544 339.0652)" class="st3 st4 st10"> </text>
	<text transform="matrix(0.688 -0.7252 0.6833 0.7301 136.4664 338.1594)" class="st3 st4 st9">A</text>
	<text transform="matrix(0.688 -0.7252 0.6833 0.7301 138.6444 335.8635)" class="st3 st4 st9"> </text>
	<text transform="matrix(0.688 -0.7252 0.6833 0.7301 139.4511 334.9324)" class="st3 st4 st9">C</text>
	<text transform="matrix(0.6881 -0.7251 0.6832 0.7302 141.4508 332.8599)" class="st3 st4 st11">A</text>
	<text transform="matrix(0.8315 -0.4991 0.4703 0.8825 143.6039 330.8669)" class="st3 st4 st12">M</text>
	<text transform="matrix(0.8315 -0.4991 0.4703 0.8825 147.0006 328.828)" class="st3 st4 st12">P</text>
	<text transform="matrix(0.8315 -0.4991 0.4703 0.8825 149.2929 327.5304)" class="st3 st4 st12">E</text>
	<text transform="matrix(0.8315 -0.4991 0.4703 0.8825 151.5959 326.1184)" class="st3 st4 st12">C</text>
	<text transform="matrix(0.8315 -0.4991 0.4703 0.8825 153.9738 324.6422)" class="st3 st4 st12">H</text>
	<text transform="matrix(0.8315 -0.4991 0.4703 0.8825 156.7073 323.0013)" class="st3 st4 st12">E</text>
	<g>
		<text transform="matrix(0.9422 0 0 1 127.9434 316.6562)" class="st13 st4 st14">PIEDRA</text>
	</g>
	<g>
		<text transform="matrix(0.9422 0 0 1 111.293 279.5225)" class="st13 st4 st14">ACIM</text>
	</g>
	<text transform="matrix(0.9422 0 0 1 148.168 253.0137)" class="st13 st4 st14">CIUDAD</text>
	<text transform="matrix(0.9422 0 0 1 148.168 257.3936)" class="st13 st4 st14">INDUSTRIAL</text>
	<text transform="matrix(0.9422 0 0 1 131 294.1953)" class="st13 st4 st14">CLEU</text>
	<g>
		<text transform="matrix(0.9422 0 0 1 124.2598 320.4893)" class="st13 st4 st14">DE AGUA</text>
	</g>
	<text transform="matrix(0.9422 0 0 1 146.6885 311.252)" class="st13 st4 st14">AMAVITA</text>
	<g>
		<g>
			<text transform="matrix(0.9422 0 0 1 188.4238 273.0752)" class="st13 st4 st14">AEROPUERTO</text>
		</g>
		<g>
			<text transform="matrix(0.9422 0 0 1 188.4238 277.1719)" class="st13 st4 st14">DE MÉRIDA</text>
		</g>
	</g>
	<text transform="matrix(0.9422 0 0 1 324.0928 253.0137)" class="st13 st4 st15">KANASÍN</text>
	<text transform="matrix(0.9422 0 0 1 316.3389 86.2983)" class="st13 st4 st15">CHOLUL</text>
	<g>
		<path class="st16" d="M107.8,279.6c-0.4,0-0.6,0.3-0.6,0.7c0,0.4,0.3,0.7,0.6,0.7c0.4,0,0.6-0.3,0.6-0.7
			C108.4,279.9,108.2,279.6,107.8,279.6"/>
		<path class="st16" d="M110.9,270.3c-0.2-0.7-0.5-1.4-1.2-1.9c-1.1-0.8-3-0.7-4,0.4c-0.6,0.6-0.7,1.5-0.7,2.3
			c0.1,0.8,0.3,1.6,0.6,2.3c0.4,1.2,0.9,2.4,1.3,3.7c0.2,0.6,0.6,1,0.9,1.6c0.4-0.5,0.8-1.1,1.2-1.6c0.3-0.3,0.5-0.7,0.7-1
			c0.3-0.5,0.4-1,0.6-1.5C110.8,273.2,111.2,271.7,110.9,270.3"/>
	</g>
	<g>
		<path class="st16" d="M196,266.6c-0.4,0-0.6,0.3-0.6,0.7c0,0.4,0.3,0.7,0.6,0.7c0.4,0,0.6-0.3,0.6-0.7
			C196.7,266.9,196.4,266.6,196,266.6"/>
		<path class="st16" d="M199.1,257.3c-0.2-0.7-0.5-1.4-1.2-1.9c-1.1-0.8-3-0.7-4,0.4c-0.6,0.6-0.7,1.5-0.7,2.3
			c0.1,0.8,0.3,1.6,0.6,2.3c0.4,1.2,0.9,2.4,1.3,3.7c0.2,0.6,0.6,1,0.9,1.6c0.4-0.5,0.8-1.1,1.2-1.6c0.3-0.3,0.5-0.7,0.7-1
			c0.3-0.5,0.4-1,0.6-1.5C199,260.2,199.5,258.7,199.1,257.3"/>
	</g>
	<g>
		<text transform="matrix(0.9422 0 0 1 213.2393 304.1758)" class="st13 st4 st14">UADY</text>
	</g>
	<g>
		<path class="st16" d="M210,302.8c-0.4,0-0.6,0.3-0.6,0.7c0,0.4,0.3,0.7,0.6,0.7c0.4,0,0.6-0.3,0.6-0.7
			C210.6,303.1,210.4,302.8,210,302.8"/>
		<path class="st16" d="M213.1,293.5c-0.2-0.7-0.5-1.4-1.2-1.9c-1.1-0.8-3-0.7-4,0.4c-0.6,0.6-0.7,1.5-0.7,2.3
			c0.1,0.8,0.3,1.6,0.6,2.3c0.4,1.2,0.9,2.4,1.3,3.7c0.2,0.6,0.6,1,0.9,1.6c0.4-0.5,0.8-1.1,1.2-1.6c0.3-0.3,0.5-0.7,0.7-1
			c0.3-0.5,0.4-1,0.6-1.5C213,296.5,213.5,295,213.1,293.5"/>
	</g>
	<g>
		<text transform="matrix(0.9422 0 0 1 260.2471 333.1836)" class="st13 st4 st14">XMATKUIL</text>
	</g>
	<g>
		<path class="st16" d="M257,330.8c-0.4,0-0.6,0.3-0.6,0.7c0,0.4,0.3,0.7,0.6,0.7c0.4,0,0.6-0.3,0.6-0.7
			C257.6,331.1,257.3,330.8,257,330.8"/>
		<path class="st16" d="M260.1,321.5c-0.2-0.7-0.5-1.4-1.2-1.9c-1.1-0.8-3-0.7-4,0.4c-0.6,0.6-0.7,1.5-0.7,2.3s0.3,1.6,0.6,2.3
			c0.4,1.2,0.9,2.4,1.3,3.7c0.2,0.6,0.6,1,0.9,1.6c0.4-0.5,0.8-1.1,1.2-1.6c0.3-0.3,0.5-0.7,0.7-1c0.3-0.5,0.4-1,0.6-1.5
			C260,324.4,260.4,322.9,260.1,321.5"/>
	</g>
	<g>
		<text transform="matrix(0.9422 0 0 1 263.8975 249.6318)" class="st13 st4 st14">UNIDAD</text>
		<text transform="matrix(0.9422 0 0 1 263.8975 254.0117)" class="st13 st4 st14">DEPORTIVA</text>
		<text transform="matrix(0.9422 0 0 1 263.8975 258.3789)" class="st13 st4 st14">KUKULCÁN</text>
	</g>
	<g>
		<path class="st16" d="M286.2,249.4c-0.4,0-0.6,0.3-0.6,0.7c0,0.4,0.3,0.7,0.6,0.7c0.4,0,0.6-0.3,0.6-0.7S286.5,249.4,286.2,249.4"
			/>
		<path class="st16" d="M289.3,240.1c-0.2-0.7-0.5-1.4-1.2-1.9c-1.1-0.8-3-0.7-4,0.4c-0.6,0.6-0.7,1.5-0.7,2.3s0.3,1.6,0.6,2.3
			c0.4,1.2,0.9,2.4,1.3,3.7c0.2,0.6,0.6,1,0.9,1.6c0.4-0.5,0.8-1.1,1.2-1.6c0.3-0.3,0.5-0.7,0.7-1c0.3-0.5,0.4-1,0.6-1.5
			C289.2,243,289.6,241.6,289.3,240.1"/>
	</g>
	<text transform="matrix(0.9422 0 0 1 243.0645 360.0801)" class="st13 st4 st15">RESERVA ECOLÓGICA CUXTAL</text>
	<g>
		<path class="st16" d="M239.8,357.7c-0.4,0-0.6,0.3-0.6,0.7c0,0.4,0.3,0.7,0.6,0.7c0.4,0,0.6-0.3,0.6-0.7
			C240.4,358,240.1,357.7,239.8,357.7"/>
		<path class="st16" d="M242.9,348.4c-0.2-0.7-0.5-1.4-1.2-1.9c-1.1-0.8-3-0.7-4,0.4c-0.6,0.6-0.7,1.5-0.7,2.3
			c0.1,0.8,0.3,1.6,0.6,2.3c0.4,1.2,0.9,2.4,1.3,3.7c0.2,0.6,0.6,1,0.9,1.6c0.4-0.5,0.8-1.1,1.2-1.6c0.3-0.3,0.5-0.7,0.7-1
			c0.3-0.5,0.4-1,0.6-1.5C242.8,351.3,243.2,349.8,242.9,348.4"/>
	</g>
	<g>
		<path class="st16" d="M171,259.2c-0.4,0-0.6,0.3-0.6,0.7c0,0.4,0.3,0.7,0.6,0.7c0.4,0,0.6-0.3,0.6-0.7
			C171.6,259.5,171.4,259.2,171,259.2"/>
		<path class="st16" d="M174.1,249.9c-0.2-0.7-0.5-1.4-1.2-1.9c-1.1-0.8-3-0.7-4,0.4c-0.6,0.6-0.7,1.5-0.7,2.3
			c0.1,0.8,0.3,1.6,0.6,2.3c0.4,1.2,0.9,2.4,1.3,3.7c0.2,0.6,0.6,1,0.9,1.6c0.4-0.5,0.8-1.1,1.2-1.6c0.3-0.3,0.5-0.7,0.7-1
			c0.3-0.5,0.4-1,0.6-1.5C174,252.8,174.4,251.3,174.1,249.9"/>
	</g>
	<g>
		<text transform="matrix(0.9422 0 0 1 90.1289 239.6992)" class="st13 st4 st14">PASEOS DE</text>
		<text transform="matrix(0.9422 0 0 1 90.1289 244.0791)" class="st13 st4 st14">MÉRIDA</text>
	</g>
	<g>
		<path class="st16" d="M86,245.6c-0.4,0-0.6,0.3-0.6,0.7c0,0.4,0.3,0.7,0.6,0.7c0.4,0,0.6-0.3,0.6-0.7
			C86.6,245.9,86.3,245.6,86,245.6"/>
		<path class="st16" d="M89,236.3c-0.2-0.7-0.5-1.4-1.2-1.9c-1.1-0.8-3-0.7-4,0.4c-0.6,0.6-0.7,1.5-0.7,2.3c0.1,0.8,0.3,1.6,0.6,2.3
			c0.4,1.2,0.9,2.4,1.3,3.7c0.2,0.6,0.6,1,0.9,1.6c0.4-0.5,0.8-1.1,1.2-1.6c0.3-0.3,0.5-0.7,0.7-1c0.3-0.5,0.4-1,0.6-1.5
			C89,239.2,89.4,237.7,89,236.3"/>
	</g>
	<g>
		<path class="st16" d="M116.4,200.2c-0.4,0-0.6,0.3-0.6,0.7c0,0.4,0.3,0.7,0.6,0.7c0.4,0,0.6-0.3,0.6-0.7
			C117,200.5,116.8,200.2,116.4,200.2"/>
		<path class="st16" d="M119.5,190.9c-0.2-0.7-0.5-1.4-1.2-1.9c-1.1-0.8-3-0.7-4,0.4c-0.6,0.6-0.7,1.5-0.7,2.3
			c0.1,0.8,0.3,1.6,0.6,2.3c0.4,1.2,0.9,2.4,1.3,3.7c0.2,0.6,0.6,1,0.9,1.6c0.4-0.5,0.8-1.1,1.2-1.6c0.3-0.3,0.5-0.7,0.7-1
			c0.3-0.5,0.4-1,0.6-1.5C119.4,193.9,119.8,192.4,119.5,190.9"/>
	</g>
	<g>
		<path class="st16" d="M143.3,310.9c-0.4,0-0.6,0.3-0.6,0.7c0,0.4,0.3,0.7,0.6,0.7c0.4,0,0.6-0.3,0.6-0.7
			C144,311.2,143.7,310.9,143.3,310.9"/>
		<path class="st16" d="M146.4,301.7c-0.2-0.7-0.5-1.4-1.2-1.9c-1.1-0.8-3-0.7-4,0.4c-0.6,0.6-0.7,1.5-0.7,2.3
			c0.1,0.8,0.3,1.6,0.6,2.3c0.4,1.2,0.9,2.4,1.3,3.7c0.2,0.6,0.6,1,0.9,1.6c0.4-0.5,0.8-1.1,1.2-1.6c0.3-0.3,0.5-0.7,0.7-1
			c0.3-0.5,0.4-1,0.6-1.5C146.3,304.6,146.7,303.1,146.4,301.7"/>
	</g>
	<g>
		<path class="st16" d="M135.3,288.3c-0.4,0-0.6,0.3-0.6,0.7c0,0.4,0.3,0.7,0.6,0.7c0.4,0,0.6-0.3,0.6-0.7
			C135.9,288.7,135.6,288.3,135.3,288.3"/>
		<path class="st16" d="M138.4,279.1c-0.2-0.7-0.5-1.4-1.2-1.9c-1.1-0.8-3-0.7-4,0.4c-0.6,0.6-0.7,1.5-0.7,2.3s0.3,1.6,0.6,2.3
			c0.4,1.2,0.9,2.4,1.3,3.7c0.2,0.6,0.6,1,0.9,1.6c0.4-0.5,0.8-1.1,1.2-1.6c0.3-0.3,0.5-0.7,0.7-1c0.3-0.5,0.4-1,0.6-1.5
			C138.3,282,138.7,280.5,138.4,279.1"/>
	</g>
	<g>
		<path class="st16" d="M152.6,305.2c-0.4,0-0.6,0.3-0.6,0.7c0,0.4,0.3,0.7,0.6,0.7c0.4,0,0.6-0.3,0.6-0.7
			C153.2,305.5,152.9,305.2,152.6,305.2"/>
		<path class="st16" d="M155.7,295.9c-0.2-0.7-0.5-1.4-1.2-1.9c-1.1-0.8-3-0.7-4,0.4c-0.6,0.6-0.7,1.5-0.7,2.3
			c0.1,0.8,0.3,1.6,0.6,2.3c0.4,1.2,0.9,2.4,1.3,3.7c0.2,0.6,0.6,1,0.9,1.6c0.4-0.5,0.8-1.1,1.2-1.6c0.3-0.3,0.5-0.7,0.7-1
			c0.3-0.5,0.4-1,0.6-1.5C155.6,298.8,156,297.3,155.7,295.9"/>
	</g>
	<g>
		<path class="st16" d="M136.6,203c-0.4,0-0.6,0.3-0.6,0.7c0,0.4,0.3,0.7,0.6,0.7c0.4,0,0.6-0.3,0.6-0.7
			C137.2,203.3,136.9,203,136.6,203"/>
		<path class="st16" d="M139.7,193.7c-0.2-0.7-0.5-1.4-1.2-1.9c-1.1-0.8-3-0.7-4,0.4c-0.6,0.6-0.7,1.5-0.7,2.3
			c0.1,0.8,0.3,1.6,0.6,2.3c0.4,1.2,0.9,2.4,1.3,3.7c0.2,0.6,0.6,1,0.9,1.6c0.4-0.5,0.8-1.1,1.2-1.6c0.3-0.3,0.5-0.7,0.7-1
			c0.3-0.5,0.4-1,0.6-1.5C139.6,196.6,140,195.1,139.7,193.7"/>
	</g>
	<path class="st16" d="M328.5,243.7c-0.6,0-1,0.5-1,1.1s0.5,1.1,1,1.1s1-0.5,1-1.1C329.5,244.2,329.1,243.7,328.5,243.7"/>
	<path class="st16" d="M333.5,228.7c-0.3-1.2-0.9-2.3-1.9-3.1c-1.8-1.4-4.9-1.1-6.4,0.6c-0.9,1-1.2,2.4-1.1,3.7
		c0.1,1.3,0.5,2.6,1,3.8c0.7,2,1.4,4,2.1,6c0.4,1,0.9,1.7,1.5,2.6l2-2.6c0.4-0.5,0.8-1.1,1.1-1.7c0.4-0.7,0.7-1.6,0.9-2.4
		C333.4,233.4,334,231,333.5,228.7"/>
	<text transform="matrix(0.9422 0 0 1 92.3438 197.332)" class="st13 st4 st15">CAUCEL</text>
	<text transform="matrix(0.9422 0 0 1 126.6748 187.2773)" class="st13 st4 st15">ANIMAYA</text>
	<path class="st17" d="M55.1,294.2L55.1,294.2c1.7,3.3,4.9,4.3,7.7,4.6c3.4,0.3,7.1-0.3,9.5-3.8c1.1-1.6,1.9-3.6,2.4-5.7
		c1.2-4.4,1.5-18.4-0.2-22.3c-0.8-1.9-2.1-3.4-3.5-4.5c-4.4-3.5-9.4-2.8-13.5,1.3c-2.8,2.7-3.3,6.1-3.7,10.7
		C53.6,278.2,53.5,291,55.1,294.2"/>
	<path class="st13" d="M71.1,282.4h0.5v-1.2h-0.5c-2.2,0-4.1,1.2-5.2,2.9v-3.4c2-0.4,4.5-2.6,4.5-7.3h-1.1c0,4.1-2,5.7-3.4,6.1v-2
		c1.1-0.3,1.8-1.6,1.8-3.6c0-2.4-1.6-4.3-3.6-4.3c-1.8,0-5.4,1.4-5.4,5.9c0,4,3.8,5.3,6.1,5.4v0.4l0,0v2.9c-1.1-1.7-3.1-2.9-5.2-2.9
		h-0.5v1.2h0.5c2.7,0,4.9,2.2,5.2,5c-1.2-1.7-3.1-2.9-5.2-2.9h-0.5v1.2h0.5c2.9,0,5.2,2.5,5.2,5.5v0.5v1h1.1v-1v-0.5
		c0-3.1,2.3-5.5,5.2-5.5h0.5v-1.2h-0.5c-2.1,0-4,1.1-5.2,2.9C66.2,284.6,68.4,282.4,71.1,282.4 M59.8,275.4c0-3.9,3.4-4.7,4.3-4.7
		c1.4,0,2.4,1.4,2.4,3.1c0,0.6-0.1,1.8-0.7,2.3c-0.1-1.2-0.6-2.7-1.6-3.2c-0.6-0.3-1.2-0.3-1.8,0.1c-0.6,0.4-0.9,1.3-0.6,2.1
		c0.3,1.1,1.3,2.1,2.9,2.3v2.1C63.6,279.4,59.8,278.9,59.8,275.4 M64.8,276.2c-1-0.2-1.6-0.8-1.8-1.4c0-0.1-0.1-0.6,0.1-0.8
		c0.1-0.1,0.3-0.1,0.4-0.1c0.1,0,0.2,0,0.3,0.1C64.3,274.2,64.7,275.2,64.8,276.2"/>
	<g class="st18">
		<g>
			<g>
				<defs>
					<rect id="SVGID_1_" x="80.6" y="263.2" width="18.9" height="41.6"/>
				</defs>
				<clipPath id="SVGID_2_">
					<use xlink:href="#SVGID_1_"  style="overflow:visible;"/>
				</clipPath>
				<path class="st19" d="M80.9,264.9c1.4-0.9,3.7-1.7,5.4-1.7c1.4,0,2.4,0.1,3.7,0.8v5.5l7.7,1.2l-0.3,4.9l1.4,0.1l-0.6,6.1
					l1.4,0.2c0,0-0.8,9.3-1.3,10.2c-1.1,1.8-17.6,12.8-17.6,12.8L80.9,264.9z"/>
			</g>
		</g>
	</g>
	<path class="st20" d="M106.2,265.7l-11.7-2.6l-1.3,7.1l-0.6-0.1l1.5-7.7l11.7,2.7l0.2-1.7l4.8,1.3c0,0,16.4-10.4,17.7-11.7
		c1.3-1.3,2-5.3,2-5.3l0.9-0.1c0,0-0.9,4.8-2.8,6.3c-1.2,1-17.7,11.3-17.7,11.3l-4.5-1.2L106.2,265.7z"/>
	<polyline class="st21" points="98.9,288 119.9,291.5 121.6,294.7 	"/>
	<g>
		<path class="st22" d="M96.2,257.2c-0.3-1-1-2-1.9-2.5c-1.7-1-4.4-0.5-5.6,1.1c-0.7,1-0.9,2.2-0.7,3.4c0.2,1.1,0.7,2.2,1.2,3.3
			c0.8,1.7,1.5,3.4,2.3,5.1c0.4,0.9,0.9,1.4,1.5,2.2c0.5-0.8,1-1.7,1.5-2.5c0.3-0.5,0.6-1,0.9-1.6c0.3-0.7,0.5-1.4,0.6-2.2
			C96.4,261.4,96.8,259.3,96.2,257.2 M92.5,261.4c-1.1,0.1-2.1-0.7-2.2-1.9c-0.1-1.2,0.7-2.2,1.8-2.3c1.1-0.1,2.1,0.7,2.2,1.9
			C94.4,260.2,93.6,261.3,92.5,261.4"/>
		<path class="st23" d="M96.2,257.2c-0.3-1-1-2-1.9-2.5c-1.7-1-4.4-0.5-5.6,1.1c-0.7,1-0.9,2.2-0.7,3.4c0.2,1.1,0.7,2.2,1.2,3.3
			c0.8,1.7,1.5,3.4,2.3,5.1c0.4,0.9,0.9,1.4,1.5,2.2c0.5-0.8,1-1.7,1.5-2.5c0.3-0.5,0.6-1,0.9-1.6c0.3-0.7,0.5-1.4,0.6-2.2
			C96.4,261.4,96.8,259.3,96.2,257.2z M92.5,261.4c-1.1,0.1-2.1-0.7-2.2-1.9c-0.1-1.2,0.7-2.2,1.8-2.3c1.1-0.1,2.1,0.7,2.2,1.9
			C94.4,260.2,93.6,261.3,92.5,261.4z"/>
	</g>
	<path class="st22" d="M102.8,276.9c-0.3-1-1-2-1.9-2.5c-1.7-1-4.4-0.5-5.6,1.1c-0.7,1-0.9,2.2-0.7,3.4c0.2,1.1,0.7,2.2,1.2,3.3
		c0.8,1.7,1.5,3.4,2.3,5.1c0.4,0.9,0.9,1.4,1.5,2.2c0.5-0.8,1-1.7,1.5-2.5c0.3-0.5,0.6-1,0.9-1.6c0.3-0.7,0.5-1.4,0.6-2.2
		C103.1,281.1,103.5,278.9,102.8,276.9 M99.2,281c-1.1,0.1-2.1-0.7-2.2-1.9c-0.1-1.2,0.7-2.2,1.8-2.3c1.1-0.1,2.1,0.7,2.2,1.9
		C101,279.9,100.2,280.9,99.2,281"/>
	<path class="st23" d="M102.8,276.9c-0.3-1-1-2-1.9-2.5c-1.7-1-4.4-0.5-5.6,1.1c-0.7,1-0.9,2.2-0.7,3.4c0.2,1.1,0.7,2.2,1.2,3.3
		c0.8,1.7,1.5,3.4,2.3,5.1c0.4,0.9,0.9,1.4,1.5,2.2c0.5-0.8,1-1.7,1.5-2.5c0.3-0.5,0.6-1,0.9-1.6c0.3-0.7,0.5-1.4,0.6-2.2
		C103.1,281.1,103.5,278.9,102.8,276.9z M99.2,281c-1.1,0.1-2.1-0.7-2.2-1.9c-0.1-1.2,0.7-2.2,1.8-2.3c1.1-0.1,2.1,0.7,2.2,1.9
		C101,279.9,100.2,280.9,99.2,281z"/>
	<polyline class="st0" points="159.9,114.7 163.2,113.4 165.8,113.4 168.2,116.7 169.9,116.7 184.8,120.5 189.5,120.5 194.3,120.5 
		194.3,124.9 210.8,140.8 217.5,144.1 248.9,170.8 253.7,174.3 255.6,176.5 262,178.1 264.4,174.3 267.6,172.7 274.3,167.4 
		282.8,160.8 295.1,150.4 320.3,123.1 327.5,96 	"/>
	<text transform="matrix(0.7661 -0.6178 0.5821 0.8131 281.6325 163.4432)" class="st24 st4 st25">A</text>
	<text transform="matrix(0.7661 -0.6178 0.5821 0.8131 283.8536 161.652)" class="st24 st4 st25">V</text>
	<text transform="matrix(0.7661 -0.6178 0.5821 0.8131 286.1767 159.7785)" class="st24 st4 st25">E</text>
	<text transform="matrix(0.7661 -0.6178 0.5821 0.8131 288.2195 158.0686)" class="st24 st4 st25">N</text>
	<text transform="matrix(0.7662 -0.6177 0.582 0.8132 290.9386 155.9834)" class="st24 st4 st26">I</text>
	<text transform="matrix(0.7661 -0.6178 0.5821 0.8131 291.9456 155.1877)" class="st24 st4 st25">D</text>
	<text transform="matrix(0.8316 -0.4989 0.4701 0.8826 294.3431 153.3315)" class="st24 st4 st12">A</text>
	<text transform="matrix(0.7297 -0.6715 0.6327 0.7744 296.3251 150.7227)" class="st24 st4 st27"> </text>
	<text transform="matrix(0.7297 -0.6715 0.6327 0.7744 297.2508 149.8708)" class="st24 st4 st27">C</text>
	<text transform="matrix(0.7297 -0.6714 0.6327 0.7744 299.412 147.8247)" class="st24 st4 st28">O</text>
	<text transform="matrix(0.7297 -0.6715 0.6327 0.7744 301.983 145.5159)" class="st24 st4 st27">R</text>
	<text transform="matrix(0.7297 -0.6714 0.6327 0.7744 304.0364 143.1471)" class="st24 st4 st28">R</text>
	<text transform="matrix(0.7297 -0.6715 0.6327 0.7744 305.8702 141.2578)" class="st24 st4 st27">E</text>
	<text transform="matrix(0.6747 -0.7408 0.698 0.7161 307.9297 138.9617)" class="st24 st4 st29">A</text>
	<text transform="matrix(0.6745 -0.741 0.6982 0.7159 310.3701 137.5548)" class="st24 st4 st30"> </text>
	<text transform="matrix(0.6746 -0.7409 0.6981 0.716 311.6142 134.6772)" class="st24 st4 st30">R</text>
	<text transform="matrix(0.6745 -0.741 0.6982 0.7159 313.4311 132.4629)" class="st24 st4 st30">A</text>
	<text transform="matrix(0.6055 -0.8132 0.7662 0.6426 315.7597 130.0242)" class="st24 st4 st31">C</text>
	<text transform="matrix(0.6579 -0.7597 0.7159 0.6982 317.6744 127.6409)" class="st24 st4 st32">H</text>
	<text transform="matrix(0.6308 -0.7883 0.7428 0.6695 320.3024 125.6431)" class="st24 st4 st33">Ó</text>
	<text transform="matrix(0.3581 -0.9817 0.925 0.38 131.6525 234.7449)" class="st3 st4 st34">P</text>
	<text transform="matrix(0.5186 -0.8861 0.8349 0.5503 132.8508 231.5681)" class="st3 st4 st35">E</text>
	<text transform="matrix(0.6071 -0.8116 0.7647 0.6444 134.5583 228.5318)" class="st3 st4 st36">R</text>
	<text transform="matrix(0.6026 -0.8159 0.7688 0.6395 136.8196 225.5566)" class="st3 st4 st37">I</text>
	<text transform="matrix(0.5902 -0.8273 0.7796 0.6263 137.8613 224.2301)" class="st3 st4 st38">F</text>
	<text transform="matrix(0.5733 -0.8422 0.7936 0.6085 139.7576 221.475)" class="st3 st4 st39">É</text>
	<text transform="matrix(0.5548 -0.8578 0.8083 0.5888 141.8213 218.5559)" class="st3 st4 st40">R</text>
	<text transform="matrix(0.5397 -0.87 0.8197 0.5728 143.8074 215.4731)" class="st3 st4 st41">I</text>
	<text transform="matrix(0.522 -0.8836 0.8325 0.554 144.7165 214.0209)" class="st3 st4 st42">C</text>
	<text transform="matrix(0.4854 -0.9096 0.8571 0.5151 146.7711 210.5714)" class="st3 st4 st43">O</text>
	<text transform="matrix(0.4417 -0.9375 0.8833 0.4687 148.9945 206.2756)" class="st3 st4 st44"> </text>
	<text transform="matrix(0.3611 -0.9803 0.9237 0.3832 149.8869 204.5434)" class="st3 st4 st45">D</text>
	<text transform="matrix(0.27 -1.0168 0.9581 0.2866 151.1508 199.7535)" class="st3 st4 st46">E</text>
	<text transform="matrix(0.5136 -0.8898 0.8384 0.5451 152.1272 196.5075)" class="st3 st4 st47"> </text>
	<text transform="matrix(0.6296 -0.7896 0.744 0.6682 152.8456 195.0431)" class="st3 st4 st48">M</text>
	<text transform="matrix(0.6939 -0.718 0.6765 0.7364 156.1219 190.9992)" class="st3 st4 st49">É</text>
	<text transform="matrix(0.706 -0.7029 0.6623 0.7492 158.7065 188.4488)" class="st3 st4 st50">R</text>
	<text transform="matrix(0.5107 -0.8919 0.8404 0.542 161.5265 185.0905)" class="st3 st4 st51">I</text>
	<text transform="matrix(0.5107 -0.8919 0.8404 0.542 162.2895 183.6046)" class="st3 st4 st52">D</text>
	<text transform="matrix(0.5107 -0.8919 0.8404 0.542 164.5135 179.8284)" class="st3 st4 st51">A</text>
	<path class="st16" d="M126.7,291.7c0,2.9-2.3,5.3-5,5.3s-5-2.4-5-5.3c0-2.9,2.3-5.3,5-5.3S126.7,288.7,126.7,291.7"/>
	<path class="st16" d="M95.7,303.5c0,2.9-2.3,5.3-5,5.3s-5-2.4-5-5.3c0-2.9,2.3-5.3,5-5.3S95.7,300.6,95.7,303.5"/>
	<text transform="matrix(-0.1682 -1.0443 0.9839 -0.1785 253.9544 144.9328)" class="st53 st4 st54">C</text>
	<text transform="matrix(0.3491 -0.9858 0.9288 0.3705 166.7798 230.4359)" class="st55 st4 st56">A</text>
	<text transform="matrix(0.3491 -0.9858 0.9288 0.3705 167.7164 227.6505)" class="st55 st4 st56">V</text>
	<text transform="matrix(0.638 -0.781 0.7359 0.6771 168.4221 224.8936)" class="st55 st4 st57">E</text>
	<text transform="matrix(0.9223 -0.217 0.2044 0.9789 169.9039 223.0849)" class="st55 st4 st58">N</text>
	<text transform="matrix(0.9223 -0.217 0.2044 0.9789 173.1854 222.313)" class="st55 st4 st58">I</text>
	<text transform="matrix(0.9223 -0.217 0.2044 0.9789 174.3799 222.032)" class="st55 st4 st58">D</text>
	<text transform="matrix(0.9223 -0.217 0.2044 0.9789 177.39 221.3099)" class="st55 st4 st58">A</text>
	<text transform="matrix(0.9223 -0.217 0.2044 0.9789 180.4158 220.6121)" class="st55 st4 st58"> </text>
	<text transform="matrix(0.9223 -0.217 0.2044 0.9789 181.6269 220.3272)" class="st55 st4 st58">J</text>
	<text transform="matrix(0.9223 -0.217 0.2044 0.9789 183.5733 219.8553)" class="st55 st4 st58">U</text>
	<text transform="matrix(0.9223 -0.217 0.2044 0.9789 186.632 219.1578)" class="st55 st4 st58">A</text>
	<text transform="matrix(0.9223 -0.217 0.2044 0.9789 189.6007 218.4495)" class="st55 st4 st58">N</text>
	<text transform="matrix(0.9223 -0.217 0.2044 0.9789 192.8927 217.675)" class="st55 st4 st58"> </text>
	<text transform="matrix(0.9223 -0.217 0.2044 0.9789 194.0229 217.3971)" class="st55 st4 st58">P</text>
	<text transform="matrix(0.9223 -0.217 0.2044 0.9789 196.2726 216.8679)" class="st55 st4 st58">A</text>
	<text transform="matrix(0.9223 -0.217 0.2044 0.9789 199.3012 216.1675)" class="st55 st4 st58">B</text>
	<text transform="matrix(0.9223 -0.217 0.2044 0.9789 201.8712 215.5509)" class="st55 st4 st58">L</text>
	<text transform="matrix(0.9223 -0.217 0.2044 0.9789 204.0733 215.0449)" class="st55 st4 st58">O</text>
	<text transform="matrix(0.9223 -0.217 0.2044 0.9789 207.4034 214.3097)" class="st55 st4 st58"> </text>
	<text transform="matrix(0.9223 -0.2171 0.2045 0.9789 208.601 213.9584)" class="st55 st4 st59">I</text>
	<text transform="matrix(0.822 -0.5188 0.4889 0.8724 210.2975 213.3421)" class="st55 st4 st60">I</text>
	<text transform="matrix(0.7913 0.5761 -0.5429 0.8398 337.3716 237.6576)" class="st61 st4 st62">C</text>
	<text transform="matrix(0.7913 0.5761 -0.5429 0.8398 339.3143 239.0726)" class="st61 st4 st62">A</text>
	<text transform="matrix(0.7914 0.5761 -0.5428 0.8399 341.3876 240.6227)" class="st61 st4 st63">R</text>
	<text transform="matrix(0.7913 0.5761 -0.5429 0.8398 343.2593 241.9449)" class="st61 st4 st62">R</text>
	<text transform="matrix(0.7914 0.5761 -0.5428 0.8399 345.0776 243.3077)" class="st61 st4 st63">E</text>
	<text transform="matrix(0.7913 0.5761 -0.5429 0.8398 346.8748 244.5761)" class="st61 st4 st62">T</text>
	<text transform="matrix(0.7914 0.5761 -0.5428 0.8399 348.481 245.7858)" class="st61 st4 st63">E</text>
	<text transform="matrix(0.7914 0.5761 -0.5428 0.8399 350.2766 247.0941)" class="st61 st4 st63">R</text>
	<text transform="matrix(0.7913 0.5761 -0.5429 0.8398 352.1346 248.405)" class="st61 st4 st62">A</text>
	<text transform="matrix(0.7914 0.5761 -0.5428 0.8399 354.2174 249.9622)" class="st61 st4 st63"> </text>
	<text transform="matrix(0.7913 0.5761 -0.5429 0.8398 355.0596 250.5347)" class="st61 st4 st62">A</text>
	<text transform="matrix(0.7914 0.576 -0.5428 0.8399 357.1536 252.0121)" class="st61 st4 st62"> </text>
	<text transform="matrix(0.7913 0.5761 -0.5429 0.8398 358.0169 252.6863)" class="st61 st4 st62">C</text>
	<text transform="matrix(0.9099 0.2759 -0.2599 0.9656 360.4689 253.9806)" class="st61 st4 st64">A</text>
	<text transform="matrix(0.9099 0.2759 -0.2599 0.9656 362.9558 254.7643)" class="st61 st4 st65">N</text>
	<text transform="matrix(0.9099 0.2759 -0.2599 0.9656 365.6495 255.5571)" class="st61 st4 st64">C</text>
	<text transform="matrix(0.9099 0.2759 -0.2599 0.9656 367.892 256.2314)" class="st61 st4 st64">Ú</text>
	<text transform="matrix(0.9099 0.2759 -0.2599 0.9656 370.3333 256.9706)" class="st61 st4 st64">N</text>
	<text transform="matrix(0.7925 0.574 -0.5409 0.8411 155.4995 147.3125)" class="st66 st4 st67">A</text>
	<text transform="matrix(0.7925 0.574 -0.5409 0.8411 157.8161 148.9904)" class="st66 st4 st67">V</text>
	<text transform="matrix(0.7925 0.574 -0.5409 0.8411 160.2224 150.7323)" class="st66 st4 st67">E</text>
	<text transform="matrix(0.7925 0.574 -0.5409 0.8411 162.369 152.287)" class="st66 st4 st67">N</text>
	<text transform="matrix(0.7925 0.574 -0.5409 0.8411 165.1424 154.2945)" class="st66 st4 st67">I</text>
	<text transform="matrix(0.7925 0.574 -0.5409 0.8411 166.1476 155.0226)" class="st66 st4 st67">D</text>
	<text transform="matrix(0.7925 0.574 -0.5409 0.8411 168.7381 156.9)" class="st66 st4 st67">A</text>
	<text transform="matrix(0.7925 0.574 -0.5409 0.8411 171.2598 158.7258)" class="st66 st4 st67"> </text>
	<text transform="matrix(0.7925 0.574 -0.5409 0.8411 172.2693 159.4564)" class="st66 st4 st67">J</text>
	<text transform="matrix(0.7925 0.574 -0.5409 0.8411 173.9774 160.6941)" class="st66 st4 st67">A</text>
	<text transform="matrix(0.7925 0.574 -0.5409 0.8411 176.5077 162.5262)" class="st66 st4 st67">C</text>
	<text transform="matrix(0.7925 0.574 -0.5409 0.8411 178.8388 164.2139)" class="st66 st4 st67">I</text>
	<text transform="matrix(0.7925 0.574 -0.5409 0.8411 179.8504 164.9466)" class="st66 st4 st67">N</text>
	<text transform="matrix(0.7925 0.574 -0.5409 0.8411 182.6349 166.964)" class="st66 st4 st67">T</text>
	<text transform="matrix(0.7925 0.574 -0.5409 0.8411 184.5802 168.3717)" class="st66 st4 st67">O</text>
	<text transform="matrix(0.7925 0.574 -0.5409 0.8411 187.4201 170.4292)" class="st66 st4 st67"> </text>
	<text transform="matrix(0.7925 0.574 -0.5409 0.8411 188.4248 171.1563)" class="st66 st4 st67">C</text>
	<text transform="matrix(0.7925 0.574 -0.5409 0.8411 190.7704 172.8557)" class="st66 st4 st67">A</text>
	<text transform="matrix(0.7925 0.574 -0.5409 0.8411 193.2929 174.6821)" class="st66 st4 st67">N</text>
	<text transform="matrix(0.7925 0.574 -0.5409 0.8411 196.0692 176.6924)" class="st66 st4 st67">E</text>
	<text transform="matrix(0.7925 0.574 -0.5409 0.8411 198.2126 178.2448)" class="st66 st4 st67">K</text>
	<g>
		<text transform="matrix(0.9422 0 0 1 289.2715 113.2388)" class="st13 st4 st14">PLAZA</text>
	</g>
	<g>
		<text transform="matrix(0.9422 0 0 1 281.6396 117.3374)" class="st13 st4 st14">ALTABRISA</text>
	</g>
	<g>
		<text transform="matrix(0.9422 0 0 1 253.1289 104.8452)" class="st13 st4 st14">GRAN</text>
	</g>
	<g>
		<text transform="matrix(0.9422 0 0 1 253.208 108.9409)" class="st13 st4 st14">PLAZA</text>
	</g>
	<text transform="matrix(0.9422 0 0 1 200.8965 65.1392)" class="st13 st4 st15">PROGRESO</text>
	<line class="st68" x1="212.5" y1="57.4" x2="212.5" y2="44.6"/>
	<path class="st69" d="M212.5,41.3c0.5,1.6,1.5,3.5,2.5,4.7l-2.5-0.9L210,46C211,44.8,211.9,42.9,212.5,41.3"/>
	<text transform="matrix(0.9422 0 0 1 118.8662 294.2637)" class="st13 st4 st70">B</text>
	<text transform="matrix(0.9422 0 0 1 88.3496 306.4111)" class="st13 st4 st70">C</text>
	<g>
		<path class="st16" d="M136.2,242.2c0,2.9-2.3,5.3-5,5.3s-5-2.4-5-5.3c0-2.9,2.3-5.3,5-5.3S136.2,239.2,136.2,242.2"/>
		<text transform="matrix(0.9422 0 0 1 128.3633 244.7363)" class="st13 st4 st70">A</text>
	</g>
	<path class="st22" d="M92.5,286.2c-0.3-1-1-2-1.9-2.5c-1.7-1-4.4-0.5-5.6,1.1c-0.7,1-0.9,2.2-0.7,3.4c0.2,1.1,0.7,2.2,1.2,3.3
		c0.8,1.7,1.5,3.4,2.3,5.1c0.4,0.9,0.9,1.4,1.5,2.2c0.5-0.8,1-1.7,1.5-2.5c0.3-0.5,0.6-1,0.9-1.6c0.3-0.7,0.5-1.4,0.6-2.2
		C92.7,290.4,93.1,288.2,92.5,286.2 M88.8,290.4c-1.1,0.1-2.1-0.7-2.2-1.9c-0.1-1.2,0.7-2.2,1.8-2.3c1.1-0.1,2.1,0.7,2.2,1.9
		C90.6,289.2,89.9,290.3,88.8,290.4"/>
	<path class="st23" d="M92.5,286.2c-0.3-1-1-2-1.9-2.5c-1.7-1-4.4-0.5-5.6,1.1c-0.7,1-0.9,2.2-0.7,3.4c0.2,1.1,0.7,2.2,1.2,3.3
		c0.8,1.7,1.5,3.4,2.3,5.1c0.4,0.9,0.9,1.4,1.5,2.2c0.5-0.8,1-1.7,1.5-2.5c0.3-0.5,0.6-1,0.9-1.6c0.3-0.7,0.5-1.4,0.6-2.2
		C92.7,290.4,93.1,288.2,92.5,286.2z M88.8,290.4c-1.1,0.1-2.1-0.7-2.2-1.9c-0.1-1.2,0.7-2.2,1.8-2.3c1.1-0.1,2.1,0.7,2.2,1.9
		C90.6,289.2,89.9,290.3,88.8,290.4z"/>
	<path class="st71" d="M242.9,160.2l-4.4,16.3l-21.4-4.7l-5.4,19.2l-15.6-1.1l3.6,3.7v4.9c0,0,2.8-0.3,2.8,1.1c0,1.4,0,5.9,0,5.9
		l12.5-1.5l-5.2,5.6c0,0,1.5,1.2,1.9,2.5c0.4,1.3-3.1,12.6-3.1,12.6h3.1l2.5-4.1h2.3v3.2l3.1,0.9l0.9,2l14.4,9.5l7.3-1.4l7.4-1.2
		l1.4-4.7l3.4-3.1l2.5,3.1v-5.5l2.5-1.4l3.2-7.3l5.3,2.3l4.1-0.4l-2.1-10.4l0.7-3.4l1.4-6.7h1.6l-2.1-5.2l-0.9-6.9l-5-8.1l-0.7-5.6
		l-6.7-4.7l-6.3-5.5l-2.9,3.1L242.9,160.2z"/>
	<g>
		<text transform="matrix(0.9422 0 0 1 219.7168 188.4004)" class="st13 st4 st14">PARQUE</text>
	</g>
	<g>
		<text transform="matrix(0.9422 0 0 1 219.7168 193.0859)" class="st13 st4 st14">ZOOLÓGICO</text>
	</g>
	<g>
		<text transform="matrix(0.9422 0 0 1 219.7168 197.7715)" class="st13 st4 st14">CENTENARIO</text>
	</g>
	<g>
		<g>
			<g>
				<defs>
					<rect id="SVGID_3_" x="367.9" y="64.2" width="20.8" height="22.1"/>
				</defs>
				<clipPath id="SVGID_4_">
					<use xlink:href="#SVGID_3_"  style="overflow:visible;"/>
				</clipPath>
				<path class="st72" d="M378.3,83c0.2,0,0.3,0.2,0.3,0.3v1.1H378v-1.1C378,83.2,378.1,83,378.3,83z M369.6,74.9h1
					c0.2,0,0.3,0.1,0.3,0.3c0,0.2-0.1,0.3-0.3,0.3h-1V74.9z M386,74.9h1v0.7h-1c-0.2,0-0.3-0.1-0.3-0.3
					C385.6,75.1,385.8,74.9,386,74.9z M378.3,74.3c-0.5,0-0.9,0.4-0.9,0.9c0,0.5,0.4,0.9,0.9,0.9s0.9-0.4,0.9-0.9
					S378.8,74.3,378.3,74.3z M382.6,69.3l-3.1,6.9l-5.4,5.1l3.1-6.9L382.6,69.3z M378,66h0.6v1.1c0,0.2-0.1,0.3-0.3,0.3
					c-0.2,0-0.3-0.2-0.3-0.3V66z M378.3,64.7c-5.5,0-10,4.8-10,10.6s4.5,10.6,10,10.6s10-4.8,10-10.6S383.8,64.7,378.3,64.7z"/>
			</g>
		</g>
		<g>
			<g>
				<defs>
					<rect id="SVGID_5_" x="369.6" y="43.6" width="17.1" height="25.4"/>
				</defs>
				<clipPath id="SVGID_6_">
					<use xlink:href="#SVGID_5_"  style="overflow:visible;"/>
				</clipPath>
				<g class="st73">
					<text transform="matrix(0.9422 0 0 1 373.6133 60.3003)" class="st74 st75 st76">N</text>
				</g>
			</g>
		</g>
		<g>
			<g>
				<defs>
					<rect id="SVGID_7_" x="371" y="83.3" width="14.4" height="25.4"/>
				</defs>
				<clipPath id="SVGID_8_">
					<use xlink:href="#SVGID_7_"  style="overflow:visible;"/>
				</clipPath>
				<g class="st77">
					<text transform="matrix(0.9422 0 0 1 374.9658 99.9253)" class="st74 st75 st76">S</text>
				</g>
			</g>
		</g>
	</g>
	<path id="SVGID_x5F_9_x5F_" class="st78" d="M249.9,161.4l12.7,9.7l1.5,5.6l4.7,7.6l1.7,8.6"/>
	<text transform="matrix(0.7785 0.598 -0.5634 0.8262 251.2567 162.4423)" class="st79 st80"> </text>
	<text transform="matrix(0.7785 0.598 -0.5634 0.8262 254.3278 164.8005)" class="st3 st4 st81"> </text>
	<text transform="matrix(0.7785 0.598 -0.5634 0.8262 255.316 165.5596)" class="st3 st4 st81"> </text>
	<text transform="matrix(0.7785 0.598 -0.5634 0.8262 256.3054 166.3204)" class="st3 st4 st81">Z</text>
	<text transform="matrix(0.7785 0.598 -0.5634 0.8262 258.4092 167.9356)" class="st3 st4 st81">o</text>
	<text transform="matrix(0.7785 0.598 -0.5634 0.8262 260.4475 169.5013)" class="st3 st4 st81">n</text>
	<text transform="matrix(0.2748 1.0152 -0.9565 0.2916 262.5273 170.854)" class="st3 st4 st82">a</text>
	<text transform="matrix(0.2748 1.0152 -0.9565 0.2916 263.1389 173.1135)" class="st3 st4 st82"> </text>
	<text transform="matrix(0.2748 1.0152 -0.9565 0.2916 263.4759 174.3587)" class="st3 st4 st82">C</text>
	<text transform="matrix(0.5413 0.8687 -0.8185 0.5745 264.385 177.1715)" class="st3 st4 st83">e</text>
	<text transform="matrix(0.5413 0.8687 -0.8185 0.5745 265.691 179.2654)" class="st3 st4 st83">n</text>
	<text transform="matrix(0.5413 0.8687 -0.8185 0.5745 266.9967 181.3606)" class="st3 st4 st83">t</text>
	<text transform="matrix(0.5413 0.8687 -0.8185 0.5745 267.9232 182.8475)" class="st3 st4 st83">r</text>
	<text transform="matrix(0.2056 1.0357 -0.9759 0.2182 268.8516 184.3332)" class="st3 st4 st84">o</text>
	<text transform="matrix(0.2056 1.0357 -0.9759 0.2182 269.3701 186.9453)" class="st79 st85"> </text>
	<text transform="matrix(0.9422 0 0 1 -52 14.1265)" class="st79" style="font-size:14.4779px;"> </text>
	<path id="SVGID_x5F_10_x5F_" class="st78" d="M175.7,265.5l5.1-7.8l34.6-24"/>
	<text transform="matrix(0.8028 -0.5557 0.5236 0.852 179.9703 258.2974)" class="st79 st86"> </text>
	<text transform="matrix(0.8028 -0.5557 0.5236 0.852 183.1449 256.1011)" class="st3 st4 st87">A</text>
	<text transform="matrix(0.8028 -0.5557 0.5236 0.852 185.7038 254.3287)" class="st3 st4 st87">v</text>
	<text transform="matrix(0.8028 -0.5557 0.5236 0.852 187.6241 252.9994)" class="st3 st4 st87">e</text>
	<text transform="matrix(0.8028 -0.5557 0.5236 0.852 189.6073 251.6278)" class="st3 st4 st87">n</text>
	<text transform="matrix(0.8028 -0.5557 0.5236 0.852 191.5893 250.256)" class="st3 st4 st87">i</text>
	<text transform="matrix(0.8028 -0.5557 0.5236 0.852 192.4872 249.6344)" class="st3 st4 st87">d</text>
	<text transform="matrix(0.8028 -0.5557 0.5236 0.852 194.663 248.1283)" class="st3 st4 st87">a</text>
	<text transform="matrix(0.8028 -0.5557 0.5236 0.852 196.5171 246.8437)" class="st3 st4 st87"> </text>
	<text transform="matrix(0.8028 -0.5557 0.5236 0.852 197.5395 246.136)" class="st3 st4 st87">I</text>
	<text transform="matrix(0.8028 -0.5557 0.5236 0.852 198.5619 245.4283)" class="st3 st4 st87">t</text>
	<text transform="matrix(0.8028 -0.5557 0.5236 0.852 199.9675 244.4554)" class="st3 st4 st87">z</text>
	<text transform="matrix(0.8028 -0.5557 0.5236 0.852 201.6944 243.26)" class="st3 st4 st87">á</text>
	<text transform="matrix(0.8028 -0.5557 0.5236 0.852 203.5492 241.9773)" class="st3 st4 st87">e</text>
	<text transform="matrix(0.8028 -0.5557 0.5236 0.852 205.5319 240.6049)" class="st3 st4 st87">s</text>
	<text transform="matrix(0.8028 -0.5557 0.5236 0.852 207.1305 239.4972)" class="st79 st86"> </text>
	<text transform="matrix(0.9422 0 0 1 -52 14.1265)" class="st79" style="font-size:14.4779px;"> </text>
	<path id="SVGID_x5F_11_x5F_" class="st78" d="M68.7,256.8l18.7-69.7"/>
	<text transform="matrix(0.2727 -1.0159 0.9572 0.2895 70.0402 251.7476)" class="st79 st88"> </text>
	<text transform="matrix(0.2727 -1.0159 0.9572 0.2895 71.0788 247.8792)" class="st13 st4 st89">P</text>
	<text transform="matrix(0.2727 -1.0159 0.9572 0.2895 71.6524 245.743)" class="st13 st4 st89">r</text>
	<text transform="matrix(0.2727 -1.0159 0.9572 0.2895 72.0223 244.3614)" class="st13 st4 st89">ó</text>
	<text transform="matrix(0.2727 -1.0159 0.9572 0.2895 72.5783 242.2943)" class="st13 st4 st89">x</text>
	<text transform="matrix(0.2727 -1.0159 0.9572 0.2895 73.0845 240.4089)" class="st13 st4 st89">i</text>
	<text transform="matrix(0.2727 -1.0159 0.9572 0.2895 73.3202 239.5273)" class="st13 st4 st89">m</text>
	<text transform="matrix(0.2727 -1.0159 0.9572 0.2895 74.113 236.5783)" class="st13 st4 st89">o</text>
	<text transform="matrix(0.2727 -1.0159 0.9572 0.2895 74.6686 234.509)" class="st13 st4 st89"> </text>
	<text transform="matrix(0.2727 -1.0159 0.9572 0.2895 74.938 233.5055)" class="st13 st4 st89">c</text>
	<text transform="matrix(0.2727 -1.0159 0.9572 0.2895 75.3767 231.8714)" class="st13 st4 st89">i</text>
	<text transform="matrix(0.2727 -1.0159 0.9572 0.2895 75.6135 230.9896)" class="st13 st4 st89">r</text>
	<text transform="matrix(0.2727 -1.0159 0.9572 0.2895 75.984 229.6098)" class="st13 st4 st89">c</text>
	<text transform="matrix(0.2727 -1.0159 0.9572 0.2895 76.4227 227.9757)" class="st13 st4 st89">u</text>
	<text transform="matrix(0.2727 -1.0159 0.9572 0.2895 76.9455 226.0286)" class="st13 st4 st89">i</text>
	<text transform="matrix(0.2727 -1.0159 0.9572 0.2895 77.1818 225.1481)" class="st13 st4 st89">t</text>
	<text transform="matrix(0.2727 -1.0159 0.9572 0.2895 77.5527 223.7669)" class="st13 st4 st89">o</text>
	<text transform="matrix(0.2727 -1.0159 0.9572 0.2895 78.1078 221.6995)" class="st13 st4 st89"> </text>
	<text transform="matrix(0.2727 -1.0159 0.9572 0.2895 78.3773 220.6955)" class="st13 st4 st89">m</text>
	<text transform="matrix(0.2727 -1.0159 0.9572 0.2895 79.1694 217.7453)" class="st13 st4 st89">e</text>
	<text transform="matrix(0.2727 -1.0159 0.9572 0.2895 79.6918 215.7995)" class="st13 st4 st89">t</text>
	<text transform="matrix(0.2727 -1.0159 0.9572 0.2895 80.0624 214.4192)" class="st13 st4 st89">r</text>
	<text transform="matrix(0.2727 -1.0159 0.9572 0.2895 80.4329 213.0394)" class="st13 st4 st89">o</text>
	<text transform="matrix(0.2727 -1.0159 0.9572 0.2895 80.9885 210.9701)" class="st13 st4 st89">p</text>
	<text transform="matrix(0.2727 -1.0159 0.9572 0.2895 81.561 208.834)" class="st13 st4 st89">o</text>
	<text transform="matrix(0.2727 -1.0159 0.9572 0.2895 82.117 206.7669)" class="st13 st4 st89">l</text>
	<text transform="matrix(0.2727 -1.0159 0.9572 0.2895 82.3535 205.886)" class="st13 st4 st89">i</text>
	<text transform="matrix(0.2727 -1.0159 0.9572 0.2895 82.5907 205.0027)" class="st13 st4 st89">t</text>
	<text transform="matrix(0.2727 -1.0159 0.9572 0.2895 82.9611 203.6229)" class="st13 st4 st89">a</text>
	<text transform="matrix(0.2727 -1.0159 0.9572 0.2895 83.4497 201.8031)" class="st13 st4 st89">n</text>
	<text transform="matrix(0.2727 -1.0159 0.9572 0.2895 83.9724 199.8564)" class="st13 st4 st89">o</text>
	<text transform="matrix(0.2727 -1.0159 0.9572 0.2895 84.5281 197.7866)" class="st79 st88"> </text>
	<text transform="matrix(0.9422 0 0 1 -52 14.1265)" class="st79" style="font-size:14.4779px;"> </text>
	<path id="SVGID_x5F_12_x5F_" class="st78" d="M6.3,190.4c0,0,4.8,2.6,18,6.3c2.7,0.8,21.8,4.9,21.8,4.9"/>
	<text transform="matrix(0.894 0.3352 -0.3158 0.9488 9.5327 191.864)" class="st79 st90"> </text>
	<text transform="matrix(0.9022 0.3062 -0.2885 0.9575 13.11 193.2035)" class="st3 st4 st91">M</text>
	<text transform="matrix(0.9068 0.2883 -0.2716 0.9624 16.8191 194.4513)" class="st3 st4 st92">é</text>
	<text transform="matrix(0.9092 0.2784 -0.2623 0.965 19.0891 195.1721)" class="st3 st4 st93">r</text>
	<text transform="matrix(0.9107 0.2722 -0.2565 0.9665 20.7029 195.6639)" class="st3 st4 st94">i</text>
	<text transform="matrix(0.9125 0.2646 -0.2493 0.9684 21.7311 195.9743)" class="st3 st4 st95">d</text>
	<text transform="matrix(0.9209 0.2248 -0.2118 0.9773 24.234 196.7138)" class="st3 st4 st96">a</text>
	<text transform="matrix(0.9229 0.2138 -0.2015 0.9795 26.3927 197.2342)" class="st3 st4 st97"> </text>
	<text transform="matrix(0.9235 0.2104 -0.1983 0.9801 27.5867 197.5105)" class="st3 st4 st98">-</text>
	<text transform="matrix(0.9239 0.2082 -0.1962 0.9806 28.7769 197.7826)" class="st3 st4 st99"> </text>
	<text transform="matrix(0.9243 0.206 -0.1941 0.981 29.9711 198.052)" class="st3 st4 st100">T</text>
	<text transform="matrix(0.9247 0.2041 -0.1923 0.9813 32.2907 198.5681)" class="st3 st4 st101">e</text>
	<text transform="matrix(0.9249 0.2029 -0.1912 0.9816 34.6068 199.0798)" class="st3 st4 st102">t</text>
	<text transform="matrix(0.925 0.2022 -0.1905 0.9817 36.252 199.4402)" class="st3 st4 st103">i</text>
	<text transform="matrix(0.9251 0.2016 -0.1899 0.9818 37.3036 199.6709)" class="st3 st4 st103">z</text>
	<text transform="matrix(0.9253 0.2005 -0.1889 0.982 39.3202 200.1109)" class="st79 st104"> </text>
	<text transform="matrix(0.9422 0 0 1 -52 14.1265)" class="st79" style="font-size:14.4779px;"> </text>
	<g>
		<path class="st16" d="M215.2,191.1c-0.4,0-0.6,0.3-0.6,0.7c0,0.4,0.3,0.7,0.6,0.7c0.4,0,0.6-0.3,0.6-0.7
			C215.8,191.4,215.5,191.1,215.2,191.1"/>
		<path class="st16" d="M218.3,181.8c-0.2-0.7-0.5-1.4-1.2-1.9c-1.1-0.8-3-0.7-4,0.4c-0.6,0.6-0.7,1.5-0.7,2.3
			c0.1,0.8,0.3,1.6,0.6,2.3c0.4,1.2,0.9,2.4,1.3,3.7c0.2,0.6,0.6,1,0.9,1.6c0.4-0.5,0.8-1.1,1.2-1.6c0.3-0.3,0.5-0.7,0.7-1
			c0.3-0.5,0.4-1,0.6-1.5C218.2,184.7,218.6,183.2,218.3,181.8"/>
	</g>
	<g>
		<path class="st16" d="M305.6,120.4c-0.4,0-0.6,0.3-0.6,0.7c0,0.4,0.3,0.7,0.6,0.7c0.4,0,0.6-0.3,0.6-0.7
			C306.2,120.7,305.9,120.4,305.6,120.4"/>
		<path class="st16" d="M308.7,111.1c-0.2-0.7-0.5-1.4-1.2-1.9c-1.1-0.8-3-0.7-4,0.4c-0.6,0.6-0.7,1.5-0.7,2.3
			c0.1,0.8,0.3,1.6,0.6,2.3c0.4,1.2,0.9,2.4,1.3,3.7c0.2,0.6,0.6,1,0.9,1.6c0.4-0.5,0.8-1.1,1.2-1.6c0.3-0.3,0.5-0.7,0.7-1
			c0.3-0.5,0.4-1,0.6-1.5C308.6,114,309,112.5,308.7,111.1"/>
	</g>
	<g>
		<path class="st16" d="M320.5,78.1c-0.4,0-0.6,0.3-0.6,0.7c0,0.4,0.3,0.7,0.6,0.7c0.4,0,0.6-0.3,0.6-0.7S320.8,78.1,320.5,78.1"/>
		<path class="st16" d="M323.6,68.8c-0.2-0.7-0.5-1.4-1.2-1.9c-1.1-0.8-3-0.7-4,0.4c-0.6,0.6-0.7,1.5-0.7,2.3
			c0.1,0.8,0.3,1.6,0.6,2.3c0.4,1.2,0.9,2.4,1.3,3.7c0.2,0.6,0.6,1,0.9,1.6c0.4-0.5,0.8-1.1,1.2-1.6c0.3-0.3,0.5-0.7,0.7-1
			c0.3-0.5,0.4-1,0.6-1.5C323.5,71.7,323.9,70.2,323.6,68.8"/>
	</g>
	<g>
		<path class="st16" d="M251.6,98c-0.4,0-0.6,0.3-0.6,0.7c0,0.4,0.3,0.7,0.6,0.7c0.4,0,0.6-0.3,0.6-0.7
			C252.2,98.3,251.9,98,251.6,98"/>
		<path class="st16" d="M254.7,88.7c-0.2-0.7-0.5-1.4-1.2-1.9c-1.1-0.8-3-0.7-4,0.4c-0.6,0.6-0.7,1.5-0.7,2.3
			c0.1,0.8,0.3,1.6,0.6,2.3c0.4,1.2,0.9,2.4,1.3,3.7c0.2,0.6,0.6,1,0.9,1.6c0.4-0.5,0.8-1.1,1.2-1.6c0.3-0.3,0.5-0.7,0.7-1
			c0.3-0.5,0.4-1,0.6-1.5C254.6,91.6,255,90.2,254.7,88.7"/>
	</g>
	<text transform="matrix(-0.1681 -1.0443 0.984 -0.1784 253.2671 140.6484)" class="st53 st4 st105">A</text>
	<text transform="matrix(-0.1682 -1.0443 0.9839 -0.1785 252.6429 136.8612)" class="st53 st4 st54">L</text>
	<text transform="matrix(-0.1681 -1.0443 0.984 -0.1784 252.2309 134.2177)" class="st53 st4 st105">L</text>
	<text transform="matrix(-0.1681 -1.0443 0.984 -0.1784 251.7948 131.5084)" class="st53 st4 st105">E</text>
	<text transform="matrix(-0.1681 -1.0443 0.984 -0.1784 251.2836 128.3395)" class="st53 st4 st105"> </text>
	<text transform="matrix(-0.1682 -1.0443 0.9839 -0.1785 251.0212 126.7897)" class="st53 st4 st54">6</text>
	<text transform="matrix(-0.1681 -1.0443 0.984 -0.1784 250.5659 123.8743)" class="st53 st4 st105">0</text>
</g>
</svg>
