<?xml version="1.0" encoding="utf-8"?>
<!-- Generator: Adobe Illustrator 24.0.2, SVG Export Plug-In . SVG Version: 6.00 Build 0)  -->
<svg version="1.1" id="Capa_1" xmlns="http://www.w3.org/2000/svg" xmlns:xlink="http://www.w3.org/1999/xlink" x="0px" y="0px"
	 viewBox="0 0 65 47.3" style="enable-background:new 0 0 65 47.3;" xml:space="preserve">
<style type="text/css">
	.st0{clip-path:url(#SVGID_2_);}
	.st1{fill:#51488B;}
</style>
<g>
	<defs>
		<rect id="SVGID_1_" y="6.1" width="65" height="36"/>
	</defs>
	<clipPath id="SVGID_2_">
		<use xlink:href="#SVGID_1_"  style="overflow:visible;"/>
	</clipPath>
	<g class="st0">
		<path class="st1" d="M64.2,7.1c-0.6-0.6-1.3-1-2.2-1h-0.9c-2.3,0-4.1,1.7-4.3,4L55.9,21c-0.1,1-0.9,1.7-1.8,1.7H46
			c-2.6,0-4.7,2.1-4.7,4.8v0.5c0,1.6,1.3,2.9,2.9,2.9h1.7l-1.7,5.7v0l-1.3,4.3c-0.2,0.5,0.1,1.1,0.6,1.2c0.1,0,0.2,0,0.3,0
			c0.4,0,0.8-0.3,0.9-0.7l1.1-3.7h13.1l1.1,3.7c0.1,0.4,0.5,0.7,0.9,0.7c0.1,0,0.2,0,0.3,0c0.5-0.2,0.8-0.7,0.6-1.2l-3.1-10.3
			c0.5-0.2,1.1-0.4,1.6-0.7c0.5-0.3,0.6-0.9,0.4-1.3c-0.3-0.5-0.8-0.6-1.3-0.4c-0.8,0.4-1.6,0.7-2.5,0.7h-9.6h0h-3
			c-0.5,0-0.9-0.4-0.9-1v-0.5c0-1.6,1.3-2.9,2.8-2.9h8.1c2,0,3.5-1.5,3.7-3.5l0.9-10.9C58.9,9,59.9,8,61.2,8h0.9
			c0.3,0,0.6,0.1,0.8,0.3c0.2,0.2,0.3,0.5,0.3,0.8l-1.3,15c0,0.4-0.1,0.7-0.2,1.1c-0.2,0.5,0.1,1.1,0.6,1.2c0.5,0.2,1-0.1,1.2-0.6
			c0.2-0.5,0.2-1,0.3-1.5l1.3-15C65.1,8.5,64.8,7.7,64.2,7.1z M47.8,30.8h8.9l1.5,5H46.3L47.8,30.8z"/>
		<path class="st1" d="M19,22.7h-8.1c-0.9,0-1.7-0.7-1.8-1.7L8.1,10.1c-0.2-2.3-2.1-4-4.3-4H2.9c-0.8,0-1.6,0.3-2.2,1
			S-0.1,8.5,0,9.3l1.3,15c0.2,1.8,0.9,3.4,2.2,4.6c0.8,0.8,1.8,1.3,2.8,1.6L3.3,40.9c-0.2,0.5,0.1,1.1,0.6,1.2c0.1,0,0.2,0,0.3,0
			c0.4,0,0.8-0.3,0.9-0.7l1.1-3.7h13.1l1.1,3.7c0.1,0.4,0.5,0.7,0.9,0.7c0.1,0,0.2,0,0.3,0c0.5-0.2,0.8-0.7,0.6-1.2l-1.3-4.3v0
			l-1.7-5.7h1.7c1.6,0,2.9-1.3,2.9-2.9v-0.5C23.7,24.8,21.6,22.7,19,22.7z M6.8,35.8l1.5-5h8.9l1.5,5L6.8,35.8L6.8,35.8z M21.8,27.9
			c0,0.5-0.4,1-0.9,1h-3h0H8.3c-0.2,0-0.4,0-0.6,0c-2.4-0.3-4.3-2.2-4.5-4.7l-1.3-15c0-0.3,0.1-0.6,0.3-0.8C2.4,8.2,2.6,8,2.9,8h0.9
			c1.3,0,2.3,1,2.4,2.3l0.9,10.8c0.2,2,1.8,3.5,3.7,3.5H19c1.5,0,2.8,1.3,2.8,2.9L21.8,27.9z"/>
		<path class="st1" d="M39.7,38.9c-0.4-1.5-1.8-2.6-3.3-2.6h-0.6V18.8h11.7c0.7,0,1.3-0.3,1.7-0.8c0.4-0.5,0.6-1.2,0.5-1.9
			c-0.4-2-2.2-3.5-4.2-3.5H25.7c-0.5,0-0.9,0.4-0.9,1c0,0.5,0.4,1,0.9,1h19.8c1.1,0,2.1,0.8,2.4,1.9c0,0.1,0,0.2-0.1,0.3
			c0,0-0.1,0.1-0.3,0.1H17.4c-0.1,0-0.2-0.1-0.3-0.1c0,0-0.1-0.1-0.1-0.3c0.2-1.1,1.2-1.9,2.4-1.9h1.8c0.5,0,0.9-0.4,0.9-1
			c0-0.5-0.4-1-0.9-1h-1.8c-2,0-3.8,1.5-4.2,3.5c-0.1,0.7,0,1.4,0.5,1.9c0.4,0.5,1.1,0.8,1.7,0.8h11.7v17.6h-0.6
			c-1.6,0-2.9,1.1-3.3,2.6l-0.2,0.9c-0.1,0.6,0,1.1,0.3,1.6c0.3,0.5,0.9,0.7,1.4,0.7h11.4c0.6,0,1.1-0.3,1.4-0.7
			c0.3-0.5,0.5-1,0.3-1.6L39.7,38.9z M31.1,18.8h2.8v17.6h-2.8V18.8z M26.9,40.2l0.2-0.8c0.2-0.7,0.8-1.2,1.5-1.2h7.8
			c0.7,0,1.3,0.5,1.5,1.2l0.2,0.8H26.9z"/>
	</g>
</g>
</svg>
