<?xml version="1.0" encoding="utf-8"?>
<!-- Generator: Adobe Illustrator 24.0.2, SVG Export Plug-In . SVG Version: 6.00 Build 0)  -->
<svg version="1.1" id="Capa_1" xmlns="http://www.w3.org/2000/svg" xmlns:xlink="http://www.w3.org/1999/xlink" x="0px" y="0px"
	 viewBox="0 0 50.3 47.3" style="enable-background:new 0 0 50.3 47.3;" xml:space="preserve">
<style type="text/css">
	.st0{fill:#51488B;}
</style>
<path class="st0" d="M45.9,24.2v-0.8c0-1.5-0.8-2.9-2.1-3.7v-9.2c0-2.4-2-4.4-4.6-4.4H11c-2.5,0-4.6,2-4.6,4.4v9.2
	c-1.3,0.8-2.1,2.2-2.1,3.7v0.8c-1.3,0.3-2.2,1.5-2.2,2.8v9.8c0,1.5,1.3,2.8,2.9,2.9v1.2c0,0.7,0.6,1.3,1.3,1.3s1.3-0.6,1.3-1.3v-1.2
	h34.9v1.2c0,0.7,0.6,1.3,1.3,1.3c0.7,0,1.3-0.6,1.3-1.3v-1.2c1.6-0.1,2.9-1.3,2.9-2.9v-9.8C48.1,25.6,47.2,24.5,45.9,24.2z
	 M9.2,10.5c0-1,0.8-1.8,1.9-1.8h28.2c1,0,1.9,0.8,1.9,1.8v8.4h-1.8v-2.3c0-1.6-1.3-2.9-3-2.9h-7.2c-1.7,0-3,1.3-3,2.9v2.3h-1.8v-2.3
	c0-1.6-1.3-2.9-3-2.9H14c-1.7,0-3,1.3-3,2.9v2.3H9.2V10.5z M36.6,16.6v2c0,0.2-0.1,0.3-0.3,0.3h-7.2c-0.2,0-0.3-0.1-0.3-0.3v-2
	c0-0.2,0.1-0.3,0.3-0.3h7.2C36.5,16.3,36.6,16.5,36.6,16.6z M21.5,16.6v2c0,0.2-0.1,0.3-0.3,0.3H14c-0.2,0-0.3-0.1-0.3-0.3v-2
	c0-0.2,0.1-0.3,0.3-0.3h7.2C21.4,16.3,21.5,16.5,21.5,16.6z M7.1,23.3c0-1,0.9-1.8,1.9-1.8h32.3c1.1,0,1.9,0.8,1.9,1.8v0.7H7.1V23.3
	z M45.4,36.8c0,0.2-0.1,0.3-0.3,0.3h-40c-0.2,0-0.3-0.1-0.3-0.3v-9.8c0-0.2,0.1-0.3,0.3-0.3h40c0.2,0,0.3,0.1,0.3,0.3V36.8z"/>
</svg>
