<svg width="40" height="67" viewBox="0 0 40 67" fill="none" xmlns="http://www.w3.org/2000/svg">
<g clip-path="url(#clip0)">
<path d="M1.64308 58.9395C4.94881 64.7017 10.8942 66.4548 16.3585 66.8839C22.8096 67.3866 29.8898 66.2954 34.5277 60.3249C36.6616 57.5787 38.0801 54.0111 39.1532 50.3454C41.3611 42.732 42.0272 18.4698 38.7092 11.592C37.1056 8.26963 34.688 5.73185 32.0607 3.86835C23.673 -2.11445 14.0889 -0.962022 6.33031 6.06286C1.06334 10.8319 0.0518914 16.6431 -0.638858 24.661C-1.20626 31.1465 -1.52696 53.4104 1.64308 58.9395Z" fill="#F8BBAB"/>
<path d="M34.1769 38.7461H5.02051V20.8589H34.1769V38.7461ZM6.64573 37.1308H32.5517V22.4742H6.64573V37.1308Z" fill="#265B33"/>
<path d="M34.2743 55.0073H5.04199V37.1309H34.2743V55.0073ZM6.66721 53.392H32.649V38.7462H6.66721V53.392Z" fill="#265B33"/>
<path d="M30.8834 34.5568H21.5654V25.0586H30.8834V34.5568V34.5568ZM23.2015 32.9415H29.269V26.6739H23.2015V32.9415Z" fill="#265B33"/>
<path d="M13.1139 22.4743H5.04199V11.9854H13.1139V22.4743V22.4743ZM6.66721 20.859H11.4887V13.6007H6.66721V20.859Z" fill="#265B33"/>
<path d="M18.2394 49.5905H7.93555V41.0723H18.2394V49.5905ZM9.56077 47.9752H16.6142V42.6876H9.56077V47.9752Z" fill="#265B33"/>
<path d="M26.1705 55.0077H19.5938V40.3296H26.1813V55.0077H26.1705ZM21.219 53.3923H24.5561V41.9449H21.219V53.3923Z" fill="#265B33"/>
</g>
<defs>
<clipPath id="clip0">
<rect width="40" height="67" fill="white"/>
</clipPath>
</defs>
</svg>
