<svg width="40" height="67" viewBox="0 0 40 67" fill="none" xmlns="http://www.w3.org/2000/svg">
<g clip-path="url(#clip0)">
<path d="M1.64308 58.9395C4.94881 64.7017 10.8942 66.4548 16.3585 66.8839C22.8096 67.3866 29.8898 66.2954 34.5277 60.3249C36.6616 57.5787 38.0801 54.0111 39.1532 50.3454C41.3611 42.732 42.0272 18.4698 38.7092 11.592C37.1056 8.26963 34.688 5.73185 32.0607 3.86835C23.673 -2.11445 14.0889 -0.962022 6.33031 6.06286C1.06334 10.8319 0.0518914 16.6431 -0.638858 24.661C-1.20626 31.1465 -1.52696 53.4104 1.64308 58.9395Z" fill="#F8BBAB"/>
<path d="M9.18348 47.9808C6.90802 47.9808 4.63255 47.0938 3.12626 45.5205C0.167092 42.4267 0.327336 37.3583 3.37197 33.9265C2.32504 31.4557 2.88055 28.6258 4.82485 26.8519C6.32045 25.4898 8.52114 24.9407 10.5723 25.4264L10.1236 27.2743C8.69206 26.9364 7.16441 27.3059 6.12816 28.2563C4.68597 29.5656 4.36548 31.8358 5.35899 33.652L5.70085 34.275L5.18807 34.7818C2.4746 37.4427 2.1648 41.7614 4.51504 44.2217C5.99997 45.7739 8.48909 46.4497 10.7111 45.9112L11.1705 47.759C10.5295 47.9069 9.8565 47.9808 9.18348 47.9808Z" fill="#265B33"/>
<path d="M10.0382 41.1074H8.11523V51.297H10.0382V41.1074Z" fill="#265B33"/>
<path d="M34.8221 34.6133H12.7939V36.5139H34.8221V34.6133Z" fill="#265B33"/>
<path d="M31.2862 35.5633H29.3633V26.9048H35.0893V28.8054H31.2862V35.5633Z" fill="#265B33"/>
<path d="M18.6589 35.5636H16.7359V29.2175H12.7939V27.3169H18.6589V35.5636Z" fill="#265B33"/>
<path d="M21.1055 35.5635H19.1826V51.2966H21.1055V35.5635Z" fill="#265B33"/>
<path d="M29.0968 35.5635H27.1738V51.2966H29.0968V35.5635Z" fill="#265B33"/>
<path d="M28.1354 38.8374H20.1445V40.7381H28.1354V38.8374Z" fill="#265B33"/>
<path d="M28.1354 46.0913H20.1445V47.992H28.1354V46.0913Z" fill="#265B33"/>
<path d="M36.0621 52.3209H34.1392V21.2136L23.9584 14.0017L13.628 21.5831V52.3209H11.7051V20.6223L23.937 11.647L36.0621 20.2316V52.3209Z" fill="#265B33"/>
<path d="M24.9083 9.00732H22.9854V13.59H24.9083V9.00732Z" fill="#265B33"/>
<path d="M35.0895 20.1577H12.666V22.0584H35.0895V20.1577Z" fill="#265B33"/>
</g>
<defs>
<clipPath id="clip0">
<rect width="40" height="67" fill="white"/>
</clipPath>
</defs>
</svg>
