<svg width="40" height="67" viewBox="0 0 40 67" fill="none" xmlns="http://www.w3.org/2000/svg">
<g clip-path="url(#clip0)">
<path d="M1.64308 58.9395C4.94881 64.7017 10.8942 66.4548 16.3585 66.8839C22.8096 67.3866 29.8898 66.2954 34.5277 60.3249C36.6616 57.5787 38.0801 54.0111 39.1532 50.3454C41.3611 42.732 42.0272 18.4698 38.7092 11.592C37.1056 8.26963 34.688 5.73185 32.0607 3.86835C23.673 -2.11445 14.0889 -0.962022 6.33031 6.06286C1.06334 10.8319 0.0518914 16.6431 -0.638858 24.661C-1.20626 31.1465 -1.52696 53.4104 1.64308 58.9395Z" fill="#F8BBAB"/>
<path d="M24.3498 29.2616L33.9951 30.7701L26.8527 36.994L28.2974 46.0073L19.7408 41.5956L10.9908 45.6563L12.8527 36.7094L5.99512 30.2104L15.7015 29.0908L20.219 21.0073L24.3498 29.2616Z" stroke="#265B33" stroke-width="1.8" stroke-miterlimit="10"/>
</g>
<defs>
<clipPath id="clip0">
<rect width="40" height="67" fill="white"/>
</clipPath>
</defs>
</svg>
