<svg width="40" height="67" viewBox="0 0 40 67" fill="none" xmlns="http://www.w3.org/2000/svg">
<g clip-path="url(#clip0)">
<path d="M1.64308 58.9395C4.94881 64.7017 10.8942 66.4548 16.3585 66.8839C22.8096 67.3866 29.8898 66.2954 34.5277 60.3249C36.6616 57.5787 38.0801 54.0111 39.1532 50.3454C41.3611 42.732 42.0272 18.4698 38.7092 11.592C37.1056 8.26963 34.688 5.73185 32.0607 3.86835C23.673 -2.11445 14.0889 -0.962022 6.33031 6.06286C1.06334 10.8319 0.0518914 16.6431 -0.638858 24.661C-1.20626 31.1465 -1.52696 53.4104 1.64308 58.9395Z" fill="#F8BBAB"/>
<path d="M20.1254 44.2815L4.99512 40.8312V25.4576L20.23 22.0073L35.9951 25.562L35.7711 40.8387L20.1254 44.2815ZM5.92863 40.0935L20.1329 43.3351L34.86 40.0935L35.0616 26.3072L20.23 22.9612L5.92863 26.1954V40.0935Z" fill="#265B33"/>
<path d="M19.7626 22.4793L19.6621 43.8071L20.5956 43.8115L20.6961 22.4837L19.7626 22.4793Z" fill="#265B33"/>
<path d="M35.3525 29.8395L20.1251 27.5518L5.62954 29.6309L5.49512 28.7143L20.1251 26.6128L35.4944 28.9229L35.3525 29.8395Z" fill="#265B33"/>
<path d="M5.53289 32.6754L5.52637 33.6069L35.5256 33.8162L35.5322 32.8847L5.53289 32.6754Z" fill="#265B33"/>
<path d="M20.1261 39.259L5.3916 36.9488L5.5335 36.0322L20.1261 38.32L35.249 36.0322L35.3909 36.9488L20.1261 39.259Z" fill="#265B33"/>
<path d="M15.0995 23.6914H14.166V27.7826H15.0995V23.6914Z" fill="#265B33"/>
<path d="M9.70011 28.6177H8.7666V33.2603H9.70011V28.6177Z" fill="#265B33"/>
<path d="M15.2421 33.1182H14.3086V37.9993H15.2421V33.1182Z" fill="#265B33"/>
<path d="M9.84171 37.1646H8.9082V41.3452H9.84171V37.1646Z" fill="#265B33"/>
<path d="M26.2792 33.2598H25.3457V38.044H26.2792V33.2598Z" fill="#265B33"/>
<path d="M31.7675 28.7065H30.834V33.4013H31.7675V28.7065Z" fill="#265B33"/>
<path d="M26.3241 23.6914H25.3906V28.0136H26.3241V23.6914Z" fill="#265B33"/>
<path d="M31.7236 37.1201H30.79V41.3976H31.7236V37.1201Z" fill="#265B33"/>
</g>
<defs>
<clipPath id="clip0">
<rect width="40" height="67" fill="white"/>
</clipPath>
</defs>
</svg>
