<svg width="40" height="67" viewBox="0 0 40 67" fill="none" xmlns="http://www.w3.org/2000/svg">
<g clip-path="url(#clip0)">
<path d="M1.64308 58.9395C4.94881 64.7017 10.8942 66.4548 16.3585 66.8839C22.8096 67.3866 29.8898 66.2954 34.5277 60.3249C36.6616 57.5787 38.0801 54.0111 39.1532 50.3454C41.3611 42.732 42.0272 18.4698 38.7092 11.592C37.1056 8.26963 34.688 5.73185 32.0607 3.86835C23.673 -2.11445 14.0889 -0.962022 6.33031 6.06286C1.06334 10.8319 0.0518914 16.6431 -0.638858 24.661C-1.20626 31.1465 -1.52696 53.4104 1.64308 58.9395Z" fill="#F8BBAB"/>
<path d="M5.65936 41.4824H4.25293V20.6226L30.772 22.7366L30.8579 30.7326L29.4515 30.7482L29.3734 24.0316L5.65936 22.1437V41.4824Z" fill="#265B33"/>
<path d="M15.5831 41.4821H14.1767V28.119H8.4494V41.4821H7.04297V26.7148H15.5831V41.4821Z" fill="#265B33"/>
<path d="M24.5058 40.8037H2.01855V42.2079H24.5058V40.8037Z" fill="#265B33"/>
<path d="M22.7478 36.6534H17.0752V27.105H27.3421V32.16H25.9357V28.5092H18.4816V35.2492H22.7478V36.6534Z" fill="#265B33"/>
<path d="M10.8011 33.7437H8.60547V35.1478H10.8011V33.7437Z" fill="#265B33"/>
<path d="M29.5606 46.9662L29.2871 46.8414C20.6297 42.8551 22.419 33.1897 22.4346 33.0883L22.505 32.7216L29.5371 29.7261L36.7881 32.8543L36.8584 33.2209C36.874 33.3223 38.6164 43.3466 29.8419 46.8492L29.5606 46.9662ZM23.7551 33.7202C23.5285 35.3896 23.0441 42.231 29.5996 45.4372C36.2021 42.5977 35.7411 35.5456 35.5301 33.845L29.5371 31.2551L23.7551 33.7202Z" fill="#265B33"/>
<path d="M28.5619 40.9908L25.8115 37.4803L26.9132 36.6222L28.6869 38.8767L32.8359 34.7344L33.8282 35.7329L28.5619 40.9908Z" fill="#265B33"/>
</g>
<defs>
<clipPath id="clip0">
<rect width="40" height="67" fill="white"/>
</clipPath>
</defs>
</svg>
