<?xml version="1.0" encoding="utf-8"?>
<!-- Generator: Adobe Illustrator 25.3.1, SVG Export Plug-In . SVG Version: 6.00 Build 0)  -->
<svg version="1.1" id="Capa_1" xmlns="http://www.w3.org/2000/svg" xmlns:xlink="http://www.w3.org/1999/xlink" x="0px" y="0px"
	 viewBox="0 0 40 67" style="enable-background:new 0 0 40 67;" xml:space="preserve">
<style type="text/css">
	.st0{fill:none;}
	.st1{fill:#F8BBAB;}
	.st2{fill:none;stroke:#215A37;stroke-width:2;stroke-miterlimit:10;}
	.st3{fill:#215A37;}
</style>
<rect y="0" class="st0" width="40" height="67"/>
<path class="st1" d="M1.6,58.9c3.3,5.8,9.3,7.5,14.7,7.9c6.5,0.5,13.5-0.6,18.2-6.6c2.1-2.7,3.6-6.3,4.6-10
	c2.2-7.6,2.9-31.9-0.4-38.8c-1.6-3.3-4-5.9-6.6-7.7c-8.4-6-18-4.8-25.7,2.2c-5.3,4.8-6.3,10.6-7,18.6C-1.2,31.1-1.5,53.4,1.6,58.9z"
	/>
<path class="st2" d="M6.5,43.2c0.4-2.1,0.9-4.1,1.2-6.2c0.3-1.9,0.5-3.9,0.6-5.9c0-0.8-0.2-5.1,0.4-5.3c1.3-0.4,3.3,0.1,4.8,0.1
	c0.3-4.7,1.2-11.4,5.5-11.5c4.7-0.1,6.4,7.4,6.3,11.8c1,0.1,2,0.1,3,0.1c0.4,0,0.8,0,1.2,0.1c0.1,0,0.3,0.1,0.3,0.2
	c0.1,0.1,0.1,0.2,0.1,0.3c0,1.9,0,3.7,0.1,5.6c0.1,1.7,0.1,3.4,0.3,5.1c0.2,2,0.4,3.9,0.6,5.9c0.2,1.7,0.8,3.6,0.8,5.3
	c-1.8,0.4-4.1,0-6,0c-2.2,0-4.4,0-6.5,0c-2.1,0-4.2,0-6.2,0c-1.9,0-4.1-0.3-6,0c-0.2,0-0.5,0.1-0.7,0C5.4,48.5,6.4,44.1,6.5,43.2
	 M23.7,26.3c0-3.7-1.2-10.4-4.9-9.8c-2.9,0.5-3.6,5.7-3.8,9.6c1.3,0,2.7,0,4,0C20.7,26.1,22.2,26.2,23.7,26.3"/>
<polygon class="st3" points="29.9,27.7 8.9,26.7 20.5,25.7 25.7,25.7 "/>
</svg>
