<svg width="40" height="67" viewBox="0 0 40 67" fill="none" xmlns="http://www.w3.org/2000/svg">
<g clip-path="url(#clip0)">
<path d="M1.64308 58.9395C4.94881 64.7017 10.8942 66.4548 16.3585 66.8839C22.8096 67.3866 29.8898 66.2954 34.5277 60.3249C36.6616 57.5787 38.0801 54.0111 39.1532 50.3454C41.3611 42.732 42.0272 18.4698 38.7092 11.592C37.1056 8.26963 34.688 5.73185 32.0607 3.86835C23.673 -2.11445 14.0889 -0.962022 6.33031 6.06286C1.06334 10.8319 0.0518914 16.6431 -0.638858 24.661C-1.20626 31.1465 -1.52696 53.4104 1.64308 58.9395Z" fill="#F8BBAB"/>
<path d="M33.3999 31.153C33.3734 31.1407 33.347 31.1407 33.3073 31.1285L28.7743 30.0741L25.021 27.4751C27.4924 25.4644 27.7435 21.9581 25.5629 19.6655C23.3955 17.373 19.6157 17.14 17.1444 19.1629C14.7919 21.0754 14.4351 24.3611 16.3382 26.6782H16.3118C15.9946 26.6782 15.6906 26.8008 15.4659 26.9969L7.11352 34.7451C6.65096 35.1742 6.65096 35.873 7.11352 36.3144L9.49237 38.5212C9.9285 38.9257 10.6025 38.9503 11.0783 38.607L15.1091 35.6156V37.6017L14.0651 41.4758L10.8668 43.4496C10.325 43.7929 10.1664 44.4794 10.5364 44.9821L12.9153 48.3045C13.2721 48.7949 13.9725 48.942 14.5276 48.6355L20.488 45.3131C20.7259 45.1783 20.9109 44.9698 21.0034 44.7124L21.4263 43.5354L24.8492 48.2923C25.1796 48.7581 25.8404 48.9175 26.369 48.6723L31.1399 46.4655C31.7347 46.1958 31.9725 45.5338 31.6686 44.9821L28.0871 38.3373C28.0607 38.3005 28.0342 38.2514 28.0078 38.2147L26.2897 35.7872L31.6289 36.6086C31.695 36.6209 31.7611 36.6209 31.8272 36.6209C32.3426 36.6209 32.7919 36.3144 32.9637 35.8608L34.1532 32.5384C34.3646 31.9744 34.021 31.3492 33.3999 31.153ZM21.0959 20.0333C23.0783 20.0333 24.6774 21.5168 24.6774 23.3558C24.6774 25.1947 23.0783 26.6782 21.0959 26.6782C19.1135 26.6782 17.5144 25.1947 17.5144 23.3558C17.5144 21.5168 19.1135 20.0333 21.0959 20.0333ZM18.9021 43.6335L14.2897 46.1958L13.1928 44.6756L15.7831 43.0818C16.0342 42.9347 16.206 42.7018 16.2721 42.4321L17.0254 39.6246L19.6686 41.4635L18.9021 43.6335ZM29.0254 44.9821L26.2633 46.2694L22.0739 40.446C22.0342 40.3969 21.9946 40.3601 21.9417 40.3234C21.9021 40.2866 21.8624 40.2498 21.8228 40.213C21.8096 40.2008 21.7963 40.1885 21.7831 40.1762L17.5012 37.1848V33.3107C17.5012 32.6977 16.9725 32.2074 16.3118 32.2074C16.0342 32.2074 15.7831 32.2932 15.5717 32.4525L10.4439 36.2654L9.65096 35.5298L16.814 28.8849H22.4439L23.488 35.6769C23.5144 35.8363 23.5805 35.9956 23.673 36.1305L26.0122 39.3916L29.0254 44.9821ZM31.0078 34.267L25.5496 33.4211L25.0607 30.258L27.532 31.9744C27.6642 32.0602 27.8096 32.1215 27.9549 32.1583L31.4836 32.9797L31.0078 34.267Z" fill="#265B33"/>
</g>
<defs>
<clipPath id="clip0">
<rect width="40" height="67" fill="white"/>
</clipPath>
</defs>
</svg>
