<svg width="42" height="67" viewBox="0 0 42 67" fill="none" xmlns="http://www.w3.org/2000/svg">
<g clip-path="url(#clip0)">
<path d="M2.65187 58.9449C5.9576 64.707 11.903 66.4602 17.3673 66.8893C23.8184 67.3919 30.8986 66.3008 35.5365 60.3303C37.6704 57.5841 39.0889 54.0165 40.162 50.3508C42.3699 42.7374 43.036 18.4752 39.718 11.5974C38.1144 8.27501 35.6968 5.73722 33.0695 3.87372C24.6818 -2.10907 15.0977 -0.956651 7.3391 6.06823C2.07213 10.8373 1.06068 16.6485 0.369932 24.6664C-0.197469 31.1519 -0.518174 53.4157 2.65187 58.9449Z" fill="#F8BBAB"/>
<path d="M37.6949 39.9549H4.50195V19.5913H37.6949V39.9549ZM6.35217 38.1159H35.8447V21.4303H6.35217V38.1159Z" fill="#265B33"/>
<path d="M37.8057 58.4675H4.52637V38.1162H37.8057V58.4675ZM6.37659 56.6286H35.9554V39.9552H6.37659V56.6286Z" fill="#265B33"/>
<path d="M33.9448 35.1857H23.3369V24.3726H33.9448V35.1857ZM25.1995 33.3468H32.107V26.2115H25.1995V33.3468Z" fill="#265B33"/>
<path d="M13.7158 21.4303H4.52637V9.48926H13.7158V21.4303ZM6.37659 19.5914H11.8656V11.3282H6.37659V19.5914Z" fill="#265B33"/>
<path d="M19.5507 52.3006H7.82031V42.603H19.5507V52.3006ZM9.67053 50.4616H17.7005V44.442H9.67053V50.4616Z" fill="#265B33"/>
<path d="M28.58 58.4675H21.0928V41.7573H28.5923V58.4675H28.58ZM22.943 56.6285H26.7421V43.5963H22.943V56.6285Z" fill="#265B33"/>
</g>
<defs>
<clipPath id="clip0">
<rect width="42" height="67" fill="white"/>
</clipPath>
</defs>
</svg>
