<?xml version="1.0" encoding="utf-8"?>
<!-- Generator: Adobe Illustrator 24.0.2, SVG Export Plug-In . SVG Version: 6.00 Build 0)  -->
<svg version="1.1" id="Capa_1" xmlns="http://www.w3.org/2000/svg" xmlns:xlink="http://www.w3.org/1999/xlink" x="0px" y="0px"
	 viewBox="0 0 109.1 111.6" style="enable-background:new 0 0 109.1 111.6;" xml:space="preserve">
<style type="text/css">
	.st0{fill:#265B33;}
</style>
<g>
	<polygon class="st0" points="14.2,58.9 14.2,61.7 51.4,61.7 74.4,84.8 100.7,84.8 100.7,82.1 75.5,82.1 52.5,58.9 	"/>
	<path class="st0" d="M90.1,83.5h-2.7v-3.3c0-2.4-2-4.4-4.4-4.4h-4L55.3,51.9c-1.4-1.4-3.3-2.2-5.3-2.2h-7.9v10.5h-2.7V47h10.6
		c2.7,0,5.3,1.1,7.2,3l22.9,23h2.8c3.9,0,7.1,3.2,7.1,7.2L90.1,83.5L90.1,83.5z"/>
	<rect x="36.1" y="60.3" class="st0" width="2.7" height="24.3"/>
	<rect x="25.4" y="65.4" class="st0" width="12.1" height="2.7"/>
	<rect x="25.4" y="76.6" class="st0" width="12.1" height="2.8"/>
	<polygon class="st0" points="49.4,86.2 46.7,86.2 46.7,38.1 31.1,26.8 15.4,38.6 15.4,86.2 12.6,86.2 12.6,37.3 31.1,23.4 
		49.4,36.6 	"/>
	<rect x="29.8" y="19.2" class="st0" width="2.7" height="7.1"/>
	<rect x="14" y="36.6" class="st0" width="34" height="2.7"/>
</g>
</svg>
