<?xml version="1.0" encoding="utf-8"?>
<!-- Generator: Adobe Illustrator 24.0.2, SVG Export Plug-In . SVG Version: 6.00 Build 0)  -->
<svg version="1.1" id="Capa_1" xmlns="http://www.w3.org/2000/svg" xmlns:xlink="http://www.w3.org/1999/xlink" x="0px" y="0px"
	 viewBox="0 0 109.1 111.6" style="enable-background:new 0 0 109.1 111.6;" xml:space="preserve">
<style type="text/css">
	.st0{fill:#265B33;}
</style>
<path class="st0" d="M51.1,89.1c0-0.1-1.7-4.2-6.3-15.5l1.6-4.4h16.2l1.6,4.4C59.7,84.9,58,89,58,89.1
	C55.7,89.4,53.4,89.4,51.1,89.1 M28.1,35.4l5,13.8l-11.7,8.7C20.9,49.6,23.4,41.7,28.1,35.4 M40.6,25.3c0.1,0.1,4.3,3.2,12.9,9.8
	v5.6L41,50.1l-5.7-1.3c-0.2-0.4-5.5-15.2-5.6-15.4C32.8,30,36.5,27.2,40.6,25.3 M66.1,24.3l-11.6,8.8l-11.6-8.8
	C50.3,21.5,58.6,21.4,66.1,24.3 M79.3,33.4c0,0.1-5.3,14.7-5.5,15.2L68,50l-12.4-9.4V35c8.6-6.5,12.8-9.7,12.9-9.8
	C72.6,27.2,76.3,30,79.3,33.4 M87.6,57.9L76,49.2l5-13.8C85.6,41.6,88.2,49.5,87.6,57.9 M46.5,66.9l-4-15.2l12-9.1l12,9.1l-4,15.2
	C62.5,66.9,46.5,66.9,46.5,66.9z M27.1,74.7c-2.9-4.3-4.7-9.1-5.4-14.2c0.1-0.1,4.1-3.1,12.9-9.6l5.8,1.3L44.5,68l-1.9,5
	C32.2,74.1,27.2,74.7,27.1,74.7 M28.6,76.7L43,75.2l5.5,13.6C40.6,87.3,33.7,83.1,28.6,76.7 M60.5,88.8L66,75.2l14.4,1.6
	C75.4,83.1,68.4,87.3,60.5,88.8 M81.9,74.7c-0.1,0-5.3-0.6-15.5-1.7l-1.8-5l4.2-15.8l5.6-1.4c9.8,7.3,12.9,9.6,13,9.7
	C86.7,65.6,84.8,70.4,81.9,74.7 M89.9,53.4c-0.5-7.5-3.3-14.6-7.9-20.3C74.5,23.9,63,18.9,51,20.1C31.9,22,17.4,39.3,19.3,59.2
	c1.6,16.3,14,29.5,30.1,31.9C71.7,94.5,91.3,76.1,89.9,53.4"/>
</svg>
