<?xml version="1.0" encoding="utf-8"?>
<!-- Generator: Adobe Illustrator 25.2.3, SVG Export Plug-In . SVG Version: 6.00 Build 0)  -->
<svg version="1.1" id="Capa_1" xmlns="http://www.w3.org/2000/svg" xmlns:xlink="http://www.w3.org/1999/xlink" x="0px" y="0px"
	 viewBox="0 0 109.05 111.6" style="enable-background:new 0 0 109.05 111.6;" xml:space="preserve">
<style type="text/css">
	.st0{fill:#E7E7E7;}
	.st1{fill:#215A36;}
	.st2{fill:#E14A7B;}
	.st3{fill:#FFFFFF;}
	.st4{fill:#0B2650;}
	.st5{fill:#514880;}
	.st6{fill:#ECA595;}
	.st7{fill:#D64A7B;}
	.st8{fill:#67666A;}
	.st9{fill:#B9B8C8;}
	.st10{fill:#B3D3D7;}
	.st11{fill:#808080;}
	.st12{fill:#92B137;}
	.st13{fill:#E8A13D;}
	.st14{fill:none;stroke:#808080;stroke-width:0.5;stroke-miterlimit:10;}
	.st15{fill:#00244E;}
	.st16{fill:#B0CED2;}
	.st17{fill:#20968F;}
	.st18{fill:#AAA4C1;}
	.st19{fill:#997BB6;}
	.st20{fill:#406F36;}
	.st21{fill:#99BCC2;}
	.st22{opacity:0.38;}
	.st23{fill:#D6537C;}
	.st24{fill:none;stroke:#9CBC35;stroke-width:2;stroke-miterlimit:10;}
	.st25{fill:#8FB1B8;}
	.st26{fill:#417439;}
	.st27{fill:#E6A18B;}
	.st28{fill:#434041;}
	.st29{fill:#8D80AB;}
	.st30{fill:#2F73A9;}
	.st31{fill:#C3C2D1;}
	.st32{fill:#767676;}
	.st33{fill:#4C4480;}
	.st34{fill:#407137;}
	.st35{fill:none;}
	.st36{fill:#18274D;}
	.st37{fill:none;stroke:#FFFFFF;stroke-width:4;stroke-miterlimit:10;}
	.st38{fill:none;stroke:#FFFFFF;stroke-width:3.2;stroke-miterlimit:10;}
	.st39{fill:none;stroke:#FFFFFF;stroke-miterlimit:10;}
	.st40{clip-path:url(#SVGID_2_);}
	.st41{clip-path:url(#SVGID_4_);}
	.st42{clip-path:url(#SVGID_6_);fill:none;stroke:#E9A23D;stroke-width:2.484;stroke-miterlimit:10;}
	.st43{clip-path:url(#SVGID_8_);fill:#E9A23D;}
	.st44{clip-path:url(#SVGID_8_);fill:#00244E;}
	.st45{fill:#C0B8CD;}
	.st46{opacity:0.3;}
	.st47{clip-path:url(#SVGID_12_);}
	.st48{fill:#3D753F;}
	.st49{fill:#EB983F;}
	.st50{fill:#9C94B6;}
	.st51{fill:#EAA596;}
	.st52{fill:#EDA696;}
	.st53{fill:#382635;}
	.st54{clip-path:url(#SVGID_14_);}
	.st55{clip-path:url(#SVGID_16_);}
	.st56{clip-path:url(#SVGID_18_);fill:none;stroke:#E9A23D;stroke-width:2.484;stroke-miterlimit:10;}
	.st57{clip-path:url(#SVGID_20_);fill:#E9A23D;}
	.st58{clip-path:url(#SVGID_20_);fill:#00244E;}
	.st59{fill:#ECA796;}
	.st60{fill:#B6C3BA;}
	.st61{fill:#EDA897;}
	.st62{opacity:0.41;fill:#514880;}
	.st63{opacity:0.32;}
	.st64{fill:#959594;}
	.st65{fill:#1E5A2E;}
	.st66{fill:#573E85;}
	.st67{fill:none;stroke:#F0CB12;stroke-width:2;stroke-miterlimit:10;}
	.st68{opacity:0.54;fill:#FFFFFF;}
	.st69{fill:#E7E5E7;}
	.st70{clip-path:url(#SVGID_24_);}
	.st71{fill:#CF9A43;}
	.st72{fill:#E8E8E8;}
	.st73{fill:#D74A7B;}
	.st74{fill:none;stroke:#EB983F;stroke-width:2;stroke-miterlimit:10;}
	.st75{fill:#F6B8AA;}
	.st76{fill:#265B33;}
	.st77{clip-path:url(#SVGID_32_);fill:#F6B8AA;}
	.st78{clip-path:url(#SVGID_34_);fill:#265B33;}
	.st79{clip-path:url(#SVGID_36_);fill:#265B33;}
	.st80{clip-path:url(#SVGID_38_);fill:#F6B8AA;}
	.st81{clip-path:url(#SVGID_38_);fill:#235A36;}
	.st82{clip-path:url(#SVGID_38_);fill:#265B33;}
	.st83{clip-path:url(#SVGID_40_);fill:#F6B8AA;}
	.st84{clip-path:url(#SVGID_40_);fill:#235A36;}
	.st85{clip-path:url(#SVGID_42_);fill:#F6B8AA;}
	.st86{clip-path:url(#SVGID_42_);fill:#235A36;}
</style>
<path class="st76" d="M50.17,103.72c-0.07-0.19-2.45-6.05-8.97-22.13l2.34-6.33h23.05l2.35,6.33c-6.53,16.07-8.9,21.94-8.98,22.13
	C56.73,104.06,53.41,104.06,50.17,103.72 M17.4,27.16l7.1,19.63L7.86,59.17C7.13,47.35,10.73,36.05,17.4,27.16 M35.16,12.7
	c0.14,0.1,6.08,4.62,18.33,13.91v7.98L35.78,48.02l-8.13-1.83c-0.24-0.63-7.85-21.73-7.92-21.88C24.04,19.42,29.32,15.45,35.16,12.7
	 M71.6,11.27L55.07,23.82L38.53,11.27C49.05,7.3,60.85,7.21,71.6,11.27 M90.41,24.31c-0.07,0.16-7.58,20.96-7.82,21.61L74.33,48
	L56.65,34.59v-7.98c12.25-9.29,18.19-13.8,18.32-13.91C80.82,15.45,86.09,19.42,90.41,24.31 M102.27,59.17L85.64,46.79l7.09-19.63
	C99.35,35.97,103.01,47.27,102.27,59.17 M43.66,72.07l-5.72-21.7l17.12-12.99l17.13,12.99l-5.73,21.7H43.66z M15.99,83.09
	c-4.09-6.06-6.75-12.98-7.76-20.24c0.14-0.1,5.9-4.38,18.32-13.63l8.32,1.87l5.93,22.5l-2.65,7.12
	C23.27,82.31,16.16,83.08,15.99,83.09 M18.17,86.07l20.54-2.21l7.84,19.33C35.28,101.13,25.33,95.09,18.17,86.07 M63.57,103.19
	l7.85-19.33l20.53,2.21C84.78,95.13,74.8,101.14,63.57,103.19 M94.14,83.09c-0.16-0.02-7.5-0.8-22.16-2.38l-2.63-7.12l5.94-22.53
	l8.04-2.04c13.94,10.37,18.43,13.71,18.58,13.83C100.89,70.11,98.23,77.04,94.14,83.09 M105.42,52.83
	c-0.69-10.68-4.69-20.85-11.26-28.98C83.56,10.72,67.19,3.63,50.11,5.32C22.75,8.01,2.12,32.73,4.85,61.12
	c2.23,23.2,19.91,42.11,42.85,45.5C79.54,111.36,107.49,85.15,105.42,52.83"/>
</svg>
