<?xml version="1.0" encoding="utf-8"?>
<!-- Generator: Adobe Illustrator 24.0.2, SVG Export Plug-In . SVG Version: 6.00 Build 0)  -->
<svg version="1.1" id="Capa_1" xmlns="http://www.w3.org/2000/svg" xmlns:xlink="http://www.w3.org/1999/xlink" x="0px" y="0px"
	 viewBox="0 0 109.1 111.6" style="enable-background:new 0 0 109.1 111.6;" xml:space="preserve">
<style type="text/css">
	.st0{fill:#235A36;}
</style>
<path class="st0" d="M7.8,89c-3.2,0-6.1-1.8-7.6-4.6c-1.5-2.8-1.3-6.2,0.5-8.9l23.4-34.1c1.6-2.3,4.2-3.7,7.1-3.7h8.6v4l-8.6,0
	c-1.5,0-2.9,0.8-3.8,2L4.1,77.8c-1,1.4-1.1,3.2-0.3,4.7C4.6,84.1,6.1,85,7.9,85l94.2,0c1.8,0,3.3-0.9,4.1-2.5
	c0.8-1.6,0.6-3.4-0.4-4.8L80.3,43.3c-0.9-1.2-2.3-1.9-3.8-1.9l-5.8,0.1l-0.1-4l5.8-0.1c2.8,0,5.4,1.2,7.1,3.5L109,75.3
	c1.9,2.6,2.2,6.1,0.8,9c-1.5,2.9-4.4,4.7-7.7,4.7L7.8,89z M89.1,78.8c-1.9-0.4-3.7-1.1-5.3-1.9c-2.2-1.2-3.5-2.6-4.4-3.6
	c-1-1-1.2-1.2-1.7-1.3c-0.2,0-0.3,0-1.2,0.8c-0.9,0.7-2.1,1.7-4.1,2.9c-3.3,1.9-6.7,3.9-10,2.6c-1.7-0.7-2.3-1.9-2.9-2.8
	c-0.4-0.8-0.8-1.5-1.9-2.3c-0.6-0.5-2.5-1.8-4.2-1.6c-0.9,0.2-1.5,0.8-2.4,1.9c-1,1.4-2.3,3.1-4.9,3.8c-3.4,0.9-6.5-0.5-7.8-1.2
	c-2.7-1.3-4.2-3-5.3-4.3c-0.6-0.7-1.1-1.2-1.4-1.3c-0.2,0.1-0.6,0.5-1,0.9C30,72.2,29.2,73,28,74c-2,1.6-4.2,3-6.6,4l-1.5-3.7
	c2-0.8,3.9-2,5.6-3.4c1-0.8,1.7-1.6,2.2-2.2c1-1,1.9-2,3.6-2.1c2.3-0.1,3.6,1.3,4.7,2.7c1,1.1,2,2.4,4,3.3c1.1,0.5,3.1,1.5,5.1,0.9
	c1.3-0.4,2-1.2,2.8-2.3c1-1.3,2.3-3,4.9-3.5c3.4-0.6,6.3,1.6,7.3,2.3c1.8,1.3,2.5,2.6,3.1,3.6c0.4,0.8,0.6,0.9,0.9,1.1
	c1.5,0.6,4.1-1,6.4-2.3c1.7-1,2.7-1.8,3.5-2.5c1.1-1,2.2-1.9,4.1-1.8c2,0.1,3.2,1.3,4.3,2.5c0.9,0.9,1.8,1.9,3.5,2.8
	c1.3,0.7,2.7,1.2,4.1,1.5L89.1,78.8z M89.1,70.3c-1.9-0.4-3.7-1.1-5.3-2c-2.2-1.2-3.5-2.6-4.4-3.5c-0.9-1-1.2-1.2-1.7-1.3
	c-0.2,0-0.3,0-1.2,0.8c-0.9,0.7-2.1,1.8-4.1,2.9c-3.3,1.9-6.7,3.9-10,2.6c-1.7-0.7-2.3-1.9-2.9-2.8c-0.4-0.8-0.8-1.5-1.9-2.3
	c-0.6-0.5-2.5-1.8-4.2-1.6c-0.9,0.2-1.5,0.8-2.4,1.9c-1,1.4-2.3,3-4.9,3.8c-3.4,0.9-6.4-0.5-7.8-1.2c-2.7-1.3-4.2-3-5.3-4.3
	c-0.6-0.7-1.1-1.3-1.4-1.3c-0.2,0.1-0.6,0.5-1,0.9c-0.6,0.6-1.4,1.5-2.6,2.5c-2,1.6-4.2,3-6.6,4l-1.5-3.7c2-0.8,3.9-2,5.6-3.4
	c1-0.8,1.7-1.6,2.2-2.2c1-1,1.9-2,3.6-2.2c2.3-0.1,3.6,1.3,4.7,2.7c0.9,1.1,2,2.4,4,3.3c1.1,0.5,3.1,1.5,5.1,0.9
	c1.3-0.4,2-1.2,2.8-2.3c1-1.3,2.3-3,4.9-3.5c3.4-0.6,6.3,1.6,7.3,2.3c1.8,1.3,2.5,2.6,3,3.6c0.4,0.8,0.6,0.9,0.9,1.1
	c1.4,0.6,4.1-1,6.4-2.3c1.7-1,2.7-1.8,3.5-2.5c1.1-1,2.2-1.9,4.1-1.8c2,0.1,3.2,1.3,4.3,2.5c0.9,0.9,1.8,1.9,3.5,2.8
	c1.3,0.7,2.7,1.2,4.2,1.5L89.1,70.3z M44.3,53.1l0-16c0-7.8,6.4-14.2,14.2-14.2v4c-5.3,0-9.7,4.1-10.1,9.3l13.8,0
	C62.6,28.9,68.7,23,76.3,23v4c-5.6,0-10.2,4.6-10.2,10.2v16h-4v-5.8H48.3v5.8L44.3,53.1L44.3,53.1z M48.3,40.3v3l13.8,0v-3
	C62.1,40.3,48.3,40.3,48.3,40.3z"/>
</svg>
