<?xml version="1.0" encoding="utf-8"?>
<!-- Generator: Adobe Illustrator 25.2.3, SVG Export Plug-In . SVG Version: 6.00 Build 0)  -->
<svg version="1.1" id="Capa_1" xmlns="http://www.w3.org/2000/svg" xmlns:xlink="http://www.w3.org/1999/xlink" x="0px" y="0px"
	 viewBox="0 0 109.05 111.6" style="enable-background:new 0 0 109.05 111.6;" xml:space="preserve">
<style type="text/css">
	.st0{fill:#E7E7E7;}
	.st1{fill:#215A36;}
	.st2{fill:#E14A7B;}
	.st3{fill:#FFFFFF;}
	.st4{fill:#0B2650;}
	.st5{fill:#514880;}
	.st6{fill:#ECA595;}
	.st7{fill:#D64A7B;}
	.st8{fill:#67666A;}
	.st9{fill:#B9B8C8;}
	.st10{fill:#B3D3D7;}
	.st11{fill:#808080;}
	.st12{fill:#92B137;}
	.st13{fill:#E8A13D;}
	.st14{fill:none;stroke:#808080;stroke-width:0.5;stroke-miterlimit:10;}
	.st15{fill:#00244E;}
	.st16{fill:#B0CED2;}
	.st17{fill:#20968F;}
	.st18{fill:#AAA4C1;}
	.st19{fill:#997BB6;}
	.st20{fill:#406F36;}
	.st21{fill:#99BCC2;}
	.st22{opacity:0.38;}
	.st23{fill:#D6537C;}
	.st24{fill:none;stroke:#9CBC35;stroke-width:2;stroke-miterlimit:10;}
	.st25{fill:#8FB1B8;}
	.st26{fill:#417439;}
	.st27{fill:#E6A18B;}
	.st28{fill:#434041;}
	.st29{fill:#8D80AB;}
	.st30{fill:#2F73A9;}
	.st31{fill:#C3C2D1;}
	.st32{fill:#767676;}
	.st33{fill:#4C4480;}
	.st34{fill:#407137;}
	.st35{fill:none;}
	.st36{fill:#18274D;}
	.st37{fill:none;stroke:#FFFFFF;stroke-width:4;stroke-miterlimit:10;}
	.st38{fill:none;stroke:#FFFFFF;stroke-width:3.2;stroke-miterlimit:10;}
	.st39{fill:none;stroke:#FFFFFF;stroke-miterlimit:10;}
	.st40{clip-path:url(#SVGID_2_);}
	.st41{clip-path:url(#SVGID_4_);}
	.st42{clip-path:url(#SVGID_6_);fill:none;stroke:#E9A23D;stroke-width:2.484;stroke-miterlimit:10;}
	.st43{clip-path:url(#SVGID_8_);fill:#E9A23D;}
	.st44{clip-path:url(#SVGID_8_);fill:#00244E;}
	.st45{fill:#C0B8CD;}
	.st46{opacity:0.3;}
	.st47{clip-path:url(#SVGID_12_);}
	.st48{fill:#3D753F;}
	.st49{fill:#EB983F;}
	.st50{fill:#9C94B6;}
	.st51{fill:#EAA596;}
	.st52{fill:#EDA696;}
	.st53{fill:#382635;}
	.st54{clip-path:url(#SVGID_14_);}
	.st55{clip-path:url(#SVGID_16_);}
	.st56{clip-path:url(#SVGID_18_);fill:none;stroke:#E9A23D;stroke-width:2.484;stroke-miterlimit:10;}
	.st57{clip-path:url(#SVGID_20_);fill:#E9A23D;}
	.st58{clip-path:url(#SVGID_20_);fill:#00244E;}
	.st59{fill:#ECA796;}
	.st60{fill:#B6C3BA;}
	.st61{fill:#EDA897;}
	.st62{opacity:0.41;fill:#514880;}
	.st63{opacity:0.32;}
	.st64{fill:#959594;}
	.st65{fill:#1E5A2E;}
	.st66{fill:#573E85;}
	.st67{fill:none;stroke:#F0CB12;stroke-width:2;stroke-miterlimit:10;}
	.st68{opacity:0.54;fill:#FFFFFF;}
	.st69{fill:#E7E5E7;}
	.st70{clip-path:url(#SVGID_24_);}
	.st71{fill:#CF9A43;}
	.st72{fill:#E8E8E8;}
	.st73{fill:#D74A7B;}
	.st74{fill:none;stroke:#EB983F;stroke-width:2;stroke-miterlimit:10;}
	.st75{fill:#F6B8AA;}
	.st76{fill:#265B33;}
	.st77{clip-path:url(#SVGID_32_);fill:#F6B8AA;}
	.st78{clip-path:url(#SVGID_34_);fill:#265B33;}
	.st79{clip-path:url(#SVGID_36_);fill:#265B33;}
	.st80{fill:#235A36;}
	.st81{clip-path:url(#SVGID_38_);fill:#F6B8AA;}
	.st82{clip-path:url(#SVGID_38_);fill:#235A36;}
	.st83{clip-path:url(#SVGID_40_);fill:#F6B8AA;}
	.st84{clip-path:url(#SVGID_40_);fill:#235A36;}
</style>
<g>
	<path class="st76" d="M101.58,65.17c0,0.3-0.22,0.53-0.48,0.53h-2.4V51.84h2.4c0.26,0,0.48,0.24,0.48,0.53V65.17z M84.31,84.69
		c0,1.7-1.25,3.09-2.78,3.09h-7.67c-1.53,0-2.78-1.39-2.78-3.09V32.85c0-1.7,1.25-3.09,2.78-3.09h7.67c1.53,0,2.78,1.39,2.78,3.09
		V84.69z M39.63,84.69c0,1.7-1.25,3.09-2.78,3.09h-7.67c-1.53,0-2.78-1.39-2.78-3.09V32.85c0-1.7,1.25-3.09,2.78-3.09h7.67
		c1.53,0,2.78,1.39,2.78,3.09V84.69z M9.62,65.7c-0.27,0-0.48-0.23-0.48-0.53v-12.8c0-0.29,0.21-0.53,0.48-0.53h2.4V65.7H9.62z
		 M101.1,48.64h-2.4V37.87c0-2.52-1.85-4.58-4.12-4.58h-6.14c-0.43,0-0.86,0.08-1.24,0.21v-0.65c0-3.46-2.54-6.29-5.66-6.29h-7.67
		c-3.12,0-5.66,2.83-5.66,6.29v18.83h-25.7V32.85c0-3.46-2.54-6.29-5.66-6.29h-7.67c-3.12,0-5.66,2.83-5.66,6.29v0.65
		c-0.4-0.13-0.81-0.21-1.25-0.21h-6.14c-2.28,0-4.12,2.06-4.12,4.58v2.07c0,0.88,0.64,1.6,1.43,1.6c0.8,0,1.44-0.72,1.44-1.6v-2.07
		c0-0.76,0.56-1.39,1.25-1.39h6.14c0.69,0,1.25,0.62,1.25,1.39v41.81c0,0.77-0.56,1.39-1.25,1.39h-6.14c-0.69,0-1.25-0.62-1.25-1.39
		v-32.9c0-0.88-0.64-1.6-1.44-1.6c-0.79,0-1.43,0.71-1.43,1.6v1.86h-2.4c-1.86,0-3.36,1.67-3.36,3.73v12.8
		c0,2.06,1.51,3.74,3.36,3.74h2.4v10.77c0,2.53,1.84,4.59,4.12,4.59h6.14c0.43,0,0.85-0.08,1.25-0.22v0.64
		c0,3.47,2.54,6.29,5.66,6.29h7.67c3.12,0,5.66-2.82,5.66-6.29V65.86h2.09c0.79,0,1.43-0.72,1.43-1.61c0-0.87-0.64-1.6-1.43-1.6
		h-2.09v-7.76h25.7v7.76H50.84c-0.79,0-1.44,0.72-1.44,1.6c0,0.88,0.65,1.61,1.44,1.61h17.37v18.83c0,3.47,2.54,6.29,5.66,6.29h7.67
		c3.12,0,5.66-2.82,5.66-6.29v-0.64c0.39,0.14,0.81,0.22,1.24,0.22h6.14c2.27,0,4.12-2.06,4.12-4.59v-2.17c0-0.87-0.64-1.6-1.44-1.6
		c-0.79,0-1.43,0.72-1.43,1.6v2.17c0,0.77-0.56,1.39-1.25,1.39h-6.14c-0.69,0-1.24-0.62-1.24-1.39V37.87c0-0.76,0.56-1.39,1.24-1.39
		h6.14c0.69,0,1.25,0.62,1.25,1.39v32.74c0,0.88,0.64,1.6,1.43,1.6c0.8,0,1.44-0.71,1.44-1.6v-1.7h2.4c1.84,0,3.36-1.68,3.36-3.74
		v-12.8C104.46,50.31,102.94,48.64,101.1,48.64"/>
</g>
</svg>
