<?xml version="1.0" encoding="utf-8"?>
<!-- Generator: Adobe Illustrator 24.0.2, SVG Export Plug-In . SVG Version: 6.00 Build 0)  -->
<svg version="1.1" id="Capa_1" xmlns="http://www.w3.org/2000/svg" xmlns:xlink="http://www.w3.org/1999/xlink" x="0px" y="0px"
	 viewBox="0 0 109.1 111.6" style="enable-background:new 0 0 109.1 111.6;" xml:space="preserve">
<style type="text/css">
	.st0{clip-path:url(#SVGID_2_);fill:none;stroke:#275C33;stroke-width:4.332;stroke-linecap:round;stroke-miterlimit:10;}
</style>
<g>
	<g>
		<defs>
			<rect id="SVGID_1_" x="20.1" y="19.7" width="69.8" height="72.7"/>
		</defs>
		<clipPath id="SVGID_2_">
			<use xlink:href="#SVGID_1_"  style="overflow:visible;"/>
		</clipPath>
		<path class="st0" d="M37.9,21.3L21.5,37.7 M72.1,90.9l16.4-16.4 M72.1,77.5l16.4-16.4 M57.5,77.5l16.4-16.4 M57.5,62.2l16.4-16.4
			 M41.6,62.2l16.4-16.4 M29.1,49.1l16.4-16.4 M41.6,49.1l16.4-16.4 M29.1,37.5l16.4-16.4 M88.5,74.5V61.1H73.8V45.8H57.9V32.7H45.4
			V21.1l-7.6,0.2 M21.5,37.7v53.2h50.6V77.5H57.5V62.2H41.6V49.1H29.1V37.5L21.5,37.7z"/>
	</g>
</g>
</svg>
