<?xml version="1.0" encoding="utf-8"?>
<!-- Generator: Adobe Illustrator 24.0.2, SVG Export Plug-In . SVG Version: 6.00 Build 0)  -->
<svg version="1.1" id="Capa_1" xmlns="http://www.w3.org/2000/svg" xmlns:xlink="http://www.w3.org/1999/xlink" x="0px" y="0px"
	 viewBox="0 0 109.1 111.6" style="enable-background:new 0 0 109.1 111.6;" xml:space="preserve">
<style type="text/css">
	.st0{clip-path:url(#SVGID_2_);fill:#265B33;}
</style>
<g>
	<g>
		<defs>
			<rect id="SVGID_1_" x="4.1" y="29.6" width="101.1" height="49.7"/>
		</defs>
		<clipPath id="SVGID_2_">
			<use xlink:href="#SVGID_1_"  style="overflow:visible;"/>
		</clipPath>
		<path class="st0" d="M47.6,79.3c-17.8,0-39.4-1.5-41.8-4.4C4.9,74,3,71.7,4.9,43c0.2-3.2,2.4-5.8,5.3-6.2l1.5-0.2
			c1.8-0.3,3.6,0.3,5,1.7c1.3,1.3,2,3.1,2,5.1v1.5c8.3,7.8,18.1,5,22.5,0.4c1.6-1.6,1.8-2.9,1.6-3.2c-1.6-2.4-1.6-4.6-1.3-6
			c0.7-3.5,3.7-5.5,4-5.7l1.1-0.7l1,0.8c16.5,14.4,37.1,15.5,44.4,12.9c5.7-2,10,0.5,11.8,3.3c1.7,2.6,1.8,5.9,0.3,8.5
			c-2.8,4.8-19.4,20.9-37.4,23.3C62.3,79,55.3,79.3,47.6,79.3 M8.4,71.9c4.3,2.3,40.8,4.6,57.9,2.3C82.9,72,98.6,57,101.1,52.8
			c0.6-1.1,0.5-2.1,0.2-2.8c-8,7.4-28.9,20.5-33.8,20.8c-8.9,0.7-24.2,0.5-35.4,0.3C28,71,24.4,71,21.8,71c-6.2,0-11-1.6-13.8-2.9
			C8,70.2,8.2,71.4,8.4,71.9 M7.8,63.4c2,1.1,7,3.3,14,3.3c2.7,0,6.3,0,10.4,0.1c11.1,0.2,26.2,0.4,35-0.3
			c3.8-0.3,23.1-12.1,31.1-19.3c-1.4-0.5-3.2-0.6-5.2,0.1c-4.5,1.6-14.6,2.2-26.2-1.4c-0.7,2.1-2.1,4.4-5.1,5.1L61.1,47
			c1.3-0.3,2-1.4,2.3-2.3c-1.2-0.5-2.4-1-3.7-1.6c-0.7,2-2.2,4.1-5,4.8L54,43.8c1.4-0.4,2.1-1.5,2.3-2.4c-3.3-1.8-6.6-4-9.8-6.7
			c-0.5,0.6-1.1,1.3-1.3,2.2c-0.2,0.8,0.1,1.6,0.7,2.6c1.6,2.4,0.8,5.8-2.1,8.8c-5.6,5.8-17.9,9.3-28.1-1L15,46.7v-3.4
			c0-0.7-0.3-1.4-0.8-1.9c-0.5-0.5-1.3-0.8-2-0.7l-1.5,0.2c-1.1,0.2-2,1.2-2.1,2.4C8,52.4,7.8,58.9,7.8,63.4"/>
	</g>
</g>
</svg>
