<?xml version="1.0" encoding="utf-8"?>
<!-- Generator: Adobe Illustrator 25.2.3, SVG Export Plug-In . SVG Version: 6.00 Build 0)  -->
<svg version="1.1" id="Capa_1" xmlns="http://www.w3.org/2000/svg" xmlns:xlink="http://www.w3.org/1999/xlink" x="0px" y="0px"
	 viewBox="0 0 126.64 111.6" style="enable-background:new 0 0 126.64 111.6;" xml:space="preserve">
<style type="text/css">
	.st0{fill:#E7E7E7;}
	.st1{fill:#215A36;}
	.st2{fill:#E14A7B;}
	.st3{fill:#FFFFFF;}
	.st4{fill:#0B2650;}
	.st5{fill:#514880;}
	.st6{fill:#ECA595;}
	.st7{fill:#D64A7B;}
	.st8{fill:#67666A;}
	.st9{fill:#B9B8C8;}
	.st10{fill:#B3D3D7;}
	.st11{fill:#808080;}
	.st12{fill:#92B137;}
	.st13{fill:#E8A13D;}
	.st14{fill:none;stroke:#808080;stroke-width:0.5;stroke-miterlimit:10;}
	.st15{fill:#00244E;}
	.st16{fill:#B0CED2;}
	.st17{fill:#20968F;}
	.st18{fill:#AAA4C1;}
	.st19{fill:#997BB6;}
	.st20{fill:#406F36;}
	.st21{fill:#99BCC2;}
	.st22{opacity:0.38;}
	.st23{fill:#D6537C;}
	.st24{fill:none;stroke:#9CBC35;stroke-width:2;stroke-miterlimit:10;}
	.st25{fill:#8FB1B8;}
	.st26{fill:#417439;}
	.st27{fill:#E6A18B;}
	.st28{fill:#434041;}
	.st29{fill:#8D80AB;}
	.st30{fill:#2F73A9;}
	.st31{fill:#C3C2D1;}
	.st32{fill:#767676;}
	.st33{fill:#4C4480;}
	.st34{fill:#407137;}
	.st35{fill:none;}
	.st36{fill:#18274D;}
	.st37{fill:none;stroke:#FFFFFF;stroke-width:4;stroke-miterlimit:10;}
	.st38{fill:none;stroke:#FFFFFF;stroke-width:3.2;stroke-miterlimit:10;}
	.st39{fill:none;stroke:#FFFFFF;stroke-miterlimit:10;}
	.st40{clip-path:url(#SVGID_2_);}
	.st41{clip-path:url(#SVGID_4_);}
	.st42{clip-path:url(#SVGID_6_);fill:none;stroke:#E9A23D;stroke-width:2.484;stroke-miterlimit:10;}
	.st43{clip-path:url(#SVGID_8_);fill:#E9A23D;}
	.st44{clip-path:url(#SVGID_8_);fill:#00244E;}
	.st45{fill:#C0B8CD;}
	.st46{opacity:0.3;}
	.st47{clip-path:url(#SVGID_12_);}
	.st48{fill:#3D753F;}
	.st49{fill:#EB983F;}
	.st50{fill:#9C94B6;}
	.st51{fill:#EAA596;}
	.st52{fill:#EDA696;}
	.st53{fill:#382635;}
	.st54{clip-path:url(#SVGID_14_);}
	.st55{clip-path:url(#SVGID_16_);}
	.st56{clip-path:url(#SVGID_18_);fill:none;stroke:#E9A23D;stroke-width:2.484;stroke-miterlimit:10;}
	.st57{clip-path:url(#SVGID_20_);fill:#E9A23D;}
	.st58{clip-path:url(#SVGID_20_);fill:#00244E;}
	.st59{fill:#ECA796;}
	.st60{fill:#B6C3BA;}
	.st61{fill:#EDA897;}
	.st62{opacity:0.41;fill:#514880;}
	.st63{opacity:0.32;}
	.st64{fill:#959594;}
	.st65{fill:#1E5A2E;}
	.st66{fill:#573E85;}
	.st67{fill:none;stroke:#F0CB12;stroke-width:2;stroke-miterlimit:10;}
	.st68{opacity:0.54;fill:#FFFFFF;}
	.st69{fill:#E7E5E7;}
	.st70{clip-path:url(#SVGID_24_);}
	.st71{fill:#CF9A43;}
	.st72{fill:#E8E8E8;}
	.st73{fill:#D74A7B;}
	.st74{fill:none;stroke:#EB983F;stroke-width:2;stroke-miterlimit:10;}
	.st75{fill:#F6B8AA;}
	.st76{fill:#265B33;}
	.st77{clip-path:url(#SVGID_32_);fill:#265B33;}
	.st78{fill:#235A36;}
	.st79{clip-path:url(#SVGID_34_);fill:#F6B8AA;}
	.st80{clip-path:url(#SVGID_34_);fill:#235A36;}
</style>
<g>
	<defs>
		<rect id="SVGID_31_" x="6.8" y="26.91" width="114.37" height="50.26"/>
	</defs>
	<clipPath id="SVGID_2_">
		<use xlink:href="#SVGID_31_"  style="overflow:visible;"/>
	</clipPath>
	<path style="clip-path:url(#SVGID_2_);fill:#265B33;" d="M55.96,77.18c-20.15,0-44.58-1.56-47.33-4.43
		c-0.91-0.97-3.07-3.22-0.89-32.29c0.24-3.2,2.75-5.86,5.97-6.3l1.69-0.23c2.04-0.28,4.09,0.33,5.63,1.7
		c1.47,1.31,2.31,3.17,2.31,5.13v1.47c9.44,7.89,20.51,5.1,25.5,0.45c1.77-1.64,2.08-2.91,1.84-3.23c-1.77-2.45-1.78-4.64-1.48-6.04
		c0.77-3.57,4.15-5.58,4.53-5.8l1.21-0.68l1.09,0.85c18.68,14.54,41.95,15.64,50.25,13c6.5-2.06,11.26,0.53,13.35,3.38
		c1.94,2.64,2.06,5.92,0.33,8.57c-3.17,4.83-21.94,21.11-42.35,23.57C72.59,76.88,64.67,77.18,55.96,77.18 M11.66,69.72
		c4.84,2.29,46.16,4.64,65.44,2.3c18.78-2.26,36.54-17.41,39.35-21.69c0.71-1.1,0.57-2.11,0.25-2.85
		c-9.05,7.51-32.7,20.69-38.21,21.06c-10.12,0.72-27.39,0.49-39.99,0.32c-4.64-0.06-8.71-0.12-11.72-0.12
		c-7.05,0-12.43-1.58-15.66-2.89C11.25,67.97,11.45,69.18,11.66,69.72 M11,61.14c2.29,1.11,7.87,3.33,15.78,3.33
		c3.02,0,7.12,0.05,11.77,0.11c12.53,0.17,29.69,0.41,39.64-0.3c4.27-0.3,26.08-12.26,35.18-19.56c-1.57-0.51-3.58-0.59-5.85,0.13
		c-5.04,1.6-16.57,2.26-29.62-1.41c-0.75,2.1-2.43,4.47-5.72,5.2l-0.89-4.18c1.52-0.34,2.25-1.39,2.6-2.28
		c-1.39-0.48-2.77-1-4.17-1.58c-0.8,2.02-2.48,4.19-5.6,4.88l-0.9-4.18c1.61-0.36,2.33-1.5,2.65-2.43
		c-3.75-1.82-7.5-4.05-11.14-6.76c-0.62,0.56-1.26,1.34-1.44,2.2c-0.17,0.8,0.08,1.64,0.77,2.59c1.78,2.47,0.86,5.89-2.39,8.92
		c-6.28,5.83-20.29,9.37-31.82-1.03l-0.71-0.63v-3.42c0-0.73-0.3-1.4-0.87-1.9c-0.62-0.55-1.47-0.81-2.3-0.68l-1.69,0.23
		c-1.27,0.17-2.26,1.18-2.36,2.39C11.24,50.01,11,56.59,11,61.14"/>
</g>
</svg>
