<?xml version="1.0" encoding="utf-8"?>
<!-- Generator: Adobe Illustrator 25.2.3, SVG Export Plug-In . SVG Version: 6.00 Build 0)  -->
<svg version="1.1" id="Capa_1" xmlns="http://www.w3.org/2000/svg" xmlns:xlink="http://www.w3.org/1999/xlink" x="0px" y="0px"
	 viewBox="0 0 109.05 111.6" style="enable-background:new 0 0 109.05 111.6;" xml:space="preserve">
<style type="text/css">
	.st0{fill:#E7E7E7;}
	.st1{fill:#215A36;}
	.st2{fill:#E14A7B;}
	.st3{fill:#FFFFFF;}
	.st4{fill:#0B2650;}
	.st5{fill:#514880;}
	.st6{fill:#ECA595;}
	.st7{fill:#D64A7B;}
	.st8{fill:#67666A;}
	.st9{fill:#B9B8C8;}
	.st10{fill:#B3D3D7;}
	.st11{fill:#808080;}
	.st12{fill:#92B137;}
	.st13{fill:#E8A13D;}
	.st14{fill:none;stroke:#808080;stroke-width:0.5;stroke-miterlimit:10;}
	.st15{fill:#00244E;}
	.st16{fill:#B0CED2;}
	.st17{fill:#20968F;}
	.st18{fill:#AAA4C1;}
	.st19{fill:#997BB6;}
	.st20{fill:#406F36;}
	.st21{fill:#99BCC2;}
	.st22{opacity:0.38;}
	.st23{fill:#D6537C;}
	.st24{fill:none;stroke:#9CBC35;stroke-width:2;stroke-miterlimit:10;}
	.st25{fill:#8FB1B8;}
	.st26{fill:#417439;}
	.st27{fill:#E6A18B;}
	.st28{fill:#434041;}
	.st29{fill:#8D80AB;}
	.st30{fill:#2F73A9;}
	.st31{fill:#C3C2D1;}
	.st32{fill:#767676;}
	.st33{fill:#4C4480;}
	.st34{fill:#407137;}
	.st35{fill:none;}
	.st36{fill:#18274D;}
	.st37{fill:none;stroke:#FFFFFF;stroke-width:4;stroke-miterlimit:10;}
	.st38{fill:none;stroke:#FFFFFF;stroke-width:3.2;stroke-miterlimit:10;}
	.st39{fill:none;stroke:#FFFFFF;stroke-miterlimit:10;}
	.st40{clip-path:url(#SVGID_2_);}
	.st41{clip-path:url(#SVGID_4_);}
	.st42{clip-path:url(#SVGID_6_);fill:none;stroke:#E9A23D;stroke-width:2.484;stroke-miterlimit:10;}
	.st43{clip-path:url(#SVGID_8_);fill:#E9A23D;}
	.st44{clip-path:url(#SVGID_8_);fill:#00244E;}
	.st45{fill:#C0B8CD;}
	.st46{opacity:0.3;}
	.st47{clip-path:url(#SVGID_12_);}
	.st48{fill:#3D753F;}
	.st49{fill:#EB983F;}
	.st50{fill:#9C94B6;}
	.st51{fill:#EAA596;}
	.st52{fill:#EDA696;}
	.st53{fill:#382635;}
	.st54{clip-path:url(#SVGID_14_);}
	.st55{clip-path:url(#SVGID_16_);}
	.st56{clip-path:url(#SVGID_18_);fill:none;stroke:#E9A23D;stroke-width:2.484;stroke-miterlimit:10;}
	.st57{clip-path:url(#SVGID_20_);fill:#E9A23D;}
	.st58{clip-path:url(#SVGID_20_);fill:#00244E;}
	.st59{fill:#ECA796;}
	.st60{fill:#B6C3BA;}
	.st61{fill:#EDA897;}
	.st62{opacity:0.41;fill:#514880;}
	.st63{opacity:0.32;}
	.st64{fill:#959594;}
	.st65{fill:#1E5A2E;}
	.st66{fill:#573E85;}
	.st67{fill:none;stroke:#F0CB12;stroke-width:2;stroke-miterlimit:10;}
	.st68{opacity:0.54;fill:#FFFFFF;}
	.st69{fill:#E7E5E7;}
	.st70{clip-path:url(#SVGID_24_);}
	.st71{fill:#CF9A43;}
	.st72{fill:#E8E8E8;}
	.st73{fill:#D74A7B;}
	.st74{fill:none;stroke:#EB983F;stroke-width:2;stroke-miterlimit:10;}
	.st75{fill:#F6B8AA;}
	.st76{fill:#265B33;}
	.st77{clip-path:url(#SVGID_32_);fill:#F6B8AA;}
	.st78{clip-path:url(#SVGID_34_);fill:#265B33;}
	.st79{clip-path:url(#SVGID_36_);fill:#265B33;}
	.st80{clip-path:url(#SVGID_38_);fill:#F6B8AA;}
	.st81{clip-path:url(#SVGID_38_);fill:#235A36;}
	.st82{clip-path:url(#SVGID_38_);fill:#265B33;}
	.st83{clip-path:url(#SVGID_40_);fill:#F6B8AA;}
	.st84{clip-path:url(#SVGID_40_);fill:#235A36;}
	.st85{clip-path:url(#SVGID_42_);fill:#F6B8AA;}
	.st86{clip-path:url(#SVGID_42_);fill:#235A36;}
</style>
<path class="st76" d="M86.94,94.62c-2.45,0-4.88-0.54-7.16-1.6c-4.12-1.92-7.23-5.32-8.78-9.59c-3.2-8.79,1.35-18.57,10.15-21.77
	c4.26-1.55,8.87-1.35,12.98,0.57c4.12,1.92,7.23,5.32,8.78,9.58c1.55,4.26,1.35,8.87-0.57,12.99c-1.92,4.11-5.32,7.22-9.58,8.78
	C90.86,94.28,88.9,94.62,86.94,94.62 M86.96,64.93c-1.46,0-2.93,0.26-4.34,0.77c-6.58,2.39-9.99,9.69-7.59,16.27
	c1.16,3.19,3.49,5.74,6.57,7.17c3.06,1.43,6.52,1.58,9.7,0.42c3.19-1.16,5.73-3.49,7.17-6.57c1.43-3.07,1.58-6.52,0.42-9.71
	c-1.16-3.19-3.49-5.74-6.57-7.16C90.61,65.33,88.79,64.93,86.96,64.93 M39.07,85.03c-14.18,0-27.64-9.03-32.89-23.45
	C-0.47,43.3,8.56,23.16,26.34,16.69c8.63-3.14,17.98-2.63,26.36,1.43c8.36,4.05,14.72,11.15,17.95,19.99
	c3.22,8.84,2.9,18.39-0.89,26.86c-3.8,8.49-10.65,14.9-19.27,18.04C46.72,84.38,42.87,85.03,39.07,85.03 M27.81,20.72
	C12.25,26.37,4.36,44.05,10.2,60.11c5.85,16.06,23.25,24.51,38.81,18.87c7.52-2.73,13.49-8.33,16.82-15.76
	c3.33-7.45,3.6-15.84,0.77-23.64c-2.83-7.79-8.44-14.04-15.78-17.61C43.5,18.42,35.33,17.98,27.81,20.72 M39.59,61.44
	c-1.76,0-3.5-0.38-5.13-1.14c-2.94-1.37-5.17-3.82-6.29-6.87c-1.11-3.05-0.97-6.34,0.41-9.3c1.37-2.94,3.81-5.18,6.86-6.28
	c6.3-2.3,13.29,0.96,15.59,7.27c2.29,6.3-0.97,13.29-7.27,15.59C42.39,61.2,40.99,61.44,39.59,61.44 M39.58,41.4
	c-0.89,0-1.8,0.15-2.68,0.47H36.9c-1.97,0.73-3.56,2.17-4.44,4.07c-0.89,1.9-0.98,4.05-0.26,6.02c0.72,1.98,2.17,3.56,4.07,4.45
	c1.9,0.89,4.04,0.98,6.02,0.26c4.08-1.49,6.2-6.02,4.71-10.1C45.83,43.39,42.79,41.4,39.58,41.4 M90.96,56.35
	c-1.74,0-3.5-0.38-5.13-1.14c-2.94-1.37-5.18-3.81-6.29-6.86c-1.11-3.05-0.96-6.35,0.41-9.3c1.37-2.94,3.81-5.18,6.87-6.29
	c6.29-2.3,13.29,0.97,15.58,7.27c2.29,6.31-0.97,13.3-7.27,15.59C93.76,56.11,92.36,56.35,90.96,56.35 M90.96,36.31
	c-0.89,0-1.8,0.15-2.68,0.47h-0.01c-1.98,0.72-3.55,2.16-4.44,4.07c-0.89,1.9-0.98,4.04-0.26,6.02c0.72,1.97,2.16,3.56,4.07,4.44
	c1.91,0.89,4.06,0.98,6.02,0.26c4.09-1.48,6.2-6.01,4.71-10.1C97.2,38.29,94.18,36.31,90.96,36.31"/>
</svg>
